<!-- Generated by IcoMoon.io -->
<svg version="1.1" xmlns="http://www.w3.org/2000/svg" width="32" height="32" viewBox="0 0 32 32">
<title>arrow-right</title>
<path d="M5.333 16c0-0.736 0.597-1.333 1.333-1.333h18.667c0.736 0 1.333 0.597 1.333 1.333s-0.597 1.333-1.333 1.333h-18.667c-0.736 0-1.333-0.597-1.333-1.333z"></path>
<path d="M26.276 15.057c0.521 0.521 0.521 1.365 0 1.886l-5.333 5.333c-0.521 0.521-1.365 0.521-1.886 0s-0.521-1.365 0-1.886l5.333-5.333c0.521-0.521 1.365-0.521 1.886 0z"></path>
<path d="M19.057 9.724c0.521-0.521 1.365-0.521 1.886 0l5.333 5.333c0.521 0.521 0.521 1.365 0 1.886s-1.365 0.521-1.886 0l-5.333-5.333c-0.521-0.521-0.521-1.365 0-1.886z"></path>
</svg>
