<!-- Generated by IcoMoon.io -->
<svg version="1.1" xmlns="http://www.w3.org/2000/svg" width="32" height="32" viewBox="0 0 32 32">
<title>email</title>
<path d="M2.667 8c0-1.473 1.194-2.667 2.667-2.667h21.333c1.473 0 2.667 1.194 2.667 2.667v16c0 1.473-1.194 2.667-2.667 2.667h-21.333c-1.473 0-2.667-1.194-2.667-2.667v-16zM26.667 8h-21.333v16h21.333v-16z"></path>
<path d="M4.361 6.421c0.504-0.537 1.347-0.564 1.885-0.061l9.755 9.145 9.755-9.145c0.537-0.504 1.381-0.476 1.885 0.061s0.477 1.381-0.061 1.885l-10.667 10c-0.513 0.481-1.311 0.481-1.824 0l-10.667-10c-0.537-0.504-0.564-1.347-0.061-1.885z"></path>
</svg>
