<!-- Generated by IcoMoon.io -->
<svg version="1.1" xmlns="http://www.w3.org/2000/svg" width="32" height="32" viewBox="0 0 32 32">
<title>phone</title>
<path d="M7.473 14.502c3.918 6.225 10.716 12.517 19.105 13.492 0.476 0.055 1.062-0.335 1.12-1.109l0.298-3.977c0.051-0.681-0.385-1.263-0.972-1.413zM27.024 21.494l-4.646-1.191c0 0 0 0 0 0-0.32-0.082-0.66-0.031-0.947 0.146l-2.337 1.438c-0.448 0.276-1.017 0.262-1.451-0.035-3.328-2.276-6.397-6.088-7.525-7.706-0.31-0.445-0.319-1.034-0.024-1.489l1.838-2.828c0.245-0.377 0.293-0.862 0.121-1.286l-1.435-3.549c-0.2-0.495-0.651-0.801-1.133-0.819l-4.824-0.175c-0.192 0.003-0.279 0.046-0.315 0.069s-0.1 0.076-0.167 0.221c-0.156 0.334-0.255 0.999-0.105 2.063 0.293 2.087 1.444 5.043 3.399 8.149zM2.917 1.817c0.532-0.337 1.138-0.484 1.764-0.484 0.016 0 0.032 0 0.048 0.001l4.852 0.176c0 0 0 0 0 0 1.562 0.057 2.925 1.041 3.509 2.484l1.435 3.549c0 0 0 0 0 0 0.496 1.228 0.364 2.628-0.358 3.739 0 0 0 0 0 0l-1.337 2.058c1.184 1.561 3.335 4.062 5.624 5.809l1.579-0.971c0.9-0.554 1.983-0.721 3.007-0.458l4.646 1.191c1.884 0.483 3.113 2.272 2.969 4.196l-0.298 3.978c-0.151 2.017-1.851 3.818-4.087 3.558-9.511-1.106-16.913-8.14-21.054-14.721-2.075-3.297-3.42-6.613-3.783-9.199-0.178-1.271-0.145-2.543 0.329-3.56 0.247-0.531 0.624-1.008 1.156-1.346z"></path>
</svg>
