<!-- Generated by IcoMoon.io -->
<svg version="1.1" xmlns="http://www.w3.org/2000/svg" width="32" height="32" viewBox="0 0 32 32">
<title>search</title>
<path d="M14.333 4c-5.707 0-10.333 4.626-10.333 10.333s4.626 10.333 10.333 10.333c5.707 0 10.333-4.626 10.333-10.333s-4.626-10.333-10.333-10.333zM1.333 14.333c0-7.18 5.82-13 13-13s13 5.82 13 13c0 3.11-1.092 5.964-2.913 8.201l5.856 5.856c0.521 0.521 0.521 1.365 0 1.886s-1.365 0.521-1.886 0l-5.856-5.856c-2.237 1.821-5.092 2.913-8.201 2.913-7.18 0-13-5.82-13-13z"></path>
</svg>
