<!-- Generated by IcoMoon.io -->
<svg version="1.1" xmlns="http://www.w3.org/2000/svg" width="32" height="32" viewBox="0 0 32 32">
<title>zoom</title>
<path d="M31.562 27.669l-6.231-6.231c-0.281-0.281-0.662-0.438-1.062-0.438h-1.019c1.725-2.206 2.75-4.981 2.75-8 0-7.181-5.819-13-13-13s-13 5.819-13 13c0 7.181 5.819 13 13 13 3.019 0 5.794-1.025 8-2.75v1.019c0 0.4 0.156 0.781 0.438 1.062l6.231 6.231c0.587 0.588 1.537 0.588 2.119 0l1.769-1.769c0.587-0.587 0.587-1.537 0.006-2.125zM13 21c-4.419 0-8-3.575-8-8 0-4.419 3.575-8 8-8 4.419 0 8 3.575 8 8 0 4.419-3.575 8-8 8z"></path>
</svg>
