<svg width="210" height="155" viewBox="0 0 210 155" fill="none" xmlns="http://www.w3.org/2000/svg">
<path d="M124.73 148.451L124.793 148.534L124.872 148.603L124.891 148.62C125.19 148.883 125.733 149.361 126.665 149.326C127.597 149.291 128.082 148.775 128.349 148.491L128.366 148.472L128.461 148.372L128.523 148.25L202.193 4.76379C202.462 4.40539 202.534 3.97936 202.513 3.61709C202.489 3.20598 202.346 2.79975 202.134 2.43925C201.822 1.90668 201.355 1.64246 200.898 1.5354C200.528 1.44855 200.144 1.46354 199.909 1.47272L199.87 1.47424L199.778 1.47767L199.69 1.49756L3.11498 45.5222C2.58625 45.5732 2.14127 45.8458 1.83979 46.1661C1.56566 46.4573 1.33089 46.8733 1.29103 47.3585C1.14401 47.8246 1.18795 48.3111 1.40699 48.74C1.64799 49.2119 2.06157 49.543 2.50535 49.7351L2.53193 49.7466L2.55909 49.7566C2.73984 49.823 3.51664 50.1827 4.8751 50.8217C5.21113 50.9798 5.57884 51.153 5.97617 51.3402C7.14183 51.8894 8.56248 52.5587 10.1865 53.3174C14.5429 55.3525 20.3722 58.0351 26.728 60.7944C39.3071 66.2555 54.0795 72.0764 63.5563 73.71C63.6902 73.7788 63.8355 73.8265 63.9902 73.8485C64.251 73.8855 64.468 73.8388 64.599 73.8018C64.6655 73.783 64.7238 73.7624 64.7623 73.7485C64.7932 73.7374 64.8084 73.7317 64.8213 73.727C64.8224 73.7266 64.8235 73.7262 64.8246 73.7258L64.9629 73.7206L65.1485 73.6309C102.131 55.7555 139.515 37.2295 176.324 18.4758C158.027 32.1015 136.805 47.8152 119.122 60.8835C108.686 68.5953 99.4835 75.3856 92.8422 80.2816C89.5215 82.7295 86.8413 84.7038 84.9676 86.0829C84.0307 86.7725 83.2956 87.3131 82.7829 87.6896C82.5265 87.8779 82.3261 88.025 82.1839 88.1291L82.0156 88.2521L81.9663 88.288L81.9515 88.2986L81.9472 88.3017L81.9458 88.3027L81.8663 88.3589L81.7996 88.4298C80.9385 89.3444 81.0485 90.609 81.5147 91.4025L81.5452 91.4544L81.5817 91.5025L124.73 148.451ZM193.909 11.1039L126.226 142.902L86.658 90.7556C91.367 87.2152 104.955 77.1461 121.819 64.6491C144.463 47.8685 173.015 26.7104 193.909 11.1039ZM183.627 9.6067C144.018 29.7574 103.968 49.6866 64.1227 69.1577C56.5152 67.753 45.1172 63.5153 34.2774 58.9906C24.9887 55.1133 16.1834 51.0571 10.659 48.4746L183.627 9.6067Z" fill="#3943ED" stroke="#3943ED" stroke-width="2"/>
<path d="M64.4318 116.603L64.6441 116.696L64.8737 116.687L64.8752 116.687L64.8767 116.687L64.8782 116.687L64.8797 116.687L64.8812 116.687L64.8827 116.686L64.8842 116.686L64.8857 116.686L64.8872 116.686L64.8886 116.686L64.8901 116.686L64.8916 116.686L64.893 116.686L64.8945 116.686L64.8959 116.686L64.8973 116.686L64.8988 116.686L64.9002 116.686L64.9016 116.686L64.903 116.686L64.9044 116.686L64.9058 116.686L64.9072 116.686L64.9086 116.686L64.91 116.685L64.9114 116.685L64.9128 116.685L64.9142 116.685L64.9155 116.685L64.9169 116.685L64.9182 116.685L64.9196 116.685L64.9209 116.685L64.9223 116.685L64.9236 116.685L64.9249 116.685L64.9263 116.685L64.9276 116.685L64.9289 116.685L64.9302 116.685L64.9315 116.685L64.9328 116.685L64.9341 116.685L64.9354 116.685L64.9367 116.684L64.938 116.684L64.9392 116.684L64.9405 116.684L64.9418 116.684L64.943 116.684L64.9443 116.684L64.9455 116.684L64.9468 116.684L64.948 116.684L64.9492 116.684L64.9505 116.684L64.9517 116.684L64.9529 116.684L64.9541 116.684L64.9554 116.684L64.9566 116.684L64.9578 116.684L64.959 116.684L64.9602 116.684L64.9614 116.684L64.9625 116.683L64.9637 116.683L64.9649 116.683L64.9661 116.683L64.9672 116.683L64.9684 116.683L64.9696 116.683L64.9707 116.683L64.9719 116.683L64.973 116.683L64.9742 116.683L64.9753 116.683L64.9764 116.683L64.9776 116.683L64.9787 116.683L64.9798 116.683L64.9809 116.683L64.982 116.683L64.9831 116.683L64.9843 116.683L64.9854 116.683L64.9865 116.683L64.9875 116.683L64.9886 116.682L64.9897 116.682L64.9908 116.682L64.9919 116.682L64.993 116.682L64.994 116.682L64.9951 116.682L64.9962 116.682L64.9972 116.682L64.9983 116.682L64.9993 116.682L65.0004 116.682L65.0014 116.682L65.0025 116.682L65.0035 116.682L65.0045 116.682L65.0056 116.682L65.0066 116.682L65.0076 116.682L65.0086 116.682L65.0097 116.682L65.0107 116.682L65.0117 116.682L65.0127 116.682L65.0137 116.682L65.0147 116.682L65.0157 116.681L65.0167 116.681L65.0177 116.681L65.0186 116.681L65.0196 116.681L65.0206 116.681L65.0216 116.681L65.0226 116.681L65.0235 116.681L65.0245 116.681L65.0255 116.681L65.0264 116.681L65.0274 116.681L65.0283 116.681L65.0293 116.681L65.0302 116.681L65.0312 116.681L65.0321 116.681L65.0331 116.681L65.034 116.681L65.0349 116.681L65.0359 116.681L65.0368 116.681L65.0377 116.681L65.0387 116.681L65.0396 116.681L65.0405 116.681L65.0414 116.68L65.0423 116.68L65.0432 116.68L65.0441 116.68L65.0451 116.68L65.046 116.68L65.0469 116.68L65.0478 116.68L65.0487 116.68L65.0495 116.68L65.0504 116.68L65.0513 116.68L65.0522 116.68L65.0531 116.68L65.054 116.68L65.0548 116.68L65.0557 116.68L65.0566 116.68L65.0575 116.68L65.0583 116.68L65.0592 116.68L65.0601 116.68L65.0609 116.68L65.0618 116.68L65.0627 116.68L65.0635 116.68L65.0644 116.68L65.0652 116.68L65.0661 116.68L65.0669 116.68L65.0678 116.68L65.0686 116.679L65.0695 116.679L65.0703 116.679L65.0711 116.679L65.072 116.679L65.0728 116.679L65.0736 116.679L65.0745 116.679L65.0753 116.679L65.0761 116.679L65.0769 116.679L65.0778 116.679L65.0786 116.679L65.0794 116.679L65.0802 116.679L65.0811 116.679L65.0819 116.679L65.0827 116.679L65.0835 116.679L65.0843 116.679L65.0851 116.679L65.0859 116.679L65.0867 116.679L65.0875 116.679L65.0883 116.679L65.0892 116.679L65.09 116.679L65.0908 116.679L65.0916 116.679L65.0924 116.679L65.0931 116.679L65.0939 116.679L65.0947 116.678L65.0955 116.678L65.0963 116.678L65.0971 116.678L65.0979 116.678L65.0987 116.678L65.0995 116.678L65.1003 116.678L65.101 116.678L65.1018 116.678L65.1026 116.678L65.1034 116.678L65.1042 116.678L65.105 116.678L65.1057 116.678L65.1065 116.678L65.1073 116.678L65.1081 116.678L65.1089 116.678L65.1096 116.678L65.1104 116.678L65.1112 116.678L65.1119 116.678L65.1127 116.678L65.1135 116.678L65.1143 116.678L65.115 116.678L65.1158 116.678L65.1166 116.678L65.1173 116.678L65.1181 116.678L65.1189 116.678L65.1196 116.678L65.1204 116.678L65.1212 116.677L65.1219 116.677L65.1227 116.677L65.1235 116.677L65.1242 116.677L65.125 116.677L65.1258 116.677L65.1265 116.677L65.1273 116.677L65.1281 116.677L65.1288 116.677L65.1296 116.677L65.1304 116.677L65.1311 116.677L65.1319 116.677L65.1326 116.677L65.1334 116.677L65.1342 116.677L65.1349 116.677L65.1357 116.677L65.1365 116.677L65.1372 116.677L65.138 116.677L65.1388 116.677L65.1395 116.677L65.1403 116.677L65.141 116.677L65.1418 116.677L65.1426 116.677L65.1433 116.677L65.1441 116.677L65.1449 116.677L65.1456 116.677L65.1464 116.677L65.1472 116.677L65.1479 116.676L65.1487 116.676L65.1495 116.676L65.1502 116.676L65.151 116.676L65.1518 116.676L65.1525 116.676L65.1533 116.676L65.1541 116.676L65.1549 116.676L65.1556 116.676L65.1564 116.676L65.1572 116.676L65.158 116.676L65.1587 116.676L65.1595 116.676L65.1603 116.676L65.1611 116.676L65.1618 116.676L65.1626 116.676L65.1634 116.676L65.1642 116.676L65.165 116.676L65.1657 116.676L65.1665 116.676L65.1673 116.676L65.1681 116.676L65.1689 116.676L65.1697 116.676L65.1705 116.676L65.1712 116.676L65.172 116.676L65.1728 116.676L65.1736 116.676L65.1744 116.675L65.1752 116.675L65.176 116.675L65.1768 116.675L65.1776 116.675L65.1784 116.675L65.1792 116.675L65.18 116.675L65.1808 116.675L65.1816 116.675L65.1824 116.675L65.1832 116.675L65.184 116.675L65.1849 116.675L65.1857 116.675L65.1865 116.675L65.1873 116.675L65.1881 116.675L65.1889 116.675L65.1898 116.675L65.1906 116.675L65.1914 116.675L65.1922 116.675L65.1931 116.675L65.1939 116.675L65.1947 116.675L65.1956 116.675L65.1964 116.675L65.1972 116.675L65.1981 116.675L65.1989 116.675L65.1997 116.675L65.2006 116.674L65.2014 116.674L65.2023 116.674L65.2031 116.674L65.204 116.674L65.2048 116.674L65.2057 116.674L65.2066 116.674L65.2074 116.674L65.2083 116.674L65.2091 116.674L65.21 116.674L65.2109 116.674L65.2118 116.674L65.2126 116.674L65.2135 116.674L65.2144 116.674L65.2153 116.674L65.2161 116.674L65.217 116.674L65.2179 116.674L65.2188 116.674L65.2197 116.674L65.2206 116.674L65.2215 116.674L65.2224 116.674L65.2233 116.674L65.2242 116.674L65.2251 116.674L65.226 116.674L65.2269 116.673L65.2279 116.673L65.2288 116.673L65.2297 116.673L65.2306 116.673L65.2315 116.673L65.2325 116.673L65.2334 116.673L65.2343 116.673L65.2353 116.673L65.2362 116.673L65.2372 116.673L65.2381 116.673L65.2391 116.673L65.24 116.673L65.241 116.673L65.2419 116.673L65.2429 116.673L65.2439 116.673L65.2448 116.673L65.2458 116.673L65.2468 116.673L65.2477 116.673L65.2487 116.673L65.2497 116.673L65.2507 116.673L65.2517 116.673L65.2527 116.673L65.2537 116.672L65.2547 116.672L65.2557 116.672L65.2567 116.672L65.2577 116.672L65.2587 116.672L65.2597 116.672L65.2607 116.672L65.2618 116.672L65.2628 116.672L65.2638 116.672L65.2649 116.672L65.2659 116.672L65.2669 116.672L65.268 116.672L65.269 116.672L65.2701 116.672L65.2711 116.672L65.2722 116.672L65.2733 116.672L65.2743 116.672L65.2754 116.672L65.2765 116.672L65.2775 116.672L65.2786 116.672L65.2797 116.671L65.2808 116.671L65.2819 116.671L65.283 116.671L65.2841 116.671L65.2852 116.671L65.2863 116.671L65.2874 116.671L65.2885 116.671L65.2897 116.671L65.2908 116.671L65.2919 116.671L65.2931 116.671L65.2942 116.671L65.2953 116.671L65.2965 116.671L65.2976 116.671L65.2988 116.671L65.3 116.671L65.3011 116.671L65.3023 116.671L65.3035 116.671L65.3046 116.671L65.3058 116.671L65.307 116.67L65.3082 116.67L65.3094 116.67L65.3106 116.67L65.3118 116.67L65.313 116.67L65.3142 116.67L65.3154 116.67L65.3166 116.67L65.3179 116.67L65.3191 116.67L65.3203 116.67L65.3216 116.67L65.3228 116.67L65.3241 116.67L65.3253 116.67L65.3266 116.67L65.3279 116.67L65.3291 116.67L65.3304 116.67L65.3317 116.67L65.333 116.669L65.3343 116.669L65.3355 116.669L65.3368 116.669L65.3381 116.669L65.3395 116.669L65.3408 116.669L65.3421 116.669L65.3434 116.669L65.3447 116.669L65.3461 116.669L65.3474 116.669L65.3488 116.669L65.3501 116.669L65.3515 116.669L65.3528 116.669L65.3542 116.669L65.3556 116.669L65.3569 116.669L65.3583 116.669L65.3597 116.668L65.3611 116.668L65.3625 116.668L65.3639 116.668L65.3653 116.668L65.3667 116.668L65.3682 116.668L65.3696 116.668L65.371 116.668L65.3724 116.668L65.3739 116.668L65.3753 116.668L65.3768 116.668L65.3782 116.668L65.3797 116.668L65.3812 116.668L65.3827 116.668L65.3841 116.668L65.3856 116.667L65.3871 116.667L65.3886 116.667L65.3901 116.667L65.3916 116.667L65.3932 116.667L65.3947 116.667C65.8345 116.651 66.2506 116.522 66.603 116.222C66.891 115.976 67.0746 115.667 67.2069 115.389L84.2779 91.5826C84.745 91.0468 84.8206 90.3886 84.6679 89.8148C84.5206 89.2611 84.1699 88.7876 83.7834 88.4466C83.2176 87.9476 82.5354 87.8628 81.9558 87.9986C81.406 88.1274 80.9299 88.4506 80.583 88.8206L80.538 88.8685L80.4999 88.9221L67.1634 107.682L64.9626 73.6833C64.9626 73.682 64.9625 73.6806 64.9624 73.6793C64.9261 73.0659 64.6758 72.49 64.2069 72.0765C63.7399 71.6645 63.1394 71.4865 62.5305 71.5095C61.9217 71.5325 61.3443 71.755 60.9267 72.2004C60.5065 72.6485 60.3236 73.2423 60.3591 73.8572L60.359 73.8572L60.3594 73.8636L62.9626 114.493C62.9626 114.495 62.9627 114.496 62.9628 114.497C63.0126 115.339 63.5047 116.2 64.4318 116.603Z" fill="#3943ED" stroke="#3943ED" stroke-width="2"/>
<path d="M65.2671 112.215L65.1457 112.286L65.0495 112.388C64.6941 112.766 64.4291 113.238 64.3056 113.732C64.1847 114.217 64.1786 114.825 64.5008 115.374C64.672 115.666 64.9049 116.004 65.2579 116.252C65.6454 116.525 66.0764 116.622 66.5185 116.605C66.527 116.605 66.5358 116.604 66.5449 116.604C66.8107 116.595 67.3594 116.575 67.8562 116.128L92.0294 102.006L92.1509 101.935L92.2471 101.833C92.6025 101.455 92.8675 100.983 92.9909 100.489C93.1119 100.005 93.118 99.396 92.7958 98.8471L92.7121 98.7046L92.5877 98.5952C92.19 98.2456 91.7029 97.9872 91.2035 97.8633C90.7152 97.7422 90.1126 97.7275 89.5728 98.0166L89.5569 98.0251L89.5413 98.0342L65.2671 112.215Z" fill="#3943ED" stroke="#3943ED" stroke-width="2"/>
<g opacity="0.1294">
<path opacity="0.1294" d="M87.9898 95.8852L87.9674 95.8358L87.9399 95.789C87.8207 95.5864 87.6914 95.3186 87.5369 94.9965L87.5261 94.9741C87.4252 94.7639 87.3124 94.5286 87.195 94.3075C87.1385 92.7597 85.9663 91.5683 84.6954 91.1189C83.993 90.8705 83.1912 90.8157 82.4215 91.0702C81.641 91.3282 80.964 91.8815 80.4921 92.7221C78.1302 96.7705 76.2018 99.3318 75.2144 100.638C74.2241 101.674 71.8098 103.959 70.3253 105.263C69.5553 105.807 68.8001 106.427 68.3043 107.243C67.771 108.12 67.5862 109.138 67.8125 110.359L67.8272 110.438L67.8542 110.513C68.2862 111.725 69.3129 112.586 70.4211 112.982C71.4717 113.357 72.7299 113.359 73.7798 112.714C73.8854 112.681 73.9841 112.634 74.075 112.576C74.1184 112.549 74.1582 112.52 74.1935 112.491L74.2353 112.49L74.4728 112.323C76.4629 110.923 78.6518 109.757 80.9014 108.559C82.0523 107.946 83.2192 107.324 84.3834 106.659C84.644 106.52 85.1593 106.245 85.6447 105.97C85.8906 105.83 86.138 105.686 86.3446 105.556C86.4444 105.493 86.5743 105.409 86.6973 105.316C87.3362 105.089 87.9131 104.679 88.3639 104.204C88.8634 103.678 89.2772 103.001 89.4276 102.267L89.4311 102.25L89.434 102.233C89.7506 100.351 89.6541 99.1986 89.2519 98.2119C89.0695 97.7644 88.8349 97.3813 88.6295 97.046L88.6088 97.0122C88.392 96.658 88.1863 96.3193 87.9898 95.8852ZM74.3793 112.316C74.3792 112.316 74.3775 112.318 74.3743 112.321C74.3777 112.317 74.3793 112.316 74.3793 112.316Z" fill="#3943ED" stroke="#3943ED" stroke-width="2"/>
</g>
</svg>
