<svg width="325" height="191" viewBox="0 0 325 191" fill="none" xmlns="http://www.w3.org/2000/svg">
<path d="M292.398 190.859C289.656 190.859 287.462 188.665 287.462 185.923L288.559 52.6509C288.559 49.9086 290.753 47.7148 293.495 47.7148C296.237 47.7148 298.431 49.9086 298.431 52.6509L297.334 186.472C297.334 189.214 295.14 190.859 292.398 190.859Z" fill="#3943ED"/>
<path d="M266.069 91.5904C264.972 91.5904 263.875 91.042 262.778 90.4935C260.585 88.8482 260.585 85.5575 262.23 83.9122C273.199 71.2979 282.522 57.5868 290.749 43.3272C291.846 41.6819 293.491 41.1334 295.137 41.1334C296.782 41.1334 298.427 42.2303 299.524 43.8757L300.621 45.521C308.299 60.8775 313.784 70.7495 323.656 83.9122C325.301 86.106 324.753 88.8482 322.559 90.4935C320.365 92.1389 317.623 91.5904 315.978 89.3966C306.654 77.3308 301.17 67.4588 295.137 55.393C287.458 67.4588 279.232 79.5246 269.908 89.9451C268.811 91.042 267.166 91.5904 266.069 91.5904Z" fill="#3943ED"/>
<path d="M170.646 150.274C167.904 150.274 165.71 148.08 165.71 145.338L166.807 12.0656C166.807 9.32342 169.001 7.12964 171.743 7.12964C174.485 7.12964 176.679 9.32342 176.679 12.0656L175.582 145.338C175.034 148.08 172.84 150.274 170.646 150.274Z" fill="#3943ED"/>
<path d="M143.771 51.0054C142.675 51.0054 141.578 50.457 140.481 49.9085C138.287 48.2632 138.287 44.9725 139.932 43.3272C150.901 30.7129 160.225 17.0018 168.451 2.74223C169.548 1.09689 171.194 0 172.839 0C174.484 0 176.13 1.09689 177.227 2.74223L178.324 4.38756C186.002 19.744 191.486 29.6161 201.358 42.7787C203.004 44.9725 202.455 47.7148 200.261 49.3601C198.068 51.0054 195.325 50.457 193.68 48.2632C184.356 36.1974 178.872 26.3254 172.839 14.2596C165.161 26.8738 156.386 38.3912 147.611 49.3601C146.514 50.457 144.868 51.0054 143.771 51.0054Z" fill="#3943ED"/>
<path d="M31.341 167.824C28.5988 167.824 26.405 165.631 26.405 162.888L27.5019 29.6161C27.5019 26.8738 29.6957 24.6801 32.4379 24.6801C35.1802 24.6801 37.3739 26.8738 37.3739 29.6161L36.277 163.437C36.277 165.631 34.0832 167.824 31.341 167.824Z" fill="#3943ED"/>
<path d="M5.01193 68.5556C3.91504 68.5556 2.81816 68.0072 1.72127 67.4587C-0.472512 65.8134 -0.472525 62.5227 1.17281 60.8774C12.1417 48.2631 21.4653 34.552 29.692 20.2924C30.7889 18.6471 32.4342 18.0986 34.0795 18.0986C35.7249 18.0986 37.3702 19.1955 38.4671 20.8409L39.0156 21.9378C46.6938 37.2942 52.1782 47.1662 62.0502 60.3289C63.6956 62.5227 63.1472 65.2649 60.9534 66.9103C58.7596 68.5556 56.0174 68.0072 54.372 65.8134C45.0485 53.7476 39.564 43.8756 33.5311 31.8098C25.8529 43.8756 17.6262 55.9414 8.30262 66.3618C7.75417 68.0072 6.10882 68.5556 5.01193 68.5556Z" fill="#3943ED"/>
</svg>
