<svg width="89" height="78" viewBox="0 0 89 78" fill="none" xmlns="http://www.w3.org/2000/svg">
<g clip-path="url(#clip0_109_450)">
<path d="M34.9387 72.6793C29.0972 72.6793 23.2557 70.3207 19.1777 66.1519C19.0124 65.9873 19.0124 65.7131 19.1777 65.5485C19.343 65.384 19.6186 65.384 19.7839 65.5485C24.3579 70.211 31.1913 72.5148 37.6941 71.6371C37.9145 71.5823 38.135 71.7468 38.1901 72.0211C38.2452 72.2405 38.0799 72.4599 37.8043 72.5148C36.8124 72.6245 35.8755 72.6793 34.9387 72.6793Z" fill="black"/>
<path d="M34.0019 74.8186C33.8365 74.8186 33.6712 74.7089 33.6161 74.5443C33.561 74.3249 33.6712 74.1055 33.8916 73.9958C35.0489 73.557 36.1511 72.9536 37.143 72.2405C36.0409 71.6371 34.9938 70.8692 34.0019 70.1013C33.8365 69.9367 33.7814 69.7173 33.9467 69.4979C34.1121 69.3333 34.3325 69.2785 34.5529 69.443C35.6551 70.3207 36.8675 71.1435 38.135 71.8017C38.2452 71.8566 38.3554 71.9663 38.3554 72.1308C38.3554 72.2954 38.3003 72.4051 38.1901 72.5148C36.9777 73.5021 35.6551 74.2701 34.1672 74.8186C34.1121 74.8186 34.057 74.8186 34.0019 74.8186Z" fill="black"/>
<path d="M79.5214 24.7384C79.2458 24.7384 79.0805 24.519 79.0805 24.2996C79.5765 18.4852 76.7659 12.5612 71.9715 9.27003C71.8062 9.16033 71.7511 8.88607 71.8613 8.66666C71.9715 8.5021 72.2471 8.44725 72.4675 8.55695C77.5375 12.0675 80.4582 18.2658 79.9622 24.3544C79.9622 24.5738 79.7418 24.7384 79.5214 24.7384Z" fill="black"/>
<path d="M73.5145 13.384C73.3492 13.384 73.1839 13.2743 73.1288 13.0549C72.743 11.6287 72.2471 10.2025 71.6409 8.88608C71.5858 8.72153 71.5858 8.55697 71.696 8.44726C71.8062 8.33756 71.9715 8.28271 72.1368 8.33756L76.4904 9.54431C76.7108 9.59916 76.821 9.81857 76.7659 10.038C76.7108 10.2574 76.4904 10.3671 76.27 10.3122L72.743 9.3249C73.1839 10.4768 73.5697 11.6287 73.9554 12.8354C74.0105 13.0549 73.9003 13.2743 73.6799 13.3291C73.6248 13.384 73.5697 13.384 73.5145 13.384Z" fill="black"/>
<path d="M85.6935 23.9704C85.4179 23.9704 85.2526 23.751 85.2526 23.5316C85.6384 19.8565 85.0322 16.1266 83.434 12.7257C83.3238 12.5063 83.4341 12.2869 83.6545 12.1772C83.8749 12.0675 84.0953 12.1772 84.2056 12.3966C85.8588 15.9072 86.465 19.8017 86.0792 23.5865C86.0792 23.8059 85.9139 23.9704 85.6935 23.9704Z" fill="black"/>
<path d="M27.2235 78H27.1684C22.9251 77.1772 18.9022 74.9831 15.8712 71.9114C15.7059 71.7468 15.7059 71.4725 15.8712 71.308C16.0365 71.1434 16.3121 71.1434 16.4774 71.308C19.3982 74.27 23.2557 76.3544 27.3338 77.1772C27.5542 77.232 27.7195 77.4514 27.6644 77.6709C27.6093 77.8354 27.444 78 27.2235 78Z" fill="black"/>
<path d="M34.9387 72.6793C29.0972 72.6793 23.2557 70.3207 19.1777 66.1519C19.0124 65.9873 19.0124 65.7131 19.1777 65.5485C19.343 65.384 19.6186 65.384 19.7839 65.5485C24.3579 70.211 31.1913 72.5148 37.6941 71.6371C37.9145 71.5823 38.135 71.7468 38.1901 72.0211C38.2452 72.2405 38.0799 72.4599 37.8043 72.5148C36.8124 72.6245 35.8755 72.6793 34.9387 72.6793Z" fill="black"/>
<path d="M34.0019 74.8186C33.8365 74.8186 33.6712 74.7089 33.6161 74.5443C33.561 74.3249 33.6712 74.1055 33.8916 73.9958C35.0489 73.557 36.1511 72.9536 37.143 72.2405C36.0409 71.6371 34.9938 70.8692 34.0019 70.1013C33.8365 69.9367 33.7814 69.7173 33.9467 69.4979C34.1121 69.3333 34.3325 69.2785 34.5529 69.443C35.6551 70.3207 36.8675 71.1435 38.135 71.8017C38.2452 71.8566 38.3554 71.9663 38.3554 72.1308C38.3554 72.2954 38.3003 72.4051 38.1901 72.5148C36.9777 73.5021 35.6551 74.2701 34.1672 74.8186C34.1121 74.8186 34.057 74.8186 34.0019 74.8186Z" fill="black"/>
<path d="M79.5214 24.7384C79.2458 24.7384 79.0805 24.519 79.0805 24.2996C79.5765 18.4852 76.7659 12.5612 71.9715 9.27003C71.8062 9.16033 71.7511 8.88607 71.8613 8.66666C71.9715 8.5021 72.2471 8.44725 72.4675 8.55695C77.5375 12.0675 80.4582 18.2658 79.9622 24.3544C79.9622 24.5738 79.7418 24.7384 79.5214 24.7384Z" fill="black"/>
<path d="M73.5145 13.384C73.3492 13.384 73.1839 13.2743 73.1288 13.0549C72.743 11.6287 72.2471 10.2025 71.6409 8.88608C71.5858 8.72153 71.5858 8.55697 71.696 8.44726C71.8062 8.33756 71.9715 8.28271 72.1368 8.33756L76.4904 9.54431C76.7108 9.59916 76.821 9.81857 76.7659 10.038C76.7108 10.2574 76.4904 10.3671 76.27 10.3122L72.743 9.3249C73.1839 10.4768 73.5697 11.6287 73.9554 12.8354C74.0105 13.0549 73.9003 13.2743 73.6799 13.3291C73.6248 13.384 73.5697 13.384 73.5145 13.384Z" fill="black"/>
<path d="M19.1777 27.097C16.6978 27.9198 14.4384 29.6751 13.2811 32.0337C12.0687 34.3924 12.0136 37.2995 13.2811 39.6033C15.0997 42.9493 19.6737 44.4852 23.2557 43.1139C27.1684 41.6329 29.5381 36.9704 28.3808 32.9114C27.2235 28.962 22.5944 25.9451 19.1777 27.097ZM23.917 37.6287C23.5864 38.4514 22.7597 39.2194 21.9882 39.6033C20.1697 40.481 18.0755 39.713 17.0285 38.0675C15.9263 36.3671 16.0916 34.0633 17.2489 32.4177C17.8 31.5949 18.5164 30.9367 19.5635 30.7721C20.5003 30.6076 21.4371 30.7721 22.1536 31.3755C22.6495 31.4852 23.0904 31.6498 23.4762 31.9789C24.1926 32.5822 24.5232 33.789 24.5783 34.6666C24.5232 35.5991 24.3028 36.6962 23.917 37.6287Z" fill="white"/>
<path d="M38.0247 34.6118C36.9777 34.2827 35.9857 33.7341 35.2693 32.9113C34.3325 31.7594 34.0569 30.059 34.4978 28.6329C34.8836 27.1519 35.8204 25.8903 37.0328 24.9029C35.9857 23.2573 34.8836 21.7763 33.7263 20.2953C32.2935 21.3375 30.9709 22.3249 29.3727 22.3797C27.8848 22.4346 26.3969 21.6118 25.46 20.4599C24.5232 19.2531 24.0272 17.7721 23.8619 16.2911C23.8068 16.1265 23.7517 16.1265 23.6966 16.1265C22.0984 16.0168 20.5003 15.9071 18.9573 15.7974C18.6817 17.2784 18.0204 18.5949 16.9734 19.5274C15.9263 20.4599 14.5486 21.0632 13.1158 21.0084C12.5096 21.0084 11.9585 20.8987 11.4074 20.7341C10.4706 20.5147 9.47863 20.2953 8.81733 19.5822C7.54983 20.4599 6.44767 21.3375 5.3455 22.3249C5.89658 22.7088 6.11702 23.2025 6.33745 23.751C6.77832 24.8481 7.10897 26.0548 6.83343 27.2067C6.55788 28.4135 5.67615 29.3459 4.57398 29.9493C3.41671 30.4978 2.20432 30.7173 0.99194 30.7721C0.66129 32.5274 0.495965 34.3375 0.440857 36.2025C1.48792 36.5865 2.47987 36.8607 3.3616 37.4092C4.24333 37.9029 5.01485 38.6708 5.40061 39.6033C5.84148 40.6455 5.73126 41.9071 5.29039 42.9493C4.84952 43.9915 4.0229 44.8692 3.14117 45.5822C4.24333 47.3375 5.29039 48.9282 6.33745 50.5738C7.9907 49.4767 10.0848 49.1476 11.9034 49.751C12.3443 49.9156 12.7851 50.0801 13.1709 50.4092C13.6118 50.7932 13.9975 51.2869 14.2179 51.7805C14.8792 53.0422 15.0997 54.5232 14.8792 55.8945C16.808 56.2784 18.6817 56.4978 20.5554 56.6624C20.4452 54.7426 21.2718 52.7679 22.8148 51.7257C24.3579 50.6835 26.5622 50.5738 28.1052 51.616C28.8217 52.1097 29.4279 52.8227 29.9789 53.5358C31.6873 52.3291 33.3405 51.1223 34.8836 49.8059C34.0018 48.4346 33.1201 47.1181 33.065 45.5822C33.0099 43.9915 34.0018 42.4557 35.3244 41.6329C36.647 40.7552 38.3554 40.5358 39.8984 40.7004C40.4495 38.8354 40.8904 37.0253 41.2761 35.2151C40.174 35.0506 39.0718 34.9409 38.0247 34.6118ZM28.0501 38.7257C27.3888 40.1519 26.3418 41.3586 25.0743 42.2911C24.3579 42.8396 23.5313 43.2784 22.6495 43.5527C19.1226 44.7046 14.9344 42.6751 13.2811 39.3839C12.0687 36.9704 12.1238 33.9535 13.4464 31.5949C14.769 29.2362 17.1938 27.5358 19.8941 27.1519C22.3189 26.8227 25.3498 28.1392 27.1133 30.4978C28.8768 32.8565 29.2625 36.0379 28.0501 38.7257Z" fill="#3943ED"/>
<g opacity="0.1294">
<path opacity="0.1294" d="M30.2545 34.8312C30.1994 34.5569 30.1443 34.2827 30.0892 34.0084C30.0341 33.9536 30.0341 33.8987 29.9789 33.8439C29.483 32.8565 28.8768 31.924 28.2155 31.0464C28.1053 31.1012 27.995 31.2658 27.995 31.3755C27.9399 31.8692 28.2706 32.2531 28.3808 32.7468C28.8217 33.9536 29.0421 34.5569 28.9319 35.7088C28.9319 36.1477 28.2155 38.5063 27.995 38.8354C27.7195 39.3839 27.444 39.8776 27.0582 40.3164C26.948 40.4261 26.8929 40.481 26.948 40.481C26.7827 40.6455 26.6173 40.8101 26.452 40.9198C26.0662 41.2489 25.7356 41.5232 25.3498 41.8523C25.2396 41.9072 25.0743 42.0717 24.9641 42.1814C25.0192 42.0717 24.8539 42.2363 24.6885 42.4008C24.5783 42.4557 24.2477 42.7299 24.0272 42.7848C22.7046 43.2236 21.382 43.4979 20.6656 43.5527C19.7288 43.6624 18.7919 43.3882 18.0204 43.2236C17.5245 43.059 17.0285 42.5654 16.4774 42.6751C16.257 42.7299 16.0916 42.8945 16.0365 43.1139C16.0916 43.1688 16.1467 43.2236 16.2019 43.2785C16.3672 43.443 16.5876 43.6076 16.7529 43.7721C17.4693 44.2109 18.1306 44.6498 18.8471 45.1434C20.0043 45.4726 21.2167 45.5274 22.7046 45.2531C22.7046 45.2531 22.6495 45.2531 22.5944 45.2531C24.1375 44.924 24.6334 44.7046 25.7907 44.1561C26.7827 43.5527 27.6093 42.7299 28.2155 41.7426C28.2155 41.6877 28.2706 41.6877 28.2706 41.6329C28.987 40.7553 29.5381 39.7131 29.9238 38.616C30.3647 37.3544 30.3647 36.0928 30.2545 34.8312Z" fill="black"/>
</g>
<g opacity="0.1294">
<path opacity="0.1294" d="M34.0018 47.5021C33.8365 47.5021 33.6712 47.5569 33.561 47.6118C33.3405 47.7215 33.2303 47.886 33.1201 48.1054C33.0099 48.27 32.8997 48.3797 32.7895 48.5443C32.4588 48.9282 32.4037 49.0928 31.6873 49.8059C31.3015 50.1898 30.6953 50.4641 30.4749 50.9578C30.4749 50.9578 30.4749 50.9578 30.4749 51.0126C30.3096 51.1223 30.1994 51.1772 30.034 51.2869C29.7585 51.4514 29.3727 51.5611 29.2074 51.8354C28.6012 52.5485 29.5381 53.5907 30.3096 53.097C31.1362 52.6582 31.9077 52.1645 32.569 51.5063C32.6241 51.4514 32.6241 51.4514 32.6792 51.3966C33.2303 50.9578 33.7263 50.519 34.2223 50.0253C34.3876 49.8607 34.608 49.6413 34.7734 49.3671C34.608 48.9831 34.4427 48.654 34.2774 48.27C34.2223 47.9957 34.1121 47.7215 34.0018 47.5021Z" fill="black"/>
</g>
<g opacity="0.1294">
<path opacity="0.1294" d="M39.3474 35.0506C39.0167 36.2573 38.6861 37.4092 38.3003 38.616C38.135 39.1645 37.9697 39.713 37.7492 40.2616C37.9697 40.5358 38.3003 40.6455 38.631 40.5907H38.6861C38.9616 40.9746 39.7331 40.9198 39.8434 40.3713C39.8985 40.097 40.0087 39.8776 40.1189 39.6033C40.174 39.5485 40.2291 39.5485 40.2842 39.4936C40.6149 39.2194 40.7251 38.7806 40.8353 38.3966C41.0006 37.6287 41.1108 36.8607 41.166 36.0379C41.166 35.9831 41.166 35.9282 41.166 35.8734C40.6149 35.5991 40.0087 35.3249 39.3474 35.0506Z" fill="black"/>
</g>
<path d="M20.5554 57.1012C20.5003 57.1012 20.5003 57.1012 20.5554 57.1012C18.5164 56.9367 16.6427 56.6624 14.8241 56.3333C14.6037 56.2784 14.4384 56.059 14.4935 55.8396C14.6588 54.5232 14.4384 53.1519 13.8322 51.9451C13.5567 51.3966 13.226 50.9578 12.8954 50.6835C12.6198 50.4641 12.2341 50.2447 11.7932 50.135C10.1399 49.5865 8.15604 49.9156 6.613 50.9029C6.33746 51.0126 6.06192 51.0126 5.9517 50.7932C4.90464 49.2025 3.85758 47.5569 2.75542 45.8017C2.6452 45.6371 2.70031 45.3628 2.86563 45.2531C3.80248 44.4852 4.51889 43.6624 4.90464 42.7848C5.34551 41.7426 5.40062 40.6455 5.01486 39.7679C4.6291 38.7806 3.74737 38.1772 3.14118 37.7932C2.42477 37.3544 1.59814 37.0801 0.716409 36.751L0.33065 36.6413C0.110217 36.5316 0 36.3671 0 36.2025C0.0551084 34.173 0.220433 32.308 0.551084 30.7173C0.606192 30.5527 0.771517 30.3882 0.936842 30.3882C2.31455 30.2784 3.41672 30.059 4.29845 29.5654C5.34551 29.0168 6.11703 28.0844 6.33746 27.097C6.613 26 6.22724 24.7932 5.89659 23.9156C5.73127 23.4768 5.51084 22.9831 5.06997 22.7088C4.95975 22.654 4.90464 22.5443 4.90464 22.3797C4.90464 22.27 4.95975 22.1055 5.06997 22.0506C6.33746 20.9536 7.43963 20.0759 8.5969 19.308C8.76223 19.1983 8.98266 19.1983 9.14799 19.3628C9.69907 19.9662 10.5808 20.1856 11.5176 20.405C12.1238 20.5147 12.6198 20.6244 13.1709 20.6793C14.4384 20.7341 15.761 20.2405 16.7529 19.308C17.6898 18.4303 18.3511 17.2236 18.6266 15.7974C18.6817 15.578 18.8471 15.4683 19.0675 15.4683L23.8068 15.7974C24.0824 15.7974 24.2477 15.962 24.3579 16.2363C24.3579 16.2911 24.3579 16.2911 24.3579 16.346C24.5783 17.9915 25.0743 19.308 25.8458 20.2953C26.7827 21.4472 28.1604 22.1055 29.4279 22.0506C30.9158 21.9957 32.2384 21.0084 33.561 20.0211C33.7263 19.9114 34.0019 19.9114 34.1672 20.0759C35.4898 21.7215 36.5368 23.2574 37.4737 24.7384C37.5839 24.9029 37.5288 25.1223 37.3635 25.2869C36.5368 26 35.4347 27.2067 34.9938 28.7974C34.608 30.2236 34.8836 31.7046 35.7102 32.7468C36.2613 33.4599 37.143 34.0084 38.2452 34.3375C39.2372 34.6666 40.2842 34.7215 41.4415 34.8312C41.5517 34.8312 41.6619 34.886 41.717 34.9957C41.7721 35.1055 41.8272 35.2152 41.7721 35.3249C41.3864 37.135 40.9455 38.9451 40.3944 40.8101C40.3393 41.0295 40.174 41.1392 39.9536 41.0844C38.3003 40.9198 36.7573 41.2489 35.6 41.962C34.3325 42.7848 33.5059 44.2109 33.5059 45.5822C33.561 46.9536 34.3325 48.2152 35.2142 49.5316L35.2693 49.5865C35.3796 49.751 35.3245 49.9704 35.2142 50.135C33.6161 51.5063 31.8526 52.7679 30.2545 53.9198C30.0892 54.0295 29.8136 54.0295 29.7034 53.8101C29.2074 53.2067 28.6563 52.4936 27.9399 52C26.5622 51.0675 24.5232 51.1223 23.1455 52.0548C21.7678 52.9873 20.9412 54.7974 21.0514 56.6624C21.0514 56.7721 20.9963 56.8818 20.9412 56.9915C20.7759 57.0464 20.6656 57.1012 20.5554 57.1012ZM15.3201 55.5654C16.8632 55.8396 18.4613 56.059 20.1145 56.2236C20.1697 54.2489 21.0514 52.4388 22.5944 51.3966C24.3028 50.1898 26.6724 50.1898 28.3808 51.2869C29.0421 51.7806 29.5932 52.3839 30.0892 52.9873C31.522 52 32.9548 50.9029 34.3876 49.751C33.561 48.4894 32.7344 47.1181 32.7344 45.5822C32.6793 43.9367 33.6712 42.2363 35.2142 41.2489C36.4266 40.481 38.0248 40.097 39.7331 40.2067C40.174 38.616 40.6149 37.0801 40.9455 35.5443C39.9536 35.4346 38.9616 35.3249 38.0248 35.0506C36.7573 34.6666 35.7653 34.0633 35.104 33.2405C34.1121 32.0337 33.7814 30.2236 34.2223 28.578C34.5529 27.2616 35.3796 26 36.5919 24.9029C35.6551 23.5865 34.7183 22.27 33.6161 20.8987C32.2935 21.8312 30.9709 22.7637 29.3728 22.8185C27.8297 22.8734 26.1765 22.1055 25.0743 20.7341C24.1926 19.6371 23.6415 18.2109 23.4211 16.5105L19.1777 16.1814C18.8471 17.6076 18.1306 18.8692 17.1387 19.8017C15.9814 20.8438 14.4935 21.4472 13.0056 21.3924C12.3994 21.3924 11.7932 21.2278 11.187 21.1181C10.3053 20.8987 9.36842 20.6793 8.65201 20.1308C7.71517 20.789 6.83344 21.4472 5.84149 22.3249C6.22724 22.7088 6.44768 23.2025 6.55789 23.5865C6.94365 24.6287 7.38452 25.9451 7.05387 27.2616C6.77833 28.4683 5.89659 29.5654 4.6291 30.2784C3.69226 30.7721 2.59009 31.1012 1.26749 31.2109C0.99195 32.6371 0.826625 34.2278 0.771517 35.9282L0.881734 35.9831C1.81858 36.3122 2.6452 36.5865 3.47183 37.0801C4.24334 37.519 5.23529 38.2869 5.73127 39.4388C6.17214 40.5358 6.17214 41.8523 5.62105 43.1139C5.23529 44.0464 4.57399 44.8692 3.63715 45.692C4.57399 47.2278 5.51084 48.654 6.39257 50.0253C8.10093 49.0379 10.1399 48.7637 11.9585 49.3671C12.5096 49.5316 12.9505 49.8059 13.3362 50.0801C13.7771 50.4641 14.1628 50.9578 14.5486 51.616C15.1548 52.7679 15.4303 54.1941 15.3201 55.5654Z" fill="black"/>
<path d="M20.335 40.3713C18.9022 40.3713 17.4694 39.6033 16.6978 38.3417C15.8712 37.0253 15.7059 35.2151 16.3672 33.6793C16.8081 32.6371 17.5245 31.7046 18.4062 31.1561C19.3981 30.5527 20.5554 30.3333 21.6576 30.6624C22.87 30.9915 23.7517 31.54 24.3028 32.2531C24.9641 33.1307 25.3498 34.2826 25.3498 35.5443C25.3498 36.4219 25.1845 37.135 24.7988 37.7383C24.4681 38.232 24.0824 38.6708 23.6966 38.9999C22.7598 39.8227 21.878 40.2615 20.9963 40.4261C20.7759 40.3713 20.5554 40.3713 20.335 40.3713ZM20.6105 31.3206C20.0043 31.3206 19.343 31.4852 18.792 31.8143C18.0755 32.2531 17.4694 33.021 17.0836 33.8987C16.5325 35.2151 16.6427 36.751 17.3591 37.848C18.0755 38.9999 19.5084 39.6582 20.7759 39.4388C21.4923 39.3291 22.2087 38.9451 23.0904 38.232C23.4211 37.9578 23.8068 37.6286 24.0272 37.1898C24.3028 36.751 24.4681 36.1476 24.4681 35.4345C24.4681 34.3924 24.1375 33.405 23.5864 32.6919C23.1455 32.0886 22.374 31.7046 21.382 31.4303C21.1065 31.3755 20.8861 31.3206 20.6105 31.3206Z" fill="black"/>
<path d="M20.6105 44.2658C17.5245 44.2658 14.3833 42.4008 12.9505 39.5485C11.683 37.0253 11.7381 33.8438 13.1158 31.3755C14.4935 28.8523 17.0836 27.097 19.8941 26.713C22.5393 26.3839 25.7356 27.8649 27.4991 30.2236C29.3177 32.6919 29.7034 36.0928 28.4359 38.9451C27.7746 40.3713 26.7276 41.6877 25.3499 42.6751C24.5232 43.2784 23.6966 43.7172 22.8149 43.9915C22.0985 44.1561 21.3821 44.2658 20.6105 44.2658ZM20.6656 27.481C20.4452 27.481 20.2248 27.481 20.0043 27.5358C17.4142 27.8649 15.0997 29.4556 13.8322 31.7594C12.6198 34.0084 12.5647 36.8607 13.722 39.1645C15.3201 42.4008 19.2879 44.1561 22.5944 43.1139C23.366 42.8396 24.1375 42.4556 24.909 41.9071C26.1765 40.9746 27.1133 39.8227 27.7195 38.5063C28.8768 35.9831 28.491 32.8565 26.8929 30.6624C25.405 28.7426 22.9251 27.481 20.6656 27.481Z" fill="black"/>
<path d="M38.0247 34.6118C36.9777 34.2827 35.9857 33.7341 35.2693 32.9113C34.3325 31.7594 34.0569 30.059 34.4978 28.6329C34.8836 27.1519 35.8204 25.8903 37.0328 24.9029C35.9857 23.2573 34.8836 21.7763 33.7263 20.2953C32.2935 21.3375 30.9709 22.3249 29.3727 22.3797C27.8848 22.4346 26.3969 21.6118 25.46 20.4599C24.5232 19.2531 24.0272 17.7721 23.8619 16.2911C23.8068 16.1265 23.7517 16.1265 23.6966 16.1265C22.0984 16.0168 20.5003 15.9071 18.9573 15.7974C18.6817 17.2784 18.0204 18.5949 16.9734 19.5274C15.9263 20.4599 14.5486 21.0632 13.1158 21.0084C12.5096 21.0084 11.9585 20.8987 11.4074 20.7341C10.4706 20.5147 9.47863 20.2953 8.81733 19.5822C7.54983 20.4599 6.44767 21.3375 5.3455 22.3249C5.89658 22.7088 6.11702 23.2025 6.33745 23.751C6.77832 24.8481 7.10897 26.0548 6.83343 27.2067C6.55788 28.4135 5.67615 29.3459 4.57398 29.9493C3.41671 30.4978 2.20432 30.7173 0.99194 30.7721C0.66129 32.5274 0.495965 34.3375 0.440857 36.2025C1.48792 36.5865 2.47987 36.8607 3.3616 37.4092C4.24333 37.9029 5.01485 38.6708 5.40061 39.6033C5.84148 40.6455 5.73126 41.9071 5.29039 42.9493C4.84952 43.9915 4.0229 44.8692 3.14117 45.5822C4.24333 47.3375 5.29039 48.9282 6.33745 50.5738C7.9907 49.4767 10.0848 49.1476 11.9034 49.751C12.3443 49.9156 12.7851 50.0801 13.1709 50.4092C13.6118 50.7932 13.9975 51.2869 14.2179 51.7805C14.8792 53.0422 15.0997 54.5232 14.8792 55.8945C16.808 56.2784 18.6817 56.4978 20.5554 56.6624C20.4452 54.7426 21.2718 52.7679 22.8148 51.7257C24.3579 50.6835 26.5622 50.5738 28.1052 51.616C28.8217 52.1097 29.4279 52.8227 29.9789 53.5358C31.6873 52.3291 33.3405 51.1223 34.8836 49.8059C34.0018 48.4346 33.1201 47.1181 33.065 45.5822C33.0099 43.9915 34.0018 42.4557 35.3244 41.6329C36.647 40.7552 38.3554 40.5358 39.8984 40.7004C40.4495 38.8354 40.8904 37.0253 41.2761 35.2151C40.174 35.0506 39.0718 34.9409 38.0247 34.6118ZM28.0501 38.7257C27.3888 40.1519 26.3418 41.3586 25.0743 42.2911C24.3579 42.8396 23.5313 43.2784 22.6495 43.5527C19.1226 44.7046 14.9344 42.6751 13.2811 39.3839C12.0687 36.9704 12.1238 33.9535 13.4464 31.5949C14.769 29.2362 17.1938 27.5358 19.8941 27.1519C22.3189 26.8227 25.3498 28.1392 27.1133 30.4978C28.8768 32.8565 29.2625 36.0379 28.0501 38.7257Z" fill="#3943ED"/>
<g opacity="0.1294">
<path opacity="0.1294" d="M30.2545 34.8312C30.1994 34.5569 30.1443 34.2827 30.0892 34.0084C30.0341 33.9536 30.0341 33.8987 29.9789 33.8439C29.483 32.8565 28.8768 31.924 28.2155 31.0464C28.1053 31.1012 27.995 31.2658 27.995 31.3755C27.9399 31.8692 28.2706 32.2531 28.3808 32.7468C28.8217 33.9536 29.0421 34.5569 28.9319 35.7088C28.9319 36.1477 28.2155 38.5063 27.995 38.8354C27.7195 39.3839 27.444 39.8776 27.0582 40.3164C26.948 40.4261 26.8929 40.481 26.948 40.481C26.7827 40.6455 26.6173 40.8101 26.452 40.9198C26.0662 41.2489 25.7356 41.5232 25.3498 41.8523C25.2396 41.9072 25.0743 42.0717 24.9641 42.1814C25.0192 42.0717 24.8539 42.2363 24.6885 42.4008C24.5783 42.4557 24.2477 42.7299 24.0272 42.7848C22.7046 43.2236 21.382 43.4979 20.6656 43.5527C19.7288 43.6624 18.7919 43.3882 18.0204 43.2236C17.5245 43.059 17.0285 42.5654 16.4774 42.6751C16.257 42.7299 16.0916 42.8945 16.0365 43.1139C16.0916 43.1688 16.1467 43.2236 16.2019 43.2785C16.3672 43.443 16.5876 43.6076 16.7529 43.7721C17.4693 44.2109 18.1306 44.6498 18.8471 45.1434C20.0043 45.4726 21.2167 45.5274 22.7046 45.2531C22.7046 45.2531 22.6495 45.2531 22.5944 45.2531C24.1375 44.924 24.6334 44.7046 25.7907 44.1561C26.7827 43.5527 27.6093 42.7299 28.2155 41.7426C28.2155 41.6877 28.2706 41.6877 28.2706 41.6329C28.987 40.7553 29.5381 39.7131 29.9238 38.616C30.3647 37.3544 30.3647 36.0928 30.2545 34.8312Z" fill="black"/>
</g>
<g opacity="0.1294">
<path opacity="0.1294" d="M34.0018 47.5021C33.8365 47.5021 33.6712 47.5569 33.561 47.6118C33.3405 47.7215 33.2303 47.886 33.1201 48.1054C33.0099 48.27 32.8997 48.3797 32.7895 48.5443C32.4588 48.9282 32.4037 49.0928 31.6873 49.8059C31.3015 50.1898 30.6953 50.4641 30.4749 50.9578C30.4749 50.9578 30.4749 50.9578 30.4749 51.0126C30.3096 51.1223 30.1994 51.1772 30.034 51.2869C29.7585 51.4514 29.3727 51.5611 29.2074 51.8354C28.6012 52.5485 29.5381 53.5907 30.3096 53.097C31.1362 52.6582 31.9077 52.1645 32.569 51.5063C32.6241 51.4514 32.6241 51.4514 32.6792 51.3966C33.2303 50.9578 33.7263 50.519 34.2223 50.0253C34.3876 49.8607 34.608 49.6413 34.7734 49.3671C34.608 48.9831 34.4427 48.654 34.2774 48.27C34.2223 47.9957 34.1121 47.7215 34.0018 47.5021Z" fill="black"/>
</g>
<g opacity="0.1294">
<path opacity="0.1294" d="M39.3474 35.0506C39.0167 36.2573 38.6861 37.4092 38.3003 38.616C38.135 39.1645 37.9697 39.713 37.7492 40.2616C37.9697 40.5358 38.3003 40.6455 38.631 40.5907H38.6861C38.9616 40.9746 39.7331 40.9198 39.8434 40.3713C39.8985 40.097 40.0087 39.8776 40.1189 39.6033C40.174 39.5485 40.2291 39.5485 40.2842 39.4936C40.6149 39.2194 40.7251 38.7806 40.8353 38.3966C41.0006 37.6287 41.1108 36.8607 41.166 36.0379C41.166 35.9831 41.166 35.9282 41.166 35.8734C40.6149 35.5991 40.0087 35.3249 39.3474 35.0506Z" fill="black"/>
</g>
<path d="M20.5554 57.1012C20.5003 57.1012 20.5003 57.1012 20.5554 57.1012C18.5164 56.9367 16.6427 56.6624 14.8241 56.3333C14.6037 56.2784 14.4384 56.059 14.4935 55.8396C14.6588 54.5232 14.4384 53.1519 13.8322 51.9451C13.5567 51.3966 13.226 50.9578 12.8954 50.6835C12.6198 50.4641 12.2341 50.2447 11.7932 50.135C10.1399 49.5865 8.15604 49.9156 6.613 50.9029C6.33746 51.0126 6.06192 51.0126 5.9517 50.7932C4.90464 49.2025 3.85758 47.5569 2.75542 45.8017C2.6452 45.6371 2.70031 45.3628 2.86563 45.2531C3.80248 44.4852 4.51889 43.6624 4.90464 42.7848C5.34551 41.7426 5.40062 40.6455 5.01486 39.7679C4.6291 38.7806 3.74737 38.1772 3.14118 37.7932C2.42477 37.3544 1.59814 37.0801 0.716409 36.751L0.33065 36.6413C0.110217 36.5316 0 36.3671 0 36.2025C0.0551084 34.173 0.220433 32.308 0.551084 30.7173C0.606192 30.5527 0.771517 30.3882 0.936842 30.3882C2.31455 30.2784 3.41672 30.059 4.29845 29.5654C5.34551 29.0168 6.11703 28.0844 6.33746 27.097C6.613 26 6.22724 24.7932 5.89659 23.9156C5.73127 23.4768 5.51084 22.9831 5.06997 22.7088C4.95975 22.654 4.90464 22.5443 4.90464 22.3797C4.90464 22.27 4.95975 22.1055 5.06997 22.0506C6.33746 20.9536 7.43963 20.0759 8.5969 19.308C8.76223 19.1983 8.98266 19.1983 9.14799 19.3628C9.69907 19.9662 10.5808 20.1856 11.5176 20.405C12.1238 20.5147 12.6198 20.6244 13.1709 20.6793C14.4384 20.7341 15.761 20.2405 16.7529 19.308C17.6898 18.4303 18.3511 17.2236 18.6266 15.7974C18.6817 15.578 18.8471 15.4683 19.0675 15.4683L23.8068 15.7974C24.0824 15.7974 24.2477 15.962 24.3579 16.2363C24.3579 16.2911 24.3579 16.2911 24.3579 16.346C24.5783 17.9915 25.0743 19.308 25.8458 20.2953C26.7827 21.4472 28.1604 22.1055 29.4279 22.0506C30.9158 21.9957 32.2384 21.0084 33.561 20.0211C33.7263 19.9114 34.0019 19.9114 34.1672 20.0759C35.4898 21.7215 36.5368 23.2574 37.4737 24.7384C37.5839 24.9029 37.5288 25.1223 37.3635 25.2869C36.5368 26 35.4347 27.2067 34.9938 28.7974C34.608 30.2236 34.8836 31.7046 35.7102 32.7468C36.2613 33.4599 37.143 34.0084 38.2452 34.3375C39.2372 34.6666 40.2842 34.7215 41.4415 34.8312C41.5517 34.8312 41.6619 34.886 41.717 34.9957C41.7721 35.1055 41.8272 35.2152 41.7721 35.3249C41.3864 37.135 40.9455 38.9451 40.3944 40.8101C40.3393 41.0295 40.174 41.1392 39.9536 41.0844C38.3003 40.9198 36.7573 41.2489 35.6 41.962C34.3325 42.7848 33.5059 44.2109 33.5059 45.5822C33.561 46.9536 34.3325 48.2152 35.2142 49.5316L35.2693 49.5865C35.3796 49.751 35.3245 49.9704 35.2142 50.135C33.6161 51.5063 31.8526 52.7679 30.2545 53.9198C30.0892 54.0295 29.8136 54.0295 29.7034 53.8101C29.2074 53.2067 28.6563 52.4936 27.9399 52C26.5622 51.0675 24.5232 51.1223 23.1455 52.0548C21.7678 52.9873 20.9412 54.7974 21.0514 56.6624C21.0514 56.7721 20.9963 56.8818 20.9412 56.9915C20.7759 57.0464 20.6656 57.1012 20.5554 57.1012ZM15.3201 55.5654C16.8632 55.8396 18.4613 56.059 20.1145 56.2236C20.1697 54.2489 21.0514 52.4388 22.5944 51.3966C24.3028 50.1898 26.6724 50.1898 28.3808 51.2869C29.0421 51.7806 29.5932 52.3839 30.0892 52.9873C31.522 52 32.9548 50.9029 34.3876 49.751C33.561 48.4894 32.7344 47.1181 32.7344 45.5822C32.6793 43.9367 33.6712 42.2363 35.2142 41.2489C36.4266 40.481 38.0248 40.097 39.7331 40.2067C40.174 38.616 40.6149 37.0801 40.9455 35.5443C39.9536 35.4346 38.9616 35.3249 38.0248 35.0506C36.7573 34.6666 35.7653 34.0633 35.104 33.2405C34.1121 32.0337 33.7814 30.2236 34.2223 28.578C34.5529 27.2616 35.3796 26 36.5919 24.9029C35.6551 23.5865 34.7183 22.27 33.6161 20.8987C32.2935 21.8312 30.9709 22.7637 29.3728 22.8185C27.8297 22.8734 26.1765 22.1055 25.0743 20.7341C24.1926 19.6371 23.6415 18.2109 23.4211 16.5105L19.1777 16.1814C18.8471 17.6076 18.1306 18.8692 17.1387 19.8017C15.9814 20.8438 14.4935 21.4472 13.0056 21.3924C12.3994 21.3924 11.7932 21.2278 11.187 21.1181C10.3053 20.8987 9.36842 20.6793 8.65201 20.1308C7.71517 20.789 6.83344 21.4472 5.84149 22.3249C6.22724 22.7088 6.44768 23.2025 6.55789 23.5865C6.94365 24.6287 7.38452 25.9451 7.05387 27.2616C6.77833 28.4683 5.89659 29.5654 4.6291 30.2784C3.69226 30.7721 2.59009 31.1012 1.26749 31.2109C0.99195 32.6371 0.826625 34.2278 0.771517 35.9282L0.881734 35.9831C1.81858 36.3122 2.6452 36.5865 3.47183 37.0801C4.24334 37.519 5.23529 38.2869 5.73127 39.4388C6.17214 40.5358 6.17214 41.8523 5.62105 43.1139C5.23529 44.0464 4.57399 44.8692 3.63715 45.692C4.57399 47.2278 5.51084 48.654 6.39257 50.0253C8.10093 49.0379 10.1399 48.7637 11.9585 49.3671C12.5096 49.5316 12.9505 49.8059 13.3362 50.0801C13.7771 50.4641 14.1628 50.9578 14.5486 51.616C15.1548 52.7679 15.4303 54.1941 15.3201 55.5654Z" fill="black"/>
<path d="M20.335 40.3713C18.9022 40.3713 17.4694 39.6033 16.6978 38.3417C15.8712 37.0253 15.7059 35.2151 16.3672 33.6793C16.8081 32.6371 17.5245 31.7046 18.4062 31.1561C19.3981 30.5527 20.5554 30.3333 21.6576 30.6624C22.87 30.9915 23.7517 31.54 24.3028 32.2531C24.9641 33.1307 25.3498 34.2826 25.3498 35.5443C25.3498 36.4219 25.1845 37.135 24.7988 37.7383C24.4681 38.232 24.0824 38.6708 23.6966 38.9999C22.7598 39.8227 21.878 40.2615 20.9963 40.4261C20.7759 40.3713 20.5554 40.3713 20.335 40.3713ZM20.6105 31.3206C20.0043 31.3206 19.343 31.4852 18.792 31.8143C18.0755 32.2531 17.4694 33.021 17.0836 33.8987C16.5325 35.2151 16.6427 36.751 17.3591 37.848C18.0755 38.9999 19.5084 39.6582 20.7759 39.4388C21.4923 39.3291 22.2087 38.9451 23.0904 38.232C23.4211 37.9578 23.8068 37.6286 24.0272 37.1898C24.3028 36.751 24.4681 36.1476 24.4681 35.4345C24.4681 34.3924 24.1375 33.405 23.5864 32.6919C23.1455 32.0886 22.374 31.7046 21.382 31.4303C21.1065 31.3755 20.8861 31.3206 20.6105 31.3206Z" fill="black"/>
<path d="M20.6105 44.2658C17.5245 44.2658 14.3833 42.4008 12.9505 39.5485C11.683 37.0253 11.7381 33.8438 13.1158 31.3755C14.4935 28.8523 17.0836 27.097 19.8941 26.713C22.5393 26.3839 25.7356 27.8649 27.4991 30.2236C29.3177 32.6919 29.7034 36.0928 28.4359 38.9451C27.7746 40.3713 26.7276 41.6877 25.3499 42.6751C24.5232 43.2784 23.6966 43.7172 22.8149 43.9915C22.0985 44.1561 21.3821 44.2658 20.6105 44.2658ZM20.6656 27.481C20.4452 27.481 20.2248 27.481 20.0043 27.5358C17.4142 27.8649 15.0997 29.4556 13.8322 31.7594C12.6198 34.0084 12.5647 36.8607 13.722 39.1645C15.3201 42.4008 19.2879 44.1561 22.5944 43.1139C23.366 42.8396 24.1375 42.4556 24.909 41.9071C26.1765 40.9746 27.1133 39.8227 27.7195 38.5063C28.8768 35.9831 28.491 32.8565 26.8929 30.6624C25.405 28.7426 22.9251 27.481 20.6656 27.481Z" fill="black"/>
<path d="M61.6111 9.59916L60.6743 6.58228L62.6031 3.89451L57.8638 0.548523C57.2576 1.53586 56.6514 2.52321 55.9901 3.51055C55.935 3.5654 55.935 3.62025 55.8799 3.67511C55.8248 3.72996 55.7146 3.72996 55.6594 3.72996C54.6124 3.72996 53.5102 3.67511 52.4632 3.67511C51.9121 2.68776 51.4161 1.75527 50.865 0.877637C50.8099 0.822785 50.7548 0.71308 50.6997 0.71308C50.6446 0.71308 50.5344 0.71308 50.4793 0.767932C49.2118 1.53586 47.9443 2.24894 46.6768 3.01688C46.6217 3.01688 46.6217 3.07173 46.5666 3.07173C46.5115 3.12658 46.5666 3.23629 46.6217 3.34599C47.1176 4.16878 47.6687 4.99156 48.33 5.70464C47.7789 6.74684 47.1728 7.73418 46.5115 8.66667C46.3461 8.88608 46.1808 9.10548 45.9053 9.21519C45.6848 9.27004 45.4644 9.21519 45.244 9.16034C44.3622 8.88608 43.4805 8.61181 42.5988 8.33755C41.8824 10.0928 41.717 12.0675 42.213 13.8776C42.2681 14.0422 45.5746 13.5485 45.5746 13.5485L47.5585 16.9494L45.9604 19.5274L49.5975 22.1603L51.4712 19.4177L54.7777 19.4726L56.0452 22.3249L61.005 20.6245L59.7926 17.6624L61.556 14.8101L64.9177 14.5359L65.0279 10.4768L61.6111 9.59916ZM55.935 11.0802C55.9901 11.2447 55.8248 11.519 55.7697 11.6287C55.7146 11.7384 55.6594 11.8481 55.6043 11.9578C55.4941 12.1224 55.3288 12.3418 55.1635 12.5063C54.8328 12.8354 54.392 13.0549 53.9511 13.2194C53.7858 13.2743 53.5653 13.3291 53.4 13.384C53.2347 13.4388 53.0694 13.4388 52.904 13.384C52.7938 13.384 52.6836 13.3291 52.5734 13.3291C52.8489 13.3291 52.5734 13.3291 52.4081 13.2743C51.9121 13.1097 51.4161 12.7257 51.1406 12.2869C50.9752 12.0127 50.865 11.6835 50.865 11.4093C50.865 11.135 50.9201 10.8059 51.0303 10.5865C51.1957 10.2025 51.361 9.81857 51.6365 9.48945C51.9121 9.10548 52.2427 8.72152 52.6836 8.50211C53.1245 8.2827 53.5653 8.2827 54.0062 8.39241C54.1715 8.33755 54.392 8.2827 54.5573 8.33755C54.8879 8.44726 55.1084 8.61181 55.3288 8.83122C55.5492 9.10549 55.6594 9.32489 55.8248 9.65401C55.8799 9.76371 55.8799 9.81857 55.935 9.92827C55.935 9.98312 55.935 10.038 55.9901 10.0928C55.9901 10.2025 55.9901 10.2574 56.0452 10.3671V10.3122C56.0452 10.2574 56.0452 10.2574 56.0452 10.3122C56.0452 10.4219 56.0452 10.4768 56.1003 10.5865C56.1003 10.6414 56.1003 10.6962 56.1003 10.7511C55.9901 10.8608 55.935 10.9705 55.935 11.0802Z" fill="white"/>
<path d="M47.1176 13.2194C47.0625 13.2194 47.0625 13.2194 47.1176 13.2194C47.0074 13.2194 46.9523 13.1097 47.0074 13.0548C47.9443 9.87338 49.0464 6.6371 50.3139 3.56537C50.369 3.51051 50.4241 3.45566 50.4793 3.51051C50.5344 3.56537 50.5895 3.62022 50.5344 3.67507C49.2669 6.7468 48.1647 9.92823 47.2279 13.1645C47.2279 13.1645 47.1728 13.2194 47.1176 13.2194Z" fill="black"/>
<path d="M48.5504 13.7131C48.5504 13.7131 48.4953 13.7131 48.5504 13.7131C48.4402 13.7131 48.3851 13.6034 48.4402 13.5485C49.322 10.5316 50.4792 7.5696 51.8569 4.71728C51.9121 4.66243 51.9672 4.60758 52.0223 4.66243C52.0774 4.71728 52.1325 4.77213 52.0774 4.82699C50.6997 7.62446 49.5424 10.5865 48.6607 13.6034C48.6607 13.7131 48.6056 13.7131 48.5504 13.7131Z" fill="black"/>
<path d="M47.9994 19.5274C47.9994 19.5274 47.9443 19.5274 47.9994 19.5274C47.8892 19.4726 47.8341 19.4177 47.8892 19.308L50.3139 13.5485C50.369 13.4937 50.4242 13.4388 50.4793 13.4937C50.5344 13.5485 50.5895 13.6034 50.5344 13.6582L48.1096 19.4177C48.1096 19.4726 48.0545 19.5274 47.9994 19.5274Z" fill="black"/>
<path d="M51.1405 18.3206C51.1405 18.3206 51.1405 18.2658 51.1405 18.3206C51.0303 18.2658 50.9752 18.2109 51.0303 18.1561L52.3529 14.8649C52.408 14.8101 52.4631 14.7552 52.5182 14.8101C52.5734 14.8649 52.6285 14.9198 52.5733 14.9746L51.2508 18.2658C51.2508 18.2658 51.1956 18.3206 51.1405 18.3206Z" fill="black"/>
<path d="M53.6755 7.40506C53.6204 7.40506 53.6204 7.40506 53.6755 7.40506C53.5653 7.3502 53.5102 7.29535 53.5653 7.2405L54.2266 5.21096C54.2266 5.15611 54.3368 5.10126 54.3919 5.10126C54.4471 5.10126 54.5022 5.21096 54.5022 5.26581L53.8409 7.29535C53.7858 7.40506 53.7306 7.40506 53.6755 7.40506Z" fill="black"/>
<path d="M56.2105 7.95356C56.1554 7.95356 56.1554 7.95356 56.2105 7.95356C56.1003 7.89871 56.0452 7.84386 56.1003 7.78901C56.7616 6.03373 57.5331 4.33331 58.3597 2.68774C58.4148 2.63289 58.4699 2.57804 58.5251 2.63289C58.5802 2.68774 58.6353 2.74259 58.5802 2.79745C57.7535 4.44302 56.982 6.14344 56.3758 7.89871C56.3207 7.89871 56.2656 7.95356 56.2105 7.95356Z" fill="black"/>
<path d="M53.6755 18.3207H53.6204C53.5653 18.2658 53.5102 18.211 53.5653 18.1561L59.6823 5.32068C59.7375 5.26582 59.7926 5.21097 59.8477 5.26582C59.9028 5.32068 59.9579 5.37553 59.9028 5.43038L53.7857 18.2658C53.7306 18.3207 53.7306 18.3207 53.6755 18.3207Z" fill="black"/>
<path d="M56.1003 18.8692H56.0452C55.9901 18.8143 55.935 18.7595 55.9901 18.7046L60.0681 9.98309C60.1232 9.92824 60.1783 9.87339 60.2334 9.92824C60.2885 9.98309 60.3436 10.0379 60.2885 10.0928L56.2105 18.7595C56.2105 18.8143 56.1554 18.8692 56.1003 18.8692Z" fill="black"/>
<path d="M60.4538 14.481H60.3987C60.3436 14.4261 60.2885 14.3713 60.3436 14.3164L62.1622 11.0801C62.2173 11.0253 62.2724 10.9704 62.3275 11.0253C62.3826 11.0801 62.4377 11.135 62.3826 11.1898L60.5641 14.4261C60.5641 14.481 60.509 14.481 60.4538 14.481Z" fill="black"/>
<path d="M57.4229 20.6245H57.3678C57.3127 20.5696 57.2576 20.5148 57.3127 20.4599L58.1393 18.8143C58.1944 18.7595 58.2495 18.7046 58.3046 18.7595C58.3597 18.8143 58.4149 18.8692 58.3597 18.924L57.5331 20.5696C57.5331 20.5696 57.478 20.6245 57.4229 20.6245Z" fill="black"/>
<path d="M43.6458 12.4515H43.5907C43.5356 12.3966 43.4805 12.3418 43.5356 12.2869L44.6378 10.038C44.6929 9.98311 44.748 9.92826 44.8031 9.98311C44.8582 10.038 44.9133 10.0928 44.8582 10.1477L43.756 12.3966C43.756 12.4515 43.7009 12.4515 43.6458 12.4515Z" fill="black"/>
<path d="M48.33 3.94936H48.2749C48.2198 3.89451 48.1647 3.83965 48.2198 3.7848L49.0464 2.35864C49.0464 2.24894 49.1015 2.19408 49.2117 2.24894C49.2669 2.30379 49.322 2.35864 49.2668 2.41349L48.4402 3.83965C48.3851 3.94936 48.3851 3.94936 48.33 3.94936Z" fill="black"/>
<g opacity="0.1294">
<path opacity="0.1294" d="M56.9269 11.6835C56.8718 11.1899 56.1003 11.135 55.9901 11.6287C55.8248 12.1224 55.8799 12.0127 55.3839 12.5063C54.8879 12.8903 55.0533 12.7806 54.2817 13.0549C53.5653 13.2743 53.8409 13.2194 53.2347 13.2194C53.1245 13.2194 53.0694 13.1646 52.9591 13.1646C52.6836 13.0549 52.7387 13.1097 52.1876 12.7806C51.9672 12.6709 51.7468 12.4515 51.4712 12.4515C50.6446 12.2869 50.2588 13.4937 50.9752 13.8776C52.2427 14.7553 53.5653 15.1392 55.0533 14.4262C55.8248 13.9873 56.3759 13.3291 56.6514 12.5063C56.7616 12.2869 56.9269 12.0127 56.9269 11.6835Z" fill="black"/>
</g>
<g opacity="0.1294">
<path opacity="0.1294" d="M59.1313 19.8565C58.6353 20.0211 58.47 20.1308 57.5331 20.2953C57.0922 20.405 56.5963 20.3502 56.2105 20.6244C55.439 21.173 56.1003 22.4346 56.982 22.1603C58.0842 21.9409 59.2966 21.886 60.1783 21.1181C60.8396 20.405 60.013 19.4177 59.1313 19.8565Z" fill="black"/>
</g>
<g opacity="0.1294">
<path opacity="0.1294" d="M65.6341 13C65.6341 12.8354 65.579 12.616 65.5238 12.5063C65.1381 11.7932 64.0359 11.9029 63.7604 12.616C63.7604 12.6709 63.7053 12.6709 63.7053 12.7257C63.6502 12.8903 63.5951 13 63.5399 13.1645C63.4848 13.2742 63.4297 13.4388 63.3746 13.4936C63.2644 13.6582 63.2093 13.8228 63.2093 13.9873C63.2093 15.1941 64.9177 15.4135 65.2483 14.2616C65.4136 13.8776 65.5238 13.4936 65.579 13.1097C65.6341 13.1097 65.6341 13.0548 65.6341 13Z" fill="black"/>
</g>
<path d="M55.9901 22.654C55.8248 22.654 55.6594 22.5443 55.6043 22.3797C55.2186 21.5021 54.8879 20.6245 54.3368 19.8017C53.2898 19.9114 52.2978 19.8565 51.3059 19.7468C51.0303 20.2405 50.7548 20.789 50.4241 21.2827C50.2588 21.6118 50.0935 21.9409 49.8731 22.27C49.8179 22.4894 49.5975 22.5991 49.4322 22.4894C47.834 21.8861 46.4012 20.8439 45.3542 19.5823C45.244 19.4177 45.244 19.2531 45.3542 19.0886C45.9053 18.3755 46.4563 17.6076 47.0074 16.6751C46.4012 15.8523 45.8501 14.9198 45.3542 13.7679C45.1337 13.8228 44.9133 13.8776 44.6929 13.9325C43.9214 14.097 43.0947 14.2616 42.2681 14.3713C42.0477 14.3713 41.8823 14.2616 41.8272 14.0422C41.3313 12.232 41.4966 10.2574 42.213 8.06327C42.2681 7.84386 42.4885 7.73415 42.709 7.78901C43.8111 8.06327 44.9133 8.33753 46.0155 8.61179C46.4563 7.6793 47.0625 6.74681 47.6136 5.86917C47.0625 5.15609 46.5114 4.38816 45.9604 3.45567C45.8501 3.29112 45.9053 3.07171 46.0706 2.962C47.283 1.91981 48.7709 0.987318 50.5344 0.219386C50.7548 0.109681 50.9752 0.219386 51.0854 0.383943C51.6365 1.31643 52.1325 2.30377 52.5183 3.29112C53.6204 3.12656 54.7226 3.07171 55.8248 3.18141C56.3207 2.24892 56.8718 1.26158 57.5331 0.274238C57.6433 0.109681 57.8638 0.0548286 58.0842 0.109681C59.4068 0.767909 60.6192 1.59069 61.7214 2.46833C61.9969 2.74259 62.3275 2.962 62.6031 3.23626C62.7684 3.34597 62.9337 3.51053 62.9888 3.78479C63.044 3.89449 62.9888 4.0042 62.9337 4.1139C62.6582 4.49787 62.4378 4.82698 62.1622 5.21095C61.8316 5.70462 61.4458 6.25314 61.0601 6.80166C61.3907 7.5696 61.7214 8.39238 61.9969 9.21517C62.9337 9.32487 64.1461 9.48943 65.4136 9.9831C65.5789 10.038 65.6892 10.2025 65.6892 10.3671C65.7994 12.0126 65.5789 13.5485 65.0279 14.9747C64.9727 15.1392 64.8074 15.2489 64.6421 15.2489H64.2563C63.4297 15.1941 62.548 15.1941 61.6662 15.2489C61.3356 16.0717 60.7845 16.8945 60.0681 17.7721C60.5641 18.5949 61.0601 19.4726 61.5009 20.5147C61.6111 20.7342 61.5009 20.9536 61.3356 21.0633C59.517 21.9409 57.7536 22.4894 55.9901 22.654ZM54.5573 18.924C54.7226 18.924 54.8328 18.9789 54.8879 19.0886C55.4941 19.9662 55.8799 20.8987 56.2105 21.7215C57.6433 21.5569 59.0762 21.0633 60.4539 20.405C60.013 19.4726 59.5721 18.6498 59.0762 17.8818C58.9659 17.7173 59.021 17.5527 59.1313 17.3882C60.013 16.346 60.5641 15.4683 60.8947 14.5907C60.9498 14.4261 61.1152 14.3164 61.2254 14.3164C62.2724 14.2067 63.2644 14.2616 64.2012 14.3164H64.2563C64.6421 13.1645 64.8625 11.9029 64.8074 10.5865C63.595 10.1477 62.4929 9.9831 61.6111 9.92825C61.4458 9.92825 61.2805 9.81854 61.2254 9.65399C60.8947 8.7215 60.509 7.73415 60.1232 6.85652C60.0681 6.74681 60.0681 6.58226 60.1783 6.47255C60.6192 5.81432 61.0049 5.2658 61.4458 4.66242C61.6662 4.38816 61.8316 4.05905 62.052 3.78479C62.052 3.78479 61.9969 3.78479 61.9969 3.72993C61.7214 3.45567 61.4458 3.23626 61.1152 2.962C60.1232 2.13922 59.0762 1.42614 57.974 0.877613C57.3678 1.8101 56.8718 2.74259 56.431 3.67508C56.3758 3.83964 56.2105 3.89449 55.9901 3.89449C54.7777 3.83964 53.5653 3.89449 52.3529 4.1139C52.1325 4.16875 51.9672 4.05905 51.9121 3.83964C51.5263 2.90715 51.0854 1.97466 50.5895 1.09702C49.1566 1.75525 47.9443 2.46833 46.9523 3.34597C47.4483 4.22361 48.0545 4.99154 48.5505 5.64977C48.6607 5.81432 48.6607 5.97888 48.5505 6.14344C47.834 7.24048 47.1727 8.28268 46.6768 9.37972C46.5666 9.54428 46.4012 9.65399 46.1808 9.59913C45.0235 9.32487 43.9765 9.05061 42.8743 8.77635C42.3232 10.5316 42.213 12.1223 42.4885 13.5485C43.2049 13.4388 43.8662 13.3291 44.5275 13.1645C44.8582 13.1097 45.1888 13 45.5195 12.9451C45.7399 12.8903 45.9053 13 45.9604 13.2194C46.5114 14.5358 47.1176 15.578 47.834 16.4557C47.9443 16.6202 47.9443 16.7848 47.8892 16.9493C47.283 17.8818 46.7319 18.6498 46.2359 19.3628C47.0625 20.3502 48.1647 21.1181 49.3771 21.6118C49.4873 21.3924 49.5975 21.173 49.7077 20.9536C50.0384 20.3502 50.369 19.7468 50.6997 19.1434C50.8099 18.9789 50.9201 18.924 51.0854 18.924C52.1876 19.0337 53.3449 19.0886 54.4471 18.9789C54.5022 18.924 54.5573 18.924 54.5573 18.924Z" fill="black"/>
<path d="M53.0142 13.5485C52.5734 13.5485 52.0774 13.4388 51.6916 13.2742C51.3059 13.1097 51.0303 12.8903 50.865 12.6708C50.6446 12.3417 50.5343 11.9029 50.5343 11.6287C50.4241 10.5316 50.6997 9.54427 51.3059 8.83119C52.0223 7.95355 53.1795 7.56958 54.1164 7.8987C54.1715 7.8987 54.2266 7.95355 54.2817 8.0084C55.3288 8.33752 56.0452 9.32486 56.1003 10.4219C56.1554 11.4641 55.6043 12.5063 54.6675 13.1097C54.2266 13.3839 53.6204 13.5485 53.0142 13.5485ZM53.4 8.55692C52.8489 8.55692 52.2978 8.83119 51.9121 9.27C51.4712 9.81853 51.2507 10.5865 51.361 11.4641C51.361 11.6835 51.4161 11.9029 51.5263 12.1223C51.6365 12.232 51.7467 12.3417 51.9672 12.4514C52.6836 12.7806 53.5653 12.7257 54.2266 12.3417C54.8879 11.9578 55.3288 11.1898 55.2737 10.4219C55.2186 9.65397 54.7226 8.94089 54.0062 8.72148H53.9511C53.896 8.72148 53.7857 8.66663 53.6755 8.61178C53.6204 8.61178 53.5102 8.55692 53.4 8.55692Z" fill="black"/>
<path d="M47.1176 13.2194C47.0625 13.2194 47.0625 13.2194 47.1176 13.2194C47.0074 13.2194 46.9523 13.1097 47.0074 13.0548C47.9443 9.87338 49.0464 6.6371 50.3139 3.56537C50.369 3.51051 50.4241 3.45566 50.4793 3.51051C50.5344 3.56537 50.5895 3.62022 50.5344 3.67507C49.2669 6.7468 48.1647 9.92823 47.2279 13.1645C47.2279 13.1645 47.1728 13.2194 47.1176 13.2194Z" fill="black"/>
<path d="M48.5504 13.7131C48.5504 13.7131 48.4953 13.7131 48.5504 13.7131C48.4402 13.7131 48.3851 13.6034 48.4402 13.5485C49.322 10.5316 50.4792 7.5696 51.8569 4.71728C51.9121 4.66243 51.9672 4.60758 52.0223 4.66243C52.0774 4.71728 52.1325 4.77213 52.0774 4.82699C50.6997 7.62446 49.5424 10.5865 48.6607 13.6034C48.6607 13.7131 48.6056 13.7131 48.5504 13.7131Z" fill="black"/>
<path d="M47.9994 19.5274C47.9994 19.5274 47.9443 19.5274 47.9994 19.5274C47.8892 19.4726 47.8341 19.4177 47.8892 19.308L50.3139 13.5485C50.369 13.4937 50.4242 13.4388 50.4793 13.4937C50.5344 13.5485 50.5895 13.6034 50.5344 13.6582L48.1096 19.4177C48.1096 19.4726 48.0545 19.5274 47.9994 19.5274Z" fill="black"/>
<path d="M51.1405 18.3206C51.1405 18.3206 51.1405 18.2658 51.1405 18.3206C51.0303 18.2658 50.9752 18.2109 51.0303 18.1561L52.3529 14.8649C52.408 14.8101 52.4631 14.7552 52.5182 14.8101C52.5734 14.8649 52.6285 14.9198 52.5733 14.9746L51.2508 18.2658C51.2508 18.2658 51.1956 18.3206 51.1405 18.3206Z" fill="black"/>
<path d="M53.6755 7.40506C53.6204 7.40506 53.6204 7.40506 53.6755 7.40506C53.5653 7.3502 53.5102 7.29535 53.5653 7.2405L54.2266 5.21096C54.2266 5.15611 54.3368 5.10126 54.3919 5.10126C54.4471 5.10126 54.5022 5.21096 54.5022 5.26581L53.8409 7.29535C53.7858 7.40506 53.7306 7.40506 53.6755 7.40506Z" fill="black"/>
<path d="M56.2105 7.95356C56.1554 7.95356 56.1554 7.95356 56.2105 7.95356C56.1003 7.89871 56.0452 7.84386 56.1003 7.78901C56.7616 6.03373 57.5331 4.33331 58.3597 2.68774C58.4148 2.63289 58.4699 2.57804 58.5251 2.63289C58.5802 2.68774 58.6353 2.74259 58.5802 2.79745C57.7535 4.44302 56.982 6.14344 56.3758 7.89871C56.3207 7.89871 56.2656 7.95356 56.2105 7.95356Z" fill="black"/>
<path d="M53.6755 18.3207H53.6204C53.5653 18.2658 53.5102 18.211 53.5653 18.1561L59.6823 5.32068C59.7375 5.26582 59.7926 5.21097 59.8477 5.26582C59.9028 5.32068 59.9579 5.37553 59.9028 5.43038L53.7857 18.2658C53.7306 18.3207 53.7306 18.3207 53.6755 18.3207Z" fill="black"/>
<path d="M56.1003 18.8692H56.0452C55.9901 18.8143 55.935 18.7595 55.9901 18.7046L60.0681 9.98309C60.1232 9.92824 60.1783 9.87339 60.2334 9.92824C60.2885 9.98309 60.3436 10.0379 60.2885 10.0928L56.2105 18.7595C56.2105 18.8143 56.1554 18.8692 56.1003 18.8692Z" fill="black"/>
<path d="M60.4538 14.481H60.3987C60.3436 14.4261 60.2885 14.3713 60.3436 14.3164L62.1622 11.0801C62.2173 11.0253 62.2724 10.9704 62.3275 11.0253C62.3826 11.0801 62.4377 11.135 62.3826 11.1898L60.5641 14.4261C60.5641 14.481 60.509 14.481 60.4538 14.481Z" fill="black"/>
<path d="M57.4229 20.6245H57.3678C57.3127 20.5696 57.2576 20.5148 57.3127 20.4599L58.1393 18.8143C58.1944 18.7595 58.2495 18.7046 58.3046 18.7595C58.3597 18.8143 58.4149 18.8692 58.3597 18.924L57.5331 20.5696C57.5331 20.5696 57.478 20.6245 57.4229 20.6245Z" fill="black"/>
<path d="M43.6458 12.4515H43.5907C43.5356 12.3966 43.4805 12.3418 43.5356 12.2869L44.6378 10.038C44.6929 9.98311 44.748 9.92826 44.8031 9.98311C44.8582 10.038 44.9133 10.0928 44.8582 10.1477L43.756 12.3966C43.756 12.4515 43.7009 12.4515 43.6458 12.4515Z" fill="black"/>
<path d="M48.33 3.94936H48.2749C48.2198 3.89451 48.1647 3.83965 48.2198 3.7848L49.0464 2.35864C49.0464 2.24894 49.1015 2.19408 49.2117 2.24894C49.2669 2.30379 49.322 2.35864 49.2668 2.41349L48.4402 3.83965C48.3851 3.94936 48.3851 3.94936 48.33 3.94936Z" fill="black"/>
<g opacity="0.1294">
<path opacity="0.1294" d="M56.9269 11.6835C56.8718 11.1899 56.1003 11.135 55.9901 11.6287C55.8248 12.1224 55.8799 12.0127 55.3839 12.5063C54.8879 12.8903 55.0533 12.7806 54.2817 13.0549C53.5653 13.2743 53.8409 13.2194 53.2347 13.2194C53.1245 13.2194 53.0694 13.1646 52.9591 13.1646C52.6836 13.0549 52.7387 13.1097 52.1876 12.7806C51.9672 12.6709 51.7468 12.4515 51.4712 12.4515C50.6446 12.2869 50.2588 13.4937 50.9752 13.8776C52.2427 14.7553 53.5653 15.1392 55.0533 14.4262C55.8248 13.9873 56.3759 13.3291 56.6514 12.5063C56.7616 12.2869 56.9269 12.0127 56.9269 11.6835Z" fill="black"/>
</g>
<g opacity="0.1294">
<path opacity="0.1294" d="M59.1313 19.8565C58.6353 20.0211 58.47 20.1308 57.5331 20.2953C57.0922 20.405 56.5963 20.3502 56.2105 20.6244C55.439 21.173 56.1003 22.4346 56.982 22.1603C58.0842 21.9409 59.2966 21.886 60.1783 21.1181C60.8396 20.405 60.013 19.4177 59.1313 19.8565Z" fill="black"/>
</g>
<g opacity="0.1294">
<path opacity="0.1294" d="M65.6341 13C65.6341 12.8354 65.579 12.616 65.5238 12.5063C65.1381 11.7932 64.0359 11.9029 63.7604 12.616C63.7604 12.6709 63.7053 12.6709 63.7053 12.7257C63.6502 12.8903 63.5951 13 63.5399 13.1645C63.4848 13.2742 63.4297 13.4388 63.3746 13.4936C63.2644 13.6582 63.2093 13.8228 63.2093 13.9873C63.2093 15.1941 64.9177 15.4135 65.2483 14.2616C65.4136 13.8776 65.5238 13.4936 65.579 13.1097C65.6341 13.1097 65.6341 13.0548 65.6341 13Z" fill="black"/>
</g>
<path d="M55.9901 22.654C55.8248 22.654 55.6594 22.5443 55.6043 22.3797C55.2186 21.5021 54.8879 20.6245 54.3368 19.8017C53.2898 19.9114 52.2978 19.8565 51.3059 19.7468C51.0303 20.2405 50.7548 20.789 50.4241 21.2827C50.2588 21.6118 50.0935 21.9409 49.8731 22.27C49.8179 22.4894 49.5975 22.5991 49.4322 22.4894C47.834 21.8861 46.4012 20.8439 45.3542 19.5823C45.244 19.4177 45.244 19.2531 45.3542 19.0886C45.9053 18.3755 46.4563 17.6076 47.0074 16.6751C46.4012 15.8523 45.8501 14.9198 45.3542 13.7679C45.1337 13.8228 44.9133 13.8776 44.6929 13.9325C43.9214 14.097 43.0947 14.2616 42.2681 14.3713C42.0477 14.3713 41.8823 14.2616 41.8272 14.0422C41.3313 12.232 41.4966 10.2574 42.213 8.06327C42.2681 7.84386 42.4885 7.73415 42.709 7.78901C43.8111 8.06327 44.9133 8.33753 46.0155 8.61179C46.4563 7.6793 47.0625 6.74681 47.6136 5.86917C47.0625 5.15609 46.5114 4.38816 45.9604 3.45567C45.8501 3.29112 45.9053 3.07171 46.0706 2.962C47.283 1.91981 48.7709 0.987318 50.5344 0.219386C50.7548 0.109681 50.9752 0.219386 51.0854 0.383943C51.6365 1.31643 52.1325 2.30377 52.5183 3.29112C53.6204 3.12656 54.7226 3.07171 55.8248 3.18141C56.3207 2.24892 56.8718 1.26158 57.5331 0.274238C57.6433 0.109681 57.8638 0.0548286 58.0842 0.109681C59.4068 0.767909 60.6192 1.59069 61.7214 2.46833C61.9969 2.74259 62.3275 2.962 62.6031 3.23626C62.7684 3.34597 62.9337 3.51053 62.9888 3.78479C63.044 3.89449 62.9888 4.0042 62.9337 4.1139C62.6582 4.49787 62.4378 4.82698 62.1622 5.21095C61.8316 5.70462 61.4458 6.25314 61.0601 6.80166C61.3907 7.5696 61.7214 8.39238 61.9969 9.21517C62.9337 9.32487 64.1461 9.48943 65.4136 9.9831C65.5789 10.038 65.6892 10.2025 65.6892 10.3671C65.7994 12.0126 65.5789 13.5485 65.0279 14.9747C64.9727 15.1392 64.8074 15.2489 64.6421 15.2489H64.2563C63.4297 15.1941 62.548 15.1941 61.6662 15.2489C61.3356 16.0717 60.7845 16.8945 60.0681 17.7721C60.5641 18.5949 61.0601 19.4726 61.5009 20.5147C61.6111 20.7342 61.5009 20.9536 61.3356 21.0633C59.517 21.9409 57.7536 22.4894 55.9901 22.654ZM54.5573 18.924C54.7226 18.924 54.8328 18.9789 54.8879 19.0886C55.4941 19.9662 55.8799 20.8987 56.2105 21.7215C57.6433 21.5569 59.0762 21.0633 60.4539 20.405C60.013 19.4726 59.5721 18.6498 59.0762 17.8818C58.9659 17.7173 59.021 17.5527 59.1313 17.3882C60.013 16.346 60.5641 15.4683 60.8947 14.5907C60.9498 14.4261 61.1152 14.3164 61.2254 14.3164C62.2724 14.2067 63.2644 14.2616 64.2012 14.3164H64.2563C64.6421 13.1645 64.8625 11.9029 64.8074 10.5865C63.595 10.1477 62.4929 9.9831 61.6111 9.92825C61.4458 9.92825 61.2805 9.81854 61.2254 9.65399C60.8947 8.7215 60.509 7.73415 60.1232 6.85652C60.0681 6.74681 60.0681 6.58226 60.1783 6.47255C60.6192 5.81432 61.0049 5.2658 61.4458 4.66242C61.6662 4.38816 61.8316 4.05905 62.052 3.78479C62.052 3.78479 61.9969 3.78479 61.9969 3.72993C61.7214 3.45567 61.4458 3.23626 61.1152 2.962C60.1232 2.13922 59.0762 1.42614 57.974 0.877613C57.3678 1.8101 56.8718 2.74259 56.431 3.67508C56.3758 3.83964 56.2105 3.89449 55.9901 3.89449C54.7777 3.83964 53.5653 3.89449 52.3529 4.1139C52.1325 4.16875 51.9672 4.05905 51.9121 3.83964C51.5263 2.90715 51.0854 1.97466 50.5895 1.09702C49.1566 1.75525 47.9443 2.46833 46.9523 3.34597C47.4483 4.22361 48.0545 4.99154 48.5505 5.64977C48.6607 5.81432 48.6607 5.97888 48.5505 6.14344C47.834 7.24048 47.1727 8.28268 46.6768 9.37972C46.5666 9.54428 46.4012 9.65399 46.1808 9.59913C45.0235 9.32487 43.9765 9.05061 42.8743 8.77635C42.3232 10.5316 42.213 12.1223 42.4885 13.5485C43.2049 13.4388 43.8662 13.3291 44.5275 13.1645C44.8582 13.1097 45.1888 13 45.5195 12.9451C45.7399 12.8903 45.9053 13 45.9604 13.2194C46.5114 14.5358 47.1176 15.578 47.834 16.4557C47.9443 16.6202 47.9443 16.7848 47.8892 16.9493C47.283 17.8818 46.7319 18.6498 46.2359 19.3628C47.0625 20.3502 48.1647 21.1181 49.3771 21.6118C49.4873 21.3924 49.5975 21.173 49.7077 20.9536C50.0384 20.3502 50.369 19.7468 50.6997 19.1434C50.8099 18.9789 50.9201 18.924 51.0854 18.924C52.1876 19.0337 53.3449 19.0886 54.4471 18.9789C54.5022 18.924 54.5573 18.924 54.5573 18.924Z" fill="black"/>
<path d="M53.0142 13.5485C52.5734 13.5485 52.0774 13.4388 51.6916 13.2742C51.3059 13.1097 51.0303 12.8903 50.865 12.6708C50.6446 12.3417 50.5343 11.9029 50.5343 11.6287C50.4241 10.5316 50.6997 9.54427 51.3059 8.83119C52.0223 7.95355 53.1795 7.56958 54.1164 7.8987C54.1715 7.8987 54.2266 7.95355 54.2817 8.0084C55.3288 8.33752 56.0452 9.32486 56.1003 10.4219C56.1554 11.4641 55.6043 12.5063 54.6675 13.1097C54.2266 13.3839 53.6204 13.5485 53.0142 13.5485ZM53.4 8.55692C52.8489 8.55692 52.2978 8.83119 51.9121 9.27C51.4712 9.81853 51.2507 10.5865 51.361 11.4641C51.361 11.6835 51.4161 11.9029 51.5263 12.1223C51.6365 12.232 51.7467 12.3417 51.9672 12.4514C52.6836 12.7806 53.5653 12.7257 54.2266 12.3417C54.8879 11.9578 55.3288 11.1898 55.2737 10.4219C55.2186 9.65397 54.7226 8.94089 54.0062 8.72148H53.9511C53.896 8.72148 53.7857 8.66663 53.6755 8.61178C53.6204 8.61178 53.5102 8.55692 53.4 8.55692Z" fill="black"/>
<path d="M82.9932 52.2194C81.7808 50.2995 81.2848 47.886 81.891 45.7468C82.387 43.8818 83.5994 42.2911 85.0873 40.9198C83.379 38.3417 81.4502 35.8734 79.356 33.5696C79.1907 33.3502 78.9703 33.1856 78.7499 33.0211C78.4192 32.7468 77.9232 32.5822 77.4824 32.308C75.6087 34.3375 72.7982 35.4894 69.9325 35.4346C66.2403 34.9957 62.9889 32.308 61.7214 28.7974C58.1944 29.3459 54.6675 30.3881 51.4161 31.7595C52.0774 32.8565 52.2427 34.2278 52.2427 35.5443C52.2427 36.9704 51.9672 38.3966 51.361 39.6582C50.7548 40.9198 49.7078 42.0168 48.4403 42.5654C47.6687 42.8945 46.8972 43.0042 46.0706 43.1139C44.6378 43.2236 43.2601 43.2236 41.8273 43.1139C41.8273 43.1139 39.1269 53.0421 39.4576 53.0421C40.3393 53.2616 41.2211 53.481 42.0477 53.7552C42.9845 54.0295 43.9765 54.3586 44.8031 54.9071C45.6297 55.4557 46.3461 56.2236 46.5666 57.2109C46.7319 57.8692 46.6768 58.5274 46.5666 59.1856C46.1808 61.5443 44.9133 63.7383 43.1499 65.3291C43.1499 65.3291 49.818 71.9113 49.9282 71.8565C50.6997 70.7594 51.9121 70.1012 53.1245 69.443C53.6204 69.1687 54.1164 68.9493 54.6675 68.7299C56.6514 68.1265 58.9108 68.7299 60.3988 70.1561C61.8867 71.5274 62.7133 73.6118 62.8235 75.6962C65.1932 75.5865 67.5629 75.367 69.8774 75.1476C70.9245 75.0379 71.9715 74.9282 72.9084 74.1603C72.8533 72.0759 73.2941 69.9915 74.1759 68.1265C74.6167 67.194 75.1678 66.3713 75.9393 65.713C77.0966 64.7257 78.6396 64.3417 80.1827 64.4514C81.6706 64.5611 83.1585 65.0548 84.5913 65.6033C86.1344 62.6962 87.6774 59.7341 88.1734 56.3881C86.1344 55.5105 84.2056 54.1392 82.9932 52.2194ZM71.6409 52.8227C71.4756 54.194 70.8694 55.4557 69.9876 56.4978C69.5468 57.0464 69.0508 57.4852 68.4997 57.8692C67.9486 58.2531 67.2873 58.6371 66.626 58.8016C65.9096 58.9662 65.1381 58.9113 64.4217 58.9113C63.6502 58.9113 62.8787 58.9113 62.1622 58.6371C61.5009 58.4177 60.8948 57.9789 60.3437 57.4303C59.8477 56.9367 59.2415 56.4978 58.8557 55.8945C57.478 53.481 57.8638 50.2447 59.517 48.0506C60.3988 46.8438 61.6663 45.9662 62.9338 45.308C64.3115 44.5949 65.9647 44.3206 67.5078 44.7594C68.0037 44.8692 68.1139 45.308 68.0588 45.6919C70.6489 47.0084 71.9715 50.0801 71.6409 52.8227Z" fill="white"/>
<path d="M71.4756 43.1139C69.3263 41.6877 66.5709 41.194 64.4768 41.4134C60.8396 41.7974 58.1944 43.6624 56.2656 46.7341C54.392 49.8059 54.0613 53.8649 55.5492 57.1561C57.0372 60.4472 60.3437 62.9156 63.9257 63.3544C66.9567 63.7383 70.0978 62.6961 72.4124 60.7215C74.7269 58.7468 75.6638 55.8396 75.9393 52.7679C76.1047 51.232 75.4985 45.6919 71.4756 43.1139ZM67.3975 58.9662C64.4768 59.9535 61.005 58.8565 59.1864 56.3881C58.6353 55.6751 58.2496 54.8523 58.0842 53.9198C57.9189 53.0421 58.0291 52.1097 58.2495 51.232C58.8006 49.0928 60.013 47.0632 61.8316 45.8565C63.6502 44.6497 66.1852 44.3206 68.1139 45.3628C70.5387 46.6244 72.0818 49.2573 72.192 51.8902C72.3573 54.962 70.2632 57.9788 67.3975 58.9662Z" fill="#3943ED"/>
<g opacity="0.1294">
<path opacity="0.1294" d="M76.6557 51.616C76.5455 51.2321 76.4353 50.9029 76.27 50.519C76.0495 49.8607 75.774 49.2025 75.5536 48.4894C75.4984 48.4894 75.4433 48.4894 75.4433 48.4894C74.6718 48.8186 75.1127 49.3671 75.1127 50.0253C75.1678 50.6835 75.3331 51.3418 75.4433 52C75.5535 52.6582 75.5536 53.3164 75.4984 54.0295V54.0844C75.3882 54.4683 75.2229 54.7975 75.1127 55.1814C74.6718 56.7173 74.5065 57.211 73.6248 58.4177C73.5697 58.4726 73.5145 58.5823 73.4043 58.692C73.3492 58.8017 73.0737 59.1308 73.0186 59.2405C73.0186 59.2954 72.9635 59.2954 72.9635 59.2954C72.9083 59.3502 72.9083 59.4051 72.8532 59.4599C72.743 59.6245 72.1919 60.173 72.1919 60.173C71.4204 60.7764 71.5306 60.7215 70.704 61.3249C70.0978 61.7089 69.4365 62.0928 68.7752 62.3671C67.9486 62.6962 66.9566 63.1899 65.6892 63.2447C64.6972 63.2447 63.7053 63.2447 62.7684 63.135C61.2805 62.8608 60.8947 62.5865 59.6272 61.8734C59.2415 61.654 58.8557 61.1603 58.3597 61.27C58.6904 61.654 59.0762 62.038 59.4068 62.3671C59.8477 62.8608 60.3436 63.2996 60.7845 63.7384C62.2724 64.3418 63.9257 64.6709 65.5238 64.5612C66.4607 64.5063 67.3424 64.5063 68.2241 64.2321C69.7672 63.8481 71.2551 63.0253 72.5226 62.038C73.4594 61.2152 74.4514 60.4473 75.2229 59.4599C76.3251 57.7046 76.821 55.6202 76.821 54.0844C76.821 53.5907 76.7659 52.6034 76.6557 51.616Z" fill="black"/>
</g>
<g opacity="0.1294">
<path opacity="0.1294" d="M88.6693 56.4978C88.5591 56.0042 87.8427 55.9493 87.6223 56.3881C86.5752 58.1983 85.5282 60.0084 84.4811 61.7637C84.0402 62.4767 83.4341 63.135 83.1034 63.9029C82.9932 64.1223 82.8279 64.2869 82.8279 64.5063C82.7176 65.1645 83.4892 65.713 84.0954 65.3291C84.3158 65.2193 84.426 64.9999 84.5362 64.7805C84.6464 64.6708 84.7015 64.5611 84.8118 64.4514C85.8588 62.9156 86.4099 61.1054 87.2916 59.4599C87.7325 58.5822 88.1734 57.7594 88.6142 56.8818C88.6693 56.8269 88.6693 56.6624 88.6693 56.4978Z" fill="black"/>
</g>
<g opacity="0.1294">
<path opacity="0.1294" d="M71.7511 72.405C71.3102 72.2953 70.9245 72.5148 70.5387 72.5696C67.8935 73.2827 66.0749 73.3375 63.044 73.2278C61.6663 73.2827 61.6663 75.2574 63.044 75.3122C65.3585 75.3671 67.7282 75.4219 69.9876 74.8186C70.5387 74.7088 71.0347 74.5991 71.5857 74.4346C71.9164 74.3797 72.247 74.2152 72.4124 73.8861C72.743 73.3375 72.4124 72.5696 71.7511 72.405Z" fill="black"/>
</g>
<path d="M62.6582 75.8607C62.4378 75.8607 62.2725 75.6962 62.2173 75.4768C62.1071 73.5021 61.2254 71.5822 59.7375 70.2109C59.1313 69.6624 58.1944 68.9493 57.0372 68.8396C56.0452 68.7299 55.0533 69.059 54.1164 69.443C52.6285 69.9915 51.1406 70.7046 50.2037 72.1308C50.1486 72.2405 50.0384 72.2953 49.9282 72.2953C49.818 72.2953 49.7077 72.2953 49.5975 72.2405C46.7319 70.0464 44.4725 67.9071 42.709 65.6033C42.5437 65.4388 42.5988 65.1645 42.7641 65C44.5276 63.5738 45.7399 61.4894 46.1257 59.2953C46.291 58.4177 46.291 57.7595 46.0706 57.2109C45.7399 56.2236 44.8582 55.346 43.3152 54.6329C41.9375 53.9747 40.4495 53.5358 38.8514 53.2616C38.7412 53.2616 38.631 53.2067 38.5759 53.097C38.5208 52.9873 38.4656 52.8776 38.5208 52.7679C39.0718 49.4219 40.0638 46.0211 41.3864 42.6751C41.4966 42.4557 41.717 42.346 41.9375 42.4557C43.756 43.1139 48.2198 43.1687 50.0384 40.9747C53.0694 37.3544 51.6365 33.2405 51.1406 32.0886C51.0303 31.8692 51.1406 31.6498 51.361 31.5401C53.0694 30.7173 55.9901 29.8945 59.0211 29.0169C59.9579 28.7426 60.9499 28.4683 61.8867 28.1941C62.052 28.1392 62.2173 28.1941 62.3276 28.3038C62.4378 28.4135 62.4929 28.578 62.4378 28.6877C62.2725 29.346 63.9257 32.4725 66.5158 33.8439C72.4675 36.9156 76.27 33.0759 77.317 31.8143C77.3721 31.7046 77.4824 31.6498 77.6477 31.6498C77.7579 31.6498 77.8681 31.7046 77.9783 31.7595C80.8991 34.7215 83.379 37.6287 85.5833 40.7004C85.6935 40.8649 85.6935 41.1392 85.4731 41.3038C82.9381 43.1139 81.6155 46.5147 82.2768 49.5316C82.9381 52.5485 85.5282 55.1266 88.6693 55.9493C88.7796 56.0042 88.8898 56.059 88.9449 56.1687C89 56.2785 89 56.3882 89 56.4979C88.0081 59.8987 86.5201 63.2447 84.8118 66.097C84.7015 66.2616 84.4811 66.3713 84.2607 66.2616C81.9461 65.2742 79.7418 64.4515 77.7028 65.1645C76.2149 65.6582 74.9474 67.0295 74.2861 68.8396C73.7901 70.2109 73.5697 71.7468 73.4043 73.3375C73.3492 73.6666 73.3492 73.9958 73.2941 74.3797C73.2941 74.5443 73.1288 74.7088 72.9635 74.7637C69.3814 75.3671 66.0198 75.8059 62.6582 75.8607C62.7133 75.8607 62.6582 75.8607 62.6582 75.8607ZM56.7616 68.0168C56.9269 68.0168 57.0372 68.0168 57.2025 68.0168C58.3047 68.1266 59.4068 68.6751 60.3988 69.6076C61.8867 71.0337 62.8786 72.9536 63.0991 75.0379C66.1851 74.9282 69.2712 74.5443 72.5226 73.886C72.5777 73.6666 72.5777 73.3924 72.5777 73.173C72.743 71.5274 72.9084 69.9915 73.5146 68.5105C74.2861 66.481 75.7189 64.9451 77.4824 64.3417C79.6867 63.5738 82.0564 64.3966 84.3158 65.3291C85.8588 62.6962 87.1814 59.6793 88.1183 56.6076C84.8118 55.6202 82.2217 52.8776 81.5053 49.6962C80.7889 46.4599 82.1115 42.8945 84.7015 40.865C82.6625 38.0675 80.4031 35.3797 77.7579 32.692C76.4353 34.1181 72.3573 37.6835 66.2403 34.5569C63.8706 33.3502 61.9969 30.6624 61.7214 29.1266C60.9499 29.346 60.1232 29.5654 59.3517 29.8396C56.5412 30.6624 53.896 31.4304 52.1876 32.1983C52.7938 33.8439 53.896 37.9578 50.8099 41.578C48.7709 43.8818 44.3071 43.9367 42.1028 43.3333C40.9455 46.3502 40.0638 49.4219 39.5127 52.4936C41.0557 52.7679 42.4886 53.2067 43.8112 53.8649C45.5746 54.6877 46.6217 55.7299 47.0074 56.9367C47.2279 57.6498 47.2279 58.4177 47.0625 59.4599C46.6217 61.7088 45.4093 63.8481 43.7009 65.4388C45.2991 67.4683 47.283 69.3882 49.818 71.308C50.865 69.9367 52.3529 69.2236 53.8409 68.6751C54.7226 68.346 55.7146 68.0168 56.7616 68.0168Z" fill="black"/>
<path d="M64.8074 59.7341C62.3827 59.7341 59.9579 58.5822 58.5251 56.6075C57.9189 55.7848 57.5331 54.8523 57.3678 53.9746C57.2025 53.1519 57.3127 52.2194 57.5331 51.1223C58.1393 48.7637 59.517 46.6793 61.2805 45.5274C63.3195 44.1561 65.9647 43.9915 68.0037 44.9789C70.4836 46.2405 72.1369 48.9831 72.3022 51.8902C72.4124 55.0717 70.2081 58.308 67.1771 59.2953C66.4056 59.6244 65.6341 59.7341 64.8074 59.7341ZM65.1932 45.1983C64.0359 45.1983 62.8235 45.5274 61.7214 46.2405C60.0681 47.3375 58.8557 49.1476 58.3047 51.3417C58.0842 52.2742 58.0291 53.097 58.1393 53.8649C58.2495 54.6329 58.6353 55.4008 59.1313 56.1139C60.8396 58.4177 64.1461 59.4599 66.8465 58.5274C69.5468 57.5949 71.5307 54.7426 71.4204 51.9451C71.3102 49.3122 69.8223 46.8987 67.5629 45.7468C66.9016 45.3628 66.0749 45.1983 65.1932 45.1983Z" fill="black"/>
<path d="M64.8074 63.7932C64.3666 63.7932 63.9808 63.7932 63.54 63.7384C59.7926 63.2995 56.3759 60.7763 54.8328 57.2658C53.2898 53.865 53.5653 49.6962 55.5492 46.4599C57.5331 43.1688 60.3988 41.3586 64.0359 40.9198C66.4056 40.6455 69.2712 41.3586 71.3102 42.7299C75.6638 45.5823 76.1047 51.4514 75.9944 52.7679C75.6087 56.443 74.4514 59.1308 72.3022 60.9958C70.2632 62.8059 67.5078 63.7932 64.8074 63.7932ZM64.1461 41.7974C60.7294 42.1814 58.1393 43.827 56.2656 46.8987C54.392 49.9156 54.1715 53.7552 55.6043 56.9367C57.0372 60.1181 60.2334 62.4768 63.6502 62.9156C66.5158 63.2447 69.5468 62.3122 71.8062 60.3375C73.735 58.6371 74.8372 56.1687 75.1678 52.6582C75.3331 51.0126 74.6167 45.8565 70.8694 43.3882C68.9957 42.1814 66.3505 41.5232 64.1461 41.7974Z" fill="black"/>
<path d="M71.4756 43.1139C69.3263 41.6877 66.5709 41.194 64.4768 41.4134C60.8396 41.7974 58.1944 43.6624 56.2656 46.7341C54.392 49.8059 54.0613 53.8649 55.5492 57.1561C57.0372 60.4472 60.3437 62.9156 63.9257 63.3544C66.9567 63.7383 70.0978 62.6961 72.4124 60.7215C74.7269 58.7468 75.6638 55.8396 75.9393 52.7679C76.1047 51.232 75.4985 45.6919 71.4756 43.1139ZM67.3975 58.9662C64.4768 59.9535 61.005 58.8565 59.1864 56.3881C58.6353 55.6751 58.2496 54.8523 58.0842 53.9198C57.9189 53.0421 58.0291 52.1097 58.2495 51.232C58.8006 49.0928 60.013 47.0632 61.8316 45.8565C63.6502 44.6497 66.1852 44.3206 68.1139 45.3628C70.5387 46.6244 72.0818 49.2573 72.192 51.8902C72.3573 54.962 70.2632 57.9788 67.3975 58.9662Z" fill="#3943ED"/>
<g opacity="0.1294">
<path opacity="0.1294" d="M76.6557 51.616C76.5455 51.2321 76.4353 50.9029 76.27 50.519C76.0495 49.8607 75.774 49.2025 75.5536 48.4894C75.4984 48.4894 75.4433 48.4894 75.4433 48.4894C74.6718 48.8186 75.1127 49.3671 75.1127 50.0253C75.1678 50.6835 75.3331 51.3418 75.4433 52C75.5535 52.6582 75.5536 53.3164 75.4984 54.0295V54.0844C75.3882 54.4683 75.2229 54.7975 75.1127 55.1814C74.6718 56.7173 74.5065 57.211 73.6248 58.4177C73.5697 58.4726 73.5145 58.5823 73.4043 58.692C73.3492 58.8017 73.0737 59.1308 73.0186 59.2405C73.0186 59.2954 72.9635 59.2954 72.9635 59.2954C72.9083 59.3502 72.9083 59.4051 72.8532 59.4599C72.743 59.6245 72.1919 60.173 72.1919 60.173C71.4204 60.7764 71.5306 60.7215 70.704 61.3249C70.0978 61.7089 69.4365 62.0928 68.7752 62.3671C67.9486 62.6962 66.9566 63.1899 65.6892 63.2447C64.6972 63.2447 63.7053 63.2447 62.7684 63.135C61.2805 62.8608 60.8947 62.5865 59.6272 61.8734C59.2415 61.654 58.8557 61.1603 58.3597 61.27C58.6904 61.654 59.0762 62.038 59.4068 62.3671C59.8477 62.8608 60.3436 63.2996 60.7845 63.7384C62.2724 64.3418 63.9257 64.6709 65.5238 64.5612C66.4607 64.5063 67.3424 64.5063 68.2241 64.2321C69.7672 63.8481 71.2551 63.0253 72.5226 62.038C73.4594 61.2152 74.4514 60.4473 75.2229 59.4599C76.3251 57.7046 76.821 55.6202 76.821 54.0844C76.821 53.5907 76.7659 52.6034 76.6557 51.616Z" fill="black"/>
</g>
<g opacity="0.1294">
<path opacity="0.1294" d="M88.6693 56.4978C88.5591 56.0042 87.8427 55.9493 87.6223 56.3881C86.5752 58.1983 85.5282 60.0084 84.4811 61.7637C84.0402 62.4767 83.4341 63.135 83.1034 63.9029C82.9932 64.1223 82.8279 64.2869 82.8279 64.5063C82.7176 65.1645 83.4892 65.713 84.0954 65.3291C84.3158 65.2193 84.426 64.9999 84.5362 64.7805C84.6464 64.6708 84.7015 64.5611 84.8118 64.4514C85.8588 62.9156 86.4099 61.1054 87.2916 59.4599C87.7325 58.5822 88.1734 57.7594 88.6142 56.8818C88.6693 56.8269 88.6693 56.6624 88.6693 56.4978Z" fill="black"/>
</g>
<g opacity="0.1294">
<path opacity="0.1294" d="M71.7511 72.405C71.3102 72.2953 70.9245 72.5148 70.5387 72.5696C67.8935 73.2827 66.0749 73.3375 63.044 73.2278C61.6663 73.2827 61.6663 75.2574 63.044 75.3122C65.3585 75.3671 67.7282 75.4219 69.9876 74.8186C70.5387 74.7088 71.0347 74.5991 71.5857 74.4346C71.9164 74.3797 72.247 74.2152 72.4124 73.8861C72.743 73.3375 72.4124 72.5696 71.7511 72.405Z" fill="black"/>
</g>
<path d="M62.6582 75.8607C62.4378 75.8607 62.2725 75.6962 62.2173 75.4768C62.1071 73.5021 61.2254 71.5822 59.7375 70.2109C59.1313 69.6624 58.1944 68.9493 57.0372 68.8396C56.0452 68.7299 55.0533 69.059 54.1164 69.443C52.6285 69.9915 51.1406 70.7046 50.2037 72.1308C50.1486 72.2405 50.0384 72.2953 49.9282 72.2953C49.818 72.2953 49.7077 72.2953 49.5975 72.2405C46.7319 70.0464 44.4725 67.9071 42.709 65.6033C42.5437 65.4388 42.5988 65.1645 42.7641 65C44.5276 63.5738 45.7399 61.4894 46.1257 59.2953C46.291 58.4177 46.291 57.7595 46.0706 57.2109C45.7399 56.2236 44.8582 55.346 43.3152 54.6329C41.9375 53.9747 40.4495 53.5358 38.8514 53.2616C38.7412 53.2616 38.631 53.2067 38.5759 53.097C38.5208 52.9873 38.4656 52.8776 38.5208 52.7679C39.0718 49.4219 40.0638 46.0211 41.3864 42.6751C41.4966 42.4557 41.717 42.346 41.9375 42.4557C43.756 43.1139 48.2198 43.1687 50.0384 40.9747C53.0694 37.3544 51.6365 33.2405 51.1406 32.0886C51.0303 31.8692 51.1406 31.6498 51.361 31.5401C53.0694 30.7173 55.9901 29.8945 59.0211 29.0169C59.9579 28.7426 60.9499 28.4683 61.8867 28.1941C62.052 28.1392 62.2173 28.1941 62.3276 28.3038C62.4378 28.4135 62.4929 28.578 62.4378 28.6877C62.2725 29.346 63.9257 32.4725 66.5158 33.8439C72.4675 36.9156 76.27 33.0759 77.317 31.8143C77.3721 31.7046 77.4824 31.6498 77.6477 31.6498C77.7579 31.6498 77.8681 31.7046 77.9783 31.7595C80.8991 34.7215 83.379 37.6287 85.5833 40.7004C85.6935 40.8649 85.6935 41.1392 85.4731 41.3038C82.9381 43.1139 81.6155 46.5147 82.2768 49.5316C82.9381 52.5485 85.5282 55.1266 88.6693 55.9493C88.7796 56.0042 88.8898 56.059 88.9449 56.1687C89 56.2785 89 56.3882 89 56.4979C88.0081 59.8987 86.5201 63.2447 84.8118 66.097C84.7015 66.2616 84.4811 66.3713 84.2607 66.2616C81.9461 65.2742 79.7418 64.4515 77.7028 65.1645C76.2149 65.6582 74.9474 67.0295 74.2861 68.8396C73.7901 70.2109 73.5697 71.7468 73.4043 73.3375C73.3492 73.6666 73.3492 73.9958 73.2941 74.3797C73.2941 74.5443 73.1288 74.7088 72.9635 74.7637C69.3814 75.3671 66.0198 75.8059 62.6582 75.8607C62.7133 75.8607 62.6582 75.8607 62.6582 75.8607ZM56.7616 68.0168C56.9269 68.0168 57.0372 68.0168 57.2025 68.0168C58.3047 68.1266 59.4068 68.6751 60.3988 69.6076C61.8867 71.0337 62.8786 72.9536 63.0991 75.0379C66.1851 74.9282 69.2712 74.5443 72.5226 73.886C72.5777 73.6666 72.5777 73.3924 72.5777 73.173C72.743 71.5274 72.9084 69.9915 73.5146 68.5105C74.2861 66.481 75.7189 64.9451 77.4824 64.3417C79.6867 63.5738 82.0564 64.3966 84.3158 65.3291C85.8588 62.6962 87.1814 59.6793 88.1183 56.6076C84.8118 55.6202 82.2217 52.8776 81.5053 49.6962C80.7889 46.4599 82.1115 42.8945 84.7015 40.865C82.6625 38.0675 80.4031 35.3797 77.7579 32.692C76.4353 34.1181 72.3573 37.6835 66.2403 34.5569C63.8706 33.3502 61.9969 30.6624 61.7214 29.1266C60.9499 29.346 60.1232 29.5654 59.3517 29.8396C56.5412 30.6624 53.896 31.4304 52.1876 32.1983C52.7938 33.8439 53.896 37.9578 50.8099 41.578C48.7709 43.8818 44.3071 43.9367 42.1028 43.3333C40.9455 46.3502 40.0638 49.4219 39.5127 52.4936C41.0557 52.7679 42.4886 53.2067 43.8112 53.8649C45.5746 54.6877 46.6217 55.7299 47.0074 56.9367C47.2279 57.6498 47.2279 58.4177 47.0625 59.4599C46.6217 61.7088 45.4093 63.8481 43.7009 65.4388C45.2991 67.4683 47.283 69.3882 49.818 71.308C50.865 69.9367 52.3529 69.2236 53.8409 68.6751C54.7226 68.346 55.7146 68.0168 56.7616 68.0168Z" fill="black"/>
<path d="M64.8074 59.7341C62.3827 59.7341 59.9579 58.5822 58.5251 56.6075C57.9189 55.7848 57.5331 54.8523 57.3678 53.9746C57.2025 53.1519 57.3127 52.2194 57.5331 51.1223C58.1393 48.7637 59.517 46.6793 61.2805 45.5274C63.3195 44.1561 65.9647 43.9915 68.0037 44.9789C70.4836 46.2405 72.1369 48.9831 72.3022 51.8902C72.4124 55.0717 70.2081 58.308 67.1771 59.2953C66.4056 59.6244 65.6341 59.7341 64.8074 59.7341ZM65.1932 45.1983C64.0359 45.1983 62.8235 45.5274 61.7214 46.2405C60.0681 47.3375 58.8557 49.1476 58.3047 51.3417C58.0842 52.2742 58.0291 53.097 58.1393 53.8649C58.2495 54.6329 58.6353 55.4008 59.1313 56.1139C60.8396 58.4177 64.1461 59.4599 66.8465 58.5274C69.5468 57.5949 71.5307 54.7426 71.4204 51.9451C71.3102 49.3122 69.8223 46.8987 67.5629 45.7468C66.9016 45.3628 66.0749 45.1983 65.1932 45.1983Z" fill="black"/>
<path d="M64.8074 63.7932C64.3666 63.7932 63.9808 63.7932 63.54 63.7384C59.7926 63.2995 56.3759 60.7763 54.8328 57.2658C53.2898 53.865 53.5653 49.6962 55.5492 46.4599C57.5331 43.1688 60.3988 41.3586 64.0359 40.9198C66.4056 40.6455 69.2712 41.3586 71.3102 42.7299C75.6638 45.5823 76.1047 51.4514 75.9944 52.7679C75.6087 56.443 74.4514 59.1308 72.3022 60.9958C70.2632 62.8059 67.5078 63.7932 64.8074 63.7932ZM64.1461 41.7974C60.7294 42.1814 58.1393 43.827 56.2656 46.8987C54.392 49.9156 54.1715 53.7552 55.6043 56.9367C57.0372 60.1181 60.2334 62.4768 63.6502 62.9156C66.5158 63.2447 69.5468 62.3122 71.8062 60.3375C73.735 58.6371 74.8372 56.1687 75.1678 52.6582C75.3331 51.0126 74.6167 45.8565 70.8694 43.3882C68.9957 42.1814 66.3505 41.5232 64.1461 41.7974Z" fill="black"/>
<path d="M85.6935 23.9704C85.4179 23.9704 85.2526 23.751 85.2526 23.5316C85.6384 19.8565 85.0322 16.1266 83.434 12.7257C83.3238 12.5063 83.4341 12.2869 83.6545 12.1772C83.8749 12.0675 84.0953 12.1772 84.2056 12.3966C85.8588 15.9072 86.465 19.8017 86.0792 23.5865C86.0792 23.8059 85.9139 23.9704 85.6935 23.9704Z" fill="black"/>
<path d="M27.2235 78H27.1684C22.9251 77.1772 18.9022 74.9831 15.8712 71.9114C15.7059 71.7468 15.7059 71.4725 15.8712 71.308C16.0365 71.1434 16.3121 71.1434 16.4774 71.308C19.3982 74.27 23.2557 76.3544 27.3338 77.1772C27.5542 77.232 27.7195 77.4514 27.6644 77.6709C27.6093 77.8354 27.444 78 27.2235 78Z" fill="black"/>
</g>
<defs>
<clipPath id="clip0_109_450">
<rect width="89" height="78" fill="white"/>
</clipPath>
</defs>
</svg>
