<svg width="94" height="51" viewBox="0 0 94 51" fill="none" xmlns="http://www.w3.org/2000/svg">
<g clip-path="url(#clip0_109_850)">
<path d="M19.3479 11.6911C15.9235 21.123 12.4991 30.6113 10.2161 40.5515C11.9854 41.1163 13.8118 41.5117 15.6952 41.5681C16.3801 39.1396 17.122 36.711 17.8069 34.2824C17.8069 34.2824 17.6928 34.226 17.5786 34.1695C19.0055 34.4519 20.2611 35.1861 21.3455 36.1462C22.4299 37.1063 23.286 38.1794 24.3133 39.4784C24.1991 40.8339 25.2265 42.1894 26.5392 42.6412C27.8519 43.0931 29.3358 42.8107 30.5914 42.02C30.4772 42.6412 30.4772 43.2625 30.5914 43.8273C30.6485 44.1097 30.7055 44.3356 30.8197 44.5615C31.105 45.0698 31.5616 45.4087 32.0753 45.6911C32.9314 46.1429 33.9587 46.2559 34.986 46.0864C34.8719 47.216 35.728 48.3456 36.8695 48.7409C37.9539 49.1363 39.2095 48.9668 40.3509 48.515C40.5222 48.9103 40.6934 49.3057 41.0358 49.5881C41.3783 49.927 41.8919 50.0399 42.4056 50.0964C43.6041 50.2093 44.8027 49.9269 45.8871 49.2492C47.0856 49.8705 48.6266 49.927 49.8251 49.3057C50.1676 49.1363 50.4529 48.9668 50.6812 48.6844C51.1949 48.1761 51.4232 47.4419 51.4232 46.7077C51.4803 45.9735 51.3661 45.2957 51.3091 44.5615C51.9369 45.2392 52.5647 45.9735 53.3637 46.4253C54.1627 46.9336 55.133 47.1595 56.0461 46.9336C56.7881 46.7077 57.4159 46.1994 57.8154 45.5781C58.2149 44.9568 58.4432 44.1661 58.5003 43.319C58.7857 43.8273 59.1281 44.2791 59.4706 44.7309C59.813 45.1263 60.1554 45.5781 60.612 45.8605C61.0686 46.1429 61.5823 46.3688 62.153 46.3123C63.0091 46.1994 63.6369 45.5781 63.9794 44.7874C64.3218 44.0532 64.3789 43.206 64.4359 42.3588C64.4359 41.907 64.493 41.3987 64.493 40.8904C64.9496 41.6811 65.3491 42.5283 65.9769 43.2625C66.5477 43.9967 67.2896 44.618 68.2028 44.9004C68.4311 44.9568 68.6594 45.0133 68.8877 45.0698C69.2301 45.1828 69.6867 45.2392 69.9721 45.0133C70.2004 44.8439 70.3145 44.505 70.3716 44.2226C70.4287 43.9402 70.3716 43.6014 70.5428 43.319C73.9101 42.0765 77.1633 40.6645 80.3595 39.1961C80.7019 40.3821 81.0443 41.5117 81.5009 42.6412C83.898 42.0765 86.1809 41.2293 88.3497 40.1562C90.2332 39.422 92.1166 38.6313 93.7717 37.6147C93.4864 28.2392 91.8883 18.7509 87.5507 10.4485C87.2653 9.94024 86.98 9.37545 86.5805 8.9801C81.8434 10.618 77.2204 12.5947 72.7687 14.9103C72.8828 15.1362 72.997 15.3622 72.997 15.6446C68.374 15.9834 63.9223 14.4585 59.5276 12.9336C58.1579 12.4253 56.731 11.9735 55.3042 11.8605C53.9915 11.7475 52.7359 11.9735 51.252 12.1429C49.711 11.2392 47.9988 10.618 46.2295 10.1661C45.2022 9.88376 44.1178 9.60137 43.0334 9.65784C42.0631 9.65784 41.0358 9.88376 40.1227 10.1661C34.986 11.6346 30.1348 14.402 24.827 14.9103C24.884 14.5715 24.884 14.1761 24.9411 13.8372C24.9411 13.6678 24.9982 13.4419 24.884 13.2725C22.8294 12.5947 21.1172 11.917 19.3479 11.6911Z" fill="white"/>
<path d="M90.9751 37.5017L86.1809 35.7508C86.1239 35.7508 86.0668 35.6379 86.1238 35.5814C86.1238 35.5249 86.238 35.4684 86.2951 35.5249L91.0322 37.2757C91.0892 37.2757 91.1463 37.3887 91.0892 37.4452C91.0892 37.4452 91.0322 37.5017 90.9751 37.5017Z" fill="black"/>
<path d="M92.5732 35.7509C89.9478 34.8472 87.3795 33.8306 84.8682 32.701C84.8112 32.6446 84.7541 32.5881 84.8112 32.5316C84.8682 32.4751 84.9253 32.4186 84.9824 32.4751C87.4365 33.6612 90.0048 34.6778 92.5732 35.525C92.6302 35.525 92.6873 35.6379 92.6873 35.6944C92.6873 35.6944 92.6302 35.7509 92.5732 35.7509Z" fill="black"/>
<path d="M92.9727 32.9834C90.0619 32.0233 87.1512 30.9502 84.3546 29.8206C84.2975 29.7641 84.2404 29.7076 84.2975 29.6512C84.3546 29.5947 84.4116 29.5382 84.4687 29.5947C87.2653 30.7807 90.119 31.7973 93.0297 32.7575C93.0868 32.7575 93.1439 32.8704 93.1439 32.9269C93.0868 32.9269 93.0297 32.9834 92.9727 32.9834Z" fill="black"/>
<path d="M92.9727 30.3289C89.5483 29.0864 86.98 28.0133 83.3843 26.4884C83.3273 26.4319 83.2702 26.3754 83.3273 26.3189C83.3843 26.2625 83.4414 26.206 83.4985 26.2625C87.0941 27.7309 89.6624 28.804 93.0297 30.103C93.0868 30.103 93.1439 30.216 93.0868 30.2724C93.0868 30.3289 93.0297 30.3289 92.9727 30.3289Z" fill="black"/>
<path d="M92.1736 27.3356C92.1166 27.3356 92.1166 27.3356 92.1736 27.3356L82.4711 23.4386C82.4141 23.3821 82.357 23.3256 82.4141 23.2691C82.4711 23.2127 82.5282 23.1562 82.5853 23.2127L92.2307 27.1097C92.2878 27.1662 92.3449 27.2226 92.2878 27.2791C92.2878 27.3356 92.2307 27.3356 92.1736 27.3356Z" fill="black"/>
<path d="M91.8312 24.5117H91.7741L81.3297 19.9369C81.2726 19.8805 81.2155 19.824 81.2726 19.7675C81.3297 19.711 81.3867 19.6545 81.4438 19.711L91.8883 24.2858C91.9453 24.3422 92.0024 24.3987 91.9454 24.4552C91.9454 24.4552 91.8883 24.5117 91.8312 24.5117Z" fill="black"/>
<path d="M90.8039 20.897H90.7468L80.1882 16.2093C80.1311 16.1529 80.0741 16.0964 80.1311 16.0399C80.1882 15.9834 80.2453 15.9269 80.3024 15.9834L90.8609 20.6711C90.918 20.7276 90.9751 20.7841 90.918 20.8406C90.918 20.897 90.861 20.897 90.8039 20.897Z" fill="black"/>
<path d="M88.4639 16.2093C88.4068 16.2093 88.4068 16.2093 88.4639 16.2093C85.7814 15.1927 83.099 14.2326 80.4736 13.3289C80.4165 13.3289 80.3594 13.2159 80.3594 13.1595C80.3594 13.103 80.4736 13.0465 80.5307 13.0465C83.2131 13.9502 85.8385 14.9103 88.4639 15.9269C88.521 15.9834 88.578 16.0399 88.521 16.0963C88.578 16.2093 88.521 16.2093 88.4639 16.2093Z" fill="black"/>
<path d="M88.2356 12.9335C88.2356 12.9335 88.1785 12.9335 88.2356 12.9335L84.4116 11.3522C84.3546 11.2957 84.2975 11.2392 84.3546 11.1827C84.4117 11.1262 84.4687 11.0698 84.5258 11.1262L88.2926 12.7076C88.3497 12.7641 88.4068 12.8206 88.3497 12.8771C88.3497 12.8771 88.2926 12.9335 88.2356 12.9335Z" fill="black"/>
<path d="M8.3898 8.24585C12.0996 9.48837 15.8664 10.6179 19.462 11.691C18.8913 14.1196 17.3503 16.2658 16.323 18.5814C15.8094 19.8239 15.4098 21.0664 15.0103 22.3655C13.184 28.3522 11.4147 34.3954 9.70249 40.4385C6.39223 39.309 3.82392 38.7442 0.228294 38.1229C3.53856 28.0133 6.50638 18.299 8.3898 8.24585Z" fill="#3943ED"/>
<g opacity="0.1294">
<path opacity="0.1294" d="M78.7043 38.0665C78.1336 38.2359 77.5628 38.4618 76.9921 38.6878C76.8779 38.6878 76.7638 38.6878 76.5926 38.7442C76.3072 38.8007 76.0219 38.9137 75.7936 39.0266C75.5082 39.1396 75.2228 39.1961 74.9375 39.3655C74.8233 39.422 74.4809 39.5349 74.3667 39.5914C74.3096 39.5914 74.3096 39.5914 74.2526 39.6479C74.1955 39.6479 74.0813 39.7044 74.0243 39.7044C73.9672 39.7044 73.9101 39.7044 73.8531 39.7044C73.796 39.7044 73.7389 39.7044 73.6818 39.6479C73.5677 39.5349 73.4535 39.422 73.3394 39.309C73.2253 39.1396 73.3394 39.309 73.3965 39.422C73.2823 39.309 73.2253 39.1961 73.1111 39.0831C73.054 39.0266 73.054 39.0266 73.054 38.9701C72.9399 38.8572 72.8828 38.6878 72.7687 38.5748C72.3691 38.01 72.0838 37.4452 71.7413 36.824C71.1135 35.5814 70.4857 34.2824 69.8008 33.0399C69.4013 32.1927 69.0589 31.3456 68.5452 30.5549C67.1184 28.3522 65.6916 26.6579 63.5228 24.7376C62.153 23.3821 60.5549 22.1961 58.8998 21.2359C57.7583 20.6147 56.5598 19.9934 55.2471 19.8804C54.3339 19.6545 54.1056 21.01 55.0759 21.123C55.932 21.1795 56.9022 21.5748 57.8725 22.1396C57.7583 22.3655 57.8154 22.6479 58.0437 22.8738C58.9569 23.6645 60.0413 24.2858 61.0115 25.02C60.9545 24.9635 61.5252 25.4153 61.6393 25.5283C61.7535 25.6412 61.8676 25.7542 61.9818 25.8672C61.8676 25.9236 61.8106 26.0366 61.8676 26.206C61.9247 26.6014 62.3813 27.0532 62.6096 27.4486C63.694 29.03 64.8925 30.5549 65.8057 32.2492C67.0042 34.5648 67.8603 36.8805 68.2599 40.0432C68.4882 41.0034 68.6023 42.8107 68.2599 43.319C68.2599 43.3755 68.2028 43.3755 68.1457 43.4319C68.1457 43.4319 68.0886 43.4319 68.0886 43.4884C68.0316 43.4884 68.0316 43.4884 67.9745 43.5449H67.9174C67.8033 43.5449 67.7462 43.5449 67.6891 43.5449C67.6321 43.5449 67.6321 43.5449 67.575 43.5449C67.2325 43.4319 67.4038 43.5449 66.8901 43.2625C66.034 42.8107 65.3491 43.9967 66.1481 44.505C68.2028 45.9735 69.6296 45.4652 70.0291 43.4884C70.2574 42.3024 70.0862 41.0599 69.8579 39.8738C69.915 40.0432 69.9721 40.2127 70.0291 40.4386C70.1433 41.1728 70.2574 41.7941 70.3145 42.4153L70.2574 42.4718C70.0291 42.8672 70.2004 43.2625 70.5428 43.4884C70.714 43.7143 70.9994 43.8273 71.2848 43.7708C71.513 43.7143 71.6272 43.5449 71.6843 43.3755C73.9101 42.5283 76.136 41.5682 78.2477 40.3256C78.7614 40.0432 78.7614 39.9868 79.1609 39.8173C79.3892 39.7044 79.6175 39.5914 79.7316 39.422C79.8458 39.3655 79.9028 39.2525 80.017 39.1396C80.2453 38.123 79.3321 37.7276 78.7043 38.0665Z" fill="black"/>
</g>
<g opacity="0.1294">
<path opacity="0.1294" d="M93.0868 35.8073C92.9727 35.8073 92.8585 35.8638 92.7444 35.8638C92.2307 36.0333 91.7741 36.3721 91.2605 36.5416C90.3473 36.9934 90.0049 37.0499 88.7492 37.6146C86.6375 38.7442 83.156 39.8173 81.2726 40.5515C80.017 40.9469 80.5307 42.6977 81.7863 42.4153C83.7268 41.794 85.6102 40.8904 87.4936 40.0997C88.521 39.6479 90.4044 38.9701 91.9454 38.1794C92.6873 37.7841 93.6005 37.3323 93.7146 37.1063C94.2283 36.6545 93.7717 35.7509 93.0868 35.8073Z" fill="black"/>
</g>
<g opacity="0.1294">
<path opacity="0.1294" d="M23.5713 15.7574C22.7723 18.6378 21.3455 20.7275 20.3182 23.8903C19.6903 25.6976 19.2338 27.6179 18.8342 29.4817C18.606 30.3289 18.4347 31.1761 18.2635 32.0232C18.1494 32.7574 17.9211 33.5481 18.0352 34.3388C18.2064 35.0731 19.0625 35.4684 19.7474 35.186C20.204 35.6378 20.6035 36.0332 21.1172 36.485V36.4285C21.0601 35.5814 21.1172 34.7342 21.1172 33.887C20.946 33.3222 20.8889 32.9269 20.8318 32.4186C21.003 31.5149 21.2313 30.5548 21.3455 29.6511C21.8021 26.6013 22.6582 23.6644 23.6284 20.784C23.9138 19.9368 24.1421 19.0332 24.5416 18.186C24.827 17.4518 25.2265 16.6611 25.2265 15.8704C25.2265 14.9668 23.7996 14.8538 23.5713 15.7574Z" fill="black"/>
</g>
<g opacity="0.1294">
<path opacity="0.1294" d="M24.4274 38.9136C24.3704 39.083 24.1991 39.2525 24.0279 39.2525C24.1991 39.3089 24.3704 39.3654 24.5416 39.3089C24.827 39.2525 24.9982 38.9701 24.9982 38.6877C24.827 38.7442 24.6557 38.8571 24.4274 38.9136Z" fill="black"/>
</g>
<g opacity="0.1294">
<path opacity="0.1294" d="M18.0352 34.3389C18.0352 34.2259 17.9781 34.113 17.9781 34C18.0352 34.113 18.0352 34.2259 18.0352 34.3389Z" fill="black"/>
</g>
<g opacity="0.1294">
<path opacity="0.1294" d="M29.7353 41.2292C29.3928 41.4552 28.9362 41.3987 28.0801 41.3987C27.5094 41.3422 26.7675 41.3987 26.0826 41.1728C25.626 41.0598 25.2265 40.7209 24.827 40.7774C23.9709 40.8339 23.9138 42.0764 24.7128 42.3023C25.2835 42.5283 25.9114 42.7542 26.5392 42.8671C27.0528 42.9801 27.6236 43.093 28.1372 42.9801C28.8221 42.8671 29.4499 42.5847 30.0206 42.2459C30.2489 42.0764 30.5914 41.9635 30.6484 41.6811C30.7626 41.1728 30.1348 40.8904 29.7353 41.2292Z" fill="black"/>
</g>
<g opacity="0.1294">
<path opacity="0.1294" d="M38.6387 42.3588C38.3534 42.4718 38.2963 42.5848 37.8397 42.8671C36.9265 43.3755 36.527 43.4319 35.3285 43.7143C34.187 43.9967 34.2441 43.9402 32.9885 44.0532C32.5889 44.0532 32.1894 44.0532 31.7899 43.9967C31.5046 43.9402 31.2763 43.8273 30.9909 43.8838C29.9636 43.9967 29.8494 45.5216 30.8767 45.804C33.5021 46.5382 35.6138 45.804 37.4402 44.6745C38.0109 44.3356 38.5246 43.9967 39.0382 43.5449C39.3236 43.2625 39.3807 43.319 39.4378 42.9236C39.3807 42.5283 38.9812 42.2459 38.6387 42.3588Z" fill="black"/>
</g>
<g opacity="0.1294">
<path opacity="0.1294" d="M49.5398 47.6678C48.969 47.7243 49.1403 47.8372 48.8549 47.8937C48.6266 47.9502 48.5695 48.0632 47.7705 48.2326C47.1998 48.3456 47.1998 48.3456 47.0856 48.3456C47.1998 48.2326 47.2568 48.0067 47.1998 47.8372C47.1998 47.4984 46.8573 47.216 46.5149 47.216C46.1154 47.216 45.7729 47.6113 45.3734 47.7243C44.5744 48.0632 44.7456 48.0067 43.6041 48.402C42.5768 48.6844 42.0631 48.6844 41.6636 48.6844C41.2641 48.6844 40.9217 48.4585 40.5792 48.402C41.2641 48.1196 41.8919 47.7808 42.5197 47.3854C43.2046 46.9336 43.8895 46.4253 44.4602 45.8605C44.5744 45.7475 44.6885 45.5781 44.6885 45.4087C44.6885 45.1828 44.5744 45.0133 44.4032 44.9004C44.1749 44.7874 43.8895 44.7874 43.6612 45.0133C43.7183 44.9568 43.7754 44.9004 43.7183 44.9568C43.4329 45.1263 43.1475 45.2957 42.8622 45.4652C41.15 46.5382 38.9241 47.1595 37.4973 47.3854C37.1548 47.4419 36.8124 47.4419 36.4699 47.4419C36.4129 47.4419 36.4129 47.4419 36.4129 47.4419C36.4129 47.4419 36.4129 47.4419 36.3558 47.4419C36.0704 47.4419 35.8421 47.2725 35.5568 47.3289C34.929 47.3854 34.8719 48.3456 35.4997 48.4585C36.0704 48.6279 36.5841 48.8539 37.2119 48.9103C37.8397 48.9668 38.4675 48.9103 39.0383 48.7974C39.3807 48.7974 39.6661 48.6844 40.0085 48.6279C39.7231 48.9668 39.7231 49.5316 40.1797 49.7575C41.7778 50.5482 43.49 50.3788 45.031 49.701C45.3163 49.5881 45.6017 49.4751 45.8871 49.3057C45.8871 49.7575 46.2866 50.2658 46.8002 50.2093C47.7705 50.0964 48.8549 50.0399 49.711 49.4186C49.9393 49.2492 50.2817 49.0798 50.3959 48.7409C50.5671 48.2891 50.1105 47.6678 49.5398 47.6678Z" fill="black"/>
</g>
<g opacity="0.1294">
<path opacity="0.1294" d="M57.5301 43.9967C56.9022 44.2791 57.0735 44.3356 56.674 44.618C56.1032 45.0133 56.1603 44.9568 55.3042 45.1828C54.6193 45.2957 55.0188 45.2957 54.4481 45.2957C54.391 45.2957 54.3339 45.2957 54.2198 45.2957C54.1627 45.2957 54.0486 45.2392 53.9915 45.2392C53.4778 45.1828 52.9642 44.7874 52.4505 45.0698C51.8227 45.4087 51.9369 46.4818 52.6788 46.6512C53.3637 46.8206 54.0486 47.0465 54.7335 46.9901C55.5896 46.9336 56.3886 46.6512 57.0735 46.1994C57.4159 45.9735 57.7013 45.6911 58.0437 45.4651C58.272 45.2957 58.5003 45.0698 58.5003 44.7874C58.4432 44.2791 57.9866 43.8837 57.5301 43.9967Z" fill="black"/>
</g>
<g opacity="0.1294">
<path opacity="0.1294" d="M64.3789 41.6246C64.3789 41.2858 64.1506 40.8904 63.7511 40.8339H63.694C63.694 40.1562 63.694 39.4784 63.5228 38.8007C63.2945 37.7841 62.7237 36.8804 62.2101 35.9203C61.7535 34.9037 61.2398 33.9436 60.4979 33.1529C60.2125 32.8705 59.6989 33.1529 59.6989 33.5482C59.6989 33.8871 60.0413 34.113 60.2125 34.3954C61.1257 35.6944 61.4111 36.6545 61.8106 38.1794C62.3242 39.8173 62.4384 40.5515 62.2672 42.2459V42.3024C62.2672 42.3588 62.2672 42.4718 62.2101 42.5283C62.2101 42.5848 62.2101 42.6412 62.153 42.6977C62.0959 42.8107 61.9818 42.9801 61.8676 43.0931C61.7535 43.206 61.5252 43.4884 61.354 43.6578C61.2969 43.6578 61.2969 43.7143 61.2398 43.7143C60.9545 43.7143 60.7832 43.7143 60.0413 43.4884C59.813 43.4319 59.813 43.3755 60.0413 43.4884C59.6989 43.3755 59.3564 43.0931 58.9569 43.0366C58.1008 42.8671 57.7013 44.1097 58.4432 44.505C58.7286 44.618 59.014 44.7874 59.2423 44.9004C59.2993 45.1828 59.4706 45.4087 59.6989 45.5781C59.7559 45.6346 59.813 45.6346 59.8701 45.6911C59.8701 46.0299 60.0984 46.3688 60.4979 46.4818C60.8403 46.5947 61.2398 46.6512 61.5823 46.5947C61.6964 46.5947 61.9818 46.4818 61.9818 46.4253C62.3813 46.2559 62.7237 46.0299 62.895 45.6911C63.0091 45.5216 63.0091 45.2957 62.952 45.1263C63.1233 44.9569 63.1803 44.7874 63.1803 44.618C63.5228 44.1097 63.8081 43.5449 63.9794 42.9801C64.0364 42.5848 64.0935 42.1329 64.0935 41.7376C64.3789 41.6811 64.3789 41.6811 64.3789 41.6246C64.3789 41.6811 64.3789 41.6246 64.3789 41.6246Z" fill="black"/>
</g>
<path d="M15.3528 42.0764H15.2957C12.6132 41.5681 9.81664 41.1163 7.07711 40.3821C5.99271 40.0432 5.02246 39.8173 3.93807 39.5349C2.73953 39.2525 1.54098 38.9701 0.285366 38.5748C0.0570723 38.5183 -0.0570747 38.2359 -1.17905e-06 38.01C0.0570723 37.7841 0.34244 37.6711 0.570734 37.7276C1.76928 38.1229 2.96782 38.4053 4.10929 38.6877C5.13661 38.9136 6.27808 39.196 7.3054 39.5349C9.87371 40.2126 12.442 40.7209 15.0103 41.1728C16.0947 36.7674 17.5786 32.4751 19.0625 28.3522C19.9186 25.8671 20.8318 23.3256 21.6308 20.7841C21.6308 20.7841 21.6308 20.7841 21.6308 20.7276C21.9162 20.0498 22.2016 19.4286 22.4869 18.7508C23.2289 17.0565 23.9709 15.4186 24.3133 13.4983L24.2562 13.4419C24.1992 13.4419 24.1421 13.4419 24.085 13.4419C21.6879 12.5382 19.2338 11.917 16.8367 11.2392C13.983 10.505 11.0723 9.71429 8.21858 8.52825C7.99028 8.41529 7.87614 8.18938 7.99028 7.96346C8.10443 7.73755 8.33273 7.62459 8.56102 7.73755C11.3576 8.9236 14.2684 9.65782 17.065 10.392C19.4621 11.0133 21.9733 11.691 24.3704 12.5947C24.827 12.6512 25.2265 13.0465 25.2265 13.4983V13.5548C24.884 15.588 24.085 17.3389 23.3431 19.0332C23.0577 19.6545 22.7723 20.2758 22.544 20.9535C21.745 23.5515 20.8318 26.093 19.9757 28.5781C18.4347 33.0399 16.9508 37.2193 15.8664 41.7375C15.7523 41.907 15.5811 42.0764 15.3528 42.0764Z" fill="black"/>
<path d="M9.87371 40.6645C9.81663 40.6645 9.81664 40.6645 9.75956 40.6645C9.53127 40.608 9.36005 40.3821 9.41712 40.1562C11.9284 30.2724 15.4098 19.8239 19.0625 11.4087C19.1767 11.1827 19.405 11.0698 19.6333 11.1827C19.8616 11.2957 19.9757 11.5216 19.8616 11.7475C16.2659 20.1063 12.7845 30.5548 10.2732 40.3821C10.2161 40.5515 10.0449 40.6645 9.87371 40.6645Z" fill="black"/>
<path d="M81.1014 43.319C81.0443 43.319 80.9873 43.319 80.9302 43.2625C80.816 43.206 80.759 43.0931 80.7019 42.9801C78.9897 37.1064 77.1633 31.2326 75.2228 24.9635C74.1955 21.7442 73.1682 18.412 72.1409 15.0798C72.0838 14.9103 72.1409 14.6844 72.3692 14.5715C76.7638 12.1994 81.3868 10.1662 86.1239 8.58477C86.3522 8.52829 86.5805 8.64124 86.6946 8.86716C86.7517 9.09307 86.6375 9.31899 86.4092 9.43194C81.8434 11.0133 77.3346 12.9336 73.1111 15.1927C74.0814 18.4685 75.1087 21.6313 76.0789 24.7376C77.9624 30.8373 79.7316 36.5416 81.4438 42.3024C85.4961 40.8904 89.4912 39.2525 93.3722 37.4452C93.6005 37.3323 93.8288 37.4452 93.9429 37.6711C94.0571 37.8971 93.9429 38.123 93.7146 38.2359C89.6624 40.0997 85.4961 41.7941 81.2726 43.2625C81.2155 43.319 81.1585 43.319 81.1014 43.319Z" fill="black"/>
<path d="M86.3522 41.0598C86.1809 41.0598 86.0097 40.9469 85.9526 40.7209C83.4414 31.289 80.5307 21.8007 77.3345 12.5382C77.2775 12.3123 77.3916 12.0864 77.6199 11.9734C77.8482 11.917 78.0765 12.0299 78.1906 12.2558C81.3868 21.5183 84.2404 31.0067 86.8087 40.495C86.8658 40.7209 86.7517 40.9469 86.5234 41.0033C86.4092 41.0598 86.4092 41.0598 86.3522 41.0598Z" fill="black"/>
<path d="M38.2392 28.2392C37.2119 28.2392 36.0704 27.7874 35.5568 26.8273C34.6436 25.02 36.3558 22.9868 36.9836 22.3655C39.3807 19.6545 41.8349 16.7741 44.9168 14.6844C48.3983 12.2559 52.1652 11.1828 55.5896 11.6346C57.3588 11.8605 59.014 12.4818 60.612 13.0466C61.1257 13.216 61.6393 13.4419 62.2101 13.6113C65.5774 14.7409 69.0589 15.3622 72.5975 15.4186C72.8258 15.4186 73.054 15.6446 73.054 15.8705C73.054 16.0964 72.8828 16.3223 72.5975 16.3223C68.9448 16.2658 65.4062 15.6446 61.9818 14.515C61.4681 14.3456 60.8974 14.1196 60.3837 13.9502C58.8428 13.3854 57.1876 12.7642 55.5896 12.5947C52.3934 12.1994 48.8549 13.216 45.5446 15.5316C42.5768 17.6213 40.1226 20.3888 37.7826 23.0997C36.4699 24.6246 36.0704 25.7542 36.4699 26.6014C36.8695 27.3356 37.7826 27.618 38.5246 27.5615C39.3807 27.505 40.1797 27.1097 41.0929 26.7143C41.6636 26.4319 42.2914 26.1495 42.8622 25.8107C46.5149 24.0034 49.9964 22.309 53.2495 20.0499C53.4208 19.9369 53.7061 19.9369 53.8774 20.1628C53.9915 20.3323 53.9915 20.6147 53.7632 20.7841C50.4529 23.0997 46.9715 24.7941 43.2617 26.6579C42.691 26.9402 42.0631 27.2226 41.4924 27.5615C40.5222 28.0133 39.609 28.4652 38.5817 28.5216C38.3534 28.2392 38.2963 28.2392 38.2392 28.2392Z" fill="black"/>
<path d="M70.3716 43.9402C70.2004 43.9402 70.0291 43.8272 69.9721 43.6578C69.8579 43.4319 69.9721 43.206 70.2004 43.093C73.3394 41.794 76.4784 40.495 79.5604 39.1395C79.7887 39.0266 80.017 39.1395 80.1311 39.3654C80.2453 39.5914 80.1311 39.8173 79.9029 39.9302C76.8209 41.2857 73.6248 42.5847 70.4857 43.8837C70.4857 43.9402 70.4287 43.9402 70.3716 43.9402Z" fill="black"/>
<path d="M69.173 45.6346C69.0589 45.6346 69.0018 45.6346 68.9447 45.6346C67.5179 45.4651 66.0911 44.5615 65.0637 43.0366C64.3789 42.0764 63.9223 41.0033 63.5228 39.9867C63.4086 39.6479 63.2374 39.309 63.1232 39.0266C61.9247 36.4286 60.3267 34 58.3862 31.9103C58.2149 31.7409 58.2149 31.4585 58.3862 31.2891C58.5574 31.1196 58.8427 31.1196 59.014 31.2891C61.0686 33.4352 62.6667 35.9203 63.9223 38.6312C64.0935 38.9701 64.2076 39.309 64.3789 39.6479C64.8355 40.6645 65.235 41.6811 65.8628 42.5847C66.776 43.8837 67.9174 44.6744 69.116 44.7874C69.173 44.7874 69.4013 44.8439 69.4584 44.7309C69.5725 44.6744 69.6296 44.4485 69.6296 44.0532C69.4584 39.0831 67.8033 34.0565 64.9496 29.9336C62.0959 25.8106 57.9866 22.4784 53.3066 20.5582C53.0783 20.4452 52.9642 20.2193 53.0783 19.9934C53.1925 19.7675 53.4208 19.6545 53.6491 19.7675C58.4432 21.7442 62.7237 25.1894 65.6345 29.4817C68.6023 33.7176 70.3145 38.9136 70.4857 44.0532C70.4857 44.3356 70.5428 45.1263 69.915 45.4651C69.6296 45.6346 69.4013 45.6346 69.173 45.6346Z" fill="black"/>
<path d="M47.4851 50.3788C46.8573 50.3788 46.1154 50.2658 45.2593 49.6446C45.088 49.5316 45.031 49.2492 45.1451 49.0233C45.2593 48.8539 45.5446 48.7974 45.7729 48.9103C46.5719 49.4751 47.2568 49.4751 47.8846 49.4186H47.9417C48.8549 49.3622 49.8251 48.9103 50.3388 48.2891C50.5671 48.0067 50.8525 47.5549 50.7383 47.0465V46.9901C50.7383 46.0864 50.6242 45.1263 50.51 44.4485C50.4529 44.2791 50.5671 44.0532 50.7383 43.9967C50.9095 43.9402 51.1378 43.9402 51.252 44.1097C51.9369 44.8439 52.5647 45.5781 53.4208 46.0864C54.2769 46.5947 55.2471 46.7642 55.9891 46.4818C57.0164 46.0864 58.0437 44.3356 57.8154 43.3755C57.7584 43.1495 57.9296 42.9236 58.1579 42.8671C58.3862 42.8107 58.6145 42.9801 58.6715 43.206C59.014 44.7309 57.5871 46.8206 56.2744 47.3289C55.2471 47.6678 54.0486 47.4984 52.9642 46.8771C52.4505 46.5382 51.9369 46.1429 51.5373 45.7475C51.5944 46.1994 51.5944 46.6512 51.5944 47.103C51.6515 47.7808 51.4803 48.402 50.9666 48.9668C50.2817 49.814 49.0832 50.3788 47.9417 50.3788H47.8846C47.7705 50.3788 47.5993 50.3788 47.4851 50.3788Z" fill="black"/>
<path d="M61.7535 46.8771C61.411 46.8771 61.0686 46.7641 60.7262 46.6512C59.071 46.0299 58.2149 44.2226 57.3588 42.5282C56.7881 41.3422 56.1603 40.0997 55.3613 39.3654C55.19 39.196 55.19 38.9136 55.3042 38.7442C55.4754 38.5748 55.7608 38.5748 55.932 38.6877C56.9022 39.5349 57.5301 40.8339 58.1579 42.0764C58.9569 43.7143 59.6988 45.2392 61.0686 45.7475C61.6393 45.9734 62.3242 46.2558 63.2945 44.6744C63.5798 44.2226 63.6369 43.7143 63.6369 43.206C63.7511 41.8505 63.3515 40.495 63.0091 39.1395C62.952 38.9136 62.895 38.7442 62.8379 38.5183C62.7808 38.2924 62.895 38.0664 63.1803 38.01C63.4086 37.9535 63.6369 38.0664 63.694 38.3488C63.7511 38.5748 63.8081 38.7442 63.8652 38.9701C64.2076 40.3821 64.6072 41.8505 64.493 43.3189C64.4359 43.9402 64.3789 44.618 64.0364 45.1827C63.2374 46.4817 62.4954 46.8771 61.7535 46.8771Z" fill="black"/>
<path d="M33.5021 46.5947C33.445 46.5947 33.445 46.5947 33.388 46.5947C31.7328 46.5382 30.3631 45.5781 29.9636 44.2791C29.7923 43.7708 29.7923 43.2625 29.9065 42.7542C28.9933 43.319 27.9089 43.5449 26.8816 43.319C25.2835 43.0366 23.9138 41.7376 23.6284 40.2127C23.5143 39.5914 23.7426 39.2525 23.9138 39.0266C24.085 38.8572 24.3704 38.8572 24.5416 39.0266C24.7128 39.196 24.7128 39.4784 24.5416 39.6479C24.4845 39.7044 24.4845 39.8173 24.4845 40.0432C24.6557 41.2293 25.7401 42.2459 26.9957 42.4718C28.2514 42.6977 29.5641 42.1894 30.2489 41.2293C30.3631 41.0598 30.5914 41.0034 30.7626 41.1163C30.9338 41.0598 31.048 41.0034 31.1621 40.9469C32.8743 40.2691 34.7007 39.8738 36.5841 39.7044C38.068 39.5914 39.0953 39.9303 39.5519 40.7774C39.7802 41.1728 39.8373 41.6246 39.7802 42.1894C39.666 42.9236 39.3807 43.6014 38.9241 44.1097C38.4675 44.618 37.8968 45.0133 37.326 45.3522C36.2987 45.9735 34.929 46.5947 33.5021 46.5947ZM30.9338 42.0764C30.7626 42.8107 30.6484 43.4319 30.8197 43.9967C31.1621 45.0698 32.3607 45.6911 33.445 45.6911C34.7007 45.7475 35.9563 45.1263 36.8695 44.618C37.3831 44.3356 37.8968 43.9967 38.2392 43.6014C38.5817 43.206 38.867 42.6412 38.9241 42.1329C38.9812 41.8505 38.9812 41.5117 38.81 41.2293C38.4675 40.608 37.4402 40.5515 36.6982 40.608C34.929 40.721 33.1597 41.1163 31.5046 41.7941C31.2192 41.8505 31.048 41.9635 30.9338 42.0764Z" fill="black"/>
<path d="M37.7826 49.4751C37.0978 49.4751 36.4699 49.3057 35.8992 49.0233C34.8719 48.402 34.187 47.1595 34.3012 45.9734C34.3012 45.7475 34.5294 45.5781 34.7577 45.5781C34.986 45.5781 35.1573 45.804 35.1573 46.0299C35.1002 46.8771 35.5568 47.8372 36.2987 48.2326C37.0407 48.6844 38.0109 48.6844 39.0383 48.3455C40.0085 48.0067 40.8075 47.3854 41.6636 46.7641C42.8622 45.8605 43.9466 44.7874 44.0607 43.4884C44.0607 43.4319 44.0607 43.319 44.0607 43.2625C44.0607 43.206 43.9466 43.1495 43.8324 43.0366C43.2046 42.6412 42.3485 42.5847 41.4353 42.7542C40.6363 42.9236 39.9514 43.2625 39.2095 43.6578L39.0953 43.7143C38.867 43.8273 38.6387 43.7143 38.5246 43.5449C38.4104 43.3754 38.5246 43.093 38.6958 42.9801L38.81 42.9236C39.609 42.5283 40.3509 42.1329 41.2641 41.9635C42.4056 41.7376 43.49 41.8505 44.289 42.3024C44.4602 42.4153 44.7456 42.5847 44.8597 42.9236C44.9739 43.1495 44.9739 43.3754 44.9739 43.6014C44.8597 45.2392 43.6041 46.4253 42.2344 47.4419C41.3783 48.1196 40.4651 48.7974 39.3807 49.1362C38.867 49.4186 38.2963 49.4751 37.7826 49.4751Z" fill="black"/>
<path d="M42.8622 50.7176C42.2344 50.7176 41.6066 50.5482 41.0929 50.3223C40.4651 49.9834 39.7802 49.3622 39.8373 48.515C39.8373 48.2891 40.0656 48.1196 40.2939 48.1196C40.5222 48.1196 40.6934 48.3456 40.6934 48.5715C40.6934 48.9668 41.0929 49.3622 41.4924 49.5316C42.0631 49.814 42.748 49.9269 43.4329 49.814C44.4602 49.6446 45.3734 48.9668 46.1154 48.3455C46.9715 47.6113 47.3139 47.0465 47.2568 46.4818C47.1998 45.8605 46.4578 45.4087 45.83 45.3522C45.2022 45.2957 44.5744 45.5781 43.8324 46.1429C43.6612 46.3123 43.3758 46.2558 43.2046 46.0864C43.0334 45.917 43.0905 45.6346 43.2617 45.4652C43.8324 45.0133 44.7456 44.4485 45.83 44.505C46.8002 44.5615 47.9417 45.2957 48.0559 46.3688C48.17 47.4984 47.3139 48.402 46.629 48.9668C45.83 49.6446 44.8027 50.4352 43.5471 50.6612C43.2617 50.7176 43.0905 50.7176 42.8622 50.7176Z" fill="black"/>
<path d="M30.6484 41.6811C30.4202 41.6811 30.2489 41.5116 30.2489 41.3422C30.0777 40.4385 29.1075 39.9302 28.5367 39.7043C26.8816 39.0266 25.4548 39.0266 24.2562 39.7608C24.085 39.8738 23.7996 39.8173 23.6855 39.6478C22.0304 37.3887 19.9757 35.6944 17.5216 34.6213C17.2933 34.5083 17.1791 34.2824 17.2933 34.0565C17.4074 33.8306 17.6357 33.7176 17.864 33.8306C20.3182 34.9037 22.4299 36.5415 24.1421 38.8007C25.5118 38.1229 27.1099 38.1229 28.8792 38.8571C30.1348 39.3655 30.9338 40.2126 31.105 41.1728C31.1621 41.3987 30.9909 41.6246 30.7626 41.6811C30.7055 41.6811 30.7055 41.6811 30.6484 41.6811Z" fill="black"/>
<path d="M24.3704 15.4751C24.1991 15.4751 23.9709 15.3622 23.9709 15.1362C23.9138 14.9103 24.085 14.6844 24.3133 14.6279C29.1075 13.5548 33.5592 12.0299 37.2119 10.6744L37.5543 10.5615C38.9812 10.0532 40.408 9.54488 41.949 9.37545C45.4876 8.9801 48.7407 10.505 51.5944 11.804C51.8227 11.917 51.8798 12.1429 51.8227 12.3688C51.7086 12.5947 51.4803 12.6512 51.252 12.5947C48.5124 11.2957 45.3734 9.88375 42.0631 10.2226C40.6363 10.3921 39.2095 10.9004 37.8968 11.3522L37.5543 11.4651C33.8446 12.8206 29.3928 14.3455 24.5416 15.4186C24.4274 15.4751 24.4274 15.4751 24.3704 15.4751Z" fill="black"/>
<path d="M32.9885 8.01997C32.8172 8.01997 32.7031 7.96349 32.646 7.79405C32.5319 7.56814 32.589 7.34223 32.7602 7.17279C36.6982 4.68774 41.4353 3.50169 46.1154 3.72761C46.3437 3.72761 46.5149 3.95352 46.5149 4.17943C46.5149 4.40535 46.2866 4.57478 46.0583 4.57478C41.5495 4.34887 36.9836 5.47844 33.2168 7.85053C33.1597 8.01997 33.1026 8.01997 32.9885 8.01997Z" fill="black"/>
<path d="M30.2489 3.84055C30.1348 3.84055 29.9636 3.78407 29.9065 3.67112C29.7923 3.4452 29.8494 3.21929 30.0206 3.04985C32.3607 1.52494 35.0431 0.508327 37.7826 2.10553e-05C38.0109 -0.0564573 38.2392 0.112978 38.2963 0.338891C38.3534 0.564805 38.1821 0.790719 37.9539 0.847197C35.3285 1.29902 32.7602 2.31564 30.5343 3.7276C30.4202 3.78407 30.3631 3.84055 30.2489 3.84055Z" fill="black"/>
<path d="M58.1008 51C57.8725 51 57.7013 50.8306 57.6442 50.6047C57.6442 50.3787 57.8154 50.1528 58.0437 50.1528C60.5549 50.0964 63.0662 49.1362 65.0067 47.5548C65.1779 47.3854 65.4633 47.4419 65.6345 47.6113C65.8057 47.7807 65.7486 48.0631 65.5774 48.2326C63.4657 49.9834 60.8403 50.9435 58.1008 51Z" fill="black"/>
<path d="M90.9751 37.5017L86.1809 35.7508C86.1239 35.7508 86.0668 35.6379 86.1238 35.5814C86.1238 35.5249 86.238 35.4684 86.2951 35.5249L91.0322 37.2757C91.0892 37.2757 91.1463 37.3887 91.0892 37.4452C91.0892 37.4452 91.0322 37.5017 90.9751 37.5017Z" fill="black"/>
<path d="M92.5732 35.7509C89.9478 34.8472 87.3795 33.8306 84.8682 32.701C84.8112 32.6446 84.7541 32.5881 84.8112 32.5316C84.8682 32.4751 84.9253 32.4186 84.9824 32.4751C87.4365 33.6612 90.0048 34.6778 92.5732 35.525C92.6302 35.525 92.6873 35.6379 92.6873 35.6944C92.6873 35.6944 92.6302 35.7509 92.5732 35.7509Z" fill="black"/>
<path d="M92.9727 32.9834C90.0619 32.0233 87.1512 30.9502 84.3546 29.8206C84.2975 29.7641 84.2404 29.7076 84.2975 29.6512C84.3546 29.5947 84.4116 29.5382 84.4687 29.5947C87.2653 30.7807 90.119 31.7973 93.0297 32.7575C93.0868 32.7575 93.1439 32.8704 93.1439 32.9269C93.0868 32.9269 93.0297 32.9834 92.9727 32.9834Z" fill="black"/>
<path d="M92.9727 30.3289C89.5483 29.0864 86.98 28.0133 83.3843 26.4884C83.3273 26.4319 83.2702 26.3754 83.3273 26.3189C83.3843 26.2625 83.4414 26.206 83.4985 26.2625C87.0941 27.7309 89.6624 28.804 93.0297 30.103C93.0868 30.103 93.1439 30.216 93.0868 30.2724C93.0868 30.3289 93.0297 30.3289 92.9727 30.3289Z" fill="black"/>
<path d="M92.1736 27.3356C92.1166 27.3356 92.1166 27.3356 92.1736 27.3356L82.4711 23.4386C82.4141 23.3821 82.357 23.3256 82.4141 23.2691C82.4711 23.2127 82.5282 23.1562 82.5853 23.2127L92.2307 27.1097C92.2878 27.1662 92.3449 27.2226 92.2878 27.2791C92.2878 27.3356 92.2307 27.3356 92.1736 27.3356Z" fill="black"/>
<path d="M91.8312 24.5117H91.7741L81.3297 19.9369C81.2726 19.8805 81.2155 19.824 81.2726 19.7675C81.3297 19.711 81.3867 19.6545 81.4438 19.711L91.8883 24.2858C91.9453 24.3422 92.0024 24.3987 91.9454 24.4552C91.9454 24.4552 91.8883 24.5117 91.8312 24.5117Z" fill="black"/>
<path d="M90.8039 20.897H90.7468L80.1882 16.2093C80.1311 16.1529 80.0741 16.0964 80.1311 16.0399C80.1882 15.9834 80.2453 15.9269 80.3024 15.9834L90.8609 20.6711C90.918 20.7276 90.9751 20.7841 90.918 20.8406C90.918 20.897 90.861 20.897 90.8039 20.897Z" fill="black"/>
<path d="M88.4639 16.2093C88.4068 16.2093 88.4068 16.2093 88.4639 16.2093C85.7814 15.1927 83.099 14.2326 80.4736 13.3289C80.4165 13.3289 80.3594 13.2159 80.3594 13.1595C80.3594 13.103 80.4736 13.0465 80.5307 13.0465C83.2131 13.9502 85.8385 14.9103 88.4639 15.9269C88.521 15.9834 88.578 16.0399 88.521 16.0963C88.578 16.2093 88.521 16.2093 88.4639 16.2093Z" fill="black"/>
<path d="M88.2356 12.9335C88.2356 12.9335 88.1785 12.9335 88.2356 12.9335L84.4116 11.3522C84.3546 11.2957 84.2975 11.2392 84.3546 11.1827C84.4117 11.1262 84.4687 11.0698 84.5258 11.1262L88.2926 12.7076C88.3497 12.7641 88.4068 12.8206 88.3497 12.8771C88.3497 12.8771 88.2926 12.9335 88.2356 12.9335Z" fill="black"/>
<path d="M8.3898 8.24585C12.0996 9.48837 15.8664 10.6179 19.462 11.691C18.8913 14.1196 17.3503 16.2658 16.323 18.5814C15.8094 19.8239 15.4098 21.0664 15.0103 22.3655C13.184 28.3522 11.4147 34.3954 9.70249 40.4385C6.39223 39.309 3.82392 38.7442 0.228294 38.1229C3.53856 28.0133 6.50638 18.299 8.3898 8.24585Z" fill="#3943ED"/>
<g opacity="0.1294">
<path opacity="0.1294" d="M78.7043 38.0665C78.1336 38.2359 77.5628 38.4618 76.9921 38.6878C76.8779 38.6878 76.7638 38.6878 76.5926 38.7442C76.3072 38.8007 76.0219 38.9137 75.7936 39.0266C75.5082 39.1396 75.2228 39.1961 74.9375 39.3655C74.8233 39.422 74.4809 39.5349 74.3667 39.5914C74.3096 39.5914 74.3096 39.5914 74.2526 39.6479C74.1955 39.6479 74.0813 39.7044 74.0243 39.7044C73.9672 39.7044 73.9101 39.7044 73.8531 39.7044C73.796 39.7044 73.7389 39.7044 73.6818 39.6479C73.5677 39.5349 73.4535 39.422 73.3394 39.309C73.2253 39.1396 73.3394 39.309 73.3965 39.422C73.2823 39.309 73.2253 39.1961 73.1111 39.0831C73.054 39.0266 73.054 39.0266 73.054 38.9701C72.9399 38.8572 72.8828 38.6878 72.7687 38.5748C72.3691 38.01 72.0838 37.4452 71.7413 36.824C71.1135 35.5814 70.4857 34.2824 69.8008 33.0399C69.4013 32.1927 69.0589 31.3456 68.5452 30.5549C67.1184 28.3522 65.6916 26.6579 63.5228 24.7376C62.153 23.3821 60.5549 22.1961 58.8998 21.2359C57.7583 20.6147 56.5598 19.9934 55.2471 19.8804C54.3339 19.6545 54.1056 21.01 55.0759 21.123C55.932 21.1795 56.9022 21.5748 57.8725 22.1396C57.7583 22.3655 57.8154 22.6479 58.0437 22.8738C58.9569 23.6645 60.0413 24.2858 61.0115 25.02C60.9545 24.9635 61.5252 25.4153 61.6393 25.5283C61.7535 25.6412 61.8676 25.7542 61.9818 25.8672C61.8676 25.9236 61.8106 26.0366 61.8676 26.206C61.9247 26.6014 62.3813 27.0532 62.6096 27.4486C63.694 29.03 64.8925 30.5549 65.8057 32.2492C67.0042 34.5648 67.8603 36.8805 68.2599 40.0432C68.4882 41.0034 68.6023 42.8107 68.2599 43.319C68.2599 43.3755 68.2028 43.3755 68.1457 43.4319C68.1457 43.4319 68.0886 43.4319 68.0886 43.4884C68.0316 43.4884 68.0316 43.4884 67.9745 43.5449H67.9174C67.8033 43.5449 67.7462 43.5449 67.6891 43.5449C67.6321 43.5449 67.6321 43.5449 67.575 43.5449C67.2325 43.4319 67.4038 43.5449 66.8901 43.2625C66.034 42.8107 65.3491 43.9967 66.1481 44.505C68.2028 45.9735 69.6296 45.4652 70.0291 43.4884C70.2574 42.3024 70.0862 41.0599 69.8579 39.8738C69.915 40.0432 69.9721 40.2127 70.0291 40.4386C70.1433 41.1728 70.2574 41.7941 70.3145 42.4153L70.2574 42.4718C70.0291 42.8672 70.2004 43.2625 70.5428 43.4884C70.714 43.7143 70.9994 43.8273 71.2848 43.7708C71.513 43.7143 71.6272 43.5449 71.6843 43.3755C73.9101 42.5283 76.136 41.5682 78.2477 40.3256C78.7614 40.0432 78.7614 39.9868 79.1609 39.8173C79.3892 39.7044 79.6175 39.5914 79.7316 39.422C79.8458 39.3655 79.9028 39.2525 80.017 39.1396C80.2453 38.123 79.3321 37.7276 78.7043 38.0665Z" fill="black"/>
</g>
<g opacity="0.1294">
<path opacity="0.1294" d="M93.0868 35.8073C92.9727 35.8073 92.8585 35.8638 92.7444 35.8638C92.2307 36.0333 91.7741 36.3721 91.2605 36.5416C90.3473 36.9934 90.0049 37.0499 88.7492 37.6146C86.6375 38.7442 83.156 39.8173 81.2726 40.5515C80.017 40.9469 80.5307 42.6977 81.7863 42.4153C83.7268 41.794 85.6102 40.8904 87.4936 40.0997C88.521 39.6479 90.4044 38.9701 91.9454 38.1794C92.6873 37.7841 93.6005 37.3323 93.7146 37.1063C94.2283 36.6545 93.7717 35.7509 93.0868 35.8073Z" fill="black"/>
</g>
<g opacity="0.1294">
<path opacity="0.1294" d="M23.5713 15.7574C22.7723 18.6378 21.3455 20.7275 20.3182 23.8903C19.6903 25.6976 19.2338 27.6179 18.8342 29.4817C18.606 30.3289 18.4347 31.1761 18.2635 32.0232C18.1494 32.7574 17.9211 33.5481 18.0352 34.3388C18.2064 35.0731 19.0625 35.4684 19.7474 35.186C20.204 35.6378 20.6035 36.0332 21.1172 36.485V36.4285C21.0601 35.5814 21.1172 34.7342 21.1172 33.887C20.946 33.3222 20.8889 32.9269 20.8318 32.4186C21.003 31.5149 21.2313 30.5548 21.3455 29.6511C21.8021 26.6013 22.6582 23.6644 23.6284 20.784C23.9138 19.9368 24.1421 19.0332 24.5416 18.186C24.827 17.4518 25.2265 16.6611 25.2265 15.8704C25.2265 14.9668 23.7996 14.8538 23.5713 15.7574Z" fill="black"/>
</g>
<g opacity="0.1294">
<path opacity="0.1294" d="M24.4274 38.9136C24.3704 39.083 24.1991 39.2525 24.0279 39.2525C24.1991 39.3089 24.3704 39.3654 24.5416 39.3089C24.827 39.2525 24.9982 38.9701 24.9982 38.6877C24.827 38.7442 24.6557 38.8571 24.4274 38.9136Z" fill="black"/>
</g>
<g opacity="0.1294">
<path opacity="0.1294" d="M18.0352 34.3389C18.0352 34.2259 17.9781 34.113 17.9781 34C18.0352 34.113 18.0352 34.2259 18.0352 34.3389Z" fill="black"/>
</g>
<g opacity="0.1294">
<path opacity="0.1294" d="M29.7353 41.2292C29.3928 41.4552 28.9362 41.3987 28.0801 41.3987C27.5094 41.3422 26.7675 41.3987 26.0826 41.1728C25.626 41.0598 25.2265 40.7209 24.827 40.7774C23.9709 40.8339 23.9138 42.0764 24.7128 42.3023C25.2835 42.5283 25.9114 42.7542 26.5392 42.8671C27.0528 42.9801 27.6236 43.093 28.1372 42.9801C28.8221 42.8671 29.4499 42.5847 30.0206 42.2459C30.2489 42.0764 30.5914 41.9635 30.6484 41.6811C30.7626 41.1728 30.1348 40.8904 29.7353 41.2292Z" fill="black"/>
</g>
<g opacity="0.1294">
<path opacity="0.1294" d="M38.6387 42.3588C38.3534 42.4718 38.2963 42.5848 37.8397 42.8671C36.9265 43.3755 36.527 43.4319 35.3285 43.7143C34.187 43.9967 34.2441 43.9402 32.9885 44.0532C32.5889 44.0532 32.1894 44.0532 31.7899 43.9967C31.5046 43.9402 31.2763 43.8273 30.9909 43.8838C29.9636 43.9967 29.8494 45.5216 30.8767 45.804C33.5021 46.5382 35.6138 45.804 37.4402 44.6745C38.0109 44.3356 38.5246 43.9967 39.0382 43.5449C39.3236 43.2625 39.3807 43.319 39.4378 42.9236C39.3807 42.5283 38.9812 42.2459 38.6387 42.3588Z" fill="black"/>
</g>
<g opacity="0.1294">
<path opacity="0.1294" d="M49.5398 47.6678C48.969 47.7243 49.1403 47.8372 48.8549 47.8937C48.6266 47.9502 48.5695 48.0632 47.7705 48.2326C47.1998 48.3456 47.1998 48.3456 47.0856 48.3456C47.1998 48.2326 47.2568 48.0067 47.1998 47.8372C47.1998 47.4984 46.8573 47.216 46.5149 47.216C46.1154 47.216 45.7729 47.6113 45.3734 47.7243C44.5744 48.0632 44.7456 48.0067 43.6041 48.402C42.5768 48.6844 42.0631 48.6844 41.6636 48.6844C41.2641 48.6844 40.9217 48.4585 40.5792 48.402C41.2641 48.1196 41.8919 47.7808 42.5197 47.3854C43.2046 46.9336 43.8895 46.4253 44.4602 45.8605C44.5744 45.7475 44.6885 45.5781 44.6885 45.4087C44.6885 45.1828 44.5744 45.0133 44.4032 44.9004C44.1749 44.7874 43.8895 44.7874 43.6612 45.0133C43.7183 44.9568 43.7754 44.9004 43.7183 44.9568C43.4329 45.1263 43.1475 45.2957 42.8622 45.4652C41.15 46.5382 38.9241 47.1595 37.4973 47.3854C37.1548 47.4419 36.8124 47.4419 36.4699 47.4419C36.4129 47.4419 36.4129 47.4419 36.4129 47.4419C36.4129 47.4419 36.4129 47.4419 36.3558 47.4419C36.0704 47.4419 35.8421 47.2725 35.5568 47.3289C34.929 47.3854 34.8719 48.3456 35.4997 48.4585C36.0704 48.6279 36.5841 48.8539 37.2119 48.9103C37.8397 48.9668 38.4675 48.9103 39.0383 48.7974C39.3807 48.7974 39.6661 48.6844 40.0085 48.6279C39.7231 48.9668 39.7231 49.5316 40.1797 49.7575C41.7778 50.5482 43.49 50.3788 45.031 49.701C45.3163 49.5881 45.6017 49.4751 45.8871 49.3057C45.8871 49.7575 46.2866 50.2658 46.8002 50.2093C47.7705 50.0964 48.8549 50.0399 49.711 49.4186C49.9393 49.2492 50.2817 49.0798 50.3959 48.7409C50.5671 48.2891 50.1105 47.6678 49.5398 47.6678Z" fill="black"/>
</g>
<g opacity="0.1294">
<path opacity="0.1294" d="M57.5301 43.9967C56.9022 44.2791 57.0735 44.3356 56.674 44.618C56.1032 45.0133 56.1603 44.9568 55.3042 45.1828C54.6193 45.2957 55.0188 45.2957 54.4481 45.2957C54.391 45.2957 54.3339 45.2957 54.2198 45.2957C54.1627 45.2957 54.0486 45.2392 53.9915 45.2392C53.4778 45.1828 52.9642 44.7874 52.4505 45.0698C51.8227 45.4087 51.9369 46.4818 52.6788 46.6512C53.3637 46.8206 54.0486 47.0465 54.7335 46.9901C55.5896 46.9336 56.3886 46.6512 57.0735 46.1994C57.4159 45.9735 57.7013 45.6911 58.0437 45.4651C58.272 45.2957 58.5003 45.0698 58.5003 44.7874C58.4432 44.2791 57.9866 43.8837 57.5301 43.9967Z" fill="black"/>
</g>
<g opacity="0.1294">
<path opacity="0.1294" d="M64.3789 41.6246C64.3789 41.2858 64.1506 40.8904 63.7511 40.8339H63.694C63.694 40.1562 63.694 39.4784 63.5228 38.8007C63.2945 37.7841 62.7237 36.8804 62.2101 35.9203C61.7535 34.9037 61.2398 33.9436 60.4979 33.1529C60.2125 32.8705 59.6989 33.1529 59.6989 33.5482C59.6989 33.8871 60.0413 34.113 60.2125 34.3954C61.1257 35.6944 61.4111 36.6545 61.8106 38.1794C62.3242 39.8173 62.4384 40.5515 62.2672 42.2459V42.3024C62.2672 42.3588 62.2672 42.4718 62.2101 42.5283C62.2101 42.5848 62.2101 42.6412 62.153 42.6977C62.0959 42.8107 61.9818 42.9801 61.8676 43.0931C61.7535 43.206 61.5252 43.4884 61.354 43.6578C61.2969 43.6578 61.2969 43.7143 61.2398 43.7143C60.9545 43.7143 60.7832 43.7143 60.0413 43.4884C59.813 43.4319 59.813 43.3755 60.0413 43.4884C59.6989 43.3755 59.3564 43.0931 58.9569 43.0366C58.1008 42.8671 57.7013 44.1097 58.4432 44.505C58.7286 44.618 59.014 44.7874 59.2423 44.9004C59.2993 45.1828 59.4706 45.4087 59.6989 45.5781C59.7559 45.6346 59.813 45.6346 59.8701 45.6911C59.8701 46.0299 60.0984 46.3688 60.4979 46.4818C60.8403 46.5947 61.2398 46.6512 61.5823 46.5947C61.6964 46.5947 61.9818 46.4818 61.9818 46.4253C62.3813 46.2559 62.7237 46.0299 62.895 45.6911C63.0091 45.5216 63.0091 45.2957 62.952 45.1263C63.1233 44.9569 63.1803 44.7874 63.1803 44.618C63.5228 44.1097 63.8081 43.5449 63.9794 42.9801C64.0364 42.5848 64.0935 42.1329 64.0935 41.7376C64.3789 41.6811 64.3789 41.6811 64.3789 41.6246C64.3789 41.6811 64.3789 41.6246 64.3789 41.6246Z" fill="black"/>
</g>
<path d="M15.3528 42.0764H15.2957C12.6132 41.5681 9.81664 41.1163 7.07711 40.3821C5.99271 40.0432 5.02246 39.8173 3.93807 39.5349C2.73953 39.2525 1.54098 38.9701 0.285366 38.5748C0.0570723 38.5183 -0.0570747 38.2359 -1.17905e-06 38.01C0.0570723 37.7841 0.34244 37.6711 0.570734 37.7276C1.76928 38.1229 2.96782 38.4053 4.10929 38.6877C5.13661 38.9136 6.27808 39.196 7.3054 39.5349C9.87371 40.2126 12.442 40.7209 15.0103 41.1728C16.0947 36.7674 17.5786 32.4751 19.0625 28.3522C19.9186 25.8671 20.8318 23.3256 21.6308 20.7841C21.6308 20.7841 21.6308 20.7841 21.6308 20.7276C21.9162 20.0498 22.2016 19.4286 22.4869 18.7508C23.2289 17.0565 23.9709 15.4186 24.3133 13.4983L24.2562 13.4419C24.1992 13.4419 24.1421 13.4419 24.085 13.4419C21.6879 12.5382 19.2338 11.917 16.8367 11.2392C13.983 10.505 11.0723 9.71429 8.21858 8.52825C7.99028 8.41529 7.87614 8.18938 7.99028 7.96346C8.10443 7.73755 8.33273 7.62459 8.56102 7.73755C11.3576 8.9236 14.2684 9.65782 17.065 10.392C19.4621 11.0133 21.9733 11.691 24.3704 12.5947C24.827 12.6512 25.2265 13.0465 25.2265 13.4983V13.5548C24.884 15.588 24.085 17.3389 23.3431 19.0332C23.0577 19.6545 22.7723 20.2758 22.544 20.9535C21.745 23.5515 20.8318 26.093 19.9757 28.5781C18.4347 33.0399 16.9508 37.2193 15.8664 41.7375C15.7523 41.907 15.5811 42.0764 15.3528 42.0764Z" fill="black"/>
<path d="M9.87371 40.6645C9.81663 40.6645 9.81664 40.6645 9.75956 40.6645C9.53127 40.608 9.36005 40.3821 9.41712 40.1562C11.9284 30.2724 15.4098 19.8239 19.0625 11.4087C19.1767 11.1827 19.405 11.0698 19.6333 11.1827C19.8616 11.2957 19.9757 11.5216 19.8616 11.7475C16.2659 20.1063 12.7845 30.5548 10.2732 40.3821C10.2161 40.5515 10.0449 40.6645 9.87371 40.6645Z" fill="black"/>
<path d="M81.1014 43.319C81.0443 43.319 80.9873 43.319 80.9302 43.2625C80.816 43.206 80.759 43.0931 80.7019 42.9801C78.9897 37.1064 77.1633 31.2326 75.2228 24.9635C74.1955 21.7442 73.1682 18.412 72.1409 15.0798C72.0838 14.9103 72.1409 14.6844 72.3692 14.5715C76.7638 12.1994 81.3868 10.1662 86.1239 8.58477C86.3522 8.52829 86.5805 8.64124 86.6946 8.86716C86.7517 9.09307 86.6375 9.31899 86.4092 9.43194C81.8434 11.0133 77.3346 12.9336 73.1111 15.1927C74.0814 18.4685 75.1087 21.6313 76.0789 24.7376C77.9624 30.8373 79.7316 36.5416 81.4438 42.3024C85.4961 40.8904 89.4912 39.2525 93.3722 37.4452C93.6005 37.3323 93.8288 37.4452 93.9429 37.6711C94.0571 37.8971 93.9429 38.123 93.7146 38.2359C89.6624 40.0997 85.4961 41.7941 81.2726 43.2625C81.2155 43.319 81.1585 43.319 81.1014 43.319Z" fill="black"/>
<path d="M86.3522 41.0598C86.1809 41.0598 86.0097 40.9469 85.9526 40.7209C83.4414 31.289 80.5307 21.8007 77.3345 12.5382C77.2775 12.3123 77.3916 12.0864 77.6199 11.9734C77.8482 11.917 78.0765 12.0299 78.1906 12.2558C81.3868 21.5183 84.2404 31.0067 86.8087 40.495C86.8658 40.7209 86.7517 40.9469 86.5234 41.0033C86.4092 41.0598 86.4092 41.0598 86.3522 41.0598Z" fill="black"/>
<path d="M38.2392 28.2392C37.2119 28.2392 36.0704 27.7874 35.5568 26.8273C34.6436 25.02 36.3558 22.9868 36.9836 22.3655C39.3807 19.6545 41.8349 16.7741 44.9168 14.6844C48.3983 12.2559 52.1652 11.1828 55.5896 11.6346C57.3588 11.8605 59.014 12.4818 60.612 13.0466C61.1257 13.216 61.6393 13.4419 62.2101 13.6113C65.5774 14.7409 69.0589 15.3622 72.5975 15.4186C72.8258 15.4186 73.054 15.6446 73.054 15.8705C73.054 16.0964 72.8828 16.3223 72.5975 16.3223C68.9448 16.2658 65.4062 15.6446 61.9818 14.515C61.4681 14.3456 60.8974 14.1196 60.3837 13.9502C58.8428 13.3854 57.1876 12.7642 55.5896 12.5947C52.3934 12.1994 48.8549 13.216 45.5446 15.5316C42.5768 17.6213 40.1226 20.3888 37.7826 23.0997C36.4699 24.6246 36.0704 25.7542 36.4699 26.6014C36.8695 27.3356 37.7826 27.618 38.5246 27.5615C39.3807 27.505 40.1797 27.1097 41.0929 26.7143C41.6636 26.4319 42.2914 26.1495 42.8622 25.8107C46.5149 24.0034 49.9964 22.309 53.2495 20.0499C53.4208 19.9369 53.7061 19.9369 53.8774 20.1628C53.9915 20.3323 53.9915 20.6147 53.7632 20.7841C50.4529 23.0997 46.9715 24.7941 43.2617 26.6579C42.691 26.9402 42.0631 27.2226 41.4924 27.5615C40.5222 28.0133 39.609 28.4652 38.5817 28.5216C38.3534 28.2392 38.2963 28.2392 38.2392 28.2392Z" fill="black"/>
<path d="M70.3716 43.9402C70.2004 43.9402 70.0291 43.8272 69.9721 43.6578C69.8579 43.4319 69.9721 43.206 70.2004 43.093C73.3394 41.794 76.4784 40.495 79.5604 39.1395C79.7887 39.0266 80.017 39.1395 80.1311 39.3654C80.2453 39.5914 80.1311 39.8173 79.9029 39.9302C76.8209 41.2857 73.6248 42.5847 70.4857 43.8837C70.4857 43.9402 70.4287 43.9402 70.3716 43.9402Z" fill="black"/>
<path d="M69.173 45.6346C69.0589 45.6346 69.0018 45.6346 68.9447 45.6346C67.5179 45.4651 66.0911 44.5615 65.0637 43.0366C64.3789 42.0764 63.9223 41.0033 63.5228 39.9867C63.4086 39.6479 63.2374 39.309 63.1232 39.0266C61.9247 36.4286 60.3267 34 58.3862 31.9103C58.2149 31.7409 58.2149 31.4585 58.3862 31.2891C58.5574 31.1196 58.8427 31.1196 59.014 31.2891C61.0686 33.4352 62.6667 35.9203 63.9223 38.6312C64.0935 38.9701 64.2076 39.309 64.3789 39.6479C64.8355 40.6645 65.235 41.6811 65.8628 42.5847C66.776 43.8837 67.9174 44.6744 69.116 44.7874C69.173 44.7874 69.4013 44.8439 69.4584 44.7309C69.5725 44.6744 69.6296 44.4485 69.6296 44.0532C69.4584 39.0831 67.8033 34.0565 64.9496 29.9336C62.0959 25.8106 57.9866 22.4784 53.3066 20.5582C53.0783 20.4452 52.9642 20.2193 53.0783 19.9934C53.1925 19.7675 53.4208 19.6545 53.6491 19.7675C58.4432 21.7442 62.7237 25.1894 65.6345 29.4817C68.6023 33.7176 70.3145 38.9136 70.4857 44.0532C70.4857 44.3356 70.5428 45.1263 69.915 45.4651C69.6296 45.6346 69.4013 45.6346 69.173 45.6346Z" fill="black"/>
<path d="M47.4851 50.3788C46.8573 50.3788 46.1154 50.2658 45.2593 49.6446C45.088 49.5316 45.031 49.2492 45.1451 49.0233C45.2593 48.8539 45.5446 48.7974 45.7729 48.9103C46.5719 49.4751 47.2568 49.4751 47.8846 49.4186H47.9417C48.8549 49.3622 49.8251 48.9103 50.3388 48.2891C50.5671 48.0067 50.8525 47.5549 50.7383 47.0465V46.9901C50.7383 46.0864 50.6242 45.1263 50.51 44.4485C50.4529 44.2791 50.5671 44.0532 50.7383 43.9967C50.9095 43.9402 51.1378 43.9402 51.252 44.1097C51.9369 44.8439 52.5647 45.5781 53.4208 46.0864C54.2769 46.5947 55.2471 46.7642 55.9891 46.4818C57.0164 46.0864 58.0437 44.3356 57.8154 43.3755C57.7584 43.1495 57.9296 42.9236 58.1579 42.8671C58.3862 42.8107 58.6145 42.9801 58.6715 43.206C59.014 44.7309 57.5871 46.8206 56.2744 47.3289C55.2471 47.6678 54.0486 47.4984 52.9642 46.8771C52.4505 46.5382 51.9369 46.1429 51.5373 45.7475C51.5944 46.1994 51.5944 46.6512 51.5944 47.103C51.6515 47.7808 51.4803 48.402 50.9666 48.9668C50.2817 49.814 49.0832 50.3788 47.9417 50.3788H47.8846C47.7705 50.3788 47.5993 50.3788 47.4851 50.3788Z" fill="black"/>
<path d="M61.7535 46.8771C61.411 46.8771 61.0686 46.7641 60.7262 46.6512C59.071 46.0299 58.2149 44.2226 57.3588 42.5282C56.7881 41.3422 56.1603 40.0997 55.3613 39.3654C55.19 39.196 55.19 38.9136 55.3042 38.7442C55.4754 38.5748 55.7608 38.5748 55.932 38.6877C56.9022 39.5349 57.5301 40.8339 58.1579 42.0764C58.9569 43.7143 59.6988 45.2392 61.0686 45.7475C61.6393 45.9734 62.3242 46.2558 63.2945 44.6744C63.5798 44.2226 63.6369 43.7143 63.6369 43.206C63.7511 41.8505 63.3515 40.495 63.0091 39.1395C62.952 38.9136 62.895 38.7442 62.8379 38.5183C62.7808 38.2924 62.895 38.0664 63.1803 38.01C63.4086 37.9535 63.6369 38.0664 63.694 38.3488C63.7511 38.5748 63.8081 38.7442 63.8652 38.9701C64.2076 40.3821 64.6072 41.8505 64.493 43.3189C64.4359 43.9402 64.3789 44.618 64.0364 45.1827C63.2374 46.4817 62.4954 46.8771 61.7535 46.8771Z" fill="black"/>
<path d="M33.5021 46.5947C33.445 46.5947 33.445 46.5947 33.388 46.5947C31.7328 46.5382 30.3631 45.5781 29.9636 44.2791C29.7923 43.7708 29.7923 43.2625 29.9065 42.7542C28.9933 43.319 27.9089 43.5449 26.8816 43.319C25.2835 43.0366 23.9138 41.7376 23.6284 40.2127C23.5143 39.5914 23.7426 39.2525 23.9138 39.0266C24.085 38.8572 24.3704 38.8572 24.5416 39.0266C24.7128 39.196 24.7128 39.4784 24.5416 39.6479C24.4845 39.7044 24.4845 39.8173 24.4845 40.0432C24.6557 41.2293 25.7401 42.2459 26.9957 42.4718C28.2514 42.6977 29.5641 42.1894 30.2489 41.2293C30.3631 41.0598 30.5914 41.0034 30.7626 41.1163C30.9338 41.0598 31.048 41.0034 31.1621 40.9469C32.8743 40.2691 34.7007 39.8738 36.5841 39.7044C38.068 39.5914 39.0953 39.9303 39.5519 40.7774C39.7802 41.1728 39.8373 41.6246 39.7802 42.1894C39.666 42.9236 39.3807 43.6014 38.9241 44.1097C38.4675 44.618 37.8968 45.0133 37.326 45.3522C36.2987 45.9735 34.929 46.5947 33.5021 46.5947ZM30.9338 42.0764C30.7626 42.8107 30.6484 43.4319 30.8197 43.9967C31.1621 45.0698 32.3607 45.6911 33.445 45.6911C34.7007 45.7475 35.9563 45.1263 36.8695 44.618C37.3831 44.3356 37.8968 43.9967 38.2392 43.6014C38.5817 43.206 38.867 42.6412 38.9241 42.1329C38.9812 41.8505 38.9812 41.5117 38.81 41.2293C38.4675 40.608 37.4402 40.5515 36.6982 40.608C34.929 40.721 33.1597 41.1163 31.5046 41.7941C31.2192 41.8505 31.048 41.9635 30.9338 42.0764Z" fill="black"/>
<path d="M37.7826 49.4751C37.0978 49.4751 36.4699 49.3057 35.8992 49.0233C34.8719 48.402 34.187 47.1595 34.3012 45.9734C34.3012 45.7475 34.5294 45.5781 34.7577 45.5781C34.986 45.5781 35.1573 45.804 35.1573 46.0299C35.1002 46.8771 35.5568 47.8372 36.2987 48.2326C37.0407 48.6844 38.0109 48.6844 39.0383 48.3455C40.0085 48.0067 40.8075 47.3854 41.6636 46.7641C42.8622 45.8605 43.9466 44.7874 44.0607 43.4884C44.0607 43.4319 44.0607 43.319 44.0607 43.2625C44.0607 43.206 43.9466 43.1495 43.8324 43.0366C43.2046 42.6412 42.3485 42.5847 41.4353 42.7542C40.6363 42.9236 39.9514 43.2625 39.2095 43.6578L39.0953 43.7143C38.867 43.8273 38.6387 43.7143 38.5246 43.5449C38.4104 43.3754 38.5246 43.093 38.6958 42.9801L38.81 42.9236C39.609 42.5283 40.3509 42.1329 41.2641 41.9635C42.4056 41.7376 43.49 41.8505 44.289 42.3024C44.4602 42.4153 44.7456 42.5847 44.8597 42.9236C44.9739 43.1495 44.9739 43.3754 44.9739 43.6014C44.8597 45.2392 43.6041 46.4253 42.2344 47.4419C41.3783 48.1196 40.4651 48.7974 39.3807 49.1362C38.867 49.4186 38.2963 49.4751 37.7826 49.4751Z" fill="black"/>
<path d="M42.8622 50.7176C42.2344 50.7176 41.6066 50.5482 41.0929 50.3223C40.4651 49.9834 39.7802 49.3622 39.8373 48.515C39.8373 48.2891 40.0656 48.1196 40.2939 48.1196C40.5222 48.1196 40.6934 48.3456 40.6934 48.5715C40.6934 48.9668 41.0929 49.3622 41.4924 49.5316C42.0631 49.814 42.748 49.9269 43.4329 49.814C44.4602 49.6446 45.3734 48.9668 46.1154 48.3455C46.9715 47.6113 47.3139 47.0465 47.2568 46.4818C47.1998 45.8605 46.4578 45.4087 45.83 45.3522C45.2022 45.2957 44.5744 45.5781 43.8324 46.1429C43.6612 46.3123 43.3758 46.2558 43.2046 46.0864C43.0334 45.917 43.0905 45.6346 43.2617 45.4652C43.8324 45.0133 44.7456 44.4485 45.83 44.505C46.8002 44.5615 47.9417 45.2957 48.0559 46.3688C48.17 47.4984 47.3139 48.402 46.629 48.9668C45.83 49.6446 44.8027 50.4352 43.5471 50.6612C43.2617 50.7176 43.0905 50.7176 42.8622 50.7176Z" fill="black"/>
<path d="M30.6484 41.6811C30.4202 41.6811 30.2489 41.5116 30.2489 41.3422C30.0777 40.4385 29.1075 39.9302 28.5367 39.7043C26.8816 39.0266 25.4548 39.0266 24.2562 39.7608C24.085 39.8738 23.7996 39.8173 23.6855 39.6478C22.0304 37.3887 19.9757 35.6944 17.5216 34.6213C17.2933 34.5083 17.1791 34.2824 17.2933 34.0565C17.4074 33.8306 17.6357 33.7176 17.864 33.8306C20.3182 34.9037 22.4299 36.5415 24.1421 38.8007C25.5118 38.1229 27.1099 38.1229 28.8792 38.8571C30.1348 39.3655 30.9338 40.2126 31.105 41.1728C31.1621 41.3987 30.9909 41.6246 30.7626 41.6811C30.7055 41.6811 30.7055 41.6811 30.6484 41.6811Z" fill="black"/>
<path d="M24.3704 15.4751C24.1991 15.4751 23.9709 15.3622 23.9709 15.1362C23.9138 14.9103 24.085 14.6844 24.3133 14.6279C29.1075 13.5548 33.5592 12.0299 37.2119 10.6744L37.5543 10.5615C38.9812 10.0532 40.408 9.54488 41.949 9.37545C45.4876 8.9801 48.7407 10.505 51.5944 11.804C51.8227 11.917 51.8798 12.1429 51.8227 12.3688C51.7086 12.5947 51.4803 12.6512 51.252 12.5947C48.5124 11.2957 45.3734 9.88375 42.0631 10.2226C40.6363 10.3921 39.2095 10.9004 37.8968 11.3522L37.5543 11.4651C33.8446 12.8206 29.3928 14.3455 24.5416 15.4186C24.4274 15.4751 24.4274 15.4751 24.3704 15.4751Z" fill="black"/>
<path d="M32.9885 8.01997C32.8172 8.01997 32.7031 7.96349 32.646 7.79405C32.5319 7.56814 32.589 7.34223 32.7602 7.17279C36.6982 4.68774 41.4353 3.50169 46.1154 3.72761C46.3437 3.72761 46.5149 3.95352 46.5149 4.17943C46.5149 4.40535 46.2866 4.57478 46.0583 4.57478C41.5495 4.34887 36.9836 5.47844 33.2168 7.85053C33.1597 8.01997 33.1026 8.01997 32.9885 8.01997Z" fill="black"/>
<path d="M30.2489 3.84055C30.1348 3.84055 29.9636 3.78407 29.9065 3.67112C29.7923 3.4452 29.8494 3.21929 30.0206 3.04985C32.3607 1.52494 35.0431 0.508327 37.7826 2.10553e-05C38.0109 -0.0564573 38.2392 0.112978 38.2963 0.338891C38.3534 0.564805 38.1821 0.790719 37.9539 0.847197C35.3285 1.29902 32.7602 2.31564 30.5343 3.7276C30.4202 3.78407 30.3631 3.84055 30.2489 3.84055Z" fill="black"/>
<path d="M58.1008 51C57.8725 51 57.7013 50.8306 57.6442 50.6047C57.6442 50.3787 57.8154 50.1528 58.0437 50.1528C60.5549 50.0964 63.0662 49.1362 65.0067 47.5548C65.1779 47.3854 65.4633 47.4419 65.6345 47.6113C65.8057 47.7807 65.7486 48.0631 65.5774 48.2326C63.4657 49.9834 60.8403 50.9435 58.1008 51Z" fill="black"/>
</g>
<defs>
<clipPath id="clip0_109_850">
<rect width="94" height="51" fill="white"/>
</clipPath>
</defs>
</svg>
