<svg width="89" height="96" viewBox="0 0 89 96" fill="none" xmlns="http://www.w3.org/2000/svg">
<path d="M15.2647 71.8511C15.132 71.8511 15.0656 71.7849 14.9329 71.7188C9.82254 67.5506 6.76959 61.133 6.76959 54.583C6.76959 54.3184 6.9687 54.0537 7.30054 54.0537C7.56601 54.0537 7.83149 54.2522 7.83149 54.583C7.83149 60.8683 10.6853 66.9552 15.5966 70.9248C15.7957 71.1233 15.8621 71.388 15.663 71.6526C15.5302 71.7849 15.3975 71.8511 15.2647 71.8511Z" fill="black"/>
<path d="M15.2647 72.1819C15.1984 72.1819 15.1984 72.1819 15.132 72.1819C13.2737 71.785 11.4154 71.1895 9.62342 70.5279C9.35795 70.3956 9.22521 70.1309 9.35795 69.8663C9.49069 69.6017 9.75616 69.4693 10.0216 69.6017C11.5481 70.1971 13.1409 70.6602 14.7338 71.0572C14.6011 69.5355 14.2692 68.0799 13.8046 66.6906C13.7383 66.4259 13.871 66.1613 14.1365 66.0289C14.4019 65.9628 14.6674 66.0951 14.8002 66.3598C15.3975 68.0799 15.7293 69.8663 15.8621 71.6527C15.8621 71.785 15.7957 71.9835 15.6629 72.0496C15.5302 72.1158 15.3975 72.1819 15.2647 72.1819Z" fill="black"/>
<path d="M66.5011 82.04C66.302 82.04 66.1029 81.9076 66.0365 81.7092C65.9038 81.4445 66.0365 81.1799 66.302 81.0476C72.3415 78.3349 76.9873 72.7112 78.4474 66.2936C78.5138 66.0289 78.7793 65.8305 79.0447 65.8966C79.3102 65.9628 79.5093 66.2274 79.443 66.4921C77.9165 73.2405 73.0716 79.1289 66.7666 81.9738C66.6339 81.9738 66.5675 82.04 66.5011 82.04Z" fill="black"/>
<path d="M79.8412 71.1895C79.5757 71.1895 79.3102 70.991 79.3102 70.6602C79.3102 69.4693 79.1111 68.2123 78.7793 67.0875C77.7837 67.8814 76.7882 68.6092 75.66 69.2708C75.3945 69.4032 75.129 69.337 74.9963 69.0723C74.8635 68.8077 74.9299 68.5431 75.1954 68.4107C76.4564 67.683 77.651 66.8229 78.7129 65.8966C78.8456 65.7643 79.0447 65.7643 79.1775 65.7643C79.3102 65.8304 79.4429 65.8966 79.5093 66.0951C80.0403 67.6168 80.3057 69.1385 80.3057 70.7264C80.3057 70.9249 80.1066 71.1895 79.8412 71.1895Z" fill="black"/>
<path d="M43.8031 10.7842C43.6704 10.7842 43.4713 10.718 43.4049 10.5857C43.2722 10.3872 43.3385 10.0564 43.5376 9.85794C48.7144 6.35139 55.7494 5.88826 61.3907 8.60088C61.6562 8.7332 61.7226 8.99784 61.6562 9.26249C61.5235 9.52713 61.258 9.5933 60.9925 9.52713C55.6831 6.94684 49.0462 7.40997 44.135 10.718C44.0022 10.7842 43.9358 10.7842 43.8031 10.7842Z" fill="black"/>
<path d="M48.1171 11.115C46.5906 10.9827 45.0641 10.9166 43.5377 10.9827C43.3385 10.9827 43.1394 10.8504 43.0731 10.7181C43.0067 10.5196 43.0067 10.3211 43.1394 10.1888L45.8605 6.54992C46.0597 6.35144 46.3251 6.28527 46.5906 6.4176C46.7897 6.61608 46.8561 6.88073 46.7233 7.14537L44.5995 9.92414H44.6659C45.8605 9.92414 47.0552 9.9903 48.1834 10.0565C48.4489 10.0565 48.648 10.3211 48.648 10.5858C48.648 10.9166 48.3825 11.115 48.1171 11.115Z" fill="black"/>
<path d="M64.8419 4.49897C64.7755 4.49897 64.6428 4.49896 64.5764 4.4328C60.9926 2.24948 56.6786 0.992418 52.4974 0.992418C52.2319 0.992418 51.9665 0.793934 51.9665 0.463128C51.9665 0.198483 52.1656 -0.0661621 52.4974 -0.0661621C56.9441 -0.0661621 61.3244 1.1909 65.1074 3.50655C65.3729 3.63887 65.4392 3.96968 65.2401 4.16816C65.1738 4.4328 65.041 4.49897 64.8419 4.49897Z" fill="black"/>
<path d="M69.8195 89.2516C69.6204 89.2516 69.4877 89.1854 69.3549 88.9869C69.2222 88.7223 69.2886 88.4576 69.554 88.3253C73.2043 86.3405 76.39 83.2971 78.4474 79.7244C78.5801 79.4597 78.912 79.3936 79.1111 79.5259C79.3766 79.6582 79.4429 79.989 79.3102 80.1875C77.12 84.0248 73.9344 87.1344 70.0186 89.1854C70.0186 89.1854 69.9523 89.2516 69.8195 89.2516Z" fill="black"/>
<path d="M4.57942 66.3597C4.44668 66.3597 4.24758 66.2935 4.18121 66.1612C1.46011 62.6547 -0.0663659 58.288 2.43122e-06 53.8552C2.43122e-06 53.5906 0.199108 53.3259 0.530949 53.3259C0.796423 53.3259 1.0619 53.5244 1.0619 53.8552C0.995528 58.0895 2.38926 62.1915 4.97763 65.5658C5.17674 65.7642 5.11037 66.0951 4.91126 66.2935C4.77853 66.3597 4.64579 66.3597 4.57942 66.3597Z" fill="black"/>
<path d="M5.37585 11.1813C6.10591 22.0979 6.23864 33.0145 5.97317 43.9311C9.09248 43.071 12.3445 42.7402 15.5966 43.0048C15.9948 43.0048 16.4594 43.071 16.7912 43.4018C17.1231 43.7326 17.1894 44.3281 16.9903 44.7912C16.8576 45.2543 16.5257 45.6513 16.2603 46.0483C15.8621 46.6437 15.5302 47.3715 15.4638 48.0993C15.3975 49.6871 16.7248 51.0765 18.3177 51.6058C19.8442 52.0689 21.5034 51.8705 23.2289 51.3412C24.4899 50.878 25.2864 49.3563 24.8218 48.0331C24.6227 47.4376 24.2245 46.9745 24.0254 46.3791C23.6935 45.4528 23.8263 44.2619 24.6227 43.6003C25.3527 43.0048 26.3483 43.0048 27.2774 43.0048C30.3967 43.071 33.516 43.071 36.5026 43.071C36.3699 38.7705 36.4363 34.47 36.7017 30.0372C36.038 30.6327 35.1089 30.8973 34.1797 30.8312C33.2506 30.8312 32.3878 30.5004 31.6577 30.0372C31.1268 29.7064 30.6622 29.3095 30.3304 28.7802C29.9985 28.1186 29.9985 27.3246 30.0649 26.5969C30.1976 25.6706 30.4631 24.6782 31.1932 24.0827C31.525 23.8181 31.9232 23.6196 32.3214 23.4211C33.0515 23.0903 33.8479 22.8257 34.7107 22.8257C35.5071 22.8257 36.3699 23.2226 36.8345 24.0166C36.6354 20.9731 36.5026 17.9297 36.8345 14.8863C36.9672 13.7616 37.1663 12.5707 36.8345 11.5121C36.038 11.2474 35.1753 11.2474 34.3788 11.3136C25.8173 11.7106 17.1894 11.909 8.6279 11.3798C7.49964 11.3136 6.37138 11.2474 5.37585 11.1813Z" fill="white"/>
<g opacity="0.1294">
<path opacity="0.1294" d="M37.0336 12.2399C37.0336 11.8429 37.1663 11.4459 36.8345 11.1813C36.7681 11.0489 36.6354 11.0489 36.5026 10.9828C36.2371 12.5707 35.9717 14.0924 35.6398 15.6802C35.1753 18.062 34.7107 20.4438 34.2461 22.8257C34.4452 23.0903 34.7107 23.2226 35.0425 23.1565C35.308 23.8181 36.3035 23.9504 36.6354 23.2888C36.7017 23.1565 36.7681 22.958 36.7681 22.8257V22.7595V22.6933C36.7681 22.6272 36.7681 22.561 36.7681 22.4948C36.7681 22.2964 36.8345 21.9656 36.7681 21.8332C36.6354 19.4514 36.569 16.3419 36.7681 14.5555C36.9672 13.7616 36.9672 12.9676 37.0336 12.2399Z" fill="black"/>
</g>
<g opacity="0.1294">
<path opacity="0.1294" d="M36.2371 41.8801V41.814C36.1044 40.2261 36.1044 38.6382 36.1708 36.9842C36.1044 35.0655 36.3699 33.213 36.5026 31.2943C36.5026 30.3681 35.4407 30.1034 34.9098 30.5004C34.5116 30.3019 33.9806 30.6327 33.9806 31.0959C34.1134 33.3453 34.2461 35.5287 34.2461 37.7782C34.1797 38.8367 34.2461 39.8292 34.2461 40.8877C33.7151 41.1524 33.8479 41.0862 33.4497 41.2847C30.3967 41.9463 28.9366 41.814 25.0873 42.6741C24.2908 42.8726 24.6227 44.0635 25.4191 43.865C27.5429 43.468 29.7994 43.468 32.1887 43.1372C32.9187 43.0711 33.6488 43.0049 34.3125 42.7402C34.3125 42.8064 34.3125 42.8726 34.3788 42.8726C34.5116 43.2034 34.8434 43.3357 35.1089 43.2695C35.5071 43.4019 36.038 43.2695 36.2371 42.8726C36.3699 42.6741 36.3699 42.4094 36.3035 42.1448C36.2371 42.0125 36.2371 41.9463 36.2371 41.8801Z" fill="black"/>
</g>
<g opacity="0.1294">
<path opacity="0.1294" d="M24.8881 46.9745C24.8218 46.6437 24.8218 46.3128 24.6227 46.0482C24.3572 45.6512 23.7599 45.7174 23.5608 46.1144C23.428 46.3128 23.428 46.5113 23.4944 46.7098C23.5608 47.2391 23.5608 47.0406 23.6271 47.4376C23.6271 47.5699 23.6271 47.9007 23.6271 48.033C23.428 49.0916 22.698 49.4224 21.1052 49.7532C20.176 49.9517 18.915 49.8856 17.123 49.1578C15.7293 48.827 15.1984 50.8118 16.5257 51.2088C17.9858 51.7381 19.5787 52.2012 21.1715 51.9366C22.2334 51.7381 23.2289 51.2088 24.0254 50.481C24.8881 49.5547 25.0873 48.2315 24.8881 46.9745Z" fill="black"/>
</g>
<path d="M20.8397 52.4659C20.6406 52.4659 20.4415 52.4659 20.2424 52.4659C18.384 52.3336 16.8576 51.8043 15.9284 50.8119C15.5302 50.4149 15.0656 49.8194 14.9993 48.9594C14.9329 48.0993 15.2647 47.3715 15.5966 46.776L16.5257 44.9235C16.7248 44.5927 16.8576 44.2619 16.7912 43.9973C16.7912 43.9311 16.7248 43.8649 16.6585 43.7988C16.5921 43.7326 16.5257 43.7326 16.393 43.7326C16.3266 43.7326 16.3266 43.7326 16.2603 43.7326C12.9418 43.3356 9.49068 43.6003 6.03953 44.3942C5.90679 44.4604 5.70768 44.3942 5.64132 44.2619C5.50858 44.1957 5.44221 43.9973 5.44221 43.8649C5.50858 33.4115 5.30947 22.7595 4.71216 11.3136C4.71216 11.1813 4.77853 11.0489 4.8449 10.9166C4.91126 10.7843 5.044 10.7843 5.24311 10.7843C15.7957 10.9828 26.5474 11.0489 37.0999 10.8505C37.299 10.8505 37.4981 10.9828 37.5645 11.1813C37.6309 11.4459 37.6309 11.7106 37.5645 11.909C37.299 15.5479 37.2327 19.3853 37.3654 24.0166C37.3654 24.215 37.2327 24.4135 37.0999 24.4797C36.9008 24.5458 36.7017 24.5458 36.569 24.4135C35.6398 23.6196 34.2461 23.2888 33.0515 23.6857C31.8568 24.0827 30.9277 25.0751 30.5958 26.266C30.3304 27.2585 30.5958 28.3832 31.2595 29.0448C31.6577 29.4418 32.1223 29.7064 32.9187 29.9049C33.5824 30.1034 35.308 30.5004 36.5026 29.6403C36.6354 29.5079 36.9008 29.5079 37.0336 29.5741C37.1663 29.6403 37.299 29.8387 37.299 30.0372C37.0336 34.2054 36.9008 38.4397 37.0999 43.071C37.0999 43.2033 37.0336 43.3356 36.9672 43.468C36.7681 43.6003 36.6354 43.6665 36.5026 43.6665C33.2506 43.468 29.9321 43.468 26.6137 43.6665C25.7509 43.6665 24.9545 43.7988 24.5563 44.3281C24.1581 44.9235 24.4899 45.7836 24.689 46.2467C24.7554 46.3791 24.8218 46.5775 24.8881 46.7099C25.22 47.3715 25.4855 48.0331 25.5518 48.7609C25.6182 49.9518 24.8218 51.1427 23.6271 51.8043C22.8971 52.2674 21.9679 52.4659 20.8397 52.4659ZM16.3266 42.674C16.5921 42.674 16.8576 42.7402 17.123 42.9387C17.4549 43.1372 17.654 43.468 17.654 43.7988C17.7204 44.3942 17.4549 44.9235 17.3222 45.3205L16.393 47.173C16.0612 47.7685 15.862 48.2977 15.9284 48.827C15.9948 49.3563 16.3266 49.7533 16.5921 50.0179C17.5876 51.0103 19.1805 51.3412 20.2424 51.4073C21.437 51.4735 22.3661 51.3412 23.1626 50.9442C24.0254 50.4811 24.5563 49.621 24.5563 48.827C24.5563 48.2977 24.2908 47.7685 24.0254 47.173C23.959 46.9745 23.8263 46.8422 23.7599 46.6437C23.2289 45.4528 23.2289 44.4604 23.6935 43.7326C24.2908 42.8064 25.4855 42.6079 26.5474 42.6079C29.6667 42.4755 32.8524 42.4755 35.9717 42.6079C35.8389 38.5059 35.9053 34.6685 36.1708 30.9635C34.8434 31.4928 33.3833 31.162 32.5869 30.8973C31.9896 30.6988 31.1931 30.4342 30.5295 29.7726C29.6003 28.8463 29.2685 27.3908 29.6003 26.0676C29.9985 24.5458 31.1931 23.2226 32.7196 22.7595C33.9142 22.3625 35.2416 22.561 36.3035 23.0903C36.2371 18.856 36.3035 15.2171 36.569 11.8429C26.3483 11.9752 15.9948 11.9752 5.77405 11.7767C6.305 22.8257 6.5041 33.1468 6.305 43.2033C9.68979 42.5417 13.0082 42.3432 16.1939 42.674C16.2603 42.674 16.2603 42.674 16.3266 42.674Z" fill="black"/>
<g opacity="0.1294">
<path opacity="0.1294" d="M37.0336 12.2399C37.0336 11.8429 37.1663 11.4459 36.8345 11.1813C36.7681 11.0489 36.6354 11.0489 36.5026 10.9828C36.2371 12.5707 35.9717 14.0924 35.6398 15.6802C35.1753 18.062 34.7107 20.4438 34.2461 22.8257C34.4452 23.0903 34.7107 23.2226 35.0425 23.1565C35.308 23.8181 36.3035 23.9504 36.6354 23.2888C36.7017 23.1565 36.7681 22.958 36.7681 22.8257V22.7595V22.6933C36.7681 22.6272 36.7681 22.561 36.7681 22.4948C36.7681 22.2964 36.8345 21.9656 36.7681 21.8332C36.6354 19.4514 36.569 16.3419 36.7681 14.5555C36.9672 13.7616 36.9672 12.9676 37.0336 12.2399Z" fill="black"/>
</g>
<g opacity="0.1294">
<path opacity="0.1294" d="M36.2371 41.8801V41.814C36.1044 40.2261 36.1044 38.6382 36.1708 36.9842C36.1044 35.0655 36.3699 33.213 36.5026 31.2943C36.5026 30.3681 35.4407 30.1034 34.9098 30.5004C34.5116 30.3019 33.9806 30.6327 33.9806 31.0959C34.1134 33.3453 34.2461 35.5287 34.2461 37.7782C34.1797 38.8367 34.2461 39.8292 34.2461 40.8877C33.7151 41.1524 33.8479 41.0862 33.4497 41.2847C30.3967 41.9463 28.9366 41.814 25.0873 42.6741C24.2908 42.8726 24.6227 44.0635 25.4191 43.865C27.5429 43.468 29.7994 43.468 32.1887 43.1372C32.9187 43.0711 33.6488 43.0049 34.3125 42.7402C34.3125 42.8064 34.3125 42.8726 34.3788 42.8726C34.5116 43.2034 34.8434 43.3357 35.1089 43.2695C35.5071 43.4019 36.038 43.2695 36.2371 42.8726C36.3699 42.6741 36.3699 42.4094 36.3035 42.1448C36.2371 42.0125 36.2371 41.9463 36.2371 41.8801Z" fill="black"/>
</g>
<g opacity="0.1294">
<path opacity="0.1294" d="M24.8881 46.9745C24.8218 46.6437 24.8218 46.3128 24.6227 46.0482C24.3572 45.6512 23.7599 45.7174 23.5608 46.1144C23.428 46.3128 23.428 46.5113 23.4944 46.7098C23.5608 47.2391 23.5608 47.0406 23.6271 47.4376C23.6271 47.5699 23.6271 47.9007 23.6271 48.033C23.428 49.0916 22.698 49.4224 21.1052 49.7532C20.176 49.9517 18.915 49.8856 17.123 49.1578C15.7293 48.827 15.1984 50.8118 16.5257 51.2088C17.9858 51.7381 19.5787 52.2012 21.1715 51.9366C22.2334 51.7381 23.2289 51.2088 24.0254 50.481C24.8881 49.5547 25.0873 48.2315 24.8881 46.9745Z" fill="black"/>
</g>
<path d="M20.8397 52.4659C20.6406 52.4659 20.4415 52.4659 20.2424 52.4659C18.384 52.3336 16.8576 51.8043 15.9284 50.8119C15.5302 50.4149 15.0656 49.8194 14.9993 48.9594C14.9329 48.0993 15.2647 47.3715 15.5966 46.776L16.5257 44.9235C16.7248 44.5927 16.8576 44.2619 16.7912 43.9973C16.7912 43.9311 16.7248 43.8649 16.6585 43.7988C16.5921 43.7326 16.5257 43.7326 16.393 43.7326C16.3266 43.7326 16.3266 43.7326 16.2603 43.7326C12.9418 43.3356 9.49068 43.6003 6.03953 44.3942C5.90679 44.4604 5.70768 44.3942 5.64132 44.2619C5.50858 44.1957 5.44221 43.9973 5.44221 43.8649C5.50858 33.4115 5.30947 22.7595 4.71216 11.3136C4.71216 11.1813 4.77853 11.0489 4.8449 10.9166C4.91126 10.7843 5.044 10.7843 5.24311 10.7843C15.7957 10.9828 26.5474 11.0489 37.0999 10.8505C37.299 10.8505 37.4981 10.9828 37.5645 11.1813C37.6309 11.4459 37.6309 11.7106 37.5645 11.909C37.299 15.5479 37.2327 19.3853 37.3654 24.0166C37.3654 24.215 37.2327 24.4135 37.0999 24.4797C36.9008 24.5458 36.7017 24.5458 36.569 24.4135C35.6398 23.6196 34.2461 23.2888 33.0515 23.6857C31.8568 24.0827 30.9277 25.0751 30.5958 26.266C30.3304 27.2585 30.5958 28.3832 31.2595 29.0448C31.6577 29.4418 32.1223 29.7064 32.9187 29.9049C33.5824 30.1034 35.308 30.5004 36.5026 29.6403C36.6354 29.5079 36.9008 29.5079 37.0336 29.5741C37.1663 29.6403 37.299 29.8387 37.299 30.0372C37.0336 34.2054 36.9008 38.4397 37.0999 43.071C37.0999 43.2033 37.0336 43.3356 36.9672 43.468C36.7681 43.6003 36.6354 43.6665 36.5026 43.6665C33.2506 43.468 29.9321 43.468 26.6137 43.6665C25.7509 43.6665 24.9545 43.7988 24.5563 44.3281C24.1581 44.9235 24.4899 45.7836 24.689 46.2467C24.7554 46.3791 24.8218 46.5775 24.8881 46.7099C25.22 47.3715 25.4855 48.0331 25.5518 48.7609C25.6182 49.9518 24.8218 51.1427 23.6271 51.8043C22.8971 52.2674 21.9679 52.4659 20.8397 52.4659ZM16.3266 42.674C16.5921 42.674 16.8576 42.7402 17.123 42.9387C17.4549 43.1372 17.654 43.468 17.654 43.7988C17.7204 44.3942 17.4549 44.9235 17.3222 45.3205L16.393 47.173C16.0612 47.7685 15.862 48.2977 15.9284 48.827C15.9948 49.3563 16.3266 49.7533 16.5921 50.0179C17.5876 51.0103 19.1805 51.3412 20.2424 51.4073C21.437 51.4735 22.3661 51.3412 23.1626 50.9442C24.0254 50.4811 24.5563 49.621 24.5563 48.827C24.5563 48.2977 24.2908 47.7685 24.0254 47.173C23.959 46.9745 23.8263 46.8422 23.7599 46.6437C23.2289 45.4528 23.2289 44.4604 23.6935 43.7326C24.2908 42.8064 25.4855 42.6079 26.5474 42.6079C29.6667 42.4755 32.8524 42.4755 35.9717 42.6079C35.8389 38.5059 35.9053 34.6685 36.1708 30.9635C34.8434 31.4928 33.3833 31.162 32.5869 30.8973C31.9896 30.6988 31.1931 30.4342 30.5295 29.7726C29.6003 28.8463 29.2685 27.3908 29.6003 26.0676C29.9985 24.5458 31.1931 23.2226 32.7196 22.7595C33.9142 22.3625 35.2416 22.561 36.3035 23.0903C36.2371 18.856 36.3035 15.2171 36.569 11.8429C26.3483 11.9752 15.9948 11.9752 5.77405 11.7767C6.305 22.8257 6.5041 33.1468 6.305 43.2033C9.68979 42.5417 13.0082 42.3432 16.1939 42.674C16.2603 42.674 16.2603 42.674 16.3266 42.674Z" fill="black"/>
<path d="M52.431 44.7911C51.4355 41.0861 48.9799 37.9104 47.8516 34.073C50.8382 32.4851 53.8911 31.0957 57.0104 29.8387C57.6741 29.574 58.2714 29.3094 58.9351 29.0448C59.3997 28.8463 59.8643 28.6478 60.1297 28.1847C60.3288 27.7877 60.1961 27.3246 59.997 26.9938C59.7979 26.5968 59.4661 26.3321 59.0679 26.0013C57.8069 24.9428 57.4086 23.0902 57.9396 21.5685C58.4705 20.0468 59.8643 18.8559 61.3907 18.3266C62.3863 17.9958 63.5809 17.9297 64.4437 18.5913C64.6428 18.7898 64.8419 18.9882 64.9746 19.1867C65.6383 20.1791 65.9038 21.4362 65.7047 22.5609C65.6383 23.1564 65.3728 23.7518 65.3728 24.3473C65.3728 24.9428 65.7047 25.6044 66.3684 25.9352C69.9523 24.2811 73.6025 22.8256 77.5183 21.7008C78.5802 23.2887 79.1775 25.1412 79.8412 26.9276C81.6995 31.9558 83.956 36.7856 86.2789 41.6154C87.0089 43.0709 87.6726 44.5927 88.2699 46.1144C88.3363 46.4452 88.0045 46.7098 87.739 46.9745C84.6197 49.2901 80.7703 50.481 77.3855 52.3335C77.0537 52.4658 76.7882 52.6643 76.5891 52.929C76.39 53.1936 76.2573 53.5906 76.5227 53.8552C76.4564 54.3845 76.7882 54.8477 77.1864 55.1785C77.5846 55.5093 78.0492 55.7078 78.4474 56.1047C79.0447 56.7002 79.3102 57.6926 79.0447 58.5527C78.8456 59.4128 78.2483 60.1406 77.5183 60.6037C76.7882 61.0668 75.9254 61.3315 75.0626 61.3976C74.3989 61.4638 73.6025 61.4638 73.1379 61.0006C72.5406 60.4714 72.4743 59.6113 72.4079 58.7512C72.4079 57.9572 72.2752 57.031 71.6778 56.5678C71.1469 56.1047 70.3505 56.1709 69.8859 56.5678C66.2356 57.6926 62.6517 59.0158 59.2006 60.4714C58.8024 60.0744 58.6033 59.4789 58.4042 58.9496C57.4086 55.9062 55.9485 52.9951 54.3557 50.1502C55.4176 50.4148 56.6122 50.2825 57.5414 49.7532C58.5369 49.2239 59.267 48.2977 59.4661 47.1729C59.5324 46.9745 59.5324 46.776 59.4661 46.6437C59.4661 46.4452 59.3333 46.1805 59.2006 46.0482C58.8024 45.3866 58.3378 44.7911 57.7405 44.328C57.1432 43.8649 56.4131 43.5341 55.6167 43.5341C55.1521 43.5341 54.6875 43.6002 54.223 43.7326C53.6256 43.8649 52.962 44.1957 52.431 44.7911Z" fill="white"/>
<path d="M51.9001 42.277C51.7673 42.277 51.701 42.2108 51.701 42.0785C52.0992 38.9689 52.431 35.8593 52.6301 32.7498C52.6301 32.6836 52.6965 32.6174 52.8292 32.6174C52.8956 32.6174 52.962 32.6836 52.962 32.8159C52.6965 35.9255 52.431 39.0351 52.0328 42.1447C52.0328 42.2108 51.9664 42.277 51.9001 42.277Z" fill="black"/>
<path d="M55.7494 42.4094C55.6167 42.4094 55.5503 42.3432 55.5503 42.2109L56.1476 31.7574C56.1476 31.6912 56.214 31.5589 56.3468 31.6251C56.4131 31.6251 56.4795 31.6912 56.4795 31.8236L55.9485 42.2771C55.8822 42.2771 55.8158 42.4094 55.7494 42.4094Z" fill="black"/>
<path d="M58.8687 43.071C58.736 43.071 58.6696 43.0048 58.6696 42.8725L59.7315 30.1696C59.7315 30.1034 59.7979 30.0372 59.9306 30.0372C59.997 30.0372 60.0634 30.1034 60.0634 30.2357L59.0015 42.9387C59.0015 43.0048 58.9351 43.071 58.8687 43.071Z" fill="black"/>
<path d="M60.2625 24.9428C60.1298 24.9428 60.0634 24.8767 60.0634 24.7443L60.2625 20.6423C60.2625 20.5762 60.3289 20.51 60.4616 20.51C60.528 20.51 60.5943 20.5762 60.5943 20.7085L60.3952 24.8105C60.3952 24.8767 60.3289 24.9428 60.2625 24.9428Z" fill="black"/>
<path d="M61.9881 57.6265C61.8553 57.6265 61.789 57.5603 61.789 57.428L63.8464 21.1055C63.8464 21.0393 63.9128 20.9731 64.0455 20.9731C64.1119 20.9731 64.1782 21.0393 64.1782 21.1716L62.1208 57.4942C62.1872 57.5603 62.1208 57.6265 61.9881 57.6265Z" fill="black"/>
<path d="M65.3728 56.237C65.3065 56.237 65.1737 56.1709 65.1737 56.0385C65.4392 46.5775 65.8374 36.9841 66.3684 27.523C66.3684 27.4569 66.4347 27.3246 66.5675 27.3907C66.6338 27.3907 66.7002 27.4569 66.7002 27.5892C66.1693 37.0503 65.7047 46.6436 65.5056 56.1047C65.5056 56.1709 65.4392 56.237 65.3728 56.237Z" fill="black"/>
<path d="M68.4258 54.8476C68.3594 54.8476 68.2267 54.7815 68.2267 54.6492C68.5586 45.1219 68.8904 35.5286 69.0895 26.0013C69.0895 25.9352 69.1559 25.869 69.2886 25.869C69.355 25.869 69.4877 25.9352 69.4213 26.0675C69.2222 35.5286 68.8904 45.1881 68.5586 54.7153C68.5586 54.7815 68.4922 54.8476 68.4258 54.8476Z" fill="black"/>
<path d="M71.5451 53.6567C71.4787 53.6567 71.346 53.5906 71.346 53.4583L72.2088 24.9427C72.2088 24.8766 72.2752 24.8104 72.4079 24.8104C72.4743 24.8104 72.607 24.8766 72.5406 25.0089L71.6779 53.5244C71.6779 53.5906 71.6115 53.6567 71.5451 53.6567Z" fill="black"/>
<path d="M74.2662 60.736C74.1998 60.736 74.1335 60.6698 74.0671 60.6037C73.6689 52.9951 74.1335 45.2542 74.598 37.8442C74.8635 33.3452 75.1954 28.6478 75.2617 24.0826C75.2617 24.0165 75.3281 23.9503 75.4608 23.9503C75.5272 23.9503 75.6599 24.0165 75.5936 24.1488C75.5272 28.7139 75.1954 33.4114 74.9299 37.9103C74.4653 45.3866 74.0007 53.0613 74.3989 60.6698C74.3989 60.6698 74.3326 60.736 74.2662 60.736Z" fill="black"/>
<path d="M77.1864 50.2164C77.1201 50.2164 76.9873 50.1502 76.9873 50.0179C77.1864 43.0048 77.7174 35.8594 78.7129 28.9125C78.7129 28.8463 78.8457 28.7802 78.912 28.7802C78.9784 28.7802 79.0448 28.8463 79.0448 28.9786C78.1156 35.9256 77.5183 43.0048 77.3192 50.0841C77.3855 50.1502 77.3192 50.2164 77.1864 50.2164Z" fill="black"/>
<path d="M80.0403 48.827C79.9076 48.827 79.8412 48.7608 79.8412 48.6285C80.0403 44.1295 80.4385 39.5644 81.0358 35.0654C81.0358 34.9993 81.1686 34.9331 81.2349 34.9331C81.3013 34.9331 81.3677 34.9993 81.3677 35.1316C80.7703 39.6306 80.3721 44.1957 80.173 48.6946C80.173 48.7608 80.1067 48.827 80.0403 48.827Z" fill="black"/>
<path d="M83.1596 47.7683C83.0269 47.7683 82.9605 47.7022 82.9605 47.5699C83.0932 45.3204 83.3587 43.1371 83.6905 40.8876C83.6905 40.8214 83.8233 40.7552 83.8896 40.7552C83.956 40.7552 84.0224 40.8214 84.0224 40.9537C83.6905 43.1371 83.4914 45.3865 83.2923 47.5699C83.3587 47.7022 83.2923 47.7683 83.1596 47.7683Z" fill="black"/>
<g opacity="0.1294">
<path opacity="0.1294" d="M72.9388 55.3769C72.9388 55.1122 72.8725 54.8476 72.6734 54.6491C72.607 54.5829 72.607 54.5829 72.6734 54.6491C72.8061 54.8476 72.3415 54.2521 72.4743 54.4506C72.5406 54.5168 72.5406 54.5168 72.4743 54.4506C72.2752 54.186 71.9433 54.0536 71.6115 53.9875C71.5451 53.9875 71.4787 53.9875 71.4787 53.9875C71.0805 53.9213 70.7487 53.9875 70.3505 54.0536C69.4213 54.2521 68.5585 54.5829 67.6957 54.9799C66.9657 55.2446 65.6383 55.9062 63.7136 56.5678C62.4526 56.9647 61.258 57.4279 59.997 57.891C59.5324 58.0895 58.8688 58.1556 58.6033 58.6849C58.1387 59.4789 58.9351 60.4713 59.7979 60.2066C62.2535 59.3466 64.8419 58.6188 67.2312 57.494C67.7621 57.3617 70.085 56.1708 70.9478 55.7738C71.2133 55.7077 71.4124 55.6415 71.6778 55.5092C71.6778 55.5092 71.7442 55.5092 71.7442 55.443C71.877 55.5754 72.0761 55.7077 72.2752 55.7738C72.2752 55.7738 72.2752 55.7738 72.2088 55.7738C72.2088 55.7738 72.2752 55.84 72.3415 55.84C72.3415 55.9062 72.4079 55.9062 72.4079 55.9723C72.4743 56.1046 72.7397 56.1708 72.8725 56.1047C73.2043 55.7738 72.9388 55.443 72.9388 55.3769Z" fill="black"/>
</g>
<g opacity="0.1294">
<path opacity="0.1294" d="M87.9381 45.1881C87.8054 44.8573 87.739 44.5926 87.6726 44.2618C87.5399 44.2618 87.4072 44.328 87.2744 44.4603C87.0753 44.6588 87.0753 44.8573 87.0089 45.1219C86.7435 45.6512 86.8098 45.5189 86.3453 45.982C84.6861 47.5037 81.3676 48.7608 79.3102 49.6871C79.1111 49.7532 78.6465 49.9517 78.4474 50.0179C77.8501 50.3487 77.0537 50.3487 76.6555 50.9441C76.1909 51.6719 76.9209 52.5982 77.7837 52.3997C80.3057 51.4734 82.695 50.2825 84.9515 48.8931C86.1462 48.1654 87.4735 47.4376 88.0708 46.1144C88.0708 46.0482 88.1372 45.982 88.1372 45.9159C88.0708 45.6512 88.0045 45.3866 87.9381 45.1881Z" fill="black"/>
</g>
<path d="M74.9299 62.1254C73.9344 62.1254 72.9389 61.7946 72.3415 60.8683C71.877 60.2067 71.877 59.4128 71.877 58.685C71.877 58.3542 71.877 58.0234 71.8106 57.6926C71.7442 57.2295 71.346 56.7002 70.9478 56.5017C70.7487 56.4355 70.616 56.5017 70.4832 56.5017C70.4169 56.5017 70.4169 56.5678 70.3505 56.5678C68.0276 57.3618 65.6383 58.288 63.3818 59.2143C61.9881 59.7436 60.5943 60.2729 59.2006 60.8022C59.0679 60.8683 58.9351 60.8683 58.8024 60.8022C58.6697 60.736 58.6033 60.6037 58.5369 60.4714C57.475 56.7002 55.9486 53.2598 53.9575 50.2164C53.8248 50.0179 53.8248 49.8194 53.9575 49.6871C54.0902 49.4886 54.2893 49.4224 54.4884 49.4886C55.484 49.6209 56.4131 49.6209 57.3423 49.3563C58.0723 49.1578 58.5369 48.8931 58.8024 48.4962C59.0679 48.1654 59.2006 47.7022 59.2006 47.2391C59.2006 45.8497 58.1387 44.5265 56.745 44.0634C55.4176 43.6664 53.7584 44.0634 52.7629 45.1219C52.6301 45.2543 52.4974 45.3204 52.2983 45.2543C52.1656 45.2543 51.9664 45.1219 51.9001 44.9896C51.4355 43.9972 51.0373 43.0048 50.5727 42.0124C49.4444 39.4321 48.3826 36.9841 47.1879 34.6023C47.0552 34.3377 47.1879 34.073 47.387 33.9407C51.3691 31.7574 55.5503 29.8387 59.7979 28.1847C59.8643 28.1847 59.8643 28.1185 59.8643 28.1185C59.9306 27.92 59.7979 27.3907 59.5324 27.0599C59.3333 26.7953 59.1342 26.5968 58.8688 26.3321C58.6697 26.1337 58.4042 25.869 58.2051 25.6044C57.0768 24.215 57.0104 22.0978 57.9396 20.4438C58.8024 18.9882 60.528 17.9297 62.3863 17.7312C63.2491 17.665 63.9791 17.7312 64.5764 18.062C65.4392 18.5251 66.0365 19.4514 66.2357 20.51C66.3684 21.5024 66.2356 22.4286 66.0365 23.2887V23.4211C65.9702 23.818 65.8374 24.215 65.9038 24.612C65.9038 24.8766 66.0365 25.1412 66.2357 25.2736C69.355 24.0827 73.4698 22.4948 77.651 20.9731C77.7837 20.9069 77.9165 20.9069 78.0492 20.9731C78.182 21.0392 78.2483 21.1054 78.3147 21.2377C81.3676 30.1033 85.0179 38.5058 89 46.3129C89.1327 46.5775 89.0664 46.8421 88.8009 46.9745C85.217 48.9593 81.434 50.8118 77.7174 52.5982C77.3192 52.7967 76.921 52.9951 76.8546 53.2598C76.7219 53.6567 76.9873 54.1199 77.3192 54.4507C77.5183 54.583 77.7174 54.7815 77.9165 54.9138C78.2483 55.1785 78.5802 55.3769 78.912 55.7077C79.7748 56.634 79.9075 58.2219 79.3102 59.4128C78.7793 60.4714 77.7174 61.3315 76.4564 61.7284C75.9254 62.0592 75.3945 62.1254 74.9299 62.1254ZM70.7487 55.5754C70.9478 55.5754 71.1469 55.6416 71.346 55.7077C72.0761 55.9724 72.6734 56.8325 72.8061 57.6264C72.8725 58.0234 72.8725 58.3542 72.8725 58.685C72.8725 59.3466 72.9389 59.9421 73.2043 60.339C73.7353 61.1991 75.0626 61.2653 76.0582 60.9345C77.1201 60.6037 77.9165 59.9421 78.3147 59.082C78.7793 58.2219 78.6465 57.0971 78.0492 56.4355C77.8501 56.1709 77.5183 55.9724 77.2528 55.7739C77.0537 55.6416 76.7882 55.4431 76.5891 55.2446C75.9918 54.7153 75.4609 53.8552 75.7927 52.929C76.0582 52.3335 76.5891 52.0027 77.1864 51.7381C80.704 50.0179 84.3542 48.2977 87.739 46.379C83.8896 38.7705 80.3721 30.6326 77.3855 22.0978C73.2707 23.5534 69.2886 25.0751 66.2357 26.266C66.1029 26.3322 66.0365 26.3322 65.9038 26.266C65.2401 26.0675 64.8419 25.4721 64.7092 24.6781C64.6428 24.1488 64.7755 23.6195 64.9083 23.1564V23.0241C65.1074 22.2963 65.2401 21.4362 65.1074 20.6423C64.9746 19.8483 64.5764 19.1867 63.9791 18.9221C63.5809 18.7236 63.05 18.6574 62.3863 18.7236C60.8598 18.8559 59.4661 19.716 58.736 20.9069C58.006 22.164 58.0723 23.8842 58.8688 24.9428C59.0679 25.1412 59.267 25.3397 59.4661 25.6044C59.7315 25.869 59.997 26.1337 60.2625 26.4645C60.5943 26.9938 60.9925 27.7877 60.7934 28.4493C60.6607 28.7801 60.4616 29.0448 60.1298 29.1771C56.0813 30.6988 52.0992 32.5513 48.2498 34.6685C49.3781 36.918 50.3736 39.2336 51.4355 41.6816C51.7673 42.4755 52.0992 43.2694 52.4974 44.0634C53.7584 43.0709 55.484 42.7401 56.9441 43.2033C58.736 43.7326 60.0634 45.5189 60.0634 47.3053C60.0634 47.8346 59.997 48.5623 59.4661 49.2239C59.0679 49.7532 58.4042 50.1502 57.475 50.4148C56.745 50.6133 56.0149 50.7457 55.2185 50.6795C56.8777 53.3921 58.2714 56.4355 59.2006 59.8097C60.4616 59.3466 61.6562 58.8835 62.8509 58.4204C65.1074 57.5603 67.4966 56.634 69.8195 55.7739C70.2177 55.6416 70.4832 55.5754 70.7487 55.5754Z" fill="black"/>
<path d="M51.9001 42.277C51.7673 42.277 51.701 42.2108 51.701 42.0785C52.0992 38.9689 52.431 35.8593 52.6301 32.7498C52.6301 32.6836 52.6965 32.6174 52.8292 32.6174C52.8956 32.6174 52.962 32.6836 52.962 32.8159C52.6965 35.9255 52.431 39.0351 52.0328 42.1447C52.0328 42.2108 51.9664 42.277 51.9001 42.277Z" fill="black"/>
<path d="M55.7494 42.4094C55.6167 42.4094 55.5503 42.3432 55.5503 42.2109L56.1476 31.7574C56.1476 31.6912 56.214 31.5589 56.3468 31.6251C56.4131 31.6251 56.4795 31.6912 56.4795 31.8236L55.9485 42.2771C55.8822 42.2771 55.8158 42.4094 55.7494 42.4094Z" fill="black"/>
<path d="M58.8687 43.071C58.736 43.071 58.6696 43.0048 58.6696 42.8725L59.7315 30.1696C59.7315 30.1034 59.7979 30.0372 59.9306 30.0372C59.997 30.0372 60.0634 30.1034 60.0634 30.2357L59.0015 42.9387C59.0015 43.0048 58.9351 43.071 58.8687 43.071Z" fill="black"/>
<path d="M60.2625 24.9428C60.1298 24.9428 60.0634 24.8767 60.0634 24.7443L60.2625 20.6423C60.2625 20.5762 60.3289 20.51 60.4616 20.51C60.528 20.51 60.5943 20.5762 60.5943 20.7085L60.3952 24.8105C60.3952 24.8767 60.3289 24.9428 60.2625 24.9428Z" fill="black"/>
<path d="M61.9881 57.6265C61.8553 57.6265 61.789 57.5603 61.789 57.428L63.8464 21.1055C63.8464 21.0393 63.9128 20.9731 64.0455 20.9731C64.1119 20.9731 64.1782 21.0393 64.1782 21.1716L62.1208 57.4942C62.1872 57.5603 62.1208 57.6265 61.9881 57.6265Z" fill="black"/>
<path d="M65.3728 56.237C65.3065 56.237 65.1737 56.1709 65.1737 56.0385C65.4392 46.5775 65.8374 36.9841 66.3684 27.523C66.3684 27.4569 66.4347 27.3246 66.5675 27.3907C66.6338 27.3907 66.7002 27.4569 66.7002 27.5892C66.1693 37.0503 65.7047 46.6436 65.5056 56.1047C65.5056 56.1709 65.4392 56.237 65.3728 56.237Z" fill="black"/>
<path d="M68.4258 54.8476C68.3594 54.8476 68.2267 54.7815 68.2267 54.6492C68.5586 45.1219 68.8904 35.5286 69.0895 26.0013C69.0895 25.9352 69.1559 25.869 69.2886 25.869C69.355 25.869 69.4877 25.9352 69.4213 26.0675C69.2222 35.5286 68.8904 45.1881 68.5586 54.7153C68.5586 54.7815 68.4922 54.8476 68.4258 54.8476Z" fill="black"/>
<path d="M71.5451 53.6567C71.4787 53.6567 71.346 53.5906 71.346 53.4583L72.2088 24.9427C72.2088 24.8766 72.2752 24.8104 72.4079 24.8104C72.4743 24.8104 72.607 24.8766 72.5406 25.0089L71.6779 53.5244C71.6779 53.5906 71.6115 53.6567 71.5451 53.6567Z" fill="black"/>
<path d="M74.2662 60.736C74.1998 60.736 74.1335 60.6698 74.0671 60.6037C73.6689 52.9951 74.1335 45.2542 74.598 37.8442C74.8635 33.3452 75.1954 28.6478 75.2617 24.0826C75.2617 24.0165 75.3281 23.9503 75.4608 23.9503C75.5272 23.9503 75.6599 24.0165 75.5936 24.1488C75.5272 28.7139 75.1954 33.4114 74.9299 37.9103C74.4653 45.3866 74.0007 53.0613 74.3989 60.6698C74.3989 60.6698 74.3326 60.736 74.2662 60.736Z" fill="black"/>
<path d="M77.1864 50.2164C77.1201 50.2164 76.9873 50.1502 76.9873 50.0179C77.1864 43.0048 77.7174 35.8594 78.7129 28.9125C78.7129 28.8463 78.8457 28.7802 78.912 28.7802C78.9784 28.7802 79.0448 28.8463 79.0448 28.9786C78.1156 35.9256 77.5183 43.0048 77.3192 50.0841C77.3855 50.1502 77.3192 50.2164 77.1864 50.2164Z" fill="black"/>
<path d="M80.0403 48.827C79.9076 48.827 79.8412 48.7608 79.8412 48.6285C80.0403 44.1295 80.4385 39.5644 81.0358 35.0654C81.0358 34.9993 81.1686 34.9331 81.2349 34.9331C81.3013 34.9331 81.3677 34.9993 81.3677 35.1316C80.7703 39.6306 80.3721 44.1957 80.173 48.6946C80.173 48.7608 80.1067 48.827 80.0403 48.827Z" fill="black"/>
<path d="M83.1596 47.7683C83.0269 47.7683 82.9605 47.7022 82.9605 47.5699C83.0932 45.3204 83.3587 43.1371 83.6905 40.8876C83.6905 40.8214 83.8233 40.7552 83.8896 40.7552C83.956 40.7552 84.0224 40.8214 84.0224 40.9537C83.6905 43.1371 83.4914 45.3865 83.2923 47.5699C83.3587 47.7022 83.2923 47.7683 83.1596 47.7683Z" fill="black"/>
<g opacity="0.1294">
<path opacity="0.1294" d="M72.9388 55.3769C72.9388 55.1122 72.8725 54.8476 72.6734 54.6491C72.607 54.5829 72.607 54.5829 72.6734 54.6491C72.8061 54.8476 72.3415 54.2521 72.4743 54.4506C72.5406 54.5168 72.5406 54.5168 72.4743 54.4506C72.2752 54.186 71.9433 54.0536 71.6115 53.9875C71.5451 53.9875 71.4787 53.9875 71.4787 53.9875C71.0805 53.9213 70.7487 53.9875 70.3505 54.0536C69.4213 54.2521 68.5585 54.5829 67.6957 54.9799C66.9657 55.2446 65.6383 55.9062 63.7136 56.5678C62.4526 56.9647 61.258 57.4279 59.997 57.891C59.5324 58.0895 58.8688 58.1556 58.6033 58.6849C58.1387 59.4789 58.9351 60.4713 59.7979 60.2066C62.2535 59.3466 64.8419 58.6188 67.2312 57.494C67.7621 57.3617 70.085 56.1708 70.9478 55.7738C71.2133 55.7077 71.4124 55.6415 71.6778 55.5092C71.6778 55.5092 71.7442 55.5092 71.7442 55.443C71.877 55.5754 72.0761 55.7077 72.2752 55.7738C72.2752 55.7738 72.2752 55.7738 72.2088 55.7738C72.2088 55.7738 72.2752 55.84 72.3415 55.84C72.3415 55.9062 72.4079 55.9062 72.4079 55.9723C72.4743 56.1046 72.7397 56.1708 72.8725 56.1047C73.2043 55.7738 72.9388 55.443 72.9388 55.3769Z" fill="black"/>
</g>
<g opacity="0.1294">
<path opacity="0.1294" d="M87.9381 45.1881C87.8054 44.8573 87.739 44.5926 87.6726 44.2618C87.5399 44.2618 87.4072 44.328 87.2744 44.4603C87.0753 44.6588 87.0753 44.8573 87.0089 45.1219C86.7435 45.6512 86.8098 45.5189 86.3453 45.982C84.6861 47.5037 81.3676 48.7608 79.3102 49.6871C79.1111 49.7532 78.6465 49.9517 78.4474 50.0179C77.8501 50.3487 77.0537 50.3487 76.6555 50.9441C76.1909 51.6719 76.9209 52.5982 77.7837 52.3997C80.3057 51.4734 82.695 50.2825 84.9515 48.8931C86.1462 48.1654 87.4735 47.4376 88.0708 46.1144C88.0708 46.0482 88.1372 45.982 88.1372 45.9159C88.0708 45.6512 88.0045 45.3866 87.9381 45.1881Z" fill="black"/>
</g>
<path d="M74.9299 62.1254C73.9344 62.1254 72.9389 61.7946 72.3415 60.8683C71.877 60.2067 71.877 59.4128 71.877 58.685C71.877 58.3542 71.877 58.0234 71.8106 57.6926C71.7442 57.2295 71.346 56.7002 70.9478 56.5017C70.7487 56.4355 70.616 56.5017 70.4832 56.5017C70.4169 56.5017 70.4169 56.5678 70.3505 56.5678C68.0276 57.3618 65.6383 58.288 63.3818 59.2143C61.9881 59.7436 60.5943 60.2729 59.2006 60.8022C59.0679 60.8683 58.9351 60.8683 58.8024 60.8022C58.6697 60.736 58.6033 60.6037 58.5369 60.4714C57.475 56.7002 55.9486 53.2598 53.9575 50.2164C53.8248 50.0179 53.8248 49.8194 53.9575 49.6871C54.0902 49.4886 54.2893 49.4224 54.4884 49.4886C55.484 49.6209 56.4131 49.6209 57.3423 49.3563C58.0723 49.1578 58.5369 48.8931 58.8024 48.4962C59.0679 48.1654 59.2006 47.7022 59.2006 47.2391C59.2006 45.8497 58.1387 44.5265 56.745 44.0634C55.4176 43.6664 53.7584 44.0634 52.7629 45.1219C52.6301 45.2543 52.4974 45.3204 52.2983 45.2543C52.1656 45.2543 51.9664 45.1219 51.9001 44.9896C51.4355 43.9972 51.0373 43.0048 50.5727 42.0124C49.4444 39.4321 48.3826 36.9841 47.1879 34.6023C47.0552 34.3377 47.1879 34.073 47.387 33.9407C51.3691 31.7574 55.5503 29.8387 59.7979 28.1847C59.8643 28.1847 59.8643 28.1185 59.8643 28.1185C59.9306 27.92 59.7979 27.3907 59.5324 27.0599C59.3333 26.7953 59.1342 26.5968 58.8688 26.3321C58.6697 26.1337 58.4042 25.869 58.2051 25.6044C57.0768 24.215 57.0104 22.0978 57.9396 20.4438C58.8024 18.9882 60.528 17.9297 62.3863 17.7312C63.2491 17.665 63.9791 17.7312 64.5764 18.062C65.4392 18.5251 66.0365 19.4514 66.2357 20.51C66.3684 21.5024 66.2356 22.4286 66.0365 23.2887V23.4211C65.9702 23.818 65.8374 24.215 65.9038 24.612C65.9038 24.8766 66.0365 25.1412 66.2357 25.2736C69.355 24.0827 73.4698 22.4948 77.651 20.9731C77.7837 20.9069 77.9165 20.9069 78.0492 20.9731C78.182 21.0392 78.2483 21.1054 78.3147 21.2377C81.3676 30.1033 85.0179 38.5058 89 46.3129C89.1327 46.5775 89.0664 46.8421 88.8009 46.9745C85.217 48.9593 81.434 50.8118 77.7174 52.5982C77.3192 52.7967 76.921 52.9951 76.8546 53.2598C76.7219 53.6567 76.9873 54.1199 77.3192 54.4507C77.5183 54.583 77.7174 54.7815 77.9165 54.9138C78.2483 55.1785 78.5802 55.3769 78.912 55.7077C79.7748 56.634 79.9075 58.2219 79.3102 59.4128C78.7793 60.4714 77.7174 61.3315 76.4564 61.7284C75.9254 62.0592 75.3945 62.1254 74.9299 62.1254ZM70.7487 55.5754C70.9478 55.5754 71.1469 55.6416 71.346 55.7077C72.0761 55.9724 72.6734 56.8325 72.8061 57.6264C72.8725 58.0234 72.8725 58.3542 72.8725 58.685C72.8725 59.3466 72.9389 59.9421 73.2043 60.339C73.7353 61.1991 75.0626 61.2653 76.0582 60.9345C77.1201 60.6037 77.9165 59.9421 78.3147 59.082C78.7793 58.2219 78.6465 57.0971 78.0492 56.4355C77.8501 56.1709 77.5183 55.9724 77.2528 55.7739C77.0537 55.6416 76.7882 55.4431 76.5891 55.2446C75.9918 54.7153 75.4609 53.8552 75.7927 52.929C76.0582 52.3335 76.5891 52.0027 77.1864 51.7381C80.704 50.0179 84.3542 48.2977 87.739 46.379C83.8896 38.7705 80.3721 30.6326 77.3855 22.0978C73.2707 23.5534 69.2886 25.0751 66.2357 26.266C66.1029 26.3322 66.0365 26.3322 65.9038 26.266C65.2401 26.0675 64.8419 25.4721 64.7092 24.6781C64.6428 24.1488 64.7755 23.6195 64.9083 23.1564V23.0241C65.1074 22.2963 65.2401 21.4362 65.1074 20.6423C64.9746 19.8483 64.5764 19.1867 63.9791 18.9221C63.5809 18.7236 63.05 18.6574 62.3863 18.7236C60.8598 18.8559 59.4661 19.716 58.736 20.9069C58.006 22.164 58.0723 23.8842 58.8688 24.9428C59.0679 25.1412 59.267 25.3397 59.4661 25.6044C59.7315 25.869 59.997 26.1337 60.2625 26.4645C60.5943 26.9938 60.9925 27.7877 60.7934 28.4493C60.6607 28.7801 60.4616 29.0448 60.1298 29.1771C56.0813 30.6988 52.0992 32.5513 48.2498 34.6685C49.3781 36.918 50.3736 39.2336 51.4355 41.6816C51.7673 42.4755 52.0992 43.2694 52.4974 44.0634C53.7584 43.0709 55.484 42.7401 56.9441 43.2033C58.736 43.7326 60.0634 45.5189 60.0634 47.3053C60.0634 47.8346 59.997 48.5623 59.4661 49.2239C59.0679 49.7532 58.4042 50.1502 57.475 50.4148C56.745 50.6133 56.0149 50.7457 55.2185 50.6795C56.8777 53.3921 58.2714 56.4355 59.2006 59.8097C60.4616 59.3466 61.6562 58.8835 62.8509 58.4204C65.1074 57.5603 67.4966 56.634 69.8195 55.7739C70.2177 55.6416 70.4832 55.5754 70.7487 55.5754Z" fill="black"/>
<path d="M38.1618 63.5148C39.0246 62.5886 38.4937 61.133 38.56 59.876C38.6928 57.0972 42.2103 55.2447 44.6659 56.5017C47.1216 57.7588 47.8516 61.3977 46.1924 63.6472C45.8606 64.1103 45.396 64.7057 45.7278 65.235C45.8606 65.4335 46.126 65.5658 46.3915 65.632C50.3073 67.0214 54.223 68.3446 58.0724 69.734C56.8777 73.1744 55.5504 76.5486 54.0239 79.8567C52.4974 78.2688 49.909 77.6072 47.9844 78.7981C46.126 79.9228 45.7942 83.0986 47.6525 84.2895C48.9135 85.0834 50.5727 84.7526 52.0992 84.8188C51.6346 88.7223 50.44 92.5596 48.1835 95.6031C44.865 94.1475 41.5466 92.7581 38.2282 91.3026C38.0291 91.2364 37.83 91.1041 37.6309 90.9718C37.2327 90.5748 37.299 89.847 37.6309 89.3839C37.9627 88.9208 38.4273 88.5238 38.7592 88.1268C39.8874 86.6713 39.4228 84.2895 37.9627 83.2309C36.4363 82.1062 34.1797 82.3708 32.786 83.5617C31.3923 84.7526 30.8613 86.8698 31.3259 88.6561C27.742 86.6051 23.8263 85.1496 19.1805 84.4218C21.7688 76.3501 24.3572 68.2123 26.8792 60.0745C30.6622 61.133 34.4452 62.3901 38.1618 63.5148Z" fill="#3943ED"/>
<g opacity="0.1294">
<path opacity="0.1294" d="M57.4087 69.2047C57.0104 69.0062 56.5459 68.8077 56.1477 68.6093C55.6831 68.8077 55.3512 69.2047 55.3512 69.8002C55.2849 70.4618 55.0858 71.8512 54.6212 73.3729C54.0239 75.0269 53.8911 75.2254 53.2938 76.6148C53.1611 77.0117 53.0283 77.4087 52.8956 77.8057C52.8292 78.0042 52.6965 78.2688 52.7629 78.5334C52.8292 79.1951 53.4929 79.592 54.1566 79.4597C55.0858 79.0627 54.8867 78.5996 55.0858 78.2688C55.8158 76.9456 56.2804 75.5562 56.745 74.1668C57.0768 73.0421 57.6741 71.9835 57.8069 70.7926C57.8732 70.3294 58.006 69.8663 57.8732 69.4694C57.8069 69.337 57.6078 69.2709 57.4087 69.2047Z" fill="black"/>
</g>
<g opacity="0.1294">
<path opacity="0.1294" d="M51.5019 84.1571C51.17 84.1571 50.8382 84.1571 50.44 84.1571C50.3736 84.1571 50.3736 84.1571 50.3072 84.1571C50.0418 84.2894 49.909 84.6202 49.909 84.951C49.8427 86.0096 49.8427 86.0758 49.5108 87.399C48.8471 90.1778 48.5817 90.5747 47.387 92.7581C47.387 92.8242 47.3207 92.8904 47.3207 92.9566C46.5242 92.5596 45.5951 92.3611 44.7323 92.1626C42.8076 91.5672 40.8166 91.1702 38.8255 90.5747C38.6264 90.5086 38.4273 90.4424 38.2282 90.5086C37.8963 90.7071 37.9627 91.2364 38.3609 91.3025C39.091 91.5672 40.0865 91.7657 40.4847 91.9641C43.0067 93.0889 44.5332 93.7505 46.3915 94.4783C46.4579 94.4783 46.5242 94.5444 46.5242 94.5444C46.8561 94.6767 47.1216 94.7429 47.4534 94.8752C47.7852 95.0737 48.1834 95.206 48.5153 94.9414C48.7808 94.7429 48.8471 94.4783 48.7808 94.1475C49.0462 93.8167 49.2453 93.4858 49.4444 93.155C50.6391 91.3025 50.9709 89.1854 51.5682 87.1344C51.701 86.6051 51.7673 86.0758 51.8337 85.5465C51.8337 85.2818 51.9001 84.951 51.7673 84.6864C51.701 84.4218 51.6346 84.2894 51.5019 84.1571Z" fill="black"/>
</g>
<path d="M48.1835 96C48.1171 96 48.0507 96 47.9844 95.9338L38.0291 91.6333C37.83 91.5672 37.4981 91.4349 37.299 91.1702C36.7017 90.5748 36.8345 89.5823 37.2327 88.9869C37.4318 88.6561 37.6973 88.3914 37.9627 88.1268C38.0955 87.9283 38.2946 87.796 38.4273 87.6637C38.8919 87.0682 39.0246 86.3404 38.9583 85.5465C38.8255 84.6864 38.4273 83.8925 37.7636 83.4293C36.5026 82.5031 34.5116 82.6354 33.2506 83.7601C32.0559 84.8187 31.525 86.6712 31.9232 88.3253C31.9896 88.5238 31.9232 88.7222 31.7241 88.8546C31.5914 88.9869 31.3259 88.9869 31.1932 88.9207C27.3438 86.7374 23.5608 85.4142 19.2468 84.6864C19.1141 84.6864 18.9814 84.5541 18.915 84.4218C18.8486 84.2894 18.8486 84.1571 18.8486 84.0248C21.3706 76.0854 24.0254 67.8153 26.5474 59.6774C26.6137 59.5451 26.6801 59.4128 26.8128 59.3466C26.9456 59.2805 27.0783 59.2805 27.211 59.3466C30.7949 60.5375 34.5116 61.7284 38.0955 62.8532C38.3609 62.3239 38.2946 61.6623 38.2282 60.9345C38.1618 60.5375 38.1618 60.1406 38.1618 59.7436C38.2282 58.3542 39.091 57.031 40.4847 56.1709C41.9448 55.3108 43.6704 55.2446 45.0641 55.9063C46.3251 56.5679 47.2543 57.7588 47.5861 59.2805C47.9844 60.8683 47.6525 62.5885 46.7234 63.7794C46.5242 64.0441 46.126 64.5734 46.2588 64.7719C46.3251 64.838 46.5243 64.9042 46.657 64.9703L58.3378 69.0723C58.6033 69.1385 58.736 69.4693 58.6697 69.734C57.475 73.1743 56.0813 76.6147 54.5548 79.9228C54.4885 80.0551 54.3557 80.1874 54.1566 80.1874C54.0239 80.1874 53.8248 80.1874 53.692 80.0551C52.431 78.7319 50.1081 77.938 48.3162 79.0627C47.5198 79.592 46.9888 80.5844 46.9888 81.643C46.9888 82.5031 47.3207 83.297 47.9844 83.694C48.7808 84.1571 49.7763 84.1571 50.8382 84.1571C51.3028 84.1571 51.7673 84.1571 52.2319 84.1571C52.3647 84.1571 52.4974 84.2233 52.5638 84.3556C52.6301 84.4879 52.6965 84.6202 52.6965 84.7526C52.2319 89.0531 50.8382 92.8242 48.7144 95.8015C48.5153 95.9338 48.3162 96 48.1835 96ZM35.6398 81.9076C36.569 81.9076 37.4981 82.1723 38.2282 82.7016C39.091 83.3632 39.6883 84.3556 39.821 85.4803C39.9538 86.5389 39.7547 87.5975 39.091 88.3253C38.9583 88.5238 38.7591 88.7222 38.56 88.9207C38.3609 89.1192 38.1618 89.3839 37.9627 89.5823C37.7636 89.9131 37.6973 90.3101 37.8964 90.5086C37.9627 90.5748 38.1618 90.6409 38.2946 90.7732L47.918 94.8752C49.7099 92.2288 50.9709 88.9207 51.4355 85.2157C51.17 85.2157 50.9046 85.2157 50.7055 85.2157C49.5772 85.2157 48.3826 85.2819 47.3207 84.6202C46.3915 84.0248 45.8606 82.9662 45.8606 81.7753C45.8606 80.3198 46.5906 78.9965 47.7189 78.3349C49.7099 77.144 52.1656 77.7395 53.8248 78.9965C55.1521 76.0854 56.3468 73.042 57.4087 69.9986L46.1924 66.0951C45.9269 66.0289 45.5287 65.8966 45.2632 65.4996C44.7323 64.7057 45.3296 63.8456 45.7278 63.3825C46.4579 62.3901 46.7234 61.0007 46.3915 59.6774C46.126 58.4865 45.396 57.4941 44.4005 56.9648C43.3386 56.4355 41.9448 56.5017 40.8166 57.2295C39.7547 57.8911 39.0246 58.8835 39.0246 59.9421C39.0246 60.2729 39.0246 60.6699 39.091 61.0007C39.1574 61.9931 39.2901 63.0517 38.56 63.9118C38.4273 64.0441 38.2282 64.1103 38.0291 64.0441C34.5116 62.9193 30.8613 61.7284 27.2774 60.6037C24.8882 68.4107 22.3662 76.2839 19.9105 83.8925C23.7599 84.5541 27.2774 85.8111 30.7286 87.5975C30.5958 85.8773 31.2595 84.1571 32.5205 83.0985C33.3169 82.3046 34.5116 81.9076 35.6398 81.9076Z" fill="black"/>
<path d="M38.1618 63.5148C39.0246 62.5886 38.4937 61.133 38.56 59.876C38.6928 57.0972 42.2103 55.2447 44.6659 56.5017C47.1216 57.7588 47.8516 61.3977 46.1924 63.6472C45.8606 64.1103 45.396 64.7057 45.7278 65.235C45.8606 65.4335 46.126 65.5658 46.3915 65.632C50.3073 67.0214 54.223 68.3446 58.0724 69.734C56.8777 73.1744 55.5504 76.5486 54.0239 79.8567C52.4974 78.2688 49.909 77.6072 47.9844 78.7981C46.126 79.9228 45.7942 83.0986 47.6525 84.2895C48.9135 85.0834 50.5727 84.7526 52.0992 84.8188C51.6346 88.7223 50.44 92.5596 48.1835 95.6031C44.865 94.1475 41.5466 92.7581 38.2282 91.3026C38.0291 91.2364 37.83 91.1041 37.6309 90.9718C37.2327 90.5748 37.299 89.847 37.6309 89.3839C37.9627 88.9208 38.4273 88.5238 38.7592 88.1268C39.8874 86.6713 39.4228 84.2895 37.9627 83.2309C36.4363 82.1062 34.1797 82.3708 32.786 83.5617C31.3923 84.7526 30.8613 86.8698 31.3259 88.6561C27.742 86.6051 23.8263 85.1496 19.1805 84.4218C21.7688 76.3501 24.3572 68.2123 26.8792 60.0745C30.6622 61.133 34.4452 62.3901 38.1618 63.5148Z" fill="#3943ED"/>
<g opacity="0.1294">
<path opacity="0.1294" d="M57.4087 69.2047C57.0104 69.0062 56.5459 68.8077 56.1477 68.6093C55.6831 68.8077 55.3512 69.2047 55.3512 69.8002C55.2849 70.4618 55.0858 71.8512 54.6212 73.3729C54.0239 75.0269 53.8911 75.2254 53.2938 76.6148C53.1611 77.0117 53.0283 77.4087 52.8956 77.8057C52.8292 78.0042 52.6965 78.2688 52.7629 78.5334C52.8292 79.1951 53.4929 79.592 54.1566 79.4597C55.0858 79.0627 54.8867 78.5996 55.0858 78.2688C55.8158 76.9456 56.2804 75.5562 56.745 74.1668C57.0768 73.0421 57.6741 71.9835 57.8069 70.7926C57.8732 70.3294 58.006 69.8663 57.8732 69.4694C57.8069 69.337 57.6078 69.2709 57.4087 69.2047Z" fill="black"/>
</g>
<g opacity="0.1294">
<path opacity="0.1294" d="M51.5019 84.1571C51.17 84.1571 50.8382 84.1571 50.44 84.1571C50.3736 84.1571 50.3736 84.1571 50.3072 84.1571C50.0418 84.2894 49.909 84.6202 49.909 84.951C49.8427 86.0096 49.8427 86.0758 49.5108 87.399C48.8471 90.1778 48.5817 90.5747 47.387 92.7581C47.387 92.8242 47.3207 92.8904 47.3207 92.9566C46.5242 92.5596 45.5951 92.3611 44.7323 92.1626C42.8076 91.5672 40.8166 91.1702 38.8255 90.5747C38.6264 90.5086 38.4273 90.4424 38.2282 90.5086C37.8963 90.7071 37.9627 91.2364 38.3609 91.3025C39.091 91.5672 40.0865 91.7657 40.4847 91.9641C43.0067 93.0889 44.5332 93.7505 46.3915 94.4783C46.4579 94.4783 46.5242 94.5444 46.5242 94.5444C46.8561 94.6767 47.1216 94.7429 47.4534 94.8752C47.7852 95.0737 48.1834 95.206 48.5153 94.9414C48.7808 94.7429 48.8471 94.4783 48.7808 94.1475C49.0462 93.8167 49.2453 93.4858 49.4444 93.155C50.6391 91.3025 50.9709 89.1854 51.5682 87.1344C51.701 86.6051 51.7673 86.0758 51.8337 85.5465C51.8337 85.2818 51.9001 84.951 51.7673 84.6864C51.701 84.4218 51.6346 84.2894 51.5019 84.1571Z" fill="black"/>
</g>
<path d="M48.1835 96C48.1171 96 48.0507 96 47.9844 95.9338L38.0291 91.6333C37.83 91.5672 37.4981 91.4349 37.299 91.1702C36.7017 90.5748 36.8345 89.5823 37.2327 88.9869C37.4318 88.6561 37.6973 88.3914 37.9627 88.1268C38.0955 87.9283 38.2946 87.796 38.4273 87.6637C38.8919 87.0682 39.0246 86.3404 38.9583 85.5465C38.8255 84.6864 38.4273 83.8925 37.7636 83.4293C36.5026 82.5031 34.5116 82.6354 33.2506 83.7601C32.0559 84.8187 31.525 86.6712 31.9232 88.3253C31.9896 88.5238 31.9232 88.7222 31.7241 88.8546C31.5914 88.9869 31.3259 88.9869 31.1932 88.9207C27.3438 86.7374 23.5608 85.4142 19.2468 84.6864C19.1141 84.6864 18.9814 84.5541 18.915 84.4218C18.8486 84.2894 18.8486 84.1571 18.8486 84.0248C21.3706 76.0854 24.0254 67.8153 26.5474 59.6774C26.6137 59.5451 26.6801 59.4128 26.8128 59.3466C26.9456 59.2805 27.0783 59.2805 27.211 59.3466C30.7949 60.5375 34.5116 61.7284 38.0955 62.8532C38.3609 62.3239 38.2946 61.6623 38.2282 60.9345C38.1618 60.5375 38.1618 60.1406 38.1618 59.7436C38.2282 58.3542 39.091 57.031 40.4847 56.1709C41.9448 55.3108 43.6704 55.2446 45.0641 55.9063C46.3251 56.5679 47.2543 57.7588 47.5861 59.2805C47.9844 60.8683 47.6525 62.5885 46.7234 63.7794C46.5242 64.0441 46.126 64.5734 46.2588 64.7719C46.3251 64.838 46.5243 64.9042 46.657 64.9703L58.3378 69.0723C58.6033 69.1385 58.736 69.4693 58.6697 69.734C57.475 73.1743 56.0813 76.6147 54.5548 79.9228C54.4885 80.0551 54.3557 80.1874 54.1566 80.1874C54.0239 80.1874 53.8248 80.1874 53.692 80.0551C52.431 78.7319 50.1081 77.938 48.3162 79.0627C47.5198 79.592 46.9888 80.5844 46.9888 81.643C46.9888 82.5031 47.3207 83.297 47.9844 83.694C48.7808 84.1571 49.7763 84.1571 50.8382 84.1571C51.3028 84.1571 51.7673 84.1571 52.2319 84.1571C52.3647 84.1571 52.4974 84.2233 52.5638 84.3556C52.6301 84.4879 52.6965 84.6202 52.6965 84.7526C52.2319 89.0531 50.8382 92.8242 48.7144 95.8015C48.5153 95.9338 48.3162 96 48.1835 96ZM35.6398 81.9076C36.569 81.9076 37.4981 82.1723 38.2282 82.7016C39.091 83.3632 39.6883 84.3556 39.821 85.4803C39.9538 86.5389 39.7547 87.5975 39.091 88.3253C38.9583 88.5238 38.7591 88.7222 38.56 88.9207C38.3609 89.1192 38.1618 89.3839 37.9627 89.5823C37.7636 89.9131 37.6973 90.3101 37.8964 90.5086C37.9627 90.5748 38.1618 90.6409 38.2946 90.7732L47.918 94.8752C49.7099 92.2288 50.9709 88.9207 51.4355 85.2157C51.17 85.2157 50.9046 85.2157 50.7055 85.2157C49.5772 85.2157 48.3826 85.2819 47.3207 84.6202C46.3915 84.0248 45.8606 82.9662 45.8606 81.7753C45.8606 80.3198 46.5906 78.9965 47.7189 78.3349C49.7099 77.144 52.1656 77.7395 53.8248 78.9965C55.1521 76.0854 56.3468 73.042 57.4087 69.9986L46.1924 66.0951C45.9269 66.0289 45.5287 65.8966 45.2632 65.4996C44.7323 64.7057 45.3296 63.8456 45.7278 63.3825C46.4579 62.3901 46.7234 61.0007 46.3915 59.6774C46.126 58.4865 45.396 57.4941 44.4005 56.9648C43.3386 56.4355 41.9448 56.5017 40.8166 57.2295C39.7547 57.8911 39.0246 58.8835 39.0246 59.9421C39.0246 60.2729 39.0246 60.6699 39.091 61.0007C39.1574 61.9931 39.2901 63.0517 38.56 63.9118C38.4273 64.0441 38.2282 64.1103 38.0291 64.0441C34.5116 62.9193 30.8613 61.7284 27.2774 60.6037C24.8882 68.4107 22.3662 76.2839 19.9105 83.8925C23.7599 84.5541 27.2774 85.8111 30.7286 87.5975C30.5958 85.8773 31.2595 84.1571 32.5205 83.0985C33.3169 82.3046 34.5116 81.9076 35.6398 81.9076Z" fill="black"/>
<path d="M15.2647 71.8511C15.132 71.8511 15.0656 71.7849 14.9329 71.7188C9.82254 67.5506 6.76959 61.133 6.76959 54.583C6.76959 54.3184 6.9687 54.0537 7.30054 54.0537C7.56601 54.0537 7.83149 54.2522 7.83149 54.583C7.83149 60.8683 10.6853 66.9552 15.5966 70.9248C15.7957 71.1233 15.8621 71.388 15.663 71.6526C15.5302 71.7849 15.3975 71.8511 15.2647 71.8511Z" fill="black"/>
<path d="M15.2647 72.1819C15.1984 72.1819 15.1984 72.1819 15.132 72.1819C13.2737 71.785 11.4154 71.1895 9.62342 70.5279C9.35795 70.3956 9.22521 70.1309 9.35795 69.8663C9.49069 69.6017 9.75616 69.4693 10.0216 69.6017C11.5481 70.1971 13.1409 70.6602 14.7338 71.0572C14.6011 69.5355 14.2692 68.0799 13.8046 66.6906C13.7383 66.4259 13.871 66.1613 14.1365 66.0289C14.4019 65.9628 14.6674 66.0951 14.8002 66.3598C15.3975 68.0799 15.7293 69.8663 15.8621 71.6527C15.8621 71.785 15.7957 71.9835 15.6629 72.0496C15.5302 72.1158 15.3975 72.1819 15.2647 72.1819Z" fill="black"/>
<path d="M66.5011 82.04C66.302 82.04 66.1029 81.9076 66.0365 81.7092C65.9038 81.4445 66.0365 81.1799 66.302 81.0476C72.3415 78.3349 76.9873 72.7112 78.4474 66.2936C78.5138 66.0289 78.7793 65.8305 79.0447 65.8966C79.3102 65.9628 79.5093 66.2274 79.443 66.4921C77.9165 73.2405 73.0716 79.1289 66.7666 81.9738C66.6339 81.9738 66.5675 82.04 66.5011 82.04Z" fill="black"/>
<path d="M79.8412 71.1895C79.5757 71.1895 79.3102 70.991 79.3102 70.6602C79.3102 69.4693 79.1111 68.2123 78.7793 67.0875C77.7837 67.8814 76.7882 68.6092 75.66 69.2708C75.3945 69.4032 75.129 69.337 74.9963 69.0723C74.8635 68.8077 74.9299 68.5431 75.1954 68.4107C76.4564 67.683 77.651 66.8229 78.7129 65.8966C78.8456 65.7643 79.0447 65.7643 79.1775 65.7643C79.3102 65.8304 79.4429 65.8966 79.5093 66.0951C80.0403 67.6168 80.3057 69.1385 80.3057 70.7264C80.3057 70.9249 80.1066 71.1895 79.8412 71.1895Z" fill="black"/>
<path d="M43.8031 10.7842C43.6704 10.7842 43.4713 10.718 43.4049 10.5857C43.2722 10.3872 43.3385 10.0564 43.5376 9.85794C48.7144 6.35139 55.7494 5.88826 61.3907 8.60088C61.6562 8.7332 61.7226 8.99784 61.6562 9.26249C61.5235 9.52713 61.258 9.5933 60.9925 9.52713C55.6831 6.94684 49.0462 7.40997 44.135 10.718C44.0022 10.7842 43.9358 10.7842 43.8031 10.7842Z" fill="black"/>
<path d="M48.1171 11.115C46.5906 10.9827 45.0641 10.9166 43.5377 10.9827C43.3385 10.9827 43.1394 10.8504 43.0731 10.7181C43.0067 10.5196 43.0067 10.3211 43.1394 10.1888L45.8605 6.54992C46.0597 6.35144 46.3251 6.28527 46.5906 6.4176C46.7897 6.61608 46.8561 6.88073 46.7233 7.14537L44.5995 9.92414H44.6659C45.8605 9.92414 47.0552 9.9903 48.1834 10.0565C48.4489 10.0565 48.648 10.3211 48.648 10.5858C48.648 10.9166 48.3825 11.115 48.1171 11.115Z" fill="black"/>
<path d="M64.8419 4.49897C64.7755 4.49897 64.6428 4.49896 64.5764 4.4328C60.9926 2.24948 56.6786 0.992418 52.4974 0.992418C52.2319 0.992418 51.9665 0.793934 51.9665 0.463128C51.9665 0.198483 52.1656 -0.0661621 52.4974 -0.0661621C56.9441 -0.0661621 61.3244 1.1909 65.1074 3.50655C65.3729 3.63887 65.4392 3.96968 65.2401 4.16816C65.1738 4.4328 65.041 4.49897 64.8419 4.49897Z" fill="black"/>
<path d="M69.8195 89.2516C69.6204 89.2516 69.4877 89.1854 69.3549 88.9869C69.2222 88.7223 69.2886 88.4576 69.554 88.3253C73.2043 86.3405 76.39 83.2971 78.4474 79.7244C78.5801 79.4597 78.912 79.3936 79.1111 79.5259C79.3766 79.6582 79.4429 79.989 79.3102 80.1875C77.12 84.0248 73.9344 87.1344 70.0186 89.1854C70.0186 89.1854 69.9523 89.2516 69.8195 89.2516Z" fill="black"/>
<path d="M4.57942 66.3597C4.44668 66.3597 4.24758 66.2935 4.18121 66.1612C1.46011 62.6547 -0.0663659 58.288 2.43122e-06 53.8552C2.43122e-06 53.5906 0.199108 53.3259 0.530949 53.3259C0.796423 53.3259 1.0619 53.5244 1.0619 53.8552C0.995528 58.0895 2.38926 62.1915 4.97763 65.5658C5.17674 65.7642 5.11037 66.0951 4.91126 66.2935C4.77853 66.3597 4.64579 66.3597 4.57942 66.3597Z" fill="black"/>
</svg>
