<svg width="92" height="55" viewBox="0 0 92 55" fill="none" xmlns="http://www.w3.org/2000/svg">
<g clip-path="url(#clip0_109_107)">
<path d="M19.385 15.3894C19.2802 15.3894 19.2278 15.3365 19.123 15.2837C18.9658 15.125 18.9134 14.9135 19.0706 14.7019L23.8907 8.46155C24.0478 8.30289 24.2574 8.25001 24.467 8.40866C24.6241 8.56731 24.6765 8.77885 24.5194 8.99039L19.6469 15.2837C19.5945 15.3365 19.4897 15.3894 19.385 15.3894Z" fill="black"/>
<path d="M35.2073 54.1011C35.1549 52.6732 35.1025 51.2453 35.0501 49.7645C34.9977 48.0193 34.9453 46.2741 34.9977 44.5289C35.0501 42.9424 35.1549 41.4087 35.2073 39.8222C35.2597 37.7597 35.1025 35.6972 35.0501 33.6347C34.8405 28.5578 34.9453 23.5337 35.1549 18.4568C32.3257 18.2453 29.549 18.2453 26.8246 18.5097C28.5535 16.2357 30.6492 14.226 32.7449 12.2164C33.7403 11.2645 34.7357 10.3126 35.7836 9.30778C38.8223 6.34624 41.9658 3.3847 45.2141 0.528931C46 1.05778 46.6811 1.74528 47.3622 2.43278C52.287 7.45682 56.4784 13.1684 61.1936 18.2982C58.2597 18.2982 55.3781 18.351 52.4442 18.4039C52.549 30.4087 52.8109 42.3607 53.0729 54.3126C47.1526 54.8414 41.2323 54.8943 35.2073 54.1011Z" fill="white"/>
<path d="M32.3781 16.3943C32.3257 16.3943 32.3257 16.3943 32.2733 16.3414C32.2209 16.2885 32.2209 16.1828 32.2733 16.1299L45.9476 3.27892C46 3.22604 46.1048 3.22604 46.1572 3.27892C46.2095 3.33181 46.2095 3.43758 46.1572 3.49046L32.4305 16.3943H32.3781Z" fill="black"/>
<path d="M35.9932 16.6058C35.9408 16.6058 35.9408 16.6058 35.8884 16.5529C35.836 16.5 35.836 16.3942 35.8884 16.3413C39.8178 12.8509 43.7995 9.36056 47.8337 5.97594C47.8861 5.92306 47.9909 5.92306 48.0433 5.97594C48.0957 6.02883 48.0957 6.1346 48.0433 6.18748C44.0615 9.5721 40.0273 13.0625 36.098 16.5529C36.0456 16.6058 36.0456 16.6058 35.9932 16.6058Z" fill="black"/>
<path d="M36.7267 20.0962C36.6743 20.0962 36.6743 20.0962 36.6219 20.0433C36.5695 19.9904 36.5695 19.8846 36.6219 19.8317L49.877 8.46154C49.9294 8.40865 50.0342 8.40865 50.0866 8.46154C50.139 8.51442 50.139 8.62019 50.0866 8.67308L36.8314 20.0962C36.7791 20.0962 36.7267 20.0962 36.7267 20.0962Z" fill="black"/>
<path d="M36.2551 24.5385C36.2027 24.5385 36.2027 24.5385 36.1503 24.4856C36.098 24.4327 36.098 24.3269 36.1503 24.274C41.2324 19.5144 46.5239 14.9135 51.8679 10.524C51.9203 10.4712 52.0251 10.4712 52.0775 10.524C52.1298 10.5769 52.1298 10.6827 52.0775 10.7356C46.6811 15.125 41.3895 19.726 36.3599 24.4856C36.3075 24.5385 36.2551 24.5385 36.2551 24.5385Z" fill="black"/>
<path d="M36.5171 28.0818C36.4647 28.0818 36.4647 28.0818 36.4123 28.0289C36.3599 27.976 36.3599 27.8703 36.4123 27.8174C41.9658 22.4231 47.9385 17.3991 54.1731 12.851C54.2255 12.7981 54.3303 12.7981 54.3827 12.9039C54.4351 12.9568 54.4351 13.0626 54.3303 13.1154C48.1481 17.6106 42.1754 22.6347 36.6219 28.0289C36.6219 28.0289 36.5695 28.0818 36.5171 28.0818Z" fill="black"/>
<path d="M36.2027 31.8895C36.1503 31.8895 36.1503 31.8895 36.0979 31.8366C36.0456 31.7837 36.0456 31.6779 36.0979 31.625C40.6036 27.4472 45.3189 23.4279 50.1389 19.6202C50.1913 19.5673 50.2961 19.5673 50.3485 19.6202C50.4009 19.6731 50.4009 19.7789 50.3485 19.8318C45.5285 23.6395 40.8132 27.6587 36.3599 31.8366C36.2551 31.8895 36.2551 31.8895 36.2027 31.8895Z" fill="black"/>
<path d="M53.9111 16.7644C53.8587 16.7644 53.8064 16.7644 53.8064 16.7116C53.754 16.6587 53.754 16.5529 53.8587 16.5L56.2164 14.7548C56.2688 14.7019 56.3736 14.7019 56.4259 14.8077C56.4783 14.8606 56.4783 14.9664 56.3736 15.0193L54.0159 16.7644C53.9635 16.7644 53.9635 16.7644 53.9111 16.7644Z" fill="black"/>
<path d="M36.5171 34.9039C36.4647 34.9039 36.4647 34.9039 36.4123 34.851C36.3599 34.7981 36.3599 34.6923 36.4123 34.6394C40.9704 30.3558 45.7904 26.3365 50.8201 22.5817C50.8724 22.5289 50.9772 22.5288 51.0296 22.6346C51.082 22.6875 51.082 22.7933 50.9772 22.8462C46 26.5481 41.1276 30.6202 36.6219 34.9039C36.5695 34.9039 36.5695 34.9039 36.5171 34.9039Z" fill="black"/>
<path d="M36.5695 38.4471C36.5171 38.4471 36.5171 38.4471 36.4647 38.3943C36.4123 38.3414 36.4123 38.2356 36.4647 38.1827L50.4009 26.7596C50.4533 26.7067 50.5581 26.7067 50.6105 26.7596C50.6629 26.8125 50.6629 26.9183 50.6105 26.9712L36.6742 38.3943C36.6219 38.4471 36.6219 38.4471 36.5695 38.4471Z" fill="black"/>
<path d="M37.041 41.7789C36.9886 41.7789 36.9886 41.7789 36.9362 41.726C36.8838 41.6731 36.8838 41.5674 36.9362 41.5145C41.3371 37.8126 45.8952 34.1635 50.5057 30.726C50.5581 30.6731 50.6629 30.6731 50.7152 30.7789C50.7676 30.8318 50.7676 30.9376 50.6629 30.9904C46.1048 34.4279 41.5467 38.077 37.1458 41.7789C37.0934 41.7789 37.0934 41.7789 37.041 41.7789Z" fill="black"/>
<path d="M36.9886 45.6923C36.9362 45.6923 36.9362 45.6923 36.8838 45.6394C36.8314 45.5865 36.8314 45.4807 36.8838 45.4279C41.4943 41.5673 46.2096 37.7596 50.9772 34.1634C51.0296 34.1106 51.1344 34.1106 51.1868 34.1634C51.2392 34.2163 51.2392 34.3221 51.1868 34.375C46.4715 38.024 41.7039 41.8317 37.0934 45.6394C37.041 45.6394 37.041 45.6923 36.9886 45.6923Z" fill="black"/>
<path d="M36.9362 50.1346C36.8838 50.1346 36.8838 50.1346 36.8314 50.0817C36.779 50.0289 36.779 49.9231 36.8314 49.8702C41.2847 45.9567 46 42.3077 50.9248 39.0289C50.9772 38.976 51.082 39.0289 51.1344 39.0817C51.1868 39.1346 51.1344 39.2404 51.082 39.2933C46.1572 42.5721 41.4419 46.1683 36.9886 50.1346C36.9886 50.1346 36.9886 50.1346 36.9362 50.1346Z" fill="black"/>
<path d="M38.9795 52.4087C38.9271 52.4087 38.8747 52.4087 38.8747 52.3559C38.8223 52.303 38.8747 52.1972 38.9271 52.1443L50.9248 43.9472C50.9772 43.8943 51.082 43.9472 51.1344 44.0001C51.1868 44.053 51.1344 44.1587 51.082 44.2116L39.0319 52.4087H38.9795Z" fill="black"/>
<path d="M43.9043 52.726C43.8519 52.726 43.7995 52.726 43.7995 52.6731C43.7471 52.6203 43.7995 52.5145 43.8519 52.4616C45.8428 51.1395 47.8861 49.8174 49.9294 48.5482C49.9818 48.4953 50.0865 48.5481 50.0865 48.601C50.1389 48.6539 50.0865 48.7597 50.0342 48.7597C47.9909 49.976 45.9476 51.2981 43.9567 52.6203C43.9567 52.726 43.9043 52.726 43.9043 52.726Z" fill="black"/>
<path d="M48.6196 52.9375C48.5672 52.9375 48.5148 52.9375 48.5148 52.8846C48.4624 52.8317 48.5148 52.726 48.5672 52.726L50.3485 51.6683C50.4009 51.6154 50.5057 51.6683 50.5057 51.7212C50.5581 51.774 50.5057 51.8798 50.4533 51.8798L48.672 52.9375C48.672 52.8846 48.672 52.9375 48.6196 52.9375Z" fill="black"/>
<g opacity="0.1294">
<path opacity="0.1294" d="M50.7153 52.5673C50.7153 53.202 50.5057 53.8895 50.7677 54.4712C50.82 54.6298 50.9248 54.7356 50.9772 54.8414C51.5011 54.7885 52.0251 54.7356 52.4966 54.7356C52.6014 54.7356 52.7585 54.7356 52.8633 54.7356C53.1777 54.3654 53.0729 53.9423 53.1777 53.5722C53.2301 52.726 53.2301 51.8798 53.1777 51.0866C53.0205 47.5962 53.0729 44.1058 53.0205 40.6154C52.9681 38.077 52.7061 35.5385 52.7585 33C52.7585 30.3558 52.9157 27.7116 52.9157 25.1202C52.9157 23.2693 52.6538 22.1058 52.6538 20.625C52.6538 20.0433 52.6538 19.4616 52.7061 18.827C52.7061 18.6154 52.6014 18.4039 52.4966 18.2981C52.0251 17.8222 51.1868 18.1923 51.1868 18.827C51.0296 21.3125 50.9772 23.7981 50.8724 26.3366C50.7153 29.0337 50.5057 31.7837 50.5057 34.5337C50.4533 40.5625 50.8724 46.5385 50.7153 52.5673Z" fill="black"/>
</g>
<path d="M51.2916 54.8943C45.5285 54.8943 40.2369 54.7885 35.1549 54.6299C34.9453 54.6299 34.7882 54.4712 34.7882 54.2068C34.6834 42.5722 34.5262 30.5145 34.6834 18.7741C32.0114 18.5625 29.287 18.6683 26.615 19.1443C26.4579 19.1972 26.2483 19.0914 26.1959 18.9327C26.0911 18.7741 26.1435 18.5625 26.2483 18.4568C32.2734 12.375 38.4556 6.13465 44.8998 0.105807C45.057 -0.0528471 45.3189 -0.0528471 45.4237 0.105807C51.1868 5.76446 56.6355 11.8462 61.6128 18.1395C61.7175 18.2452 61.7175 18.4568 61.6652 18.5625C61.6128 18.7212 61.4556 18.7741 61.2984 18.7741C57.9977 18.6154 55.2734 18.5625 52.7062 18.5625C52.9681 30.1972 53.2825 42.202 53.5444 54.4183C53.5444 54.5241 53.492 54.6299 53.4396 54.6827C53.3873 54.7356 53.2825 54.7885 53.1777 54.7885C52.549 54.8414 51.9203 54.8943 51.2916 54.8943ZM35.574 53.7837C40.918 53.9952 46.5763 54.0481 52.7585 54.0481C52.4966 41.8847 52.1822 29.827 51.9203 18.1923C51.9203 18.0866 51.9727 17.9808 52.0251 17.9279C52.0775 17.875 52.1822 17.8222 52.287 17.8222C54.8018 17.7693 57.369 17.8222 60.4601 17.9808C55.7449 12.0577 50.6105 6.34619 45.1617 1.00485C39.1367 6.61062 33.3212 12.4279 27.6629 18.1395C30.1253 17.8222 32.6401 17.7693 35.1025 17.9808C35.3121 17.9808 35.4693 18.1923 35.4693 18.4039C35.3121 30.0914 35.4693 42.1491 35.574 53.7837Z" fill="black"/>
<path d="M23.3667 17.2934C23.262 17.2934 23.2096 17.2405 23.1048 17.1876C22.9476 17.0289 22.8952 16.8174 23.0524 16.6059L33.2688 4.17798C33.426 4.01932 33.6355 3.96644 33.8451 4.12509C34.0023 4.23086 34.0547 4.49528 33.8975 4.65394L23.6811 17.1347C23.5763 17.2405 23.4715 17.2934 23.3667 17.2934Z" fill="black"/>
<path d="M32.3781 16.3943C32.3257 16.3943 32.3257 16.3943 32.2733 16.3414C32.2209 16.2885 32.2209 16.1828 32.2733 16.1299L45.9476 3.27892C46 3.22604 46.1048 3.22604 46.1572 3.27892C46.2095 3.33181 46.2095 3.43758 46.1572 3.49046L32.4305 16.3943H32.3781Z" fill="black"/>
<path d="M35.9932 16.6058C35.9408 16.6058 35.9408 16.6058 35.8884 16.5529C35.836 16.5 35.836 16.3942 35.8884 16.3413C39.8178 12.8509 43.7995 9.36056 47.8337 5.97594C47.8861 5.92306 47.9909 5.92306 48.0433 5.97594C48.0957 6.02883 48.0957 6.1346 48.0433 6.18748C44.0615 9.5721 40.0273 13.0625 36.098 16.5529C36.0456 16.6058 36.0456 16.6058 35.9932 16.6058Z" fill="black"/>
<path d="M36.7267 20.0962C36.6743 20.0962 36.6743 20.0962 36.6219 20.0433C36.5695 19.9904 36.5695 19.8846 36.6219 19.8317L49.877 8.46154C49.9294 8.40865 50.0342 8.40865 50.0866 8.46154C50.139 8.51442 50.139 8.62019 50.0866 8.67308L36.8314 20.0962C36.7791 20.0962 36.7267 20.0962 36.7267 20.0962Z" fill="black"/>
<path d="M36.2551 24.5385C36.2027 24.5385 36.2027 24.5385 36.1503 24.4856C36.098 24.4327 36.098 24.3269 36.1503 24.274C41.2324 19.5144 46.5239 14.9135 51.8679 10.524C51.9203 10.4712 52.0251 10.4712 52.0775 10.524C52.1298 10.5769 52.1298 10.6827 52.0775 10.7356C46.6811 15.125 41.3895 19.726 36.3599 24.4856C36.3075 24.5385 36.2551 24.5385 36.2551 24.5385Z" fill="black"/>
<path d="M36.5171 28.0818C36.4647 28.0818 36.4647 28.0818 36.4123 28.0289C36.3599 27.976 36.3599 27.8703 36.4123 27.8174C41.9658 22.4231 47.9385 17.3991 54.1731 12.851C54.2255 12.7981 54.3303 12.7981 54.3827 12.9039C54.4351 12.9568 54.4351 13.0626 54.3303 13.1154C48.1481 17.6106 42.1754 22.6347 36.6219 28.0289C36.6219 28.0289 36.5695 28.0818 36.5171 28.0818Z" fill="black"/>
<path d="M36.2027 31.8895C36.1503 31.8895 36.1503 31.8895 36.0979 31.8366C36.0456 31.7837 36.0456 31.6779 36.0979 31.625C40.6036 27.4472 45.3189 23.4279 50.1389 19.6202C50.1913 19.5673 50.2961 19.5673 50.3485 19.6202C50.4009 19.6731 50.4009 19.7789 50.3485 19.8318C45.5285 23.6395 40.8132 27.6587 36.3599 31.8366C36.2551 31.8895 36.2551 31.8895 36.2027 31.8895Z" fill="black"/>
<path d="M53.9111 16.7644C53.8587 16.7644 53.8064 16.7644 53.8064 16.7116C53.754 16.6587 53.754 16.5529 53.8587 16.5L56.2164 14.7548C56.2688 14.7019 56.3736 14.7019 56.4259 14.8077C56.4783 14.8606 56.4783 14.9664 56.3736 15.0193L54.0159 16.7644C53.9635 16.7644 53.9635 16.7644 53.9111 16.7644Z" fill="black"/>
<path d="M36.5171 34.9039C36.4647 34.9039 36.4647 34.9039 36.4123 34.851C36.3599 34.7981 36.3599 34.6923 36.4123 34.6394C40.9704 30.3558 45.7904 26.3365 50.8201 22.5817C50.8724 22.5289 50.9772 22.5288 51.0296 22.6346C51.082 22.6875 51.082 22.7933 50.9772 22.8462C46 26.5481 41.1276 30.6202 36.6219 34.9039C36.5695 34.9039 36.5695 34.9039 36.5171 34.9039Z" fill="black"/>
<path d="M36.5695 38.4471C36.5171 38.4471 36.5171 38.4471 36.4647 38.3943C36.4123 38.3414 36.4123 38.2356 36.4647 38.1827L50.4009 26.7596C50.4533 26.7067 50.5581 26.7067 50.6105 26.7596C50.6629 26.8125 50.6629 26.9183 50.6105 26.9712L36.6742 38.3943C36.6219 38.4471 36.6219 38.4471 36.5695 38.4471Z" fill="black"/>
<path d="M37.041 41.7789C36.9886 41.7789 36.9886 41.7789 36.9362 41.726C36.8838 41.6731 36.8838 41.5674 36.9362 41.5145C41.3371 37.8126 45.8952 34.1635 50.5057 30.726C50.5581 30.6731 50.6629 30.6731 50.7152 30.7789C50.7676 30.8318 50.7676 30.9376 50.6629 30.9904C46.1048 34.4279 41.5467 38.077 37.1458 41.7789C37.0934 41.7789 37.0934 41.7789 37.041 41.7789Z" fill="black"/>
<path d="M36.9886 45.6923C36.9362 45.6923 36.9362 45.6923 36.8838 45.6394C36.8314 45.5865 36.8314 45.4807 36.8838 45.4279C41.4943 41.5673 46.2096 37.7596 50.9772 34.1634C51.0296 34.1106 51.1344 34.1106 51.1868 34.1634C51.2392 34.2163 51.2392 34.3221 51.1868 34.375C46.4715 38.024 41.7039 41.8317 37.0934 45.6394C37.041 45.6394 37.041 45.6923 36.9886 45.6923Z" fill="black"/>
<path d="M36.9362 50.1346C36.8838 50.1346 36.8838 50.1346 36.8314 50.0817C36.779 50.0289 36.779 49.9231 36.8314 49.8702C41.2847 45.9567 46 42.3077 50.9248 39.0289C50.9772 38.976 51.082 39.0289 51.1344 39.0817C51.1868 39.1346 51.1344 39.2404 51.082 39.2933C46.1572 42.5721 41.4419 46.1683 36.9886 50.1346C36.9886 50.1346 36.9886 50.1346 36.9362 50.1346Z" fill="black"/>
<path d="M38.9795 52.4087C38.9271 52.4087 38.8747 52.4087 38.8747 52.3559C38.8223 52.303 38.8747 52.1972 38.9271 52.1443L50.9248 43.9472C50.9772 43.8943 51.082 43.9472 51.1344 44.0001C51.1868 44.053 51.1344 44.1587 51.082 44.2116L39.0319 52.4087H38.9795Z" fill="black"/>
<path d="M43.9043 52.726C43.8519 52.726 43.7995 52.726 43.7995 52.6731C43.7471 52.6203 43.7995 52.5145 43.8519 52.4616C45.8428 51.1395 47.8861 49.8174 49.9294 48.5482C49.9818 48.4953 50.0865 48.5481 50.0865 48.601C50.1389 48.6539 50.0865 48.7597 50.0342 48.7597C47.9909 49.976 45.9476 51.2981 43.9567 52.6203C43.9567 52.726 43.9043 52.726 43.9043 52.726Z" fill="black"/>
<path d="M48.6196 52.9375C48.5672 52.9375 48.5148 52.9375 48.5148 52.8846C48.4624 52.8317 48.5148 52.726 48.5672 52.726L50.3485 51.6683C50.4009 51.6154 50.5057 51.6683 50.5057 51.7212C50.5581 51.774 50.5057 51.8798 50.4533 51.8798L48.672 52.9375C48.672 52.8846 48.672 52.9375 48.6196 52.9375Z" fill="black"/>
<g opacity="0.1294">
<path opacity="0.1294" d="M50.7153 52.5673C50.7153 53.202 50.5057 53.8895 50.7677 54.4712C50.82 54.6298 50.9248 54.7356 50.9772 54.8414C51.5011 54.7885 52.0251 54.7356 52.4966 54.7356C52.6014 54.7356 52.7585 54.7356 52.8633 54.7356C53.1777 54.3654 53.0729 53.9423 53.1777 53.5722C53.2301 52.726 53.2301 51.8798 53.1777 51.0866C53.0205 47.5962 53.0729 44.1058 53.0205 40.6154C52.9681 38.077 52.7061 35.5385 52.7585 33C52.7585 30.3558 52.9157 27.7116 52.9157 25.1202C52.9157 23.2693 52.6538 22.1058 52.6538 20.625C52.6538 20.0433 52.6538 19.4616 52.7061 18.827C52.7061 18.6154 52.6014 18.4039 52.4966 18.2981C52.0251 17.8222 51.1868 18.1923 51.1868 18.827C51.0296 21.3125 50.9772 23.7981 50.8724 26.3366C50.7153 29.0337 50.5057 31.7837 50.5057 34.5337C50.4533 40.5625 50.8724 46.5385 50.7153 52.5673Z" fill="black"/>
</g>
<path d="M51.2916 54.8943C45.5285 54.8943 40.2369 54.7885 35.1549 54.6299C34.9453 54.6299 34.7882 54.4712 34.7882 54.2068C34.6834 42.5722 34.5262 30.5145 34.6834 18.7741C32.0114 18.5625 29.287 18.6683 26.615 19.1443C26.4579 19.1972 26.2483 19.0914 26.1959 18.9327C26.0911 18.7741 26.1435 18.5625 26.2483 18.4568C32.2734 12.375 38.4556 6.13465 44.8998 0.105807C45.057 -0.0528471 45.3189 -0.0528471 45.4237 0.105807C51.1868 5.76446 56.6355 11.8462 61.6128 18.1395C61.7175 18.2452 61.7175 18.4568 61.6652 18.5625C61.6128 18.7212 61.4556 18.7741 61.2984 18.7741C57.9977 18.6154 55.2734 18.5625 52.7062 18.5625C52.9681 30.1972 53.2825 42.202 53.5444 54.4183C53.5444 54.5241 53.492 54.6299 53.4396 54.6827C53.3873 54.7356 53.2825 54.7885 53.1777 54.7885C52.549 54.8414 51.9203 54.8943 51.2916 54.8943ZM35.574 53.7837C40.918 53.9952 46.5763 54.0481 52.7585 54.0481C52.4966 41.8847 52.1822 29.827 51.9203 18.1923C51.9203 18.0866 51.9727 17.9808 52.0251 17.9279C52.0775 17.875 52.1822 17.8222 52.287 17.8222C54.8018 17.7693 57.369 17.8222 60.4601 17.9808C55.7449 12.0577 50.6105 6.34619 45.1617 1.00485C39.1367 6.61062 33.3212 12.4279 27.6629 18.1395C30.1253 17.8222 32.6401 17.7693 35.1025 17.9808C35.3121 17.9808 35.4693 18.1923 35.4693 18.4039C35.3121 30.0914 35.4693 42.1491 35.574 53.7837Z" fill="black"/>
<path d="M23.3667 17.2934C23.262 17.2934 23.2096 17.2405 23.1048 17.1876C22.9476 17.0289 22.8952 16.8174 23.0524 16.6059L33.2688 4.17798C33.426 4.01932 33.6355 3.96644 33.8451 4.12509C34.0023 4.23086 34.0547 4.49528 33.8975 4.65394L23.6811 17.1347C23.5763 17.2405 23.4715 17.2934 23.3667 17.2934Z" fill="black"/>
<path d="M19.385 15.3894C19.2802 15.3894 19.2278 15.3365 19.123 15.2837C18.9658 15.125 18.9134 14.9135 19.0706 14.7019L23.8907 8.46155C24.0478 8.30289 24.2574 8.25001 24.467 8.40866C24.6241 8.56731 24.6765 8.77885 24.5194 8.99039L19.6469 15.2837C19.5945 15.3365 19.4897 15.3894 19.385 15.3894Z" fill="black"/>
<path d="M66.6948 54.2068L67.0615 30.5145L61.2984 30.303L75.7062 15.3895L88.5421 30.2501L82.9362 30.3559L82.2551 54.3126L66.6948 54.2068Z" fill="white"/>
<g opacity="0.1294">
<path opacity="0.1294" d="M83.041 35.6972V35.6443C83.041 34.1107 82.9362 32.577 82.8838 30.9905C82.8838 30.726 83.041 30.5674 83.1982 30.5145C83.1982 30.4087 83.1982 30.2501 83.1982 30.1443C83.1982 30.0914 83.1982 30.0385 83.2506 29.9857C83.2506 29.9328 83.1982 29.8799 83.1982 29.8799C83.1458 29.8799 83.1458 29.8799 83.0934 29.8799C82.9362 29.8799 82.9886 29.8799 82.8314 29.9328C82.7791 29.9328 82.779 29.9328 82.7267 29.9857C82.779 29.9857 82.779 29.9857 82.7267 29.9857C82.6743 29.9857 82.6219 30.0385 82.6219 30.0385C82.5171 30.0914 82.4123 30.1443 82.2551 30.1972C82.2551 30.1972 82.2551 30.1972 82.2027 30.1972C81.9932 30.4087 81.7836 30.6203 81.6264 30.8847C81.3645 32.8943 81.1025 36.1203 80.7882 39.3462C80.5786 40.6683 80.5786 41.2501 80.4214 43.3655C80.1595 45.851 80.0547 48.3895 80.1071 50.8751C80.1594 51.4568 80.1594 52.0914 80.1071 52.6732C80.0547 52.726 80.0547 52.8318 80.0023 52.8847C80.0023 52.9376 79.9499 52.9905 79.9499 53.0434C79.5308 54.6299 81.4169 55.6347 82.5171 54.6299C82.5171 54.3126 82.4647 53.9424 82.4647 53.6251C82.4123 52.726 82.3599 51.827 82.2551 50.8751C82.2551 50.6107 82.4647 50.3991 82.6743 50.3991C82.6219 49.1299 82.6743 47.8607 82.6743 46.5914C82.6743 45.0049 82.5695 43.4183 82.7267 41.8318C82.779 41.0385 82.7267 40.2453 82.7267 39.3991C82.8838 38.1828 82.9886 36.9664 83.041 35.6972Z" fill="black"/>
</g>
<path d="M82.2551 54.9472C79.9499 54.8943 77.1731 54.8414 74.3963 54.7885C71.6196 54.7357 68.8428 54.6828 66.5376 54.6299C66.4328 54.6299 66.328 54.577 66.2756 54.5241C66.2232 54.4712 66.1708 54.3655 66.1708 54.2597C66.4328 46.0097 66.59 38.3414 66.59 30.7789C64.6515 30.7789 62.8701 30.6732 61.1936 30.5145C61.0364 30.5145 60.9316 30.4087 60.8793 30.2501C60.8269 30.0914 60.8793 29.9328 60.984 29.827C65.7517 25.0674 70.6765 20.1491 75.4966 15.0722C75.549 14.9664 75.7061 14.9664 75.8109 14.9664C75.9157 14.9664 76.0205 15.0193 76.1253 15.1251C77.8018 17.1347 79.6879 19.303 81.7312 21.6299C84.0888 24.3799 86.5513 27.1828 89.1185 30.2501C89.2232 30.3559 89.2232 30.5674 89.1708 30.6732C89.1184 30.8318 88.9613 30.8847 88.8041 30.8847C88.1754 30.8847 87.4419 30.8318 86.7084 30.8318C85.3986 30.7789 84.0364 30.7789 83.1982 30.726C82.8314 38.4472 82.779 45.5866 82.779 54.577C82.779 54.6828 82.7266 54.7885 82.6743 54.8414C82.4647 54.8943 82.3599 54.9472 82.2551 54.9472ZM66.9567 53.8366C69.1572 53.8895 71.7768 53.9424 74.3963 53.9953C77.0159 54.0482 79.6355 54.101 81.836 54.1539C81.836 45.1635 81.8884 38.0241 82.2551 30.2501C82.2551 30.1443 82.3075 30.0385 82.4123 29.9857C82.5171 29.9328 82.6219 29.8799 82.7266 29.8799C83.4077 29.9328 85.0319 29.9857 86.5512 30.0385C86.9704 30.0385 87.3895 30.0385 87.7563 30.0385C85.451 27.2357 83.1458 24.6443 80.9453 22.1059C79.0592 19.9376 77.2255 17.8222 75.6014 15.9184C71.0433 20.6251 66.4328 25.2789 61.9795 29.7741C63.4989 29.9328 65.123 29.9857 66.8519 29.9857C66.9567 29.9857 67.0615 30.0385 67.1139 30.0914C67.1663 30.1443 67.2187 30.2501 67.2187 30.3559C67.3758 37.9184 67.2187 45.5866 66.9567 53.8366Z" fill="black"/>
<path d="M91.6332 27.9761C91.5285 27.9761 91.3713 27.9232 91.3189 27.8174L86.2893 21.154C86.1321 20.9953 86.1845 20.7309 86.3417 20.5722C86.4988 20.4136 86.7608 20.4665 86.918 20.6251L91.9476 27.2886C92.1048 27.4472 92.0524 27.7117 91.8952 27.8703C91.7904 27.9232 91.6856 27.9761 91.6332 27.9761Z" fill="black"/>
<g opacity="0.1294">
<path opacity="0.1294" d="M83.041 35.6972V35.6443C83.041 34.1107 82.9362 32.577 82.8838 30.9905C82.8838 30.726 83.041 30.5674 83.1982 30.5145C83.1982 30.4087 83.1982 30.2501 83.1982 30.1443C83.1982 30.0914 83.1982 30.0385 83.2506 29.9857C83.2506 29.9328 83.1982 29.8799 83.1982 29.8799C83.1458 29.8799 83.1458 29.8799 83.0934 29.8799C82.9362 29.8799 82.9886 29.8799 82.8314 29.9328C82.7791 29.9328 82.779 29.9328 82.7267 29.9857C82.779 29.9857 82.779 29.9857 82.7267 29.9857C82.6743 29.9857 82.6219 30.0385 82.6219 30.0385C82.5171 30.0914 82.4123 30.1443 82.2551 30.1972C82.2551 30.1972 82.2551 30.1972 82.2027 30.1972C81.9932 30.4087 81.7836 30.6203 81.6264 30.8847C81.3645 32.8943 81.1025 36.1203 80.7882 39.3462C80.5786 40.6683 80.5786 41.2501 80.4214 43.3655C80.1595 45.851 80.0547 48.3895 80.1071 50.8751C80.1594 51.4568 80.1594 52.0914 80.1071 52.6732C80.0547 52.726 80.0547 52.8318 80.0023 52.8847C80.0023 52.9376 79.9499 52.9905 79.9499 53.0434C79.5308 54.6299 81.4169 55.6347 82.5171 54.6299C82.5171 54.3126 82.4647 53.9424 82.4647 53.6251C82.4123 52.726 82.3599 51.827 82.2551 50.8751C82.2551 50.6107 82.4647 50.3991 82.6743 50.3991C82.6219 49.1299 82.6743 47.8607 82.6743 46.5914C82.6743 45.0049 82.5695 43.4183 82.7267 41.8318C82.779 41.0385 82.7267 40.2453 82.7267 39.3991C82.8838 38.1828 82.9886 36.9664 83.041 35.6972Z" fill="black"/>
</g>
<path d="M82.2551 54.9472C79.9499 54.8943 77.1731 54.8414 74.3963 54.7885C71.6196 54.7357 68.8428 54.6828 66.5376 54.6299C66.4328 54.6299 66.328 54.577 66.2756 54.5241C66.2232 54.4712 66.1708 54.3655 66.1708 54.2597C66.4328 46.0097 66.59 38.3414 66.59 30.7789C64.6515 30.7789 62.8701 30.6732 61.1936 30.5145C61.0364 30.5145 60.9316 30.4087 60.8793 30.2501C60.8269 30.0914 60.8793 29.9328 60.984 29.827C65.7517 25.0674 70.6765 20.1491 75.4966 15.0722C75.549 14.9664 75.7061 14.9664 75.8109 14.9664C75.9157 14.9664 76.0205 15.0193 76.1253 15.1251C77.8018 17.1347 79.6879 19.303 81.7312 21.6299C84.0888 24.3799 86.5513 27.1828 89.1185 30.2501C89.2232 30.3559 89.2232 30.5674 89.1708 30.6732C89.1184 30.8318 88.9613 30.8847 88.8041 30.8847C88.1754 30.8847 87.4419 30.8318 86.7084 30.8318C85.3986 30.7789 84.0364 30.7789 83.1982 30.726C82.8314 38.4472 82.779 45.5866 82.779 54.577C82.779 54.6828 82.7266 54.7885 82.6743 54.8414C82.4647 54.8943 82.3599 54.9472 82.2551 54.9472ZM66.9567 53.8366C69.1572 53.8895 71.7768 53.9424 74.3963 53.9953C77.0159 54.0482 79.6355 54.101 81.836 54.1539C81.836 45.1635 81.8884 38.0241 82.2551 30.2501C82.2551 30.1443 82.3075 30.0385 82.4123 29.9857C82.5171 29.9328 82.6219 29.8799 82.7266 29.8799C83.4077 29.9328 85.0319 29.9857 86.5512 30.0385C86.9704 30.0385 87.3895 30.0385 87.7563 30.0385C85.451 27.2357 83.1458 24.6443 80.9453 22.1059C79.0592 19.9376 77.2255 17.8222 75.6014 15.9184C71.0433 20.6251 66.4328 25.2789 61.9795 29.7741C63.4989 29.9328 65.123 29.9857 66.8519 29.9857C66.9567 29.9857 67.0615 30.0385 67.1139 30.0914C67.1663 30.1443 67.2187 30.2501 67.2187 30.3559C67.3758 37.9184 67.2187 45.5866 66.9567 53.8366Z" fill="black"/>
<path d="M91.6332 27.9761C91.5285 27.9761 91.3713 27.9232 91.3189 27.8174L86.2893 21.154C86.1321 20.9953 86.1845 20.7309 86.3417 20.5722C86.4988 20.4136 86.7608 20.4665 86.918 20.6251L91.9476 27.2886C92.1048 27.4472 92.0524 27.7117 91.8952 27.8703C91.7904 27.9232 91.6856 27.9761 91.6332 27.9761Z" fill="black"/>
<path d="M8.12072 54.3654C8.85421 49.5 9.22095 44.6346 9.32573 39.5048C6.91571 39.4519 4.4533 39.5048 2.04327 39.7163C6.86332 35.8558 11.369 31.5721 15.4556 26.8125C19.123 31.4135 22.8428 36.0673 27.6105 39.399C25.3052 39.4519 22.9476 39.5048 20.6424 39.6106C20.59 44.5288 20.7995 49.5 21.2187 54.4711C19.9613 54.524 18.6515 54.524 17.3941 54.524C16.3986 54.524 15.3508 54.524 14.3553 54.524C12.3121 54.524 10.2688 54.4711 8.12072 54.3654Z" fill="#3943ED"/>
<g opacity="0.1294">
<path opacity="0.1294" d="M21.4283 52.4086C21.3759 51.351 21.2711 50.2933 21.2711 49.2356C21.2187 47.2788 21.0615 45.375 21.0091 43.4183C21.0091 42.6779 21.0091 41.8846 21.0091 41.1442C21.0091 40.6683 21.1663 40.1923 21.0091 39.7163C20.6424 38.7644 19.2278 39.0817 19.2278 40.0865C18.9135 42.6779 18.8611 43.0481 18.4943 45.8509C18.3371 47.8606 18.4419 49.8702 18.5991 51.8798C18.7563 53.0961 18.6515 53.4663 18.8611 53.9423C19.1754 54.8942 20.4852 55.1058 21.1663 54.4183C21.7426 53.8894 21.5854 53.0961 21.4283 52.4086Z" fill="black"/>
</g>
<path d="M18.5991 54.9471C18.2323 54.9471 17.8132 54.9471 17.4465 54.9471H14.4077C12.3645 54.9471 10.2688 54.9471 8.12072 54.7885C8.01594 54.7885 7.91115 54.7356 7.85876 54.6298C7.80637 54.524 7.75398 54.4183 7.75398 54.3125C8.43507 49.5529 8.8542 44.8462 8.95899 39.875C6.70614 39.8221 4.4009 39.875 2.09566 40.0865C1.93849 40.0865 1.72892 39.9808 1.67653 39.8221C1.62414 39.6635 1.67653 39.4519 1.78131 39.3462C6.70614 35.4327 11.2118 31.0962 15.1412 26.4952C15.1936 26.3894 15.3508 26.3365 15.4556 26.3365C15.5604 26.3365 15.6651 26.3894 15.7699 26.4952C19.385 31.0433 23.1048 35.6971 27.82 38.976C27.9772 39.0817 28.0296 39.2404 27.9772 39.399C27.9248 39.5577 27.7676 39.6635 27.6105 39.6635C25.6196 39.7163 23.5239 39.7692 21.0615 39.875C21.0091 44.476 21.2187 49.3413 21.6378 54.3125C21.6378 54.4183 21.6378 54.524 21.533 54.6298C21.4806 54.7356 21.3758 54.7356 21.2711 54.7885C20.3804 54.9471 19.4897 54.9471 18.5991 54.9471ZM8.59225 53.9952C10.5307 54.101 12.5216 54.101 14.4077 54.101H17.4465C18.5467 54.101 19.6993 54.101 20.8519 54.0481C20.4328 49.0769 20.2232 44.2115 20.328 39.6106C20.328 39.399 20.4852 39.2404 20.6947 39.1875C22.8428 39.0817 24.7289 39.0288 26.4578 38.976C22.2141 35.75 18.8086 31.5192 15.508 27.3942C11.8405 31.5721 7.80637 35.5385 3.35307 39.1875C5.34395 39.0288 7.38723 39.0289 9.37812 39.0817C9.58769 39.0817 9.74487 39.2933 9.74487 39.5048C9.64008 44.476 9.27334 49.2356 8.59225 53.9952Z" fill="black"/>
<path d="M0.41914 36.8078C0.314357 36.8078 0.209573 36.7549 0.10479 36.702C-0.0523859 36.5433 -0.0523859 36.2789 0.10479 36.1203C2.20046 34.1635 4.19135 32.101 6.07745 29.9328C6.23463 29.7741 6.49659 29.7741 6.65376 29.8799C6.81094 30.0385 6.81094 30.3029 6.70616 30.4616C4.82005 32.6299 2.77677 34.7453 0.681099 36.702C0.576316 36.7549 0.471532 36.8078 0.41914 36.8078Z" fill="black"/>
<path d="M8.12072 54.3654C8.85421 49.5 9.22095 44.6346 9.32573 39.5048C6.91571 39.4519 4.4533 39.5048 2.04327 39.7163C6.86332 35.8558 11.369 31.5721 15.4556 26.8125C19.123 31.4135 22.8428 36.0673 27.6105 39.399C25.3052 39.4519 22.9476 39.5048 20.6424 39.6106C20.59 44.5288 20.7995 49.5 21.2187 54.4711C19.9613 54.524 18.6515 54.524 17.3941 54.524C16.3986 54.524 15.3508 54.524 14.3553 54.524C12.3121 54.524 10.2688 54.4711 8.12072 54.3654Z" fill="#3943ED"/>
<g opacity="0.1294">
<path opacity="0.1294" d="M21.4283 52.4086C21.3759 51.351 21.2711 50.2933 21.2711 49.2356C21.2187 47.2788 21.0615 45.375 21.0091 43.4183C21.0091 42.6779 21.0091 41.8846 21.0091 41.1442C21.0091 40.6683 21.1663 40.1923 21.0091 39.7163C20.6424 38.7644 19.2278 39.0817 19.2278 40.0865C18.9135 42.6779 18.8611 43.0481 18.4943 45.8509C18.3371 47.8606 18.4419 49.8702 18.5991 51.8798C18.7563 53.0961 18.6515 53.4663 18.8611 53.9423C19.1754 54.8942 20.4852 55.1058 21.1663 54.4183C21.7426 53.8894 21.5854 53.0961 21.4283 52.4086Z" fill="black"/>
</g>
<path d="M18.5991 54.9471C18.2323 54.9471 17.8132 54.9471 17.4465 54.9471H14.4077C12.3645 54.9471 10.2688 54.9471 8.12072 54.7885C8.01594 54.7885 7.91115 54.7356 7.85876 54.6298C7.80637 54.524 7.75398 54.4183 7.75398 54.3125C8.43507 49.5529 8.8542 44.8462 8.95899 39.875C6.70614 39.8221 4.4009 39.875 2.09566 40.0865C1.93849 40.0865 1.72892 39.9808 1.67653 39.8221C1.62414 39.6635 1.67653 39.4519 1.78131 39.3462C6.70614 35.4327 11.2118 31.0962 15.1412 26.4952C15.1936 26.3894 15.3508 26.3365 15.4556 26.3365C15.5604 26.3365 15.6651 26.3894 15.7699 26.4952C19.385 31.0433 23.1048 35.6971 27.82 38.976C27.9772 39.0817 28.0296 39.2404 27.9772 39.399C27.9248 39.5577 27.7676 39.6635 27.6105 39.6635C25.6196 39.7163 23.5239 39.7692 21.0615 39.875C21.0091 44.476 21.2187 49.3413 21.6378 54.3125C21.6378 54.4183 21.6378 54.524 21.533 54.6298C21.4806 54.7356 21.3758 54.7356 21.2711 54.7885C20.3804 54.9471 19.4897 54.9471 18.5991 54.9471ZM8.59225 53.9952C10.5307 54.101 12.5216 54.101 14.4077 54.101H17.4465C18.5467 54.101 19.6993 54.101 20.8519 54.0481C20.4328 49.0769 20.2232 44.2115 20.328 39.6106C20.328 39.399 20.4852 39.2404 20.6947 39.1875C22.8428 39.0817 24.7289 39.0288 26.4578 38.976C22.2141 35.75 18.8086 31.5192 15.508 27.3942C11.8405 31.5721 7.80637 35.5385 3.35307 39.1875C5.34395 39.0288 7.38723 39.0289 9.37812 39.0817C9.58769 39.0817 9.74487 39.2933 9.74487 39.5048C9.64008 44.476 9.27334 49.2356 8.59225 53.9952Z" fill="black"/>
<path d="M0.41914 36.8078C0.314357 36.8078 0.209573 36.7549 0.10479 36.702C-0.0523859 36.5433 -0.0523859 36.2789 0.10479 36.1203C2.20046 34.1635 4.19135 32.101 6.07745 29.9328C6.23463 29.7741 6.49659 29.7741 6.65376 29.8799C6.81094 30.0385 6.81094 30.3029 6.70616 30.4616C4.82005 32.6299 2.77677 34.7453 0.681099 36.702C0.576316 36.7549 0.471532 36.8078 0.41914 36.8078Z" fill="black"/>
</g>
<defs>
<clipPath id="clip0_109_107">
<rect width="92" height="55" fill="white"/>
</clipPath>
</defs>
</svg>
