<svg width="84" height="109" viewBox="0 0 84 109" fill="none" xmlns="http://www.w3.org/2000/svg">
<path d="M38.4972 2.1841C38.5652 6.55229 38.6332 10.9887 38.7012 15.3569C38.7012 15.5617 38.7012 15.8347 38.9053 15.9712C39.0413 16.1077 39.2453 16.1077 39.3814 16.0395C40.9457 15.9712 42.5101 15.9712 44.1425 15.9029C44.8907 15.9029 45.6389 15.8347 46.387 16.0395C47.1352 16.2442 47.8154 16.5855 48.2235 17.1998C48.4955 17.541 48.6316 18.0188 48.8356 18.3601C49.5838 19.4521 51.1482 19.6569 52.4405 19.6569C56.5895 19.7251 60.7385 19.4521 64.8194 18.8378C65.5676 14.8109 65.8397 10.6475 65.5676 6.48403C62.5069 7.23482 59.4462 7.57608 56.3174 7.50783C55.1611 7.50783 54.0049 7.43958 52.8486 7.09831C52.5765 7.03006 52.3045 6.9618 52.1004 6.75705C51.4202 6.21102 51.5563 5.11897 51.4202 4.23169C51.1482 2.93488 49.9239 1.97934 48.6316 1.63807C47.3393 1.29681 45.9789 1.43331 44.6866 1.56982C42.6461 1.84283 40.6057 2.04759 38.4972 2.1841Z" fill="white"/>
<path d="M21.4251 31.2599C18.9765 31.4646 16.732 32.898 15.4397 35.0138C14.1474 37.0614 13.9433 39.7915 14.8275 42.0439C15.3037 43.2724 16.1879 44.4327 17.4122 44.9787C18.0923 45.2518 18.9085 45.3883 19.6567 45.3883C21.153 45.4565 22.7854 45.4565 24.1458 44.8422C26.5263 43.7502 27.7506 40.9518 27.6826 38.2899C27.6146 36.5154 27.0024 34.809 25.9142 33.444C24.6899 32.1472 22.9895 31.2599 21.4251 31.2599Z" fill="white"/>
<path d="M28.5668 74.6688C28.5668 74.6688 14.7595 74.6688 14.4875 74.5323C14.5555 67.6387 15.0316 60.6769 15.9838 53.8516C16.2559 51.9405 16.5279 49.9612 17.6842 48.3914C18.7725 46.8216 20.881 45.7295 22.6494 46.4803C24.4178 47.1628 25.166 49.2104 25.5741 51.0532C26.1862 53.5786 26.4583 56.104 26.7304 58.6976C27.4105 63.953 28.0227 69.2768 28.5668 74.6688Z" fill="white"/>
<path d="M60.3304 31.0551C58.63 31.3964 56.8615 32.0107 55.6373 33.3075C54.9571 34.0582 54.549 34.9455 54.1409 35.8328C53.5968 37.0614 53.0526 38.4947 53.2567 39.8597C53.3927 40.8153 53.8688 41.7026 54.3449 42.5216C54.617 43.0676 54.8891 43.5454 55.2972 43.9549C55.8413 44.5692 56.6575 44.9105 57.4057 45.1152C58.766 45.5247 60.1943 45.6612 61.5547 45.5247C62.1668 45.4565 62.7109 45.3882 63.3231 45.1152C65.2956 44.2962 66.2478 41.9756 66.5198 39.8597C66.7919 37.8804 66.5198 35.7646 65.4996 34.0582C64.4794 32.3519 62.5749 31.1234 60.3304 31.0551Z" fill="white"/>
<path d="M17.2081 54.7389H17.1401C17.0721 54.6707 17.0721 54.6024 17.0721 54.4659C18.7044 52.0771 20.4729 49.8247 22.3773 47.6406C22.4453 47.5724 22.5814 47.5724 22.6494 47.6406C22.7174 47.7089 22.7174 47.8454 22.6494 47.9136C20.7449 50.0295 18.9765 52.3501 17.4121 54.6707C17.3441 54.6707 17.2761 54.7389 17.2081 54.7389Z" fill="black"/>
<path d="M16.936 59.9944H16.868C16.8 59.9261 16.8 59.8578 16.8 59.7213C18.9765 56.4452 21.3571 53.2373 23.8057 50.2342C23.8737 50.1659 23.9417 50.1659 24.0777 50.2342C24.1457 50.3024 24.1457 50.3707 24.0777 50.5072C21.6291 53.5103 19.2486 56.7182 17.0721 59.9944C17.0721 59.9944 17.004 59.9944 16.936 59.9944Z" fill="black"/>
<path d="M17.2761 64.1578C17.2081 64.1578 17.2081 64.1578 17.1401 64.0896C17.0721 64.0213 17.0721 63.953 17.0721 63.8165L24.3498 53.9881C24.4178 53.9199 24.4858 53.9199 24.6219 53.9199C24.6899 53.9881 24.6899 54.0564 24.6899 54.1929L17.4121 64.0896C17.3441 64.1578 17.2761 64.1578 17.2761 64.1578Z" fill="black"/>
<path d="M17.0721 69.8228H17.0041C16.936 69.7545 16.868 69.6863 16.936 69.5498C19.3846 65.7276 22.0373 61.9054 24.7579 58.288C24.8259 58.2198 24.8939 58.2198 25.03 58.2198C25.098 58.288 25.098 58.3563 25.098 58.4928C22.3773 62.1102 19.7247 65.9324 17.2761 69.7545C17.1401 69.7545 17.0721 69.8228 17.0721 69.8228Z" fill="black"/>
<path d="M17.6162 73.3719C17.5482 73.3719 17.5482 73.3719 17.4802 73.3037C17.4121 73.2354 17.4121 73.1672 17.4802 73.0307L25.37 62.6562C25.438 62.588 25.5061 62.588 25.6421 62.6562C25.7101 62.7245 25.7101 62.7927 25.6421 62.9292L17.7522 73.3037C17.7522 73.3037 17.6842 73.3719 17.6162 73.3719Z" fill="black"/>
<path d="M20.745 73.5085C20.6769 73.5085 20.6769 73.5085 20.6769 73.5085C20.6089 73.4402 20.6089 73.372 20.6089 73.2355L25.7781 66.1372C25.8462 66.0689 25.9142 66.0689 26.0502 66.0689C26.1182 66.1372 26.1182 66.2054 26.1182 66.3419L20.949 73.4402C20.881 73.5085 20.813 73.5085 20.745 73.5085Z" fill="black"/>
<path d="M23.7376 73.3037C23.6696 73.3037 23.6696 73.3037 23.6016 73.2354C23.5336 73.1672 23.5336 73.0989 23.6016 72.9624L26.0502 69.891C26.1182 69.8228 26.1862 69.8228 26.3223 69.891C26.3903 69.9593 26.3903 70.0275 26.3223 70.164L23.8737 73.2354C23.8057 73.2354 23.8057 73.3037 23.7376 73.3037Z" fill="black"/>
<path d="M53.8688 74.8053C53.8688 67.5705 54.345 60.4039 55.2972 53.2373C55.5692 51.258 55.9093 49.2104 57.1336 47.6406C58.3579 46.0708 60.7385 45.1835 62.3709 46.3438C63.119 46.8216 63.5952 47.5724 63.9352 48.3914C65.4316 51.531 65.8397 55.0802 66.1118 58.4928C66.5879 63.8166 67.132 69.072 67.6081 74.3958C67.6081 74.5323 67.6081 74.6688 67.5401 74.8053C67.4721 74.8735 67.4041 74.8735 67.268 74.8735C64.8195 75.2148 62.3709 75.0783 59.9223 74.9418C58.63 74.8735 57.3377 74.8053 56.0454 74.6688C55.2292 74.6005 54.481 74.5323 53.8688 74.8053Z" fill="#3943ED"/>
<g opacity="0.1294">
<path opacity="0.1294" d="M27.6826 36.4471C27.6826 36.3789 27.6826 36.3106 27.6826 36.2424C27.6146 35.8328 27.6826 35.3551 27.4105 35.0138C27.2065 34.809 26.7984 34.7408 26.5263 34.8773C26.1862 35.0821 26.1862 35.4916 26.2542 35.8328C26.3223 36.2424 26.3223 36.6519 26.3223 36.9931C26.3223 37.5392 26.2543 38.4947 26.0502 39.382C25.37 42.1804 23.8737 43.4772 22.1733 43.8184C21.3571 43.8867 21.017 43.9549 19.7247 43.9549C19.5206 43.9549 18.7725 43.8867 18.5684 43.8867C18.0243 43.8184 17.5482 43.7502 17.004 43.6137C16.8 43.5454 16.596 43.6137 16.4599 43.6819C15.9158 43.9549 16.0518 44.8422 16.5959 44.9787C16.8 45.047 16.936 45.047 17.1401 45.1152C17.2081 45.1835 17.2761 45.2517 17.4121 45.32C18.0243 45.5248 18.7045 45.7295 19.3846 45.7978C19.7927 45.7978 20.2008 45.7978 20.6089 45.7978C21.017 45.7978 21.3571 45.7978 21.7652 45.7978H21.8332C23.6016 45.866 25.166 44.8422 26.3223 43.5454C27.5466 42.2486 28.0907 39.655 28.1587 38.563C28.2267 37.8804 28.2267 36.7884 27.6826 36.4471Z" fill="black"/>
</g>
<g opacity="0.1294">
<path opacity="0.1294" d="M28.2267 74.0545C28.2267 73.9862 28.2267 73.8497 28.2267 73.7132C28.4308 73.0307 28.2267 72.2799 28.2947 71.5974C28.2267 69.8228 28.2267 69.6863 28.0227 67.707C27.7506 65.3864 27.4105 62.7245 27.1385 59.9261C26.8664 57.8103 26.4583 52.8961 25.7101 49.6199C25.5741 49.2104 25.4381 48.5961 25.098 48.2549C25.03 48.0501 24.8939 47.8453 24.7579 47.6406C24.4858 47.2993 24.3498 46.685 23.8737 46.5485C23.3296 46.412 22.7854 47.0946 23.1255 47.5723C24.8939 50.0977 24.8259 52.6913 24.8259 56.0357C25.098 61.0864 24.8259 66.2054 24.9619 71.2561C24.9619 72.3482 24.8939 72.9624 24.8939 73.5767C24.8939 73.9862 24.8259 74.3958 24.9619 74.737C25.03 75.01 25.234 75.2148 25.4381 75.283C25.9142 75.4195 26.1862 75.283 26.3903 75.0783C27.0704 75.6243 28.2947 75.0783 28.2267 74.0545C28.2267 74.1227 28.2267 74.1227 28.2267 74.0545Z" fill="black"/>
</g>
<g opacity="0.1294">
<path opacity="0.1294" d="M66.7919 37.4709C66.5198 37.1296 65.9077 37.4026 65.9757 37.8121C65.9757 38.2899 65.5676 39.3137 65.2956 40.0645C64.7514 41.566 63.5271 42.7946 61.6227 43.7501C60.9425 44.0231 59.3781 44.3644 57.8818 44.2962C57.5417 44.2962 57.1336 44.1596 56.3854 44.0231C56.1814 43.9549 55.9773 44.0231 55.8413 44.0914C55.2972 44.3644 55.4332 45.2517 56.0454 45.3882C58.4939 46.2072 61.3506 45.7295 63.5951 44.4327C64.4794 43.8184 65.4316 43.0676 65.8397 42.0438L65.7717 42.1803C66.1117 41.6343 66.3838 41.02 66.5879 40.4057C66.7919 39.7915 66.9279 38.8359 66.9279 38.4947C66.8599 38.1534 67.064 37.7439 66.7919 37.4709Z" fill="black"/>
</g>
<g opacity="0.1294">
<path opacity="0.1294" d="M68.0162 72.9624C67.9482 71.9386 67.8802 70.9831 67.8121 69.9593C67.7441 68.799 67.6081 67.6387 67.5401 66.4784C67.2 66.4102 66.8599 66.4784 66.5879 66.6832C66.5198 63.8165 66.4518 61.0182 66.1798 58.2198C65.9077 54.8072 65.7717 52.8961 65.3636 51.4628C65.1595 50.0294 64.8875 49.2787 64.6154 48.8009C64.2753 47.9136 63.7312 47.1628 63.119 46.4803C62.779 46.139 62.5749 45.6613 62.0308 45.6613C61.4186 45.6613 61.0105 46.4803 61.4867 46.9581C62.5749 48.1866 62.5749 48.5279 62.847 49.6199C62.983 50.5072 62.983 50.5755 63.119 51.804C63.119 52.077 63.119 52.35 63.119 52.6231C63.119 52.5548 63.119 52.5548 63.119 52.4866C63.119 53.3738 63.3231 54.2611 63.3911 55.1484C63.4591 58.0833 63.5952 61.0182 63.6632 63.953C63.7312 66.8197 63.8672 69.618 64.0032 72.4847C64.0713 72.9624 64.0033 73.372 64.1393 73.8497C64.1393 73.918 64.1393 73.918 64.1393 73.9862C64.1393 74.3958 64.1393 74.8053 64.4794 75.0783C64.9555 75.5561 65.8397 75.4878 66.1798 74.8735C66.2478 74.8053 66.2478 74.737 66.2478 74.6688C66.7919 75.1465 67.6081 75.01 68.0162 74.464C68.0842 73.9862 68.0842 73.4402 68.0162 72.9624Z" fill="black"/>
</g>
<path d="M20.7449 46.3438C19.7247 46.3438 18.7044 46.139 17.7522 45.7978C17.0721 45.593 16.5959 45.32 16.1878 44.9787C15.3036 44.2962 14.6915 43.3406 14.2154 41.9756C13.9433 41.0883 13.8073 40.3375 13.7393 39.5867C13.7393 38.6994 13.8753 37.7439 14.2834 36.6519C14.8955 34.8773 15.9158 33.3757 17.2081 32.2837C18.7044 31.0551 20.5409 30.5091 22.2413 30.6456C23.9417 30.8504 25.5741 32.0107 26.7304 33.8535C27.6146 35.2868 28.0907 37.1296 28.1587 39.109C28.1587 39.928 28.0907 40.5423 27.9546 41.1566C27.4785 43.1359 25.9142 44.8422 23.8737 45.6612C22.8534 46.2073 21.8332 46.3438 20.7449 46.3438ZM21.5611 31.7376C20.2688 31.7376 18.9085 32.2154 17.8202 33.171C16.664 34.1265 15.7797 35.4233 15.2356 37.0614C14.8955 38.0169 14.7595 38.836 14.7595 39.5867C14.7595 40.201 14.8955 40.8835 15.1676 41.6343C15.5757 42.7946 16.1198 43.6137 16.8 44.1597C17.1401 44.4327 17.5482 44.6375 18.0923 44.8422C19.8607 45.4565 21.8332 45.4565 23.3976 44.774C25.098 44.0914 26.3903 42.5899 26.8664 40.9518C27.0024 40.4058 27.0704 39.8597 27.0704 39.109C27.0704 37.3344 26.6623 35.6963 25.8461 34.3995C25.37 33.6487 24.0777 31.8742 22.1052 31.6694C21.9012 31.7376 21.7652 31.7376 21.5611 31.7376Z" fill="black"/>
<path d="M22.1053 75.556C19.7927 75.556 17.2761 75.4878 14.6915 75.3513C14.4194 75.3513 14.2154 75.0783 14.2154 74.8053C14.3514 67.2292 14.7595 60.3356 15.4397 53.9199C15.6437 51.8723 15.9158 49.8929 16.936 48.1866C17.8883 46.5485 19.9968 44.9787 22.2413 45.5247C24.4858 46.0025 25.9822 48.2549 26.6624 52.1453C27.9547 59.6531 28.5668 67.2974 29.179 74.737C29.179 74.8735 29.179 75.01 29.0429 75.1465C28.9749 75.283 28.8389 75.283 28.7028 75.3513C26.5263 75.4878 24.4178 75.556 22.1053 75.556ZM15.2356 74.3275C19.9288 74.6005 24.0777 74.6005 28.0227 74.3275C27.4786 67.0927 26.8664 59.5849 25.5741 52.35C24.962 48.8691 23.7377 46.9581 21.9692 46.5485C20.3369 46.139 18.6364 47.3676 17.7522 48.7326C16.868 50.2342 16.596 52.0088 16.3919 53.9881C15.7798 60.2674 15.3717 66.9562 15.2356 74.3275Z" fill="black"/>
<path d="M16.732 94.5304C16.4599 94.5304 16.1879 94.3256 16.1879 93.9844V93.9161L16.2559 74.9418C16.2559 74.6688 16.4599 74.3958 16.8 74.3958C17.0721 74.3958 17.3441 74.6005 17.3441 74.9418L17.2761 93.9161C17.2761 94.2574 17.0721 94.5304 16.732 94.5304Z" fill="black"/>
<path d="M26.6623 94.6669C26.3903 94.6669 26.1182 94.4621 26.1182 94.1208C26.1182 87.7733 25.9822 81.3575 25.7101 75.01C25.7101 74.737 25.9142 74.464 26.1862 74.464C26.4583 74.464 26.7304 74.6688 26.7304 74.9418C27.0024 81.2893 27.1385 87.7051 27.1385 94.0526C27.1385 94.3939 26.9344 94.6669 26.6623 94.6669Z" fill="black"/>
<path d="M15.7798 53.8516C15.6437 53.8516 15.5077 53.7833 15.4397 53.7151C10.2704 48.8009 5.16923 43.6136 0.340079 38.3581C0.13603 38.1534 0.13603 37.8121 0.340079 37.6074C0.544127 37.4026 0.884208 37.4026 1.08826 37.6074C5.91741 42.8628 10.9506 48.0501 16.1198 52.9643C16.3239 53.169 16.3239 53.5103 16.1198 53.7151C16.0518 53.7833 15.9158 53.8516 15.7798 53.8516Z" fill="black"/>
<path d="M26.4583 54.5341C26.3223 54.5341 26.2543 54.5341 26.1862 54.4659C25.9822 54.3294 25.9142 53.9881 26.0502 53.7151C30.0632 47.9818 34.2802 42.3851 38.7012 36.9931C38.9053 36.7883 39.1773 36.7201 39.4494 36.9248C39.6534 37.1296 39.7215 37.4026 39.5174 37.6756C35.0964 42.9994 30.8113 48.5961 26.8664 54.3293C26.7304 54.4659 26.5943 54.5341 26.4583 54.5341Z" fill="black"/>
<path d="M59.8542 46.3438C58.834 46.3438 57.8138 46.139 56.8615 45.7978C56.1814 45.593 55.7053 45.32 55.2972 44.9787C54.4129 44.2962 53.8008 43.3406 53.3247 41.9756C53.0526 41.0883 52.9166 40.3375 52.8486 39.5867C52.8486 38.6994 52.9846 37.7439 53.3927 36.6519C54.0048 34.8773 55.0251 33.3757 56.3174 32.2837C57.8138 31.0551 59.6502 30.5091 61.3506 30.6456C63.051 30.8504 64.6834 32.0107 65.8397 33.8535C66.7239 35.2868 67.2 37.1296 67.268 39.109C67.268 39.928 67.2 40.5423 67.064 41.1566C66.5878 43.1359 65.0235 44.8422 62.983 45.6612C61.9627 46.2073 60.9425 46.3438 59.8542 46.3438ZM60.6704 31.7376C59.3781 31.7376 58.0178 32.2154 56.9295 33.171C55.7733 34.1265 54.8891 35.4233 54.3449 37.0614C54.0049 38.0169 53.8688 38.836 53.8688 39.5867C53.8688 40.201 54.0049 40.8835 54.2769 41.6343C54.685 42.7946 55.2291 43.6137 55.9093 44.1597C56.2494 44.4327 56.6575 44.6375 57.2016 44.8422C58.97 45.4565 60.9425 45.4565 62.5069 44.774C64.2073 44.0914 65.4996 42.5899 65.9757 40.9518C66.1117 40.4058 66.1798 39.8597 66.1798 39.109C66.1798 37.3344 65.7717 35.6963 64.9555 34.3995C64.4793 33.6487 63.187 31.8742 61.2146 31.6694C61.0105 31.7376 60.8065 31.7376 60.6704 31.7376Z" fill="black"/>
<path d="M61.2146 75.556C58.902 75.556 56.3854 75.4878 53.8008 75.3513C53.5288 75.3513 53.3247 75.0783 53.3247 74.8053C53.4607 67.2292 53.8688 60.4039 54.549 53.9199C54.753 51.8723 55.0251 49.8929 56.0454 48.1866C56.9976 46.5485 59.1061 44.9787 61.3506 45.5247C63.5951 46.0025 65.0915 48.2549 65.7717 52.1453C67.064 59.6531 67.6761 67.2974 68.2883 74.737C68.2883 74.8735 68.2883 75.01 68.1522 75.1465C68.0842 75.283 67.9482 75.283 67.8122 75.3513C65.6356 75.4878 63.4591 75.556 61.2146 75.556ZM54.3449 74.3275C59.0381 74.6005 63.1871 74.6005 67.132 74.3275C66.5879 67.0927 65.9757 59.5849 64.6834 52.35C64.0713 48.8691 62.847 46.9581 61.0786 46.5485C59.4462 46.139 57.7458 47.3676 56.8615 48.7326C55.9773 50.2342 55.7053 52.0088 55.5012 53.9881C54.8891 60.2674 54.481 66.9562 54.3449 74.3275Z" fill="black"/>
<path d="M55.8413 94.5304C55.5692 94.5304 55.2972 94.3256 55.2972 93.9843L55.3652 75.01C55.3652 74.737 55.5692 74.464 55.9093 74.464C56.1814 74.464 56.4535 74.6688 56.4535 75.01V75.0783L56.3854 94.0526C56.3854 94.2574 56.1134 94.5304 55.8413 94.5304Z" fill="black"/>
<path d="M65.7036 94.6669C65.4316 94.6669 65.1595 94.4621 65.1595 94.1208C65.1595 87.7733 65.0235 81.3575 64.7514 75.01C64.7514 74.737 64.9555 74.464 65.2275 74.464C65.4996 74.464 65.7716 74.6688 65.7716 74.9418C66.0437 81.2893 66.1797 87.7051 66.1797 94.0526C66.2478 94.3939 65.9757 94.6669 65.7036 94.6669Z" fill="black"/>
<path d="M54.8891 53.8516C54.753 53.8516 54.617 53.7834 54.549 53.7151C49.3117 48.8009 44.2785 43.6137 39.4494 38.3582C39.2453 38.1535 39.2453 37.8122 39.4494 37.6074C39.6534 37.4027 39.9935 37.4027 40.1976 37.6074C44.9587 42.8629 50.0599 48.0501 55.2291 52.9643C55.4332 53.1691 55.4332 53.5104 55.2291 53.7151C55.1611 53.7834 55.0251 53.8516 54.8891 53.8516Z" fill="black"/>
<path d="M65.4996 54.5342C65.3636 54.5342 65.2955 54.5342 65.2275 54.4659C65.0235 54.3294 64.9555 53.9881 65.0915 53.7151C69.1044 47.9819 73.3215 42.3851 77.7425 36.9932C77.9466 36.7884 78.2186 36.7201 78.4907 36.9249C78.6947 37.1297 78.7628 37.4027 78.5587 37.6757C74.1376 42.9994 69.9206 48.5962 65.9077 54.3294C65.8397 54.4659 65.7036 54.5342 65.4996 54.5342Z" fill="black"/>
<path d="M41.0138 95.3494C40.7417 95.3494 40.4696 95.1446 40.4696 94.8716C40.1295 79.9925 39.6534 63.6118 39.1773 47.7088C38.7012 31.8059 38.2931 15.4252 37.885 0.546024C37.885 0.273012 38.0891 0 38.3611 0C38.6332 0 38.9053 0.204759 38.9053 0.477771C39.2453 15.3569 39.7214 31.7376 40.1976 47.6406C40.6737 63.5435 41.0818 79.9242 41.4899 94.8034C41.5579 95.1446 41.3538 95.3494 41.0138 95.3494C41.0818 95.3494 41.0138 95.3494 41.0138 95.3494Z" fill="black"/>
<path d="M83.5239 95.3494H0.54413C0.272065 95.3494 0 95.1447 0 94.8034C0 94.5304 0.204049 94.2574 0.476113 94.2574H83.4559C83.7279 94.2574 84 94.4621 84 94.8034C84 95.1447 83.796 95.3494 83.5239 95.3494Z" fill="black"/>
<path d="M10.7466 101.97C10.4745 101.97 10.2704 101.765 10.2024 101.492C10.2024 101.219 10.4065 100.946 10.6785 100.946C33.9401 99.9906 57.4737 99.7176 80.7352 100.195C81.0073 100.195 81.2794 100.468 81.2113 100.741C81.2113 101.014 81.0073 101.219 80.6672 101.219C57.5417 100.741 34.0081 101.014 10.7466 101.97Z" fill="black"/>
<path d="M48.5636 109L24.0777 108.522C23.8057 108.522 23.5336 108.249 23.6016 107.976C23.6016 107.703 23.8057 107.498 24.1458 107.498L48.5636 107.976C48.8356 107.976 49.1077 108.249 49.0397 108.522C49.1077 108.795 48.9037 109 48.5636 109Z" fill="black"/>
<path d="M57.0656 8.12211C55.9773 8.12211 54.9571 8.05385 53.8688 7.9856C52.2364 7.84909 51.2162 7.23482 50.8761 6.27928C50.7401 5.80151 50.7401 5.32373 50.8081 4.91422C50.8081 4.70946 50.8081 4.5047 50.8081 4.29994C50.7401 3.27615 49.7879 2.59362 48.9037 2.3206C47.8834 1.97934 46.7271 2.04759 45.5709 2.1841L38.6332 2.86663C38.3611 2.86663 38.0891 2.66187 38.0891 2.38886C38.0891 2.11584 38.2931 1.84283 38.5652 1.84283L45.5028 1.1603C46.6591 1.0238 47.9514 0.955544 49.1757 1.29681C50.4 1.70633 51.6923 2.73012 51.8283 4.23169C51.8283 4.5047 51.8283 4.77771 51.8283 5.05072C51.8283 5.39199 51.7603 5.73325 51.8964 5.93801C52.1004 6.48404 52.7806 6.8253 54.0049 6.96181C57.8138 7.30307 61.6227 7.03006 65.2956 6.07452C65.5676 6.00626 65.8397 6.14277 65.9077 6.48404C65.9757 6.75705 65.8397 7.03006 65.4996 7.09831C62.779 7.71259 59.9223 8.12211 57.0656 8.12211Z" fill="black"/>
<path d="M52.7806 20.2711C52.5085 20.2711 52.2364 20.2711 52.0324 20.2711C50.7401 20.2711 49.3117 20.0664 48.5636 18.9743C48.3595 18.6331 48.2235 18.3601 48.1555 18.0188C48.0194 17.7458 47.9514 17.4728 47.8154 17.268C47.3393 16.6537 46.387 16.6537 45.5028 16.6537H39.0413C38.7692 16.6537 38.4972 16.449 38.4972 16.1077C38.4972 15.8347 38.7012 15.5617 39.0413 15.5617H45.5028C46.319 15.5617 47.8154 15.5617 48.6316 16.5855C48.9036 16.9267 49.0397 17.268 49.1757 17.6093C49.2437 17.8823 49.3798 18.1553 49.5158 18.3601C49.9919 19.1108 51.1482 19.1791 52.1684 19.1791C56.1134 19.2473 60.3304 18.9743 64.6834 18.4283C65.1595 14.5379 65.3636 10.5792 65.2955 6.62055C65.2955 6.34754 65.4996 6.07452 65.8397 6.07452C66.1117 6.07452 66.3838 6.27928 66.3838 6.62055C66.4518 10.7157 66.2478 14.8792 65.7036 18.9743C65.7036 19.1791 65.4996 19.3839 65.2275 19.4521C60.7385 19.9981 56.6575 20.2711 52.7806 20.2711Z" fill="black"/>
</svg>
