<svg width="89" height="93" viewBox="0 0 89 93" fill="none" xmlns="http://www.w3.org/2000/svg">
<g clip-path="url(#clip0_109_736)">
<path d="M0.778076 87.4182C8.25958 82.347 15.6812 77.2758 23.1627 72.2046C24.1802 71.4801 25.2576 70.816 26.4546 70.4538C27.4721 70.1519 28.4896 70.1519 29.5669 70.1519C40.6395 70.1519 51.7122 70.0916 62.725 70.0916L87.9825 87.5994L88.1621 92.3083L0.718224 91.9461L0.778076 87.4182Z" fill="white"/>
<path d="M81.5783 82.1659C81.5783 82.1659 70.4459 74.378 70.4459 74.1365C70.7451 70.9971 71.1042 67.8578 71.8823 64.8392C72.3013 63.0884 72.9596 61.3377 74.2764 60.1302C75.5931 58.9832 77.8675 58.6813 79.0646 59.9491C79.8426 60.7339 80.082 61.881 80.2616 62.9677C81.2791 69.3671 81.698 75.8269 81.5783 82.1659Z" fill="white"/>
<path d="M71.2239 55.6023C70.6254 53.3082 71.2239 50.6519 72.7801 48.8407C73.8574 47.5729 75.4136 46.6673 77.0296 46.5466C78.7054 46.4258 80.4412 47.0296 81.4586 48.3577C82.4163 49.6255 82.7155 51.2556 82.6557 52.8856C82.536 54.9383 81.8177 57.0513 80.1419 58.1983C79.2441 58.802 78.1668 59.1039 77.1493 59.1039C76.2515 59.1643 75.4136 59.0435 74.5757 58.7417C73.0195 58.1983 71.5831 57.0513 71.2239 55.6023Z" fill="white"/>
<path d="M38.1258 49.0821C37.5272 46.6069 38.1258 43.8902 39.6819 41.9583C40.7593 40.6301 42.3154 39.6641 43.9314 39.5434C45.6073 39.3623 47.343 40.0867 48.3605 41.4753C49.3181 42.8035 49.6174 44.5543 49.5575 46.2447C49.4378 48.418 48.7196 50.6518 47.0437 51.8592C46.1459 52.463 45.0686 52.7648 44.0511 52.8252C43.1533 52.8856 42.3154 52.7648 41.4775 52.463C39.9213 51.8592 38.4849 50.6518 38.1258 49.0821Z" fill="white"/>
<path d="M7.48151 55.9042C6.88299 53.5497 7.48151 50.8933 8.97781 49.0218C10.0551 47.754 11.5514 46.8484 13.1675 46.6673C14.7835 46.5466 16.4593 47.2107 17.4768 48.5388C18.4344 49.8066 18.7337 51.497 18.6738 53.1271C18.614 55.1797 17.8958 57.3531 16.2199 58.5605C15.382 59.1643 14.3046 59.4661 13.2872 59.5265C12.4492 59.5869 11.5514 59.4661 10.7734 59.1643C9.27707 58.5002 7.84062 57.3531 7.48151 55.9042Z" fill="white"/>
<path d="M7.84062 82.6488C8.02017 77.6984 8.19973 72.6875 8.49899 67.737C8.61869 66.0466 8.7384 64.2958 9.33692 62.7865C9.99529 61.2169 11.2522 59.8283 12.928 59.5265C13.4069 59.4661 13.8258 59.4661 14.3046 59.5868C15.6214 60.0094 16.3396 61.4584 16.8184 62.7865C18.195 66.7107 18.8534 70.9367 18.8534 75.1024C17.4169 76.1891 15.9206 77.2758 14.4842 78.3021C12.3295 79.8717 10.1748 81.381 7.84062 82.6488Z" fill="white"/>
<g opacity="0.1294">
<path opacity="0.1294" d="M88.7007 88.203C88.5212 87.9616 88.3416 87.7804 88.1621 87.6597C87.6833 87.6597 87.2044 87.6597 86.7855 87.6597C86.0673 87.6597 85.349 87.5993 84.6308 87.3578C84.5709 87.3578 84.571 87.3578 84.5111 87.2975C78.5858 87.3578 72.6005 87.1767 66.6752 87.056H66.6153C65.8971 87.1163 65.119 87.1163 64.341 87.1163C63.5629 87.1163 62.8447 87.1163 62.0666 87.1163C60.5703 87.1163 59.074 87.1163 57.5777 87.1163C54.5851 87.1163 51.5326 87.1163 48.54 87.1767C48.3605 87.1767 48.2408 87.1163 48.1809 86.9956C43.5124 87.1767 38.844 87.2975 34.1755 87.056C32.5595 86.9956 31.0034 86.9956 29.3874 86.9956C24.8985 87.056 20.4096 87.1163 15.9206 87.1163C13.4069 87.1767 10.8931 87.1163 8.37929 87.1163C7.1224 87.1163 5.8655 87.1767 4.60861 87.2371C3.35172 87.2975 2.09482 87.2975 0.897781 87.3578C0.718225 87.3578 0.598521 87.2975 0.478817 87.2371C0.538669 88.203 0.598521 89.169 0.658373 90.1349C0.718225 90.799 0.778077 91.4631 0.837929 92.1272C2.8729 92.6102 5.02757 92.7309 7.1224 92.6705C9.03766 92.6102 10.8931 92.3687 12.8083 92.3687C14.7236 92.3687 16.579 92.3687 18.4943 92.3687C20.4096 92.3687 22.3248 92.3083 24.2999 92.3687C24.7788 92.3687 25.3174 92.429 25.7962 92.429C29.5071 92.1272 33.158 91.8857 36.8689 91.9461C38.9038 91.9461 40.9388 92.1272 43.0336 92.2479C45.727 92.3687 48.3605 92.3083 51.0538 92.3687C55.423 92.4894 59.7323 92.7309 64.1016 92.6102C67.4533 92.5498 70.8648 92.5498 74.2165 92.4894C78.7653 92.3083 83.3739 92.2479 87.9227 92.5498C88.2818 92.5498 88.6409 92.429 88.9402 92.2479C88.8803 91.8253 88.8204 91.3424 88.8204 90.9198C88.8204 90.316 88.8204 89.7123 88.8204 89.1086C88.581 88.8671 88.581 88.5049 88.7007 88.203Z" fill="black"/>
</g>
<path d="M9.81574 67.073H9.75588C9.69603 67.0126 9.69603 66.9522 9.69603 66.8315C11.1325 64.7185 12.6886 62.7262 14.3645 60.7943C14.4243 60.7339 14.544 60.7339 14.6039 60.7943C14.6638 60.8547 14.6638 60.9754 14.6039 61.0358C12.928 62.9073 11.3719 64.96 9.99529 67.0126C9.87559 67.073 9.87559 67.073 9.81574 67.073Z" fill="black"/>
<path d="M9.57633 71.782H9.51647C9.45662 71.7216 9.45662 71.6612 9.45662 71.5405C11.3719 68.6426 13.4667 65.8052 15.6214 63.1488C15.6812 63.0884 15.7411 63.0884 15.8608 63.1488C15.9206 63.2092 15.9206 63.2695 15.8608 63.3903C13.7061 66.0466 11.6113 68.8841 9.69603 71.782C9.69603 71.7216 9.63618 71.782 9.57633 71.782Z" fill="black"/>
<path d="M9.81574 75.4042C9.75588 75.4042 9.75589 75.4042 9.69603 75.3438C9.63618 75.2834 9.63618 75.223 9.63618 75.1023L16.0404 66.4088C16.1002 66.3484 16.1601 66.3484 16.2798 66.3484C16.3396 66.4088 16.3396 66.4691 16.3396 66.5899L9.93544 75.2834C9.93544 75.4041 9.87559 75.4042 9.81574 75.4042Z" fill="black"/>
<path d="M9.63618 80.4151H9.57633C9.51648 80.3547 9.45663 80.2943 9.51648 80.1736C11.6712 76.7928 14.0054 73.4119 16.3995 70.2122C16.4593 70.1519 16.5192 70.1519 16.6389 70.1519C16.6987 70.2122 16.6987 70.2726 16.6987 70.3933C14.3046 73.593 11.9704 76.9739 9.81574 80.3547C9.75589 80.4151 9.69604 80.4151 9.63618 80.4151Z" fill="black"/>
<path d="M14.3046 78.1209C14.2448 78.1209 14.2448 78.1209 14.1849 78.0606C14.1251 78.0002 14.1251 77.9398 14.1849 77.8191L16.998 74.076C17.0578 74.0157 17.1177 74.0157 17.2374 74.076C17.2972 74.1364 17.2972 74.1968 17.2374 74.3175L14.4243 78.0606C14.4243 78.0606 14.3645 78.1209 14.3046 78.1209Z" fill="black"/>
<g opacity="0.1294">
<path opacity="0.1294" d="M18.9731 50.9537C18.9731 50.8933 18.9731 50.833 18.9731 50.7726C18.9132 50.4104 18.9731 49.9878 18.7337 49.6859C18.5541 49.4444 18.2549 49.384 18.0155 49.5651C17.7162 49.7463 17.7162 50.1085 17.7761 50.4104C17.8359 50.7726 17.8359 51.1348 17.8359 51.4367C17.8359 51.9196 17.7761 52.7648 17.5965 53.5497C16.998 56.0249 15.6812 57.172 14.1849 57.4738C13.4667 57.5342 13.1675 57.5946 12.0303 57.5946C11.8507 57.5946 11.1923 57.5342 11.0128 57.5342C10.534 57.4738 10.115 57.4135 9.63618 57.2927C9.45663 57.2324 9.27707 57.2927 9.15736 57.3531C8.67855 57.5946 8.79825 58.3794 9.27707 58.5002C9.45662 58.5605 9.57633 58.5605 9.75588 58.6209C9.81574 58.6813 9.87559 58.7416 9.99529 58.802C10.534 58.9831 11.1325 59.1642 11.731 59.2246C12.0901 59.2246 12.4492 59.2246 12.8083 59.2246C13.1675 59.2246 13.4667 59.2246 13.8258 59.2246H13.8857C15.4418 59.285 16.8184 58.3794 17.8359 57.2324C18.9132 56.0853 19.3921 53.7912 19.4519 52.8252C19.5118 52.1611 19.4519 51.1952 18.9731 50.9537Z" fill="black"/>
</g>
<g opacity="0.1294">
<path opacity="0.1294" d="M16.5192 68.2199C16.6987 71.1178 16.6389 74.0156 16.6389 76.9135C16.8783 76.7324 17.1177 76.5512 17.4169 76.3701C17.8958 76.0079 18.4344 75.5853 18.9132 75.2231C18.7935 74.076 18.6738 72.9289 18.5541 71.7215C18.3147 69.85 17.9556 65.5032 17.2972 62.6054C17.1775 62.2431 17.0578 61.6998 16.7586 61.3979C16.6987 61.2168 16.579 61.0357 16.4593 60.8546C16.2199 60.5527 16.1002 60.0094 15.6812 59.8886C15.2024 59.7679 14.7236 60.3112 15.0229 60.7942C16.579 63.028 16.4593 65.3221 16.5192 68.2199Z" fill="black"/>
</g>
<path d="M12.928 59.7076C12.0303 59.7076 11.1325 59.5264 10.2946 59.2246C9.69603 59.0435 9.27707 58.802 8.91796 58.5001C8.13988 57.8964 7.60121 57.0512 7.18225 55.8438C6.94284 55.0589 6.82313 54.3948 6.76328 53.7308C6.76328 52.9459 6.88299 52.1007 7.2421 51.1348C7.78077 49.5651 8.67855 48.2369 9.81574 47.271C11.1325 46.1843 12.7485 45.7013 14.2448 45.8221C15.7411 46.0032 17.1775 47.0295 18.195 48.6595C18.9731 49.9273 19.3921 51.5574 19.4519 53.3082C19.4519 54.0326 19.3921 54.576 19.2724 55.1193C18.8534 56.8701 17.4768 58.3794 15.6812 59.1038C14.7835 59.5264 13.8857 59.7076 12.928 59.7076ZM13.6463 46.788C12.5091 46.788 11.312 47.2106 10.3544 48.0558C9.33692 48.901 8.55884 50.0481 8.08003 51.497C7.78077 52.3422 7.66106 53.0667 7.66106 53.7308C7.66106 54.2741 7.78077 54.8778 8.02018 55.5419C8.37929 56.5682 8.8581 57.2927 9.45663 57.7757C9.75589 58.0171 10.115 58.1983 10.5938 58.3794C12.15 58.9227 13.8857 58.9227 15.2623 58.319C16.7586 57.7153 17.8958 56.3871 18.3147 54.9382C18.4344 54.4552 18.4943 53.9722 18.4943 53.3082C18.4943 51.7385 18.1352 50.2896 17.4169 49.1425C16.998 48.4784 15.8608 46.9088 14.1251 46.7276C13.9455 46.788 13.8258 46.788 13.6463 46.788Z" fill="black"/>
<path d="M7.66106 83.0714C7.60121 83.0714 7.48151 83.0714 7.42166 83.0111C7.30195 82.9507 7.18225 82.7696 7.18225 82.5885C7.30195 76.672 7.66106 71.3593 8.19973 66.3485C8.37929 64.5373 8.6187 62.7865 9.51648 61.2772C10.3544 59.8283 12.2098 58.4398 14.1849 58.9227C16.1601 59.3453 17.4768 61.3376 18.0753 64.7788C18.614 67.7974 19.033 71.0575 19.4519 75.042C19.4519 75.2231 19.3921 75.3438 19.2724 75.4646C19.033 75.6457 18.7935 75.8268 18.5541 76.0079C18.2549 76.2494 17.9556 76.4909 17.6564 76.7324C17.2972 76.9739 16.9381 77.2757 16.579 77.5172C15.7411 78.0606 14.963 78.5435 14.1849 79.0265C13.1675 79.6302 12.2098 80.2943 11.1923 80.898C10.1748 81.5018 9.15736 82.1658 8.19973 82.8299L8.13988 82.8903L8.02018 82.9507C7.84062 83.0714 7.78077 83.0714 7.66106 83.0714ZM13.4667 59.7679C12.2098 59.7679 10.9529 60.7339 10.3544 61.7602C9.57633 63.0884 9.33692 64.6581 9.15736 66.4088C8.67855 71.1782 8.31944 76.189 8.19973 81.7432C9.03766 81.1999 9.87559 80.7169 10.7135 80.1736C11.731 79.5699 12.6886 78.9058 13.7061 78.3021C14.4842 77.8191 15.2623 77.2757 16.1002 76.7928C16.4593 76.5513 16.8184 76.2494 17.1775 76.0079C17.4768 75.7664 17.7761 75.525 18.0753 75.2835C18.2549 75.1627 18.3746 75.042 18.5541 74.9212C18.195 71.0575 17.7761 67.9181 17.2374 64.9599C16.6987 61.881 15.6214 60.1905 14.0652 59.8283C13.8258 59.7679 13.6463 59.7679 13.4667 59.7679Z" fill="black"/>
<g opacity="0.1294">
<path opacity="0.1294" d="M82.2367 51.5574C81.6382 51.6782 81.6382 52.2819 81.5784 52.7045C81.6382 52.2819 81.5783 52.8856 81.5185 53.1875C81.1594 54.6364 80.8003 55.4212 80.2616 55.9646C79.4237 56.7494 77.3887 57.5946 76.5508 57.5946C76.4909 57.5946 76.4909 57.5946 76.4909 57.5946C76.3712 57.5946 76.1917 57.5342 76.072 57.5342C75.7727 57.4739 75.4734 57.4135 75.1742 57.4135C75.1143 57.4135 74.9946 57.4135 74.9348 57.4135C74.6954 57.4135 74.3961 57.3531 74.1567 57.4739C73.2589 57.7757 73.4385 59.1643 74.3961 59.2246C75.3537 59.285 74.5158 59.285 75.653 59.3454C75.8924 59.3454 76.1318 59.285 76.3712 59.285C77.3887 59.285 78.5858 59.0435 79.9623 58.3794C81.8776 57.4135 82.9549 55.2401 83.1345 53.1271C83.1345 52.4026 83.3141 51.4971 82.2367 51.5574Z" fill="black"/>
</g>
<g opacity="0.1294">
<path opacity="0.1294" d="M78.885 69.0048C78.9449 70.6952 78.8252 72.3857 78.885 74.0157C79.0047 75.8268 79.2441 77.155 79.1843 80.2944C79.1843 80.5358 79.1843 80.717 79.1244 80.8981C79.4237 81.1396 79.7229 81.3207 80.0222 81.5622C80.4412 81.864 80.8601 82.1659 81.2192 82.4677C81.2192 82.1055 81.2192 81.7433 81.1594 81.381C81.0397 80.5962 81.0397 80.5962 81.0397 80.2944C81.0397 78.8454 81.2192 74.4987 81.0995 72.0234C81.0995 70.5141 80.92 68.5822 80.8601 67.6767C80.8003 65.9863 80.6806 64.2958 80.2616 62.6658C79.9623 61.5791 79.5434 60.3113 78.6456 59.5868C77.9872 59.2246 77.269 60.1302 77.8077 60.7339C79.5434 62.9073 79.0646 65.5033 78.885 69.0048Z" fill="black"/>
</g>
<path d="M76.7303 59.5869C75.7128 59.5869 74.6355 59.3454 73.618 58.9228C73.0794 58.6813 72.6604 58.4398 72.3013 58.138C71.5831 57.5343 71.0444 56.6287 70.7451 55.3609C70.5656 54.576 70.4459 53.912 70.4459 53.2479C70.4459 52.463 70.6853 51.6178 71.0444 50.7123C71.7028 49.1426 72.6604 47.8748 73.8574 47.0296C75.234 46.0636 76.85 45.641 78.3463 45.8825C79.8426 46.124 81.2192 47.2711 82.117 48.9615C82.8352 50.2897 83.1944 51.9197 83.0747 53.6705C83.0148 54.3949 82.9549 54.9383 82.7754 55.4816C82.2367 57.172 80.7404 58.6209 78.9449 59.2247C78.2266 59.4662 77.5084 59.5869 76.7303 59.5869ZM77.5084 46.6674C76.4311 46.6674 75.3537 47.0296 74.3961 47.6937C73.3786 48.4785 72.4808 49.5652 71.8823 50.9537C71.5232 51.7386 71.3436 52.5234 71.3436 53.1875C71.3436 53.7308 71.4035 54.3346 71.5831 55.059C71.8823 56.1457 72.3013 56.8702 72.8998 57.4135C73.1991 57.655 73.5582 57.8361 73.9771 58.0776C75.5333 58.7417 77.2091 58.8021 78.6456 58.3191C80.2017 57.7757 81.3988 56.5683 81.8776 55.1194C81.9973 54.6968 82.117 54.1534 82.1769 53.5497C82.2966 51.9801 81.9973 50.5311 81.3389 49.3237C80.9798 48.6596 79.9025 47.0296 78.2266 46.7277C77.9872 46.7277 77.7478 46.6674 77.5084 46.6674Z" fill="black"/>
<path d="M81.5783 83.1319C81.4586 83.1319 81.3988 83.0715 81.2791 83.0715C80.8003 82.7093 80.2616 82.3471 79.7828 81.9848C78.5857 81.0793 77.3887 80.234 76.1917 79.3888C75.5931 78.9662 74.9946 78.5436 74.3961 78.121C73.0195 77.1551 71.5831 76.1288 70.2065 75.1628C70.0868 75.0421 69.967 74.9213 70.0269 74.7402C70.386 71.8424 70.7451 68.9445 71.2239 65.9259C71.5232 64.1148 71.8823 62.4244 72.8399 60.9755C73.7976 59.5869 75.7128 58.3191 77.6281 58.9228C79.5434 59.4662 80.7404 61.5188 81.1594 65.0204C81.8178 70.9972 81.9973 77.0343 82.117 82.7093C82.117 82.8904 81.9973 83.0715 81.8776 83.1319C81.6981 83.1319 81.6382 83.1319 81.5783 83.1319ZM70.9247 74.4987C72.3013 75.4043 73.618 76.3703 74.9348 77.2758C75.5333 77.6984 76.1318 78.121 76.7303 78.5436C77.9274 79.3888 79.1843 80.2944 80.3813 81.1396C80.6207 81.3207 80.8601 81.5019 81.1594 81.683C81.0397 76.3099 80.8601 70.6349 80.2616 65.0204C79.9025 61.9414 78.9449 60.1303 77.3887 59.7077C75.9523 59.2851 74.3961 60.251 73.618 61.3981C72.7202 62.6659 72.421 64.2355 72.1217 65.9863C71.5831 68.9445 71.2239 71.7216 70.9247 74.4987Z" fill="black"/>
<path d="M42.0161 70.0312C43.273 70.0312 44.5299 70.0312 45.7868 69.9708C47.0437 69.9104 48.3605 69.85 49.6173 69.7897C49.7371 69.7897 49.7969 69.7897 49.9166 69.7897C49.7371 67.7974 49.5575 65.8051 49.3181 63.8129C49.0188 60.7339 48.7196 57.5946 47.4028 54.8779C47.0437 54.2138 46.6247 53.4893 46.0262 53.0667C44.5898 52.1008 42.495 52.8252 41.4176 54.2138C40.3403 55.6023 40.041 57.4135 39.8016 59.1643C39.3228 62.7866 39.0235 66.3485 38.7841 69.9708C39.8615 70.0312 40.9388 70.0312 42.0161 70.0312Z" fill="#3943ED"/>
<g opacity="0.1294">
<path opacity="0.1294" d="M49.9166 45.2184C49.6772 44.9165 49.1385 45.158 49.1984 45.5203C49.1984 45.9429 48.8393 46.8484 48.5999 47.5125C48.121 48.8407 47.0437 49.9274 45.3679 50.7726C44.7693 51.0141 43.3927 51.3159 42.076 51.2556C41.7767 51.2556 41.4176 51.1348 40.7592 51.0141C40.5797 50.9537 40.4001 51.0141 40.2804 51.0745C39.8016 51.3159 39.9213 52.1008 40.46 52.2215C42.6147 52.946 45.1284 52.5234 47.1036 51.3763C47.8816 50.833 48.7196 50.1689 49.0787 49.2633L49.0188 49.384C49.3181 48.9011 49.5575 48.3577 49.7371 47.8144C49.9166 47.271 50.0363 46.4258 50.0363 46.124C50.0363 45.8825 50.156 45.4599 49.9166 45.2184Z" fill="black"/>
</g>
<g opacity="0.1294">
<path opacity="0.1294" d="M46.505 55.9645C46.6247 56.7493 46.6247 56.8097 46.7445 57.8964C46.7445 58.1379 46.7445 58.3794 46.7445 58.6209C46.7445 58.5605 46.7445 58.5605 46.7445 58.5001C46.7445 59.285 46.924 60.0698 46.9839 60.8546C47.0437 63.4506 47.1634 66.0466 47.2233 68.6426C47.2233 69.0652 47.2831 69.4878 47.2831 69.9104C48.0612 69.85 48.8393 69.85 49.6174 69.7896H49.6772C49.6174 67.6766 49.5575 65.624 49.3779 63.511C49.1385 60.4924 49.0188 58.802 48.6597 57.5342C48.4802 56.2664 48.2408 55.6023 48.0013 55.1797C47.7021 54.3949 47.2233 53.7308 46.6846 53.127C46.3853 52.8252 46.2058 52.4026 45.727 52.4026C45.1883 52.4026 44.8292 53.127 45.2481 53.5496C46.2656 54.6967 46.2656 54.9986 46.505 55.9645Z" fill="black"/>
</g>
<path d="M43.8117 53.0667C42.9139 53.0667 42.0161 52.8856 41.1782 52.5837C40.5797 52.4026 40.1607 52.1611 39.8016 51.8593C39.0235 51.2555 38.4849 50.4103 38.0659 49.2029C37.8265 48.4181 37.7068 47.754 37.6469 47.0899C37.6469 46.3051 37.7666 45.4599 38.1258 44.4939C38.6644 42.9242 39.5622 41.5961 40.6994 40.6301C42.0161 39.5434 43.6321 39.0605 45.1285 39.1812C46.6248 39.3623 48.0612 40.3886 49.0787 42.0187C49.8568 43.2865 50.2757 44.9165 50.3356 46.6673C50.3356 47.3918 50.2757 47.9351 50.156 48.4784C49.7371 50.2292 48.3605 51.7385 46.5649 52.463C45.6671 52.9459 44.7693 53.0667 43.8117 53.0667ZM44.5299 40.1471C43.3927 40.1471 42.1957 40.5697 41.2381 41.4149C40.2206 42.2602 39.4425 43.4072 38.9637 44.8561C38.6644 45.7013 38.5447 46.4258 38.5447 47.0899C38.5447 47.6332 38.6644 48.237 38.9038 48.901C39.2629 49.9274 39.7418 50.6518 40.3403 51.1348C40.6395 51.3763 40.9987 51.5574 41.4775 51.7385C43.0336 52.2819 44.7693 52.2819 46.1459 51.6781C47.6422 51.0744 48.8393 49.7462 49.1984 48.2973C49.3181 47.8144 49.3779 47.3314 49.3779 46.6673C49.3779 45.0976 49.0188 43.6487 48.3006 42.5016C47.8816 41.8376 46.7445 40.2679 45.0087 40.0868C44.8292 40.1471 44.7095 40.1471 44.5299 40.1471Z" fill="black"/>
<path d="M42.9738 70.5142C42.6745 70.5142 42.3154 70.5142 42.0161 70.5142C41.5373 70.5142 41.1184 70.5142 40.6395 70.5142C40.041 70.5142 39.3826 70.5142 38.7841 70.5142C38.6644 70.5142 38.5447 70.4538 38.4849 70.3934C38.425 70.2727 38.3652 70.152 38.3652 70.0312C38.5447 66.4089 38.7841 63.0281 39.1432 59.768C39.3228 57.9569 39.5622 56.2061 40.46 54.6968C41.2979 53.2479 43.1533 51.8593 45.1284 52.3423C47.1036 52.7649 48.4203 54.7572 49.0188 58.1984C49.6174 61.5792 50.0962 65.2618 50.5151 69.7294C50.5151 69.8501 50.5151 69.9708 50.3954 70.0916C50.3356 70.2123 50.2159 70.2727 50.0962 70.2727H49.7371C48.7794 70.3331 47.8816 70.3331 46.924 70.3934L45.9065 70.4538C44.9489 70.5142 43.9913 70.5142 42.9738 70.5142ZM39.2629 69.5482C39.7418 69.5482 40.1607 69.5482 40.6395 69.5482C41.1184 69.5482 41.5373 69.5482 42.0161 69.5482C43.3927 69.5482 44.5898 69.5482 45.727 69.4879L46.7445 69.4275C47.6422 69.3671 48.54 69.3671 49.4378 69.3068C49.0188 65.0204 48.54 61.5188 48.0013 58.3191C47.4627 55.2401 46.3853 53.5497 44.8292 53.1875C43.3927 52.8253 41.8964 53.912 41.1184 55.1194C40.3403 56.4476 40.1009 58.0172 39.9213 59.768C39.6819 62.9074 39.4425 66.1071 39.2629 69.5482Z" fill="black"/>
<path d="M0.478816 88.2634C0.29926 88.2634 0.119703 88.1426 0.0598514 87.9615C-6.10948e-07 87.7804 0.0598514 87.5389 0.239408 87.4182C6.16476 83.4336 11.312 79.9321 15.8608 76.7927C19.4519 74.3175 22.8635 72.0234 25.9758 69.9104C26.0356 69.85 26.1553 69.85 26.2152 69.85C32.6194 69.7896 39.2629 69.6689 45.6073 69.5481C51.1735 69.4274 56.9792 69.367 62.6651 69.3066C62.7249 69.3066 62.8447 69.3066 62.9045 69.367C68.4707 72.6875 74.037 76.7927 79.4237 80.7773C82.5958 83.1318 85.6483 85.3655 88.6409 87.4182C88.8204 87.5389 88.8803 87.72 88.8204 87.9615C88.7606 88.1426 88.581 88.2634 88.4015 88.2634C87.384 88.2634 84.5111 88.2634 80.6207 88.203C63.3833 88.0823 22.7438 87.7804 0.478816 88.2634ZM34.2354 87.0559C52.1311 87.0559 70.5057 87.1767 80.7404 87.2974C83.4338 87.2974 85.5884 87.3578 87.0249 87.3578C84.3914 85.4863 81.6382 83.494 79.0047 81.5017C73.6779 77.5776 68.1116 73.4723 62.6651 70.2122C56.9792 70.2726 51.2932 70.3933 45.727 70.4537C39.3826 70.5744 32.7989 70.6952 26.4546 70.7556C23.3423 72.8082 19.9906 75.1023 16.4593 77.5776C12.2697 80.4754 7.54136 83.6751 2.09482 87.2974C10.9529 87.1163 22.5044 87.0559 34.2354 87.0559Z" fill="black"/>
<path d="M75.3538 92.912C63.9819 92.912 43.273 92.8516 5.98521 92.6705C2.69334 92.6705 0.718225 92.6705 0.418964 92.6705C0.29926 92.6705 0.179556 92.6101 0.0598521 92.5498C0.0598521 92.3687 0 92.2479 0 92.1272C0.0598521 90.5575 0.0598521 89.2293 0 88.0823C0 87.8408 0.179556 87.5993 0.418964 87.5993C0.658373 87.5993 0.897781 87.7804 0.897781 88.0219C0.957633 89.1086 0.957633 90.316 0.897781 91.7046C1.73571 91.7046 3.47142 91.7046 5.98521 91.7046C57.039 91.946 84.6308 92.0064 88.0424 91.8857C88.1022 91.1008 88.0424 90.1953 88.0424 89.2897C88.0424 88.7463 88.0424 88.203 88.0424 87.72C88.0424 87.4785 88.2219 87.2371 88.5212 87.2371C88.7606 87.2371 89 87.4182 89 87.72C89 88.1426 89 88.686 89 89.2293C89 90.316 89.0599 91.4027 89 92.3083C89 92.4894 88.8803 92.6101 88.7008 92.6705C88.4015 92.8516 85.9476 92.912 75.3538 92.912Z" fill="black"/>
<path d="M15.1426 39.1208C16.8783 36.223 17.1177 32.5403 15.7411 29.4613C14.8433 27.4691 13.347 25.7787 12.15 23.9071C10.9529 22.0356 10.0551 19.8622 10.4741 17.5077C10.7734 15.8777 11.1923 14.2477 11.8507 12.7384C13.6463 8.75383 17.1775 5.73525 21.1278 3.9241C25.078 2.11294 29.4472 1.38848 33.8164 1.02625C37.9462 0.784766 42.076 0.603651 46.1459 0.543279C51.1136 0.482908 56.2011 0.724395 60.8097 2.65629C63.0841 3.62224 65.119 5.07116 66.6752 6.94268C68.2313 8.81421 69.2488 11.1687 69.4284 13.6439C70.386 14.0665 71.1641 14.791 71.8823 15.6362C74.0968 18.2322 75.1742 21.8545 74.7552 25.2353C74.3362 28.6765 72.421 31.8762 69.6079 33.8081C69.4284 33.9288 69.189 34.11 69.0693 34.3514C69.0094 34.5326 69.0094 34.774 69.0693 35.0155C69.3685 36.9474 69.6079 38.819 69.7875 40.7508C68.7101 40.0264 67.8124 39.0604 66.7949 38.2756C64.0417 36.0419 60.4506 34.774 56.7996 34.774C53.9267 34.8344 51.0538 35.3778 48.1809 35.6193C45.308 35.9211 42.3154 35.9211 39.5622 35.0155C36.809 34.11 34.2952 32.1177 33.158 29.4613C29.6866 28.918 26.0955 30.0651 23.1627 31.9366C20.1701 33.8685 17.7162 36.4645 15.1426 39.1208Z" fill="white"/>
<g opacity="0.1294">
<path opacity="0.1294" d="M74.9348 22.579C74.8151 21.0094 74.3961 19.4397 73.8574 17.9908C73.4385 17.5682 73.0793 17.0852 72.7801 16.5419C72.6005 16.24 72.4808 15.9381 72.3611 15.6967C71.7626 15.9381 72.2414 16.6626 72.3611 17.1456C72.6005 18.0512 72.8998 18.9567 73.0793 19.8623C73.3786 21.1301 73.3786 22.7601 73.1392 23.7261C73.0195 24.9939 72.4808 27.1673 71.8823 28.1936C70.6853 30.0651 70.2065 30.6688 68.8897 32.2385C68.77 32.2989 68.7102 32.3593 68.5904 32.4196C68.4707 32.5404 68.2912 32.7215 68.1715 32.9026C67.7525 33.1441 67.573 33.2045 67.0343 33.3856C66.1964 33.5667 66.0767 33.6271 64.9993 33.5667C64.8796 33.5667 64.8198 33.5063 64.7001 33.5063C64.341 33.4459 63.922 33.2648 63.5629 33.3252C63.3833 33.2648 63.2038 33.2045 63.0242 33.1441C62.0666 32.8422 61.1089 32.6611 60.0915 32.5404C56.8594 32.1781 53.2683 32.963 52.2508 33.0233C50.3954 33.1441 46.924 33.2045 46.1459 33.4459C44.7693 33.5063 43.3927 33.3252 41.9563 33.3252C41.7169 33.3252 41.4775 33.2648 41.2381 33.2648C41.1184 33.2648 40.9388 33.2045 40.8191 33.2045C38.9637 32.6611 38.1258 32.2989 36.3302 31.0914C35.6718 30.7292 35.4324 30.5481 35.0135 30.0651C37.5871 30.0651 40.1009 30.1255 42.6745 30.0048C46.2656 29.7633 49.9166 29.6425 53.5077 29.3407C56.5003 29.2803 59.7922 28.4955 61.5878 27.7106C63.9818 26.7447 66.735 24.8128 68.1715 21.3112C68.5306 20.4057 68.77 19.4397 69.0094 18.4738C69.0693 18.1719 69.1291 17.87 69.189 17.5682C69.1291 17.9908 69.2488 17.3267 69.1291 17.1456C69.1291 17.0852 69.0693 17.0852 69.0094 17.0248C68.9496 17.2059 68.8299 17.3871 68.77 17.6286C68.4109 18.4134 67.9919 19.1378 67.3934 19.8019C66.9146 20.3453 66.5555 21.0094 65.957 21.5527L65.8971 21.6131C65.2387 22.4583 64.6402 22.9413 63.4432 23.8468C63.0242 24.1487 60.2112 26.2013 55.7821 26.5636C55.0639 26.4428 54.226 26.5636 53.388 26.5636C53.2085 26.5636 51.1735 26.8051 50.0962 26.9258C48.3605 27.1673 46.5649 27.2277 44.7693 27.288C42.3154 27.5295 39.8615 27.5899 37.4075 27.5899C35.7915 27.5899 34.1157 27.4691 32.4997 27.4691C30.8238 27.5295 29.1479 27.7106 27.5319 28.0729C25.7962 28.5558 24.4795 28.8577 22.4445 29.884C21.427 30.4274 20.4694 31.0311 19.5716 31.6952C18.9731 32.1781 18.3147 32.6007 17.9556 33.3252C18.0155 33.2648 18.0155 33.2045 17.8359 33.4459C17.4169 34.11 17.4768 33.8685 17.2972 34.2912C17.2972 34.2308 17.2972 34.2308 17.3571 34.1704C16.9381 34.8949 16.3995 35.559 15.9206 36.2834C15.8608 36.5249 15.8009 36.8268 15.7411 37.0683C15.6812 37.2494 15.6812 37.3701 15.6214 37.5512C15.8009 37.9738 16.2798 38.1549 16.7586 38.0946C17.2972 37.3701 17.8958 36.6456 18.5541 36.0419C19.5118 35.1364 20.4694 34.2308 21.4869 33.3856C22.5642 32.48 23.6416 31.7555 24.8985 31.2122C26.1553 30.6688 27.4721 30.1859 28.8487 29.9444C29.5071 29.8236 30.2253 29.7029 30.8837 29.6425C31.6019 29.5822 32.3201 29.5822 33.0383 29.5218C33.6369 29.4614 33.8164 30.1859 33.6369 30.6085C34.0558 31.1518 33.9361 31.0914 34.774 31.997C36.2703 33.4459 38.5447 34.6534 39.7418 35.076C41.3578 35.6193 43.0935 35.7401 44.8292 35.8608C48.0013 35.8608 46.924 35.6193 49.1984 35.4986C50.8144 35.3175 52.4304 35.2571 54.0464 34.9552C56.0814 34.7741 58.1163 34.7138 60.1513 34.7138C61.4681 34.8345 61.4082 34.6534 63.2038 35.3175C63.4432 35.4382 63.3235 35.3778 63.2038 35.2571C63.8621 35.7401 63.503 35.3778 64.2811 35.8004C64.8198 36.1023 65.119 36.223 65.4183 36.3438C65.4183 36.4042 65.3584 36.4042 65.3584 36.4645C66.2562 37.0683 67.0343 37.7927 67.7525 38.5172C68.2313 39.0001 68.7102 39.5435 69.1291 40.0265C69.7875 40.0868 70.2663 39.4227 69.8473 38.8794C69.8473 38.819 69.7875 38.7587 69.7875 38.6983C69.6678 37.6116 69.4284 37.672 69.189 36.4645C69.0693 35.9212 69.2488 35.1967 69.3087 34.7138C69.3087 34.6534 69.3087 34.593 69.3685 34.5326C69.3685 34.4723 69.4284 34.4119 69.4284 34.3515C69.7276 33.8685 69.4882 34.1704 69.967 33.6874C70.1466 33.5063 70.2065 33.3252 70.2065 33.1441C70.805 32.5404 71.4035 31.997 71.9422 31.3933C72.8399 30.2462 73.5582 28.9181 74.0968 27.5899C74.0968 27.5899 74.0968 27.5295 74.1567 27.5295C74.0968 27.6503 74.6355 26.4428 74.6954 26.2013C74.8749 24.9335 74.9946 23.7261 74.9348 22.579Z" fill="black"/>
</g>
<path d="M14.6638 40.0868C14.544 40.0868 14.4842 40.0264 14.3645 39.966C14.1849 39.8453 14.1251 39.5434 14.2448 39.3623C16.2199 36.1626 16.3995 31.9366 14.6039 28.6162C14.1251 27.7106 13.5266 26.8654 12.928 26.0805C12.2697 25.175 11.5514 24.209 11.0726 23.1827C7.90047 16.7229 11.9704 8.87461 17.5965 5.2523C23.5219 1.44888 31.1231 0.905539 37.1681 0.482937C43.3329 0.060335 49.7371 -0.422639 56.0215 0.784796C60.3309 1.63 63.6227 3.13929 65.957 5.37305C68.7102 7.96903 70.0868 12.0743 69.7276 16.3003C69.3685 20.5264 67.2737 24.3298 64.1614 26.4428C59.7922 29.401 54.0464 29.4614 49.4976 29.5217L36.3302 29.6425C32.7391 29.7029 28.729 29.7029 25.2576 31.2725C22.1453 32.6611 19.6913 35.257 17.2972 37.7323C16.579 38.4568 15.8009 39.2416 15.0827 39.966C14.9032 40.0264 14.7835 40.0868 14.6638 40.0868ZM46.9839 0.905539C43.692 0.905539 40.46 1.14703 37.228 1.38851C30.9435 1.87149 23.8211 2.35446 18.1352 6.03714C12.8682 9.41795 8.97781 16.7833 11.9704 22.7601C12.4492 23.7261 13.1076 24.6316 13.766 25.5372C14.3645 26.3824 15.0229 27.288 15.5017 28.1936C16.998 31.031 17.2374 34.4118 16.2199 37.4304C16.3396 37.3097 16.4593 37.1889 16.579 37.0682C19.033 34.5326 21.5467 31.9366 24.8386 30.4273C28.4896 28.7973 32.6194 28.7369 36.2703 28.6765L49.4378 28.5558C53.9267 28.4954 59.4331 28.435 63.6227 25.6579C66.5555 23.7261 68.4707 20.1641 68.8299 16.24C69.189 12.3158 67.8722 8.51238 65.2986 6.03714C63.0841 3.92413 59.9718 2.4752 55.842 1.69037C52.9092 1.08665 49.9166 0.905539 46.9839 0.905539Z" fill="black"/>
<path d="M70.0868 41.7772C69.967 41.7772 69.8473 41.7169 69.7276 41.6565C68.0518 39.785 66.2562 37.8531 64.0417 36.706C60.69 34.9552 56.5003 35.1967 53.3282 35.559C52.61 35.6797 51.8319 35.7401 51.1137 35.8608C48.1211 36.2834 45.0686 36.706 42.076 36.2834C38.7243 35.8608 34.3551 33.8686 32.9785 29.7633C32.9186 29.5218 33.0383 29.2803 33.2777 29.1596C33.5171 29.0992 33.7566 29.2199 33.8763 29.4614C35.1332 33.1441 39.1432 34.9552 42.1957 35.3778C45.1284 35.7401 48.121 35.3175 50.9939 34.9552C51.772 34.8345 52.4902 34.7741 53.2683 34.6534C56.62 34.2308 60.9294 33.9893 64.5205 35.8608C66.4358 36.8268 67.9919 38.3964 69.4284 39.9057L68.7102 35.6797C68.6503 35.2571 68.5306 34.6534 68.8299 34.11C69.0094 33.7478 69.3685 33.5063 69.6678 33.2648L69.7276 33.2045C72.6604 31.0311 74.5158 27.3484 74.5158 23.6657C74.5158 19.9831 72.6604 16.3608 69.7276 14.1874C69.5481 14.0666 69.4882 13.7648 69.6079 13.5233C69.7276 13.3422 70.0269 13.2818 70.2663 13.4025C73.4385 15.757 75.4136 19.6812 75.4136 23.6657C75.4136 27.6503 73.4385 31.5744 70.2663 33.9289L70.2065 33.9893C69.9671 34.1704 69.7875 34.2912 69.6678 34.5326C69.5481 34.7741 69.6079 35.1364 69.6678 35.559L70.6254 41.2943C70.6853 41.4754 70.5656 41.7169 70.386 41.7772C70.2065 41.7772 70.1466 41.7772 70.0868 41.7772Z" fill="black"/>
<path d="M29.6866 18.5341C28.2502 18.5341 27.113 17.3871 27.113 15.9381C27.113 14.4892 28.2502 13.3422 29.6866 13.3422C31.1231 13.3422 32.2603 14.4892 32.2603 15.9381C32.2603 17.3871 31.1231 18.5341 29.6866 18.5341ZM29.6866 14.2477C28.7888 14.2477 28.0108 15.0326 28.0108 15.9381C28.0108 16.8437 28.7888 17.6286 29.6866 17.6286C30.5844 17.6286 31.3625 16.8437 31.3625 15.9381C31.3625 15.0326 30.6442 14.2477 29.6866 14.2477Z" fill="black"/>
<path d="M39.8615 18.5341C38.425 18.5341 37.2878 17.3871 37.2878 15.9381C37.2878 14.4892 38.425 13.3422 39.8615 13.3422C41.2979 13.3422 42.4351 14.4892 42.4351 15.9381C42.4351 17.3871 41.2979 18.5341 39.8615 18.5341ZM39.8615 14.2477C38.9637 14.2477 38.1856 15.0326 38.1856 15.9381C38.1856 16.8437 38.9637 17.6286 39.8615 17.6286C40.7592 17.6286 41.5373 16.8437 41.5373 15.9381C41.5373 15.0326 40.7592 14.2477 39.8615 14.2477Z" fill="black"/>
<path d="M50.0962 18.5341C48.6597 18.5341 47.5225 17.3871 47.5225 15.9381C47.5225 14.4892 48.6597 13.3422 50.0962 13.3422C51.5326 13.3422 52.6698 14.4892 52.6698 15.9381C52.6698 17.3871 51.5326 18.5341 50.0962 18.5341ZM50.0962 14.2477C49.1984 14.2477 48.4203 15.0326 48.4203 15.9381C48.4203 16.8437 49.1984 17.6286 50.0962 17.6286C50.994 17.6286 51.772 16.8437 51.772 15.9381C51.772 15.0326 50.994 14.2477 50.0962 14.2477Z" fill="black"/>
</g>
<defs>
<clipPath id="clip0_109_736">
<rect width="89" height="92.9121" fill="white"/>
</clipPath>
</defs>
</svg>
