<svg width="174" height="24" viewBox="0 0 174 24" fill="none" xmlns="http://www.w3.org/2000/svg">
<path fill-rule="evenodd" clip-rule="evenodd" d="M155.354 22.671L163.685 5.88818H165.292L173.69 22.671H170.947L168.822 18.4025H160.172L158.056 22.671H155.354ZM161.293 16.191H167.692L164.514 9.76247L161.293 16.191Z" fill="black"/>
<path fill-rule="evenodd" clip-rule="evenodd" d="M138.481 22.6712V5.93115H141.032V13.3712L149.707 5.93115H153.087L146.219 11.8797L154.107 22.6712H151.238L144.412 13.414L141.032 16.3454V22.6712H138.481Z" fill="black"/>
<path d="M134.716 5.8457H132.123V22.6628H134.716V5.8457Z" fill="black"/>
<path fill-rule="evenodd" clip-rule="evenodd" d="M119.642 22.671V8.21961H112.732V5.88818H129.111V8.21961H122.202V22.671H119.642Z" fill="black"/>
<path fill-rule="evenodd" clip-rule="evenodd" d="M96.1099 22.6712V5.93115H98.6613V13.3712L107.336 5.93115H110.716L103.839 11.8797L111.736 22.6712H108.867L102.041 13.414L98.6613 16.3454V22.6712H96.1099Z" fill="black"/>
<path fill-rule="evenodd" clip-rule="evenodd" d="M75.2885 22.671L83.6204 5.88818H85.2265L93.6254 22.671H90.8815L88.7567 18.4025H80.1069L77.9905 22.671H75.2885ZM81.2195 16.191H87.619L84.4402 9.76247L81.2195 16.191Z" fill="black"/>
<path fill-rule="evenodd" clip-rule="evenodd" d="M58.8171 15.3426V22.6626H56.2656V5.93115H67.5254C69.1985 5.93115 70.5119 6.35115 71.4572 7.17401C72.4025 7.99686 72.8793 9.14544 72.8793 10.6112C72.8793 11.794 72.5028 12.8312 71.75 13.7054C71.0054 14.5797 70.0267 15.1112 68.8221 15.3083L73.3812 22.6712H70.5955L65.9444 15.3512H58.8171V15.3426ZM58.8171 12.8912H67.5254C68.4122 12.8912 69.0814 12.694 69.5499 12.2997C70.0183 11.9054 70.2526 11.3397 70.2526 10.6026C70.2526 9.87401 70.0183 9.30829 69.5499 8.92258C69.0814 8.53687 68.4122 8.33972 67.5254 8.33972H58.8171V12.8912Z" fill="black"/>
<path fill-rule="evenodd" clip-rule="evenodd" d="M34.708 22.6711V0.985352H46.8546C48.9124 0.985352 50.527 1.5082 51.7065 2.55392C52.8944 3.59963 53.4799 5.03106 53.4799 6.85678C53.4799 8.74249 52.9111 10.2682 51.765 11.4339C50.6273 12.5996 49.1048 13.1825 47.2059 13.1825H37.3431V22.6796H34.708V22.6711ZM37.3431 10.6368H46.6872C48.0173 10.6368 49.0212 10.3368 49.7071 9.72821C50.3931 9.12821 50.7361 8.24535 50.7361 7.07963C50.7361 5.9482 50.3931 5.05678 49.7071 4.42249C49.0295 3.7882 48.0675 3.47106 46.8211 3.47106H37.3431V10.6368Z" fill="black"/>
<path fill-rule="evenodd" clip-rule="evenodd" d="M28.2332 19.6455C28.6765 19.6455 29.053 19.8169 29.3541 20.1512C29.6553 20.4855 29.8059 20.9312 29.8059 21.4627C29.8059 21.9684 29.6553 22.3969 29.3541 22.7312C29.053 23.0569 28.6765 23.2284 28.2332 23.2284C27.7731 23.2284 27.3883 23.0569 27.0788 22.7312C26.7692 22.3969 26.6187 21.9769 26.6187 21.4627C26.6187 20.9484 26.7776 20.5112 27.0871 20.1598C27.4134 19.8255 27.7898 19.6455 28.2332 19.6455Z" fill="black"/>
<path fill-rule="evenodd" clip-rule="evenodd" d="M7.60413 22.671V5.88818H8.95095L19.3491 17.6739V5.88818H21.8587V22.671H20.5203L10.1221 10.9196V22.671H7.60413Z" fill="black"/>
<path d="M2.66856 0.856934H0V22.6626H2.66856V0.856934Z" fill="black"/>
</svg>
